<?xml version="1.0" encoding="utf-8"?>
<!-- Generator: Adobe Illustrator 15.0.0, SVG Export Plug-In . SVG Version: 6.00 Build 0)  -->
<!DOCTYPE svg PUBLIC "-//W3C//DTD SVG 1.1//EN" "http://www.w3.org/Graphics/SVG/1.1/DTD/svg11.dtd">
<svg version="1.1" xmlns="http://www.w3.org/2000/svg" xmlns:xlink="http://www.w3.org/1999/xlink" x="0px" y="0px"
	 width="100%" height="2600px" preserveAspectRatio="none" viewBox="0 0 1600 2373.7" style="enable-background:new 0 0 1600 2373.7;" xml:space="preserve"
	>
<style type="text/css">
<![CDATA[
	.st0{fill:#AFB287;}
	.st1{fill:#B3B3B3;}
	.st2{fill:#B7625A;}
	.st3{fill:#57B180;}
	.st4{fill:#25CCBA;}
	.st5{fill:#F4BE75;}
	.st6{fill:#91ECAB;}
	.st7{fill:#C98666;}
	.st8{fill:#CE6757;}
	.st9{fill:#D7D5A8;}
]]>
</style>
<rect x="-1" class="st4" width="1601" height="2375"/>
<path class="st9" d="M352,1507c146-63,276-144,418-220c11-6,19-14,30-21c82-48,159-92,224-160c28-29,48-63,66-98c9-17,16-34,24-51
	c7-12,9-26,13-39c2-6,7-12,9-18c15-58,15-115,11-174c-1-12-6-24-8-36c0-5,1-10,0-15c-18-69-29-136-56-201c-3-7-2-14-4-21
	c-1-3-5-6-6-9c-0.4-1.7-0.3-3.4-0.1-5.1c-223.4-29.3-475.2-91.4-684.4-120.5c-11.1,19.6-22.9,38.3-32.5,59.7c-2,3-7,6-9,9
	c-3,6-3,12-6,18c-43,74-69,149-107,224c-20,39-42,74-67,112c-13,20-28,36-39,57c-5,9-12,15-18,24c-20,34-39,65-57,99c-4,9-5,18-9,27
	c-17.9,32.3-32.4,64.6-45,98.2v601c22.1-7.8,44.1-15.7,66-24.2C163,1587,257,1548,352,1507z"/>
<path class="st0" d="M1448,699c-20-41-37-80-50-123c-4-15-9-28-13-42c-1-6-1-12-3-18c-1-3-5-6-6-9c-3.7-19-7.1-37.5-9.9-55.7
	c-86.1,8.1-186.4,1.6-293.2-12.4c-0.2,1.7-0.3,3.4,0.1,5.1c1,3,5,6,6,9c2,7,1,14,4,21c27,65,38,132,56,201c1,5,0,10,0,15
	c2,12,7,24,8,36c4,59,4,116-11,174c-2,6-7,12-9,18c-4,13-6,27-13,39c-8,17-15,34-24,51c-18,35-38,69-66,98c-65,68-142,112-224,160
	c-11,7-19,15-30,21c-142,76-272,157-418,220c-95,41-189,80-287,116c-21.9,8.5-43.9,16.4-66,24.2V2374h1600V951.8
	c-54.3-75.6-102.8-154.6-142-240.8C1455,707,1450,703,1448,699z"/>
<path class="st9" d="M1366.1,451.3c2.7,18.2,6.2,36.7,9.9,55.7c1,3,5,6,6,9c2,6,2,12,3,18c4,14,9,27,13,42c13,43,30,82,50,123
	c2,4,7,8,9,12c39.2,86.2,87.7,165.1,142,240.8V348.9C1549.9,411.5,1468,441.7,1366.1,451.3z"/>
<path class="st0" d="M53,921c18-34,37-65,57-99c6-9,13-15,18-24c11-21,26-37,39-57c25-38,47-73,67-112c38-75,64-150,107-224
	c3-6,3-12,6-18c2-3,7-6,9-9c9.6-21.4,21.4-40.1,32.5-59.7C217,294.4,74.2,292.5-1,348.9v697.3c12.6-33.6,27.1-65.9,45-98.2
	C48,939,49,930,53,921z"/>
<path class="st1" d="M481,1845c8-37,22-68,23-105c0-49-1-97-8-147c-0.7-4.7-1.5-9.4-2.3-14.1c-25.9,96.6-52.6,187.7-65.7,287.1
	c-3,17-8,31-11,48c-3.1,17.3-5.7,34.5-7.7,51.6c24.2-34.6,47.3-69,63.7-108.6C475,1853,480,1849,481,1845z"/>
<path class="st8" d="M319,2118c4-7,6-14,10-21c15-20,21-42,34-63c14.9-23.8,30.8-46.2,46.3-68.4c2.1-17.1,4.6-34.3,7.7-51.6
	c3-17,8-31,11-48c13.1-99.4,39.9-190.5,65.7-287.1c-12.4-73.5-33.9-141.1-67.7-206.9c-38-77-78-150-108-229c-26-71-58-140-61-216
	c-4-96,24-186,50-279c6-23,12-46,18-69c14.1-51,32.5-98.3,48.5-147.7C156.7,419.1-1,466.3-1,643.9V2374h164c0.3-0.3,0.7-0.7,1-1
	c7-8,10-17,18-24c2-2,1-6,3-9c2-1,4-2,6-3c2-3,1-6,3-9c7-7,13-13,18-21c23-45,51-85,74-130C297,2157,308,2138,319,2118z"/>
<path class="st2" d="M318,1143c30,79,70,152,108,229c33.8,65.8,55.3,133.4,67.7,206.9c3.8-14.2,7.6-28.4,11.3-42.9
	c43-170,89-328,143-493c14-42,28-82,41-125c2-7,1-14,3-21c14-43,31-83,40-129c1-5,6-10,7-15c24.4-87.5,58.8-165.6,101.1-243.3
	c-162.5-38.1-326.8-70.6-466.6-78.5c-16,49.4-34.4,96.7-48.5,147.7c-6,23-12,46-18,69c-26,93-54,183-50,279
	C260,1003,292,1072,318,1143z"/>
<path class="st1" d="M409.3,1965.6c-15.5,22.2-31.4,44.5-46.3,68.4c-13,21-19,43-34,63c-4,7-6,14-10,21c-11,20-22,39-33,59
	c-23,45-51,85-74,130c-5,8-11,14-18,21c-2,3-1,6-3,9c-2,1-4,2-6,3c-2,3-1,7-3,9c-8,7-11,16-18,24c-0.3,0.3-0.7,0.7-1,1h265.8
	C407.6,2236.2,392.5,2103.9,409.3,1965.6z"/>
<path class="st2" d="M1599,643.9c-42,34-185.2,7.1-369.8-37.7c0,0.9-0.1,1.9-0.2,2.8c-1,3-2,6-3,9c0,6,1,12-1,18c-4,14-6,28-9,42
	c-16,69-35,133-40,201c-3,44-7,87-15,132c-24,137-51,260-81,396c-7,32-10,61-18,93c-53,226-121,431-195,647c-12,34-24,67-40,100
	c-22.4,44.5-46.7,86.1-72.2,127H1599V643.9z"/>
<path class="st8" d="M867,2147c74-216,142-421,195-647c8-32,11-61,18-93c30-136,57-259,81-396c8-45,12-88,15-132c5-68,24-132,40-201
	c3-14,5-28,9-42c2-6,1-12,1-18c1-3,2-6,3-9c0.1-0.9,0.1-1.9,0.2-2.8c-118-28.6-252.8-64.5-389.1-96.5
	C797.8,587.4,763.4,665.5,739,753c-1,5-6,10-7,15c-9,46-26,86-40,129c-2,7-1,14-3,21c-13,43-27,83-41,125c-54,165-100,323-143,493
	c-3.7,14.4-7.5,28.7-11.3,42.9c0.8,4.7,1.5,9.4,2.3,14.1c7,50,8,98,8,147c-1,37-15,68-23,105c-1,4-6,8-8,12
	c-16.4,39.6-39.6,74-63.7,108.6c-16.8,138.3-1.7,270.5,19.6,408.4h326c25.5-40.9,49.8-82.5,72.2-127C843,2214,855,2181,867,2147z"/>
<path class="st5" d="M527,2202c0-6,2-12,3-18c2-35-2-70-6-105c-1-9,1-18,0-27c-8-62-18-119-34-180c-23-85-49-165-79-246
	c-18-50-35-99-51-150c-13-42-26-83-30-126c-4-47-3-94,0-141c1-11,2-22,2-33c0-1,3-2,3-3c-1-40,8-80,22-118c6-16,11-33,15-50
	c4-15,11-27,15-42c0-2,4-4,4-6c1-9,6-16,8-24c1.6-5.7,4.6-11.4,7.3-17.2C215.3,844.4,77.8,817.2-1,995.3V2374h496.8
	c0.9-3.1,1.9-6.1,3.2-9C526,2312,527,2257,527,2202z"/>
<path class="st7" d="M527,2202c0,55-1,110-28,163c-1.3,2.9-2.3,5.9-3.2,9h433.6c7.3-29.3,13-58.7,9.7-88c-9-91-44-175-75-261
	c-5-13-6-26-10-39c-2-5-7-10-9-15c-11-37-22-73-37-109c-50-120-97-238-137-362c-3-9-9-18-11-27c-43-148-105-289-90-444
	c1.6-15.8,5.2-31,10.5-45.8c-62.3-23.5-120.4-47.2-174.3-67.3c-2.7,5.7-5.6,11.4-7.3,17.2c-2,8-7,15-8,24c0,2-4,4-4,6
	c-4,15-11,27-15,42c-4,17-9,34-15,50c-14,38-23,78-22,118c0,1-3,2-3,3c0,11-1,22-2,33c-3,47-4,94,0,141c4,43,17,84,30,126
	c16,51,33,100,51,150c30,81,56,161,79,246c16,61,26,118,34,180c1,9-1,18,0,27c4,35,8,70,6,105C529,2190,527,2196,527,2202z"/>
<path class="st5" d="M929.3,2374h97.5c-3.7-40.2-6.6-79.9-11.9-121c-16-115-26-225-30-339c0-12-4-24-5-36c-1-11,1-22,0-33
	c-4-41-8-82-6-123c3-54,5-108,7-162c2-46,8-91,14-138c4-25,10-47,13-72c3-26,13-48,18-75c6-27,16-51,23-78c1-7,1-14,3-21
	c9.5-25.7,18.9-50.9,29.1-75.7c-188.3-8-355.7-62.3-500.6-117.1c-5.3,14.8-8.9,30.1-10.5,45.8c-15,155,47,296,90,444c2,9,8,18,11,27
	c40,124,87,242,137,362c15,36,26,72,37,109c2,5,7,10,9,15c4,13,5,26,10,39c31,86,66,170,75,261
	C942.4,2315.3,936.6,2344.7,929.3,2374z"/>
<path class="st5" d="M1600,995.3c-106.5,48.8-208.4,78.3-305.7,93.3c1,7.8,2.4,14.3,8.7,22.4c2,2,0,7,1,11c7,17,14,34,20,51
	c12,39,28,75,40,114c13,42,27,81,39,123s16,83,22,126c5,36,5,72,7,108c3,38,3,77-11,114c-1,4,0,8,0,12c-5,28-12,54-22,81
	c-6,15-10,31-15,48c-48,146-125,268-218,396c-5,6-11,9-14,15c-12.9,23.5-29.2,42.9-43.7,64H1600V995.3z"/>
<path class="st7" d="M1166,2295c93-128,170-250,218-396c5-17,9-33,15-48c10-27,17-53,22-81c0-4-1-8,0-12c14-37,14-76,11-114
	c-2-36-2-72-7-108c-6-43-10-84-22-126s-26-81-39-123c-12-39-28-75-40-114c-6-17-13-34-20-51c-1-4,1-9-1-11
	c-6.3-8.1-7.7-14.6-8.7-22.4c-73.8,11.4-144.8,14.6-213.2,11.7c-10.3,24.8-19.7,50.1-29.1,75.7c-2,7-2,14-3,21c-7,27-17,51-23,78
	c-5,27-15,49-18,75c-3,25-9,47-13,72c-6,47-12,92-14,138c-2,54-4,108-7,162c-2,41,2,82,6,123c1,11-1,22,0,33c1,12,5,24,5,36
	c4,114,14,224,30,339c5.3,41.1,8.2,80.8,11.9,121h81.4c14.5-21.1,30.8-40.5,43.7-64C1155,2304,1161,2301,1166,2295z"/>
<path class="st3" d="M578,2064c-2-6-7-12-9-18c-2-7-1-14-3-21c-18-55-30-111-30-168c0-6-3-12-3-18c2-41-5-83,8-123c2-9,4-15,6-21
	c9-36.2,19.2-70.1,30.5-103.8c-92.3,7.8-196.1,0.2-317.9-33.5c-6,14.4-11,29.4-15.6,44.4c-1,3-4,5-5,9c0,3,0,6,0,9c-1,8-6,14-9,21
	c-3,9-5,18-7,27c-8,32-12,63-19,96c-6,30-5,60-8,90c-2,31-6,66,7,96c1,4-1,8,0,12c30,116,84,221,84,339c0,7,2,14,3,21
	c0,15,2,30-1,45c-0.4,2.3-0.7,4.7-0.9,7h394.1c-35.5-95.7-72.4-189.1-101.2-289C579,2078,580,2071,578,2064z"/>
<path class="st6" d="M941,2358c5-5,8-12,12-18c4-4,8-7,12-12c14-21,25-40,33-63c1-3-1-7,1-9c5-6,4-14,7-21c2-5,0-12,1-18
	c6-29,2-58,3-87c0-3-3-6-3-9c3-25-8-45-13-69c-10-44-29-82-46-122c-27-61-48-123-74-184c-3-6-6-13-9-21c-3-12-11-22-17-33
	c-2-5-1-10-3-15s-6-10-9-15c-13-26-20-52-31-79c-5.9-12.5-11.2-25-15.9-37.9c-64.9,22.1-134.2,39.5-211.5,46.1
	c-11.3,33.8-21.5,67.7-30.5,103.8c-2,6-4,12-6,21c-13,40-6,82-8,123c0,6,3,12,3,18c0,57,12,113,30,168c2,7,1,14,3,21c2,6,7,12,9,18
	c2,7,1,14,3,21c28.8,99.9,65.7,193.3,101.2,289h243.4C930.6,2368.6,935.7,2363.3,941,2358z"/>
<path class="st3" d="M1441,2163c-4-25-11-47-15-72c-2-11-5-22-9-33c-16-50-36-97-64-143c-21-34-38-69-67-97c-3-3-3-8-6-12
	c-16-17-30-34-43-53c-8-13-20-19-28-32c-22-32-44-58-70-86c-3-4-3-9-6-12c-20-17-36-35-54-54c-3-3-3-9-6-11c-28-23-47-49-68-77
	c-4.2-5.7-8.2-11.4-11.8-17.3c-66.2,27.2-132.5,57.1-204.1,81.4c4.7,12.9,10,25.4,15.9,37.9c11,27,18,53,31,79c3,5,7,10,9,15
	s1,10,3,15c6,11,14,21,17,33c3,8,6,15,9,21c26,61,47,123,74,184c17,40,36,78,46,122c5,24,16,44,13,69c0,3,3,6,3,9c-1,29,3,58-3,87
	c-1,6,1,13-1,18c-3,7-2,15-7,21c-2,2,0,6-1,9c-8,23-19,42-33,63c-4,5-8,8-12,12c-4,6-7,13-12,18c-5.3,5.3-10.4,10.6-15.4,16h505
	c3.8-9.2,7.2-18.5,10.3-28C1461,2286,1453,2225,1441,2163z"/>
<path class="st6" d="M1599,1456.5c-260.9-116.2-432.7-63.9-605.8,7.1c3.6,5.9,7.5,11.7,11.8,17.3c21,28,40,54,68,77c3,2,3,8,6,11
	c18,19,34,37,54,54c3,3,3,8,6,12c26,28,48,54,70,86c8,13,20,19,28,32c13,19,27,36,43,53c3,4,3,9,6,12c29,28,46,63,67,97
	c28,46,48,93,64,143c4,11,7,22,9,33c4,25,11,47,15,72c12,62,20,123,0,183c-3.2,9.5-6.6,18.8-10.3,28H1599V1456.5z"/>
<path class="st6" d="M290,2322c-1-7-3-14-3-21c0-118-54-223-84-339c-1-4,1-8,0-12c-13-30-9-65-7-96c3-30,2-60,8-90c7-33,11-64,19-96
	c2-9,4-18,7-27c3-7,8-13,9-21c0-3,0-6,0-9c1-4,4-6,5-9c4.7-15,9.6-30,15.6-44.4c-78.8-21.8-165.1-54.6-260.6-101.1V2374h289.1
	c0.2-2.3,0.5-4.7,0.9-7C292,2352,290,2337,290,2322z"/>
</svg>