<?xml version="1.0" encoding="utf-8"?>
<!-- Generator: Adobe Illustrator 15.0.0, SVG Export Plug-In . SVG Version: 6.00 Build 0)  -->
<!DOCTYPE svg PUBLIC "-//W3C//DTD SVG 1.1//EN" "http://www.w3.org/Graphics/SVG/1.1/DTD/svg11.dtd">
<svg version="1.1" xmlns="http://www.w3.org/2000/svg" xmlns:xlink="http://www.w3.org/1999/xlink" x="0px" y="0px" width="100%"
	 height="2500px" preserveAspectRatio="none" viewBox="0 0 1000 2500" style="enable-background:new 0 0 1000 2500;" xml:space="preserve">
<style type="text/css">
<![CDATA[
	.st0{opacity:0.36;fill:#FFFFFF;}
	.st1{opacity:0.5;fill:#54889E;}
	.st2{fill:#EC3929;}
	.st3{opacity:0.5;fill:#FEFFFE;}
	.st4{fill:#C3EBF6;}
	.st5{fill:none;}
]]>
</style>
<g id="Layer_1">
</g>
<g id="Layer_2">
	<g>
		
			<rect x="498.3" y="1068.3" transform="matrix(-0.7071 0.7071 -0.7071 -0.7071 1606.2939 1471.3441)" class="st5" width="0.2" height="0.1"/>
		
			<rect x="161.5" y="2448" transform="matrix(-0.7065 -0.7077 0.7077 -0.7065 -1457.3138 4293.9053)" class="st5" width="0.4" height="2.4"/>
		
			<rect x="713.1" y="753.2" transform="matrix(-0.7071 -0.7071 0.7071 -0.7071 613.8476 1961.4803)" class="st4" width="0.1" height="200.9"/>
		<polygon class="st4" points="1.6,0 0,0 0,1.8 1.7,0.1 		"/>
		
			<rect x="570.3" y="894.9" transform="matrix(-0.7071 -0.7071 0.7071 -0.7071 268.9998 2104.3213)" class="st2" width="0.1" height="203.1"/>
		<polygon class="st4" points="927.8,639 1000,566.8 1000,566.7 927.8,638.9 		"/>
		
			<rect x="856" y="609.2" transform="matrix(-0.7071 -0.7071 0.7071 -0.7071 958.696 1818.639)" class="st2" width="0.1" height="203.1"/>
		<polygon class="st2" points="1.8,0 1.6,0 1.7,0.1 		"/>
		
			<rect x="276.7" y="2233.4" transform="matrix(0.7071 -0.7071 0.7071 0.7071 -1468.9463 920.9373)" class="st4" width="200.9" height="0.4"/>
		
			<rect x="234.2" y="2274.9" transform="matrix(-0.7065 -0.7077 0.7077 -0.7065 -1281.9274 4221.3457)" class="st2" width="0.4" height="203.1"/>
		
			<rect x="662.7" y="1847.5" transform="matrix(-0.7071 -0.7071 0.7071 -0.7071 -245.8102 3794.1128)" class="st4" width="0.4" height="200.9"/>
		
			<rect x="40.4" y="1425.9" transform="matrix(0.7071 -0.7071 0.7071 0.7071 -967.0302 517.2342)" class="st4" width="200.9" height="0.1"/>
		
			<rect x="519.8" y="1989.2" transform="matrix(-0.7071 -0.7071 0.7071 -0.7071 -590.6597 3936.9541)" class="st2" width="0.4" height="203.1"/>
		<polygon class="st2" points="69.8,1497 69.8,1496.9 0,1566.7 0,1566.8 		"/>
		
			<rect x="325.9" y="1139.8" transform="matrix(0.7071 -0.7071 0.7071 0.7071 -680.9572 635.7297)" class="st4" width="202" height="0.1"/>
		<polygon class="st4" points="877.7,1733.5 1000,1611.1 1000,1610.6 877.4,1733.2 		"/>
		<polygon class="st4" points="160.7,2449.8 110.6,2500 111.1,2500 161,2450.1 		"/>
		
			<rect x="805.5" y="1703.6" transform="matrix(-0.7071 -0.7071 0.7071 -0.7071 99.038 3651.272)" class="st2" width="0.4" height="203.1"/>
		
			<rect x="283.6" y="1181.5" transform="matrix(0.7035 0.7107 -0.7107 0.7035 995.925 178.7782)" class="st2" width="0.1" height="203.1"/>
		
			<rect x="302.5" y="780.9" transform="matrix(0.7071 -0.7071 0.7071 0.7071 -528.3412 469.5331)" class="st3" width="0.2" height="183.2"/>
		
			<rect x="425.7" y="557.3" transform="matrix(-0.7071 -0.7071 0.7071 -0.7071 418.0322 1488.74)" class="st4" width="183.2" height="200.9"/>
		
			<rect x="425.7" y="557.3" transform="matrix(-0.7071 -0.7071 0.7071 -0.7071 418.0322 1488.74)" class="st3" width="183.2" height="200.9"/>
		
			<rect x="282.9" y="699.1" transform="matrix(0.7071 0.7071 -0.7071 0.7071 675.823 -30.3139)" class="st2" width="183.2" height="203.1"/>
		
			<rect x="282.9" y="699.1" transform="matrix(0.7071 0.7071 -0.7071 0.7071 675.823 -30.3139)" class="st3" width="183.2" height="203.1"/>
		
			<rect x="702.6" y="280.5" transform="matrix(-0.7071 0.7071 -0.7071 -0.7071 1633.9736 67.4071)" class="st4" width="200.9" height="183.2"/>
		
			<rect x="702.6" y="280.5" transform="matrix(-0.7071 0.7071 -0.7071 -0.7071 1633.9736 67.4071)" class="st3" width="200.9" height="183.2"/>
		
			<rect x="568.6" y="413.4" transform="matrix(-0.7071 -0.7071 0.7071 -0.7071 762.8782 1345.8995)" class="st2" width="183.2" height="203.1"/>
		
			<rect x="568.6" y="413.4" transform="matrix(-0.7071 -0.7071 0.7071 -0.7071 762.8782 1345.8995)" class="st3" width="183.2" height="203.1"/>
		<polygon class="st4" points="1000,139.8 1000,45.6 952.9,92.7 		"/>
		<polygon class="st3" points="1000,139.8 1000,45.6 952.9,92.7 		"/>
		<polygon class="st2" points="809.3,236.3 938.8,365.9 1000,304.7 1000,139.8 952.9,92.7 		"/>
		<polygon class="st3" points="809.3,236.3 938.8,365.9 1000,304.7 1000,139.8 952.9,92.7 		"/>
		<polygon class="st4" points="0,1143 0,1304.7 80.8,1223.9 		"/>
		<polygon class="st3" points="0,1143 0,1304.7 80.8,1223.9 		"/>
		
			<rect x="130.1" y="852.4" transform="matrix(0.7071 -0.7071 0.7071 0.7071 -599.8475 439.9142)" class="st4" width="202" height="183.2"/>
		
			<rect x="130.1" y="852.4" transform="matrix(0.7071 -0.7071 0.7071 0.7071 -599.8475 439.9142)" class="st3" width="202" height="183.2"/>
		<polygon class="st2" points="224.5,1080.2 94.9,950.7 0,1045.6 0,1143 80.8,1223.9 		"/>
		<polygon class="st3" points="224.5,1080.2 94.9,950.7 0,1045.6 0,1143 80.8,1223.9 		"/>
		
			<rect x="341.1" y="1003.1" transform="matrix(0.7071 0.7071 -0.7071 0.7071 836.2501 -12.5317)" class="st1" width="184.3" height="0.2"/>
		
			<rect x="547.5" y="696.3" transform="matrix(-0.7071 0.7071 -0.7071 -0.7071 1663.7001 887.7491)" class="st4" width="200.9" height="184.3"/>
		
			<rect x="547.5" y="696.3" transform="matrix(-0.7071 0.7071 -0.7071 -0.7071 1663.7001 887.7491)" class="st1" width="200.9" height="184.3"/>
		
			<rect x="413" y="829.7" transform="matrix(-0.7071 -0.7071 0.7071 -0.7071 203.8306 1946.989)" class="st2" width="184.3" height="203.1"/>
		
			<rect x="413" y="829.7" transform="matrix(-0.7071 -0.7071 0.7071 -0.7071 203.8306 1946.989)" class="st1" width="184.3" height="203.1"/>
		<polygon class="st4" points="797.5,508.6 927.8,638.9 1000,566.7 1000,427 939.6,366.6 		"/>
		<polygon class="st1" points="797.5,508.6 927.8,638.9 1000,566.7 1000,427 939.6,366.6 		"/>
		
			<rect x="698.7" y="544" transform="matrix(-0.7071 -0.7071 0.7071 -0.7071 893.5253 1661.3071)" class="st2" width="184.3" height="203.1"/>
		
			<rect x="698.7" y="544" transform="matrix(-0.7071 -0.7071 0.7071 -0.7071 893.5253 1661.3071)" class="st1" width="184.3" height="203.1"/>
		<polygon class="st2" points="939.6,366.6 1000,427 1000,306.1 		"/>
		<polygon class="st1" points="939.6,366.6 1000,427 1000,306.1 		"/>
		<polygon class="st4" points="211.8,1354.9 81.6,1224.6 0,1306.1 0,1427.1 69.8,1496.9 		"/>
		<polygon class="st1" points="211.8,1354.9 81.6,1224.6 0,1306.1 0,1427.1 69.8,1496.9 		"/>
		<polygon class="st2" points="69.8,1496.9 0,1427.1 0,1566.7 		"/>
		<polygon class="st1" points="69.8,1496.9 0,1427.1 0,1566.7 		"/>
		
			<rect x="260.7" y="982.6" transform="matrix(0.7071 -0.7071 0.7071 0.7071 -653.9631 570.5605)" class="st4" width="202" height="184.3"/>
		
			<rect x="260.7" y="982.6" transform="matrix(0.7071 -0.7071 0.7071 0.7071 -653.9631 570.5605)" class="st1" width="202" height="184.3"/>
		
			<rect x="126.4" y="1116.4" transform="matrix(0.7071 0.7071 -0.7071 0.7071 925.1997 202.2082)" class="st2" width="184.3" height="203.1"/>
		
			<rect x="126.4" y="1116.4" transform="matrix(0.7071 0.7071 -0.7071 0.7071 925.1997 202.2082)" class="st1" width="184.3" height="203.1"/>
		
			<rect x="367.6" y="937.2" transform="matrix(0.7071 -0.7071 0.7071 0.7071 -555.3251 534.6777)" class="st3" width="0.2" height="1"/>
		
			<rect x="367.6" y="937.2" transform="matrix(0.7071 -0.7071 0.7071 0.7071 -555.3251 534.6777)" class="st1" width="0.2" height="1"/>
		
			<rect x="482" y="722.4" transform="matrix(-0.7071 0.7071 -0.7071 -0.7071 1505.5643 822.2513)" class="st4" width="200.9" height="1"/>
		
			<rect x="482" y="722.4" transform="matrix(-0.7071 0.7071 -0.7071 -0.7071 1505.5643 822.2513)" class="st3" width="200.9" height="1"/>
		
			<rect x="482" y="722.4" transform="matrix(-0.7071 0.7071 -0.7071 -0.7071 1505.5643 822.2513)" class="st1" width="200.9" height="1"/>
		
			<rect x="439.1" y="764.2" transform="matrix(-0.7071 -0.7071 0.7071 -0.7071 138.3285 1788.8536)" class="st2" width="1" height="203.1"/>
		
			<rect x="439.1" y="764.2" transform="matrix(-0.7071 -0.7071 0.7071 -0.7071 138.3285 1788.8536)" class="st3" width="1" height="203.1"/>
		
			<rect x="439.1" y="764.2" transform="matrix(-0.7071 -0.7071 0.7071 -0.7071 138.3285 1788.8536)" class="st1" width="1" height="203.1"/>
		
			<rect x="767.7" y="436.8" transform="matrix(-0.7071 0.7071 -0.7071 -0.7071 1791.2473 132.5513)" class="st4" width="200.9" height="1"/>
		
			<rect x="767.7" y="436.8" transform="matrix(-0.7071 0.7071 -0.7071 -0.7071 1791.2473 132.5513)" class="st3" width="200.9" height="1"/>
		
			<rect x="767.7" y="436.8" transform="matrix(-0.7071 0.7071 -0.7071 -0.7071 1791.2473 132.5513)" class="st1" width="200.9" height="1"/>
		
			<rect x="724.8" y="478.5" transform="matrix(-0.7073 -0.7069 0.7069 -0.7073 828.3416 1503.1372)" class="st2" width="1" height="203.1"/>
		
			<rect x="724.8" y="478.5" transform="matrix(-0.7073 -0.7069 0.7069 -0.7073 828.3416 1503.1372)" class="st3" width="1" height="203.1"/>
		
			<rect x="724.8" y="478.5" transform="matrix(-0.7073 -0.7069 0.7069 -0.7073 828.3416 1503.1372)" class="st1" width="1" height="203.1"/>
		<polygon class="st2" points="938.8,365.9 939.6,366.6 1000,306.1 1000,304.7 		"/>
		<polygon class="st3" points="938.8,365.9 939.6,366.6 1000,306.1 1000,304.7 		"/>
		<polygon class="st1" points="938.8,365.9 939.6,366.6 1000,306.1 1000,304.7 		"/>
		<polygon class="st4" points="80.8,1223.9 0,1304.7 0,1306.1 81.6,1224.6 		"/>
		<polygon class="st3" points="80.8,1223.9 0,1304.7 0,1306.1 81.6,1224.6 		"/>
		<polygon class="st1" points="80.8,1223.9 0,1304.7 0,1306.1 81.6,1224.6 		"/>
		
			<rect x="295.7" y="908.2" transform="matrix(0.7069 0.7073 -0.7073 0.7069 800.683 86.2788)" class="st4" width="1" height="202"/>
		
			<rect x="295.7" y="908.2" transform="matrix(0.7069 0.7073 -0.7073 0.7069 800.683 86.2788)" class="st3" width="1" height="202"/>
		
			<rect x="295.7" y="908.2" transform="matrix(0.7069 0.7073 -0.7073 0.7069 800.683 86.2788)" class="st1" width="1" height="202"/>
		
			<rect x="152.5" y="1050.9" transform="matrix(0.7073 0.7069 -0.7069 0.7073 859.3801 229.0967)" class="st2" width="1" height="203.1"/>
		
			<rect x="152.5" y="1050.9" transform="matrix(0.7073 0.7069 -0.7069 0.7073 859.3801 229.0967)" class="st3" width="1" height="203.1"/>
		
			<rect x="152.5" y="1050.9" transform="matrix(0.7073 0.7069 -0.7069 0.7073 859.3801 229.0967)" class="st1" width="1" height="203.1"/>
		<polygon class="st3" points="106.9,676.7 0,569.8 0,570.1 106.7,676.8 		"/>
		
			<rect x="156.3" y="305.6" transform="matrix(0.7071 -0.7071 0.7071 0.7071 -205.6676 297.9013)" class="st4" width="200.9" height="183.2"/>
		
			<rect x="156.3" y="305.6" transform="matrix(0.7071 -0.7071 0.7071 0.7071 -205.6676 297.9013)" class="st3" width="200.9" height="183.2"/>
		<polygon class="st2" points="250.5,533 120.9,403.5 0,524.4 0,569.8 106.9,676.7 		"/>
		<polygon class="st3" points="250.5,533 120.9,403.5 0,524.4 0,569.8 106.9,676.7 		"/>
		<polygon class="st4" points="536.2,247.3 678.3,105.3 573,0 524.4,0 406.6,117.8 		"/>
		<polygon class="st3" points="536.2,247.3 678.3,105.3 573,0 524.4,0 406.6,117.8 		"/>
		
			<rect x="308" y="152.8" transform="matrix(-0.7071 -0.7071 0.7071 -0.7071 502.3025 716.8046)" class="st2" width="183.2" height="203.1"/>
		
			<rect x="308" y="152.8" transform="matrix(-0.7071 -0.7071 0.7071 -0.7071 502.3025 716.8046)" class="st3" width="183.2" height="203.1"/>
		<polygon class="st2" points="783.6,0 573,0 678.3,105.3 		"/>
		<polygon class="st3" points="783.6,0 573,0 678.3,105.3 		"/>
		<polygon class="st4" points="0,570.1 0,783.6 106.7,676.8 		"/>
		<polygon class="st3" points="0,570.1 0,783.6 106.7,676.8 		"/>
		
			<rect x="172.2" y="650.6" transform="matrix(0.7071 -0.7071 0.7071 0.7071 -474.3736 339.2432)" class="st1" width="0.2" height="183.2"/>
		
			<rect x="286.6" y="435.9" transform="matrix(-0.7071 0.7071 -0.7071 -0.7071 1033.7439 626.8157)" class="st4" width="200.9" height="183.2"/>
		
			<rect x="286.6" y="435.9" transform="matrix(-0.7071 0.7071 -0.7071 -0.7071 1033.7439 626.8157)" class="st1" width="200.9" height="183.2"/>
		
			<rect x="152.6" y="568.8" transform="matrix(0.7071 0.7071 -0.7071 0.7071 545.533 23.654)" class="st2" width="183.2" height="203.1"/>
		
			<rect x="152.6" y="568.8" transform="matrix(0.7071 0.7071 -0.7071 0.7071 545.533 23.654)" class="st1" width="183.2" height="203.1"/>
		
			<rect x="572.3" y="150.2" transform="matrix(-0.7071 0.7071 -0.7071 -0.7071 1319.4265 -62.8832)" class="st4" width="200.9" height="183.2"/>
		
			<rect x="572.3" y="150.2" transform="matrix(-0.7071 0.7071 -0.7071 -0.7071 1319.4265 -62.8832)" class="st1" width="200.9" height="183.2"/>
		
			<rect x="438.3" y="283.1" transform="matrix(0.7071 0.7071 -0.7071 0.7071 427.1986 -262.0276)" class="st2" width="183.2" height="203.1"/>
		
			<rect x="438.3" y="283.1" transform="matrix(0.7071 0.7071 -0.7071 0.7071 427.1986 -262.0276)" class="st1" width="183.2" height="203.1"/>
		<polygon class="st4" points="1000,44.1 1000,0 860.2,0 952.2,92 		"/>
		<polygon class="st1" points="1000,44.1 1000,0 860.2,0 952.2,92 		"/>
		<polygon class="st2" points="679,106 808.6,235.6 952.2,92 860.2,0 785,0 		"/>
		<polygon class="st1" points="679,106 808.6,235.6 952.2,92 860.2,0 785,0 		"/>
		<polygon class="st4" points="237,807.1 107.4,677.5 0,785 0,855.8 94.2,950 		"/>
		<polygon class="st1" points="237,807.1 107.4,677.5 0,785 0,855.8 94.2,950 		"/>
		<polygon class="st2" points="94.2,950 0,855.8 0,1044.1 		"/>
		<polygon class="st1" points="94.2,950 0,855.8 0,1044.1 		"/>
		<rect x="237" y="807.3" transform="matrix(0.7073 0.7069 -0.7069 0.7073 640.2063 68.4297)" class="st3" width="1" height="0.2"/>
		<rect x="237" y="807.3" transform="matrix(0.7073 0.7069 -0.7069 0.7073 640.2063 68.4297)" class="st1" width="1" height="0.2"/>
		
			<rect x="451.7" y="492.2" transform="matrix(0.7073 0.7069 -0.7069 0.7073 551.2587 -146.2051)" class="st4" width="1" height="200.9"/>
		
			<rect x="451.7" y="492.2" transform="matrix(0.7073 0.7069 -0.7069 0.7073 551.2587 -146.2051)" class="st3" width="1" height="200.9"/>
		
			<rect x="451.7" y="492.2" transform="matrix(0.7073 0.7069 -0.7069 0.7073 551.2587 -146.2051)" class="st1" width="1" height="200.9"/>
		
			<rect x="308.9" y="633.9" transform="matrix(0.7069 0.7073 -0.7073 0.7069 610.9309 -3.2268)" class="st2" width="1" height="203.1"/>
		
			<rect x="308.9" y="633.9" transform="matrix(0.7069 0.7073 -0.7073 0.7069 610.9309 -3.2268)" class="st3" width="1" height="203.1"/>
		
			<rect x="308.9" y="633.9" transform="matrix(0.7069 0.7073 -0.7073 0.7069 610.9309 -3.2268)" class="st1" width="1" height="203.1"/>
		
			<rect x="637.4" y="306.5" transform="matrix(-0.7071 0.7071 -0.7071 -0.7071 1476.7007 2.2622)" class="st4" width="200.9" height="1"/>
		
			<rect x="637.4" y="306.5" transform="matrix(-0.7071 0.7071 -0.7071 -0.7071 1476.7007 2.2622)" class="st3" width="200.9" height="1"/>
		
			<rect x="637.4" y="306.5" transform="matrix(-0.7071 0.7071 -0.7071 -0.7071 1476.7007 2.2622)" class="st1" width="200.9" height="1"/>
		
			<rect x="594.5" y="348.3" transform="matrix(-0.7073 -0.7069 0.7069 -0.7073 697.9888 1188.5908)" class="st2" width="1" height="203.1"/>
		
			<rect x="594.5" y="348.3" transform="matrix(-0.7073 -0.7069 0.7069 -0.7073 697.9888 1188.5908)" class="st3" width="1" height="203.1"/>
		
			<rect x="594.5" y="348.3" transform="matrix(-0.7073 -0.7069 0.7069 -0.7073 697.9888 1188.5908)" class="st1" width="1" height="203.1"/>
		<polygon class="st4" points="952.9,92.7 1000,45.6 1000,44.1 952.2,92 		"/>
		<polygon class="st3" points="952.9,92.7 1000,45.6 1000,44.1 952.2,92 		"/>
		<polygon class="st1" points="952.9,92.7 1000,45.6 1000,44.1 952.2,92 		"/>
		
			<rect x="880.2" y="62.6" transform="matrix(0.7071 0.7071 -0.7071 0.7071 374.0116 -574.6943)" class="st2" width="1" height="203.1"/>
		
			<rect x="880.2" y="62.6" transform="matrix(0.7071 0.7071 -0.7071 0.7071 374.0116 -574.6943)" class="st3" width="1" height="203.1"/>
		
			<rect x="880.2" y="62.6" transform="matrix(0.7071 0.7071 -0.7071 0.7071 374.0116 -574.6943)" class="st1" width="1" height="203.1"/>
		
			<rect x="65" y="878.4" transform="matrix(0.7071 -0.7071 0.7071 0.7071 -572.8638 374.7695)" class="st4" width="202" height="1"/>
		
			<rect x="65" y="878.4" transform="matrix(0.7071 -0.7071 0.7071 0.7071 -572.8638 374.7695)" class="st3" width="202" height="1"/>
		
			<rect x="65" y="878.4" transform="matrix(0.7071 -0.7071 0.7071 0.7071 -572.8638 374.7695)" class="st1" width="202" height="1"/>
		<polygon class="st2" points="94.9,950.7 94.2,950 0,1044.1 0,1045.6 		"/>
		<polygon class="st3" points="94.9,950.7 94.2,950 0,1044.1 0,1045.6 		"/>
		<polygon class="st1" points="94.9,950.7 94.2,950 0,1044.1 0,1045.6 		"/>
		
			<rect x="107.1" y="676.6" transform="matrix(0.7081 -0.7061 0.7061 0.7081 -446.8143 273.3077)" class="st3" width="0.2" height="1"/>
		
			<rect x="107.1" y="676.6" transform="matrix(0.7081 -0.7061 0.7061 0.7081 -446.8143 273.3077)" class="st1" width="0.2" height="1"/>
		
			<rect x="321.4" y="361.9" transform="matrix(0.7069 0.7073 -0.7073 0.7069 421.4113 -92.1688)" class="st4" width="1" height="200.9"/>
		
			<rect x="321.4" y="361.9" transform="matrix(0.7069 0.7073 -0.7073 0.7069 421.4113 -92.1688)" class="st3" width="1" height="200.9"/>
		
			<rect x="321.4" y="361.9" transform="matrix(0.7069 0.7073 -0.7073 0.7069 421.4113 -92.1688)" class="st1" width="1" height="200.9"/>
		
			<rect x="178.6" y="503.6" transform="matrix(0.7073 0.7069 -0.7069 0.7073 480.1983 50.5347)" class="st2" width="1" height="203.1"/>
		
			<rect x="178.6" y="503.6" transform="matrix(0.7073 0.7069 -0.7069 0.7073 480.1983 50.5347)" class="st3" width="1" height="203.1"/>
		
			<rect x="178.6" y="503.6" transform="matrix(0.7073 0.7069 -0.7069 0.7073 480.1983 50.5347)" class="st1" width="1" height="203.1"/>
		
			<rect x="607.1" y="76.2" transform="matrix(0.7073 0.7069 -0.7069 0.7073 302.6983 -377.7809)" class="st4" width="1" height="200.9"/>
		
			<rect x="607.1" y="76.2" transform="matrix(0.7073 0.7069 -0.7069 0.7073 302.6983 -377.7809)" class="st3" width="1" height="200.9"/>
		
			<rect x="607.1" y="76.2" transform="matrix(0.7073 0.7069 -0.7069 0.7073 302.6983 -377.7809)" class="st1" width="1" height="200.9"/>
		
			<rect x="464.2" y="218" transform="matrix(-0.7069 -0.7073 0.7073 -0.7069 567.2563 874.1127)" class="st2" width="1" height="203.1"/>
		
			<rect x="464.2" y="218" transform="matrix(-0.7069 -0.7073 0.7073 -0.7069 567.2563 874.1127)" class="st3" width="1" height="203.1"/>
		
			<rect x="464.2" y="218" transform="matrix(-0.7069 -0.7073 0.7073 -0.7069 567.2563 874.1127)" class="st1" width="1" height="203.1"/>
		<polygon class="st2" points="678.3,105.3 679,106 785,0 783.6,0 		"/>
		<polygon class="st3" points="678.3,105.3 679,106 785,0 783.6,0 		"/>
		<polygon class="st1" points="678.3,105.3 679,106 785,0 783.6,0 		"/>
		<polygon class="st4" points="106.7,676.8 0,783.6 0,785 107.4,677.5 		"/>
		<polygon class="st3" points="106.7,676.8 0,783.6 0,785 107.4,677.5 		"/>
		<polygon class="st1" points="106.7,676.8 0,783.6 0,785 107.4,677.5 		"/>
		<polygon class="st4" points="132,130.4 1.7,0.1 0,1.8 0,262.4 		"/>
		<polygon class="st3" points="132,130.4 1.7,0.1 0,1.8 0,262.4 		"/>
		<polygon class="st2" points="132,130.4 262.4,0 1.8,0 1.7,0.1 		"/>
		<polygon class="st3" points="132,130.4 262.4,0 1.8,0 1.7,0.1 		"/>
		<polygon class="st4" points="262.3,260.7 132.7,131.1 0,263.8 0,282.5 120.2,402.7 		"/>
		<polygon class="st1" points="262.3,260.7 132.7,131.1 0,263.8 0,282.5 120.2,402.7 		"/>
		<polygon class="st2" points="120.2,402.7 0,282.5 0,523 		"/>
		<polygon class="st1" points="120.2,402.7 0,282.5 0,523 		"/>
		<polygon class="st4" points="523,0 288.9,0 405.9,117.1 		"/>
		<polygon class="st1" points="523,0 288.9,0 405.9,117.1 		"/>
		<polygon class="st2" points="132.7,131.1 262.3,260.7 405.9,117.1 288.9,0 263.8,0 		"/>
		<polygon class="st1" points="132.7,131.1 262.3,260.7 405.9,117.1 288.9,0 263.8,0 		"/>
		
			<rect x="91.2" y="331.6" transform="matrix(-0.7071 0.7071 -0.7071 -0.7071 561.9244 431.3805)" class="st4" width="200.9" height="1"/>
		
			<rect x="91.2" y="331.6" transform="matrix(-0.7071 0.7071 -0.7071 -0.7071 561.9244 431.3805)" class="st3" width="200.9" height="1"/>
		
			<rect x="91.2" y="331.6" transform="matrix(-0.7071 0.7071 -0.7071 -0.7071 561.9244 431.3805)" class="st1" width="200.9" height="1"/>
		<polygon class="st2" points="120.9,403.5 120.2,402.7 0,523 0,524.4 		"/>
		<polygon class="st3" points="120.9,403.5 120.2,402.7 0,523 0,524.4 		"/>
		<polygon class="st1" points="120.9,403.5 120.2,402.7 0,523 0,524.4 		"/>
		<polygon class="st4" points="406.6,117.8 524.4,0 523,0 405.9,117.1 		"/>
		<polygon class="st3" points="406.6,117.8 524.4,0 523,0 405.9,117.1 		"/>
		<polygon class="st1" points="406.6,117.8 524.4,0 523,0 405.9,117.1 		"/>
		
			<rect x="334" y="87.7" transform="matrix(0.7071 0.7071 -0.7071 0.7071 231.7657 -181.0762)" class="st2" width="1" height="203.1"/>
		
			<rect x="334" y="87.7" transform="matrix(0.7071 0.7071 -0.7071 0.7071 231.7657 -181.0762)" class="st3" width="1" height="203.1"/>
		
			<rect x="334" y="87.7" transform="matrix(0.7071 0.7071 -0.7071 0.7071 231.7657 -181.0762)" class="st1" width="1" height="203.1"/>
		<polygon class="st4" points="132,130.4 0,262.4 0,263.8 132.7,131.1 		"/>
		<polygon class="st3" points="132,130.4 0,262.4 0,263.8 132.7,131.1 		"/>
		<polygon class="st1" points="132,130.4 0,262.4 0,263.8 132.7,131.1 		"/>
		<polygon class="st2" points="132,130.4 132.7,131.1 263.8,0 262.4,0 		"/>
		<polygon class="st3" points="132,130.4 132.7,131.1 263.8,0 262.4,0 		"/>
		<polygon class="st1" points="132,130.4 132.7,131.1 263.8,0 262.4,0 		"/>
		<polygon class="st3" points="161,2450.1 210.9,2500 214.2,2500 162.7,2448.4 		"/>
		
			<rect x="341.5" y="2207" transform="matrix(0.7071 -0.7071 0.7071 0.7071 -1495.7866 985.7313)" class="st4" width="200.9" height="182.8"/>
		
			<rect x="341.5" y="2207" transform="matrix(0.7071 -0.7071 0.7071 0.7071 -1495.7866 985.7313)" class="st3" width="200.9" height="182.8"/>
		<polygon class="st2" points="435.6,2434.1 306.3,2304.8 162.7,2448.4 214.2,2500 369.7,2500 		"/>
		<polygon class="st3" points="435.6,2434.1 306.3,2304.8 162.7,2448.4 214.2,2500 369.7,2500 		"/>
		
			<rect x="627.2" y="1921.3" transform="matrix(-0.7071 0.7071 -0.7071 -0.7071 2665.438 2921.4514)" class="st4" width="200.9" height="182.8"/>
		
			<rect x="627.2" y="1921.3" transform="matrix(-0.7071 0.7071 -0.7071 -0.7071 2665.438 2921.4514)" class="st3" width="200.9" height="182.8"/>
		
			<rect x="493.4" y="2054" transform="matrix(-0.7071 -0.7071 0.7071 -0.7071 -525.8716 4093.3662)" class="st2" width="182.8" height="203.1"/>
		
			<rect x="493.4" y="2054" transform="matrix(-0.7071 -0.7071 0.7071 -0.7071 -525.8716 4093.3662)" class="st3" width="182.8" height="203.1"/>
		<polygon class="st4" points="1000,1855.8 1000,1611.1 877.7,1733.5 		"/>
		<polygon class="st3" points="1000,1855.8 1000,1611.1 877.7,1733.5 		"/>
		<polygon class="st4" points="111.1,2500 210.9,2500 161,2450.1 		"/>
		<polygon class="st3" points="111.1,2500 210.9,2500 161,2450.1 		"/>
		<polygon class="st2" points="734.1,1877.1 863.3,2006.4 1000,1869.7 1000,1855.8 877.7,1733.5 		"/>
		<polygon class="st3" points="734.1,1877.1 863.3,2006.4 1000,1869.7 1000,1855.8 877.7,1733.5 		"/>
		<polygon class="st4" points="579.4,2293.8 437.3,2435.8 501.5,2500 630.1,2500 707.9,2422.3 		"/>
		<polygon class="st1" points="579.4,2293.8 437.3,2435.8 501.5,2500 630.1,2500 707.9,2422.3 		"/>
		<polygon class="st2" points="373.1,2500 501.5,2500 437.3,2435.8 		"/>
		<polygon class="st1" points="373.1,2500 501.5,2500 437.3,2435.8 		"/>
		
			<rect x="757.8" y="2052.5" transform="matrix(-0.7071 0.7071 -0.7071 -0.7071 2980.751 3052.0591)" class="st4" width="200.9" height="181.7"/>
		
			<rect x="757.8" y="2052.5" transform="matrix(-0.7071 0.7071 -0.7071 -0.7071 2980.751 3052.0591)" class="st1" width="200.9" height="181.7"/>
		
			<rect x="624.6" y="2184.6" transform="matrix(0.7071 0.7071 -0.7071 0.7071 1826.1343 163.7241)" class="st2" width="181.7" height="203.1"/>
		
			<rect x="624.6" y="2184.6" transform="matrix(0.7071 0.7071 -0.7071 0.7071 1826.1343 163.7241)" class="st1" width="181.7" height="203.1"/>
		<polygon class="st2" points="865.1,2008.1 993.6,2136.6 1000,2130.1 1000,1873.1 		"/>
		<polygon class="st1" points="865.1,2008.1 993.6,2136.6 1000,2130.1 1000,1873.1 		"/>
		
			<rect x="506.3" y="2263.5" transform="matrix(-0.7073 -0.7069 0.7069 -0.7073 -804.6407 4394.7153)" class="st4" width="2.4" height="200.9"/>
		
			<rect x="506.3" y="2263.5" transform="matrix(-0.7073 -0.7069 0.7069 -0.7073 -804.6407 4394.7153)" class="st3" width="2.4" height="200.9"/>
		
			<rect x="506.3" y="2263.5" transform="matrix(-0.7073 -0.7069 0.7069 -0.7073 -804.6407 4394.7153)" class="st1" width="2.4" height="200.9"/>
		<polygon class="st2" points="437.3,2435.8 435.6,2434.1 369.7,2500 373.1,2500 		"/>
		<polygon class="st3" points="437.3,2435.8 435.6,2434.1 369.7,2500 373.1,2500 		"/>
		<polygon class="st1" points="437.3,2435.8 435.6,2434.1 369.7,2500 373.1,2500 		"/>
		
			<rect x="692.7" y="2077" transform="matrix(-0.7071 0.7071 -0.7071 -0.7071 2823.5696 2986.9614)" class="st4" width="200.9" height="2.4"/>
		
			<rect x="692.7" y="2077" transform="matrix(-0.7071 0.7071 -0.7071 -0.7071 2823.5696 2986.9614)" class="st3" width="200.9" height="2.4"/>
		
			<rect x="692.7" y="2077" transform="matrix(-0.7071 0.7071 -0.7071 -0.7071 2823.5696 2986.9614)" class="st1" width="200.9" height="2.4"/>
		
			<rect x="649.1" y="2119.5" transform="matrix(0.7071 0.7071 -0.7071 0.7071 1761.0293 190.6915)" class="st2" width="2.4" height="203.1"/>
		
			<rect x="649.1" y="2119.5" transform="matrix(0.7071 0.7071 -0.7071 0.7071 1761.0293 190.6915)" class="st3" width="2.4" height="203.1"/>
		
			<rect x="649.1" y="2119.5" transform="matrix(0.7071 0.7071 -0.7071 0.7071 1761.0293 190.6915)" class="st1" width="2.4" height="203.1"/>
		<polygon class="st2" points="863.3,2006.4 865.1,2008.1 1000,1873.1 1000,1869.7 		"/>
		<polygon class="st3" points="863.3,2006.4 865.1,2008.1 1000,1873.1 1000,1869.7 		"/>
		<polygon class="st1" points="863.3,2006.4 865.1,2008.1 1000,1873.1 1000,1869.7 		"/>
		<polygon class="st4" points="631.7,2500 785.6,2500 708.7,2423.1 		"/>
		<polygon class="st3" points="631.7,2500 785.6,2500 708.7,2423.1 		"/>
		<polygon class="st4" points="852.3,2279.4 980.8,2407.9 1000,2388.7 1000,2143 994.3,2137.4 		"/>
		<polygon class="st3" points="852.3,2279.4 980.8,2407.9 1000,2388.7 1000,2143 994.3,2137.4 		"/>
		<polygon class="st2" points="980.8,2407.9 852.3,2279.4 708.7,2423.1 785.6,2500 888.7,2500 		"/>
		<polygon class="st3" points="980.8,2407.9 852.3,2279.4 708.7,2423.1 785.6,2500 888.7,2500 		"/>
		<polygon class="st2" points="994.3,2137.4 1000,2143 1000,2131.7 		"/>
		<polygon class="st3" points="994.3,2137.4 1000,2143 1000,2131.7 		"/>
		<polygon class="st4" points="707.9,2422.3 630.1,2500 631.7,2500 708.7,2423.1 		"/>
		<polygon class="st1" points="707.9,2422.3 630.1,2500 631.7,2500 708.7,2423.1 		"/>
		<polygon class="st3" points="707.9,2422.3 630.1,2500 631.7,2500 708.7,2423.1 		"/>
		
			<rect x="822.5" y="2207.4" transform="matrix(-0.7071 0.7071 -0.7071 -0.7071 3136.8201 3116.6973)" class="st4" width="200.9" height="1.1"/>
		
			<rect x="822.5" y="2207.4" transform="matrix(-0.7071 0.7071 -0.7071 -0.7071 3136.8201 3116.6973)" class="st1" width="200.9" height="1.1"/>
		
			<rect x="822.5" y="2207.4" transform="matrix(-0.7071 0.7071 -0.7071 -0.7071 3136.8201 3116.6973)" class="st3" width="200.9" height="1.1"/>
		
			<rect x="779.5" y="2249.3" transform="matrix(-0.7071 -0.7071 0.7071 -0.7071 -330.6201 4564.7451)" class="st2" width="1.1" height="203.1"/>
		
			<rect x="779.5" y="2249.3" transform="matrix(-0.7071 -0.7071 0.7071 -0.7071 -330.6201 4564.7451)" class="st1" width="1.1" height="203.1"/>
		
			<rect x="779.5" y="2249.3" transform="matrix(-0.7071 -0.7071 0.7071 -0.7071 -330.6201 4564.7451)" class="st3" width="1.1" height="203.1"/>
		<polygon class="st2" points="993.6,2136.6 994.3,2137.4 1000,2131.7 1000,2130.1 		"/>
		<polygon class="st1" points="993.6,2136.6 994.3,2137.4 1000,2131.7 1000,2130.1 		"/>
		<polygon class="st3" points="993.6,2136.6 994.3,2137.4 1000,2131.7 1000,2130.1 		"/>
		<polygon class="st4" points="1000,2427.1 1000,2392.1 982.5,2409.6 		"/>
		<polygon class="st1" points="1000,2427.1 1000,2392.1 982.5,2409.6 		"/>
		<polygon class="st2" points="892.1,2500 1000,2500 1000,2427.1 982.5,2409.6 		"/>
		<polygon class="st1" points="892.1,2500 1000,2500 1000,2427.1 982.5,2409.6 		"/>
		<polygon class="st4" points="982.5,2409.6 1000,2392.1 1000,2388.7 980.8,2407.9 		"/>
		<polygon class="st3" points="982.5,2409.6 1000,2392.1 1000,2388.7 980.8,2407.9 		"/>
		<polygon class="st1" points="982.5,2409.6 1000,2392.1 1000,2388.7 980.8,2407.9 		"/>
		<polygon class="st2" points="982.5,2409.6 980.8,2407.9 888.7,2500 892.1,2500 		"/>
		<polygon class="st3" points="982.5,2409.6 980.8,2407.9 888.7,2500 892.1,2500 		"/>
		<polygon class="st1" points="982.5,2409.6 980.8,2407.9 888.7,2500 892.1,2500 		"/>
		
			<rect x="824.4" y="1302.8" transform="matrix(-0.7071 0.7071 -0.7071 -0.7071 2393.5808 1797.4497)" class="st3" width="0.2" height="183.2"/>
		<polygon class="st3" points="31.4,2317.2 0,2285.8 0,2289.1 29.7,2318.8 		"/>
		<polygon class="st4" points="1000,1282.5 1000,1089.4 903.4,1186 		"/>
		<polygon class="st3" points="1000,1282.5 1000,1089.4 903.4,1186 		"/>
		<polygon class="st2" points="759.8,1329.6 889.4,1459.2 1000,1348.6 1000,1282.5 903.4,1186 		"/>
		<polygon class="st3" points="759.8,1329.6 889.4,1459.2 1000,1348.6 1000,1282.5 903.4,1186 		"/>
		
			<rect x="80.8" y="1946.1" transform="matrix(0.7071 -0.7071 0.7071 0.7071 -1387.7875 725.0034)" class="st4" width="200.9" height="183.2"/>
		
			<rect x="80.8" y="1946.1" transform="matrix(0.7071 -0.7071 0.7071 0.7071 -1387.7875 725.0034)" class="st3" width="200.9" height="183.2"/>
		<polygon class="st2" points="175,2173.5 45.4,2044 0,2089.4 0,2285.8 31.4,2317.2 		"/>
		<polygon class="st3" points="175,2173.5 45.4,2044 0,2089.4 0,2285.8 31.4,2317.2 		"/>
		
			<rect x="375.3" y="1651.6" transform="matrix(-0.7071 -0.7071 0.7071 -0.7071 -441.7482 3321.084)" class="st4" width="183.2" height="200.9"/>
		
			<rect x="375.3" y="1651.6" transform="matrix(-0.7071 -0.7071 0.7071 -0.7071 -441.7482 3321.084)" class="st3" width="183.2" height="200.9"/>
		
			<rect x="232.5" y="1793.3" transform="matrix(0.7071 0.7071 -0.7071 0.7071 1434.8085 325.8201)" class="st2" width="183.2" height="203.1"/>
		
			<rect x="232.5" y="1793.3" transform="matrix(0.7071 0.7071 -0.7071 0.7071 1434.8085 325.8201)" class="st3" width="183.2" height="203.1"/>
		
			<rect x="652" y="1374.3" transform="matrix(-0.7071 0.7071 -0.7071 -0.7071 2322.0747 1970.0822)" class="st4" width="202" height="183.2"/>
		
			<rect x="652" y="1374.3" transform="matrix(-0.7071 0.7071 -0.7071 -0.7071 2322.0747 1970.0822)" class="st3" width="202" height="183.2"/>
		<polygon class="st4" points="0,2289.1 0,2348.6 29.7,2318.8 		"/>
		<polygon class="st3" points="0,2289.1 0,2348.6 29.7,2318.8 		"/>
		
			<rect x="518.2" y="1507.6" transform="matrix(-0.7071 -0.7071 0.7071 -0.7071 -96.9028 3178.2422)" class="st2" width="183.2" height="203.1"/>
		
			<rect x="518.2" y="1507.6" transform="matrix(-0.7071 -0.7071 0.7071 -0.7071 -96.9028 3178.2422)" class="st3" width="183.2" height="203.1"/>
		<polygon class="st1" points="889.9,1460 1000,1570.1 1000,1569.8 890.1,1459.9 		"/>
		
			<rect x="95.2" y="2291.7" transform="matrix(0.7071 -0.7071 0.7071 0.7071 -1657.3933 766.3939)" class="st1" width="2.4" height="184.3"/>
		<polygon class="st2" points="1000,1569.8 1000,1350 890.1,1459.9 		"/>
		<polygon class="st1" points="1000,1569.8 1000,1350 890.1,1459.9 		"/>
		
			<rect x="219.8" y="2067.9" transform="matrix(-0.7071 -0.7071 0.7071 -0.7071 -1000.79 3922.1812)" class="st4" width="184.3" height="200.9"/>
		
			<rect x="219.8" y="2067.9" transform="matrix(-0.7071 -0.7071 0.7071 -0.7071 -1000.79 3922.1812)" class="st1" width="184.3" height="200.9"/>
		
			<rect x="76.9" y="2209.6" transform="matrix(-0.7071 -0.7071 0.7071 -0.7071 -1345.641 4065.019)" class="st2" width="184.3" height="203.1"/>
		
			<rect x="76.9" y="2209.6" transform="matrix(-0.7071 -0.7071 0.7071 -0.7071 -1345.641 4065.019)" class="st1" width="184.3" height="203.1"/>
		
			<rect x="497.1" y="1790.5" transform="matrix(-0.7071 0.7071 -0.7071 -0.7071 2351.4092 2791.3689)" class="st4" width="200.9" height="184.3"/>
		
			<rect x="497.1" y="1790.5" transform="matrix(-0.7071 0.7071 -0.7071 -0.7071 2351.4092 2791.3689)" class="st1" width="200.9" height="184.3"/>
		
			<rect x="362.6" y="1924" transform="matrix(-0.7071 -0.7071 0.7071 -0.7071 -655.9478 3779.3345)" class="st2" width="184.3" height="203.1"/>
		
			<rect x="362.6" y="1924" transform="matrix(-0.7071 -0.7071 0.7071 -0.7071 -655.9478 3779.3345)" class="st1" width="184.3" height="203.1"/>
		<polygon class="st4" points="747.1,1602.9 877.4,1733.2 1000,1610.6 1000,1570.1 889.9,1460 		"/>
		<polygon class="st1" points="747.1,1602.9 877.4,1733.2 1000,1610.6 1000,1570.1 889.9,1460 		"/>
		<polygon class="st4" points="30.4,2319.5 0,2350 0,2500 110.6,2500 160.7,2449.8 		"/>
		<polygon class="st1" points="30.4,2319.5 0,2350 0,2500 110.6,2500 160.7,2449.8 		"/>
		
			<rect x="648.3" y="1638.3" transform="matrix(-0.7071 -0.7071 0.7071 -0.7071 33.7499 3493.6523)" class="st2" width="184.3" height="203.1"/>
		
			<rect x="648.3" y="1638.3" transform="matrix(-0.7071 -0.7071 0.7071 -0.7071 33.7499 3493.6523)" class="st1" width="184.3" height="203.1"/>
		
			<rect x="29.7" y="2317.8" transform="matrix(0.7072 -0.707 0.707 0.7072 -1630.0258 700.6499)" class="st3" width="2.4" height="1"/>
		
			<rect x="29.7" y="2317.8" transform="matrix(0.7072 -0.707 0.707 0.7072 -1630.0258 700.6499)" class="st1" width="2.4" height="1"/>
		
			<rect x="889.6" y="1459.1" transform="matrix(-0.7051 0.7091 -0.7091 -0.7051 2551.9958 1857.8594)" class="st3" width="0.2" height="1"/>
		
			<rect x="889.6" y="1459.1" transform="matrix(-0.7051 0.7091 -0.7091 -0.7051 2551.9958 1857.8594)" class="st1" width="0.2" height="1"/>
		<polygon class="st2" points="890.1,1459.9 1000,1350 1000,1348.6 889.4,1459.2 		"/>
		<polygon class="st3" points="890.1,1459.9 1000,1350 1000,1348.6 889.4,1459.2 		"/>
		<polygon class="st1" points="890.1,1459.9 1000,1350 1000,1348.6 889.4,1459.2 		"/>
		
			<rect x="245.9" y="2002.4" transform="matrix(0.7073 0.7069 -0.7069 0.7073 1558.548 441.2257)" class="st4" width="1" height="200.9"/>
		
			<rect x="245.9" y="2002.4" transform="matrix(0.7073 0.7069 -0.7069 0.7073 1558.548 441.2257)" class="st3" width="1" height="200.9"/>
		
			<rect x="245.9" y="2002.4" transform="matrix(0.7073 0.7069 -0.7069 0.7073 1558.548 441.2257)" class="st1" width="1" height="200.9"/>
		
			<rect x="103.1" y="2144.1" transform="matrix(0.7066 0.7076 -0.7076 0.7066 1619.4203 585.5532)" class="st2" width="1" height="203.1"/>
		
			<rect x="103.1" y="2144.1" transform="matrix(0.7066 0.7076 -0.7076 0.7066 1619.4203 585.5532)" class="st3" width="1" height="203.1"/>
		
			<rect x="103.1" y="2144.1" transform="matrix(0.7066 0.7076 -0.7076 0.7066 1619.4203 585.5532)" class="st1" width="1" height="203.1"/>
		
			<rect x="431.6" y="1816.7" transform="matrix(-0.7071 0.7071 -0.7071 -0.7071 2193.2739 2725.8677)" class="st4" width="200.9" height="1"/>
		
			<rect x="431.6" y="1816.7" transform="matrix(-0.7071 0.7071 -0.7071 -0.7071 2193.2739 2725.8677)" class="st3" width="200.9" height="1"/>
		
			<rect x="431.6" y="1816.7" transform="matrix(-0.7071 0.7071 -0.7071 -0.7071 2193.2739 2725.8677)" class="st1" width="200.9" height="1"/>
		
			<rect x="388.7" y="1858.5" transform="matrix(0.7073 0.7069 -0.7069 0.7073 1499.3813 298.4541)" class="st2" width="1" height="203.1"/>
		
			<rect x="388.7" y="1858.5" transform="matrix(0.7073 0.7069 -0.7069 0.7073 1499.3813 298.4541)" class="st3" width="1" height="203.1"/>
		
			<rect x="388.7" y="1858.5" transform="matrix(0.7073 0.7069 -0.7069 0.7073 1499.3813 298.4541)" class="st1" width="1" height="203.1"/>
		
			<rect x="817.7" y="1430.1" transform="matrix(-0.7076 -0.7066 0.7066 -0.7076 315.1781 3192.6309)" class="st4" width="1" height="202"/>
		
			<rect x="817.7" y="1430.1" transform="matrix(-0.7076 -0.7066 0.7066 -0.7076 315.1781 3192.6309)" class="st3" width="1" height="202"/>
		
			<rect x="817.7" y="1430.1" transform="matrix(-0.7076 -0.7066 0.7066 -0.7076 315.1781 3192.6309)" class="st1" width="1" height="202"/>
		<polygon class="st4" points="29.7,2318.8 0,2348.6 0,2350 30.4,2319.5 		"/>
		<polygon class="st3" points="29.7,2318.8 0,2348.6 0,2350 30.4,2319.5 		"/>
		<polygon class="st1" points="29.7,2318.8 0,2348.6 0,2350 30.4,2319.5 		"/>
		
			<rect x="674.4" y="1572.8" transform="matrix(-0.7076 -0.7066 0.7066 -0.7076 -30.6151 3336.001)" class="st2" width="1" height="203.1"/>
		
			<rect x="674.4" y="1572.8" transform="matrix(-0.7076 -0.7066 0.7066 -0.7076 -30.6151 3336.001)" class="st3" width="1" height="203.1"/>
		
			<rect x="674.4" y="1572.8" transform="matrix(-0.7076 -0.7066 0.7066 -0.7076 -30.6151 3336.001)" class="st1" width="1" height="203.1"/>
		
			<rect x="471.5" y="1133.4" transform="matrix(-0.7071 -0.7071 0.7071 -0.7071 160.5931 2333.551)" class="st3" width="184.3" height="0.2"/>
		
			<rect x="677.9" y="826.6" transform="matrix(-0.7071 0.7071 -0.7071 -0.7071 1978.3649 1018.0876)" class="st4" width="200.9" height="184.3"/>
		
			<rect x="677.9" y="826.6" transform="matrix(-0.7071 0.7071 -0.7071 -0.7071 1978.3649 1018.0876)" class="st3" width="200.9" height="184.3"/>
		
			<rect x="543.4" y="960.1" transform="matrix(-0.7071 -0.7071 0.7071 -0.7071 334.1692 2261.6543)" class="st2" width="184.3" height="203.1"/>
		
			<rect x="543.4" y="960.1" transform="matrix(-0.7071 -0.7071 0.7071 -0.7071 334.1692 2261.6543)" class="st3" width="184.3" height="203.1"/>
		<polygon class="st4" points="1000,711.1 1000,566.8 927.8,639 		"/>
		<polygon class="st3" points="1000,711.1 1000,566.8 927.8,639 		"/>
		<polygon class="st2" points="784.2,782.6 914.5,912.9 1000,827.4 1000,711.1 927.8,639 		"/>
		<polygon class="st3" points="784.2,782.6 914.5,912.9 1000,827.4 1000,711.1 927.8,639 		"/>
		<polygon class="st4" points="0,1714.4 0,1827.4 56.5,1770.9 		"/>
		<polygon class="st3" points="0,1714.4 0,1827.4 56.5,1770.9 		"/>
		
			<rect x="105.6" y="1399" transform="matrix(0.7071 -0.7071 0.7071 0.7071 -994.0242 582.4036)" class="st4" width="200.9" height="184.3"/>
		
			<rect x="105.6" y="1399" transform="matrix(0.7071 -0.7071 0.7071 0.7071 -994.0242 582.4036)" class="st3" width="200.9" height="184.3"/>
		<polygon class="st2" points="200.1,1627.3 69.8,1497 0,1566.8 0,1714.4 56.5,1770.9 		"/>
		<polygon class="st3" points="200.1,1627.3 69.8,1497 0,1566.8 0,1714.4 56.5,1770.9 		"/>
		
			<rect x="400" y="1104" transform="matrix(0.7071 0.7071 -0.7071 0.7071 996.2076 4.9866)" class="st4" width="184.3" height="202"/>
		
			<rect x="400" y="1104" transform="matrix(0.7071 0.7071 -0.7071 0.7071 996.2076 4.9866)" class="st3" width="184.3" height="202"/>
		
			<rect x="256.7" y="1246.7" transform="matrix(0.7071 0.7071 -0.7071 0.7071 1055.5361 148.219)" class="st2" width="184.3" height="203.1"/>
		
			<rect x="256.7" y="1246.7" transform="matrix(0.7071 0.7071 -0.7071 0.7071 1055.5361 148.219)" class="st3" width="184.3" height="203.1"/>
		
			<rect x="694.1" y="1172.5" transform="matrix(-0.7071 0.7071 -0.7071 -0.7071 2079.0349 1667.1602)" class="st1" width="0.2" height="183.2"/>
		<polygon class="st4" points="773.2,1055.7 902.7,1185.2 1000,1088 1000,998.4 915.2,913.6 		"/>
		<polygon class="st1" points="773.2,1055.7 902.7,1185.2 1000,1088 1000,998.4 915.2,913.6 		"/>
		
			<rect x="674.5" y="1090.7" transform="matrix(-0.7071 -0.7071 0.7071 -0.7071 464.8181 2577.0627)" class="st2" width="183.2" height="203.1"/>
		
			<rect x="674.5" y="1090.7" transform="matrix(-0.7071 -0.7071 0.7071 -0.7071 464.8181 2577.0627)" class="st1" width="183.2" height="203.1"/>
		<polygon class="st2" points="915.2,913.6 1000,998.4 1000,828.8 		"/>
		<polygon class="st1" points="915.2,913.6 1000,998.4 1000,828.8 		"/>
		<polygon class="st4" points="186.8,1901.2 57.2,1771.6 0,1828.8 0,1998.5 44.7,2043.2 		"/>
		<polygon class="st1" points="186.8,1901.2 57.2,1771.6 0,1828.8 0,1998.5 44.7,2043.2 		"/>
		<polygon class="st2" points="44.7,2043.2 0,1998.5 0,2088 		"/>
		<polygon class="st1" points="44.7,2043.2 0,1998.5 0,2088 		"/>
		
			<rect x="236.2" y="1530.1" transform="matrix(0.7071 -0.7071 0.7071 0.7071 -1048.1414 713.0523)" class="st4" width="200.9" height="183.2"/>
		
			<rect x="236.2" y="1530.1" transform="matrix(0.7071 -0.7071 0.7071 0.7071 -1048.1414 713.0523)" class="st1" width="200.9" height="183.2"/>
		
			<rect x="102.2" y="1663" transform="matrix(0.7071 0.7071 -0.7071 0.7071 1304.516 379.7856)" class="st2" width="183.2" height="203.1"/>
		
			<rect x="102.2" y="1663" transform="matrix(0.7071 0.7071 -0.7071 0.7071 1304.516 379.7856)" class="st1" width="183.2" height="203.1"/>
		
			<rect x="531.1" y="1234.7" transform="matrix(-0.7071 -0.7071 0.7071 -0.7071 118.6077 2720.4668)" class="st4" width="183.2" height="202"/>
		
			<rect x="531.1" y="1234.7" transform="matrix(-0.7071 -0.7071 0.7071 -0.7071 118.6077 2720.4668)" class="st1" width="183.2" height="202"/>
		
			<rect x="387.9" y="1377.3" transform="matrix(0.7071 0.7071 -0.7071 0.7071 1186.1826 94.1035)" class="st2" width="183.2" height="203.1"/>
		
			<rect x="387.9" y="1377.3" transform="matrix(0.7071 0.7071 -0.7071 0.7071 1186.1826 94.1035)" class="st1" width="183.2" height="203.1"/>
		
			<rect x="758.9" y="1329.2" transform="matrix(-0.7071 -0.7071 0.7071 -0.7071 356.3838 2806.2334)" class="st3" width="1" height="0.2"/>
		
			<rect x="758.9" y="1329.2" transform="matrix(-0.7071 -0.7071 0.7071 -0.7071 356.3838 2806.2334)" class="st1" width="1" height="0.2"/>
		<polygon class="st4" points="903.4,1186 1000,1089.4 1000,1088 902.7,1185.2 		"/>
		<polygon class="st3" points="903.4,1186 1000,1089.4 1000,1088 902.7,1185.2 		"/>
		<polygon class="st1" points="903.4,1186 1000,1089.4 1000,1088 902.7,1185.2 		"/>
		
			<rect x="830.8" y="1155.9" transform="matrix(-0.7066 -0.7076 0.7076 -0.7066 528.9497 2734.1292)" class="st2" width="1" height="203.1"/>
		
			<rect x="830.8" y="1155.9" transform="matrix(-0.7066 -0.7076 0.7076 -0.7066 528.9497 2734.1292)" class="st3" width="1" height="203.1"/>
		
			<rect x="830.8" y="1155.9" transform="matrix(-0.7066 -0.7076 0.7076 -0.7066 528.9497 2734.1292)" class="st1" width="1" height="203.1"/>
		
			<rect x="15.7" y="1972.1" transform="matrix(0.7071 -0.7071 0.7071 0.7071 -1360.8057 659.8611)" class="st4" width="200.9" height="1"/>
		
			<rect x="15.7" y="1972.1" transform="matrix(0.7071 -0.7071 0.7071 0.7071 -1360.8057 659.8611)" class="st3" width="200.9" height="1"/>
		
			<rect x="15.7" y="1972.1" transform="matrix(0.7071 -0.7071 0.7071 0.7071 -1360.8057 659.8611)" class="st1" width="200.9" height="1"/>
		<polygon class="st2" points="45.4,2044 44.7,2043.2 0,2088 0,2089.4 		"/>
		<polygon class="st3" points="45.4,2044 44.7,2043.2 0,2088 0,2089.4 		"/>
		<polygon class="st1" points="45.4,2044 44.7,2043.2 0,2088 0,2089.4 		"/>
		
			<rect x="301.4" y="1686.4" transform="matrix(0.7071 -0.7071 0.7071 0.7071 -1075.1235 778.1946)" class="st4" width="200.9" height="1"/>
		
			<rect x="301.4" y="1686.4" transform="matrix(0.7071 -0.7071 0.7071 0.7071 -1075.1235 778.1946)" class="st3" width="200.9" height="1"/>
		
			<rect x="301.4" y="1686.4" transform="matrix(0.7071 -0.7071 0.7071 0.7071 -1075.1235 778.1946)" class="st1" width="200.9" height="1"/>
		
			<rect x="258.5" y="1728.2" transform="matrix(0.7071 0.7071 -0.7071 0.7071 1369.6606 352.8018)" class="st2" width="1" height="203.1"/>
		
			<rect x="258.5" y="1728.2" transform="matrix(0.7071 0.7071 -0.7071 0.7071 1369.6606 352.8018)" class="st3" width="1" height="203.1"/>
		
			<rect x="258.5" y="1728.2" transform="matrix(0.7071 0.7071 -0.7071 0.7071 1369.6606 352.8018)" class="st1" width="1" height="203.1"/>
		
			<rect x="586.9" y="1400.3" transform="matrix(-0.7071 0.7071 -0.7071 -0.7071 2164.7998 1904.9417)" class="st4" width="202" height="1"/>
		
			<rect x="586.9" y="1400.3" transform="matrix(-0.7071 0.7071 -0.7071 -0.7071 2164.7998 1904.9417)" class="st3" width="202" height="1"/>
		
			<rect x="586.9" y="1400.3" transform="matrix(-0.7071 0.7071 -0.7071 -0.7071 2164.7998 1904.9417)" class="st1" width="202" height="1"/>
		
			<rect x="544.1" y="1442.5" transform="matrix(-0.7071 -0.7071 0.7071 -0.7071 -162.0411 3020.9712)" class="st2" width="1" height="203.1"/>
		
			<rect x="544.1" y="1442.5" transform="matrix(-0.7071 -0.7071 0.7071 -0.7071 -162.0411 3020.9712)" class="st3" width="1" height="203.1"/>
		
			<rect x="544.1" y="1442.5" transform="matrix(-0.7071 -0.7071 0.7071 -0.7071 -162.0411 3020.9712)" class="st1" width="1" height="203.1"/>
		
			<rect x="629" y="1198.5" transform="matrix(-0.7081 0.7061 -0.7061 -0.7081 1921.1865 1603.8535)" class="st3" width="0.2" height="1"/>
		
			<rect x="629" y="1198.5" transform="matrix(-0.7081 0.7061 -0.7061 -0.7081 1921.1865 1603.8535)" class="st1" width="0.2" height="1"/>
		
			<rect x="743.4" y="983.8" transform="matrix(-0.7071 0.7071 -0.7071 -0.7071 2136.5002 1083.5912)" class="st4" width="200.9" height="1"/>
		
			<rect x="743.4" y="983.8" transform="matrix(-0.7071 0.7071 -0.7071 -0.7071 2136.5002 1083.5912)" class="st3" width="200.9" height="1"/>
		
			<rect x="743.4" y="983.8" transform="matrix(-0.7071 0.7071 -0.7071 -0.7071 2136.5002 1083.5912)" class="st1" width="200.9" height="1"/>
		
			<rect x="700.5" y="1025.6" transform="matrix(-0.7071 -0.7071 0.7071 -0.7071 399.6711 2419.7891)" class="st2" width="1" height="203.1"/>
		
			<rect x="700.5" y="1025.6" transform="matrix(-0.7071 -0.7071 0.7071 -0.7071 399.6711 2419.7891)" class="st3" width="1" height="203.1"/>
		
			<rect x="700.5" y="1025.6" transform="matrix(-0.7071 -0.7071 0.7071 -0.7071 399.6711 2419.7891)" class="st1" width="1" height="203.1"/>
		<polygon class="st2" points="914.5,912.9 915.2,913.6 1000,828.8 1000,827.4 		"/>
		<polygon class="st3" points="914.5,912.9 915.2,913.6 1000,828.8 1000,827.4 		"/>
		<polygon class="st1" points="914.5,912.9 915.2,913.6 1000,828.8 1000,827.4 		"/>
		<polygon class="st4" points="56.5,1770.9 0,1827.4 0,1828.8 57.2,1771.6 		"/>
		<polygon class="st3" points="56.5,1770.9 0,1827.4 0,1828.8 57.2,1771.6 		"/>
		<polygon class="st1" points="56.5,1770.9 0,1827.4 0,1828.8 57.2,1771.6 		"/>
		
			<rect x="271" y="1456.1" transform="matrix(0.7069 0.7073 -0.7073 0.7069 1180.647 264.239)" class="st4" width="1" height="200.9"/>
		
			<rect x="271" y="1456.1" transform="matrix(0.7069 0.7073 -0.7073 0.7069 1180.647 264.239)" class="st3" width="1" height="200.9"/>
		
			<rect x="271" y="1456.1" transform="matrix(0.7069 0.7073 -0.7073 0.7069 1180.647 264.239)" class="st1" width="1" height="200.9"/>
		
			<rect x="128.2" y="1597.9" transform="matrix(0.7071 0.7071 -0.7071 0.7071 1239.3716 406.7693)" class="st2" width="1" height="203.1"/>
		
			<rect x="128.2" y="1597.9" transform="matrix(0.7071 0.7071 -0.7071 0.7071 1239.3716 406.7693)" class="st3" width="1" height="203.1"/>
		
			<rect x="128.2" y="1597.9" transform="matrix(0.7071 0.7071 -0.7071 0.7071 1239.3716 406.7693)" class="st1" width="1" height="203.1"/>
		
			<rect x="456.6" y="1270" transform="matrix(-0.7071 0.7071 -0.7071 -0.7071 1850.2576 1774.6431)" class="st4" width="202" height="1"/>
		
			<rect x="456.6" y="1270" transform="matrix(-0.7071 0.7071 -0.7071 -0.7071 1850.2576 1774.6431)" class="st3" width="202" height="1"/>
		
			<rect x="456.6" y="1270" transform="matrix(-0.7071 0.7071 -0.7071 -0.7071 1850.2576 1774.6431)" class="st1" width="202" height="1"/>
		
			<rect x="413.8" y="1312.2" transform="matrix(0.7071 0.7071 -0.7071 0.7071 1121.0381 121.0872)" class="st2" width="1" height="203.1"/>
		
			<rect x="413.8" y="1312.2" transform="matrix(0.7071 0.7071 -0.7071 0.7071 1121.0381 121.0872)" class="st3" width="1" height="203.1"/>
		
			<rect x="413.8" y="1312.2" transform="matrix(0.7071 0.7071 -0.7071 0.7071 1121.0381 121.0872)" class="st1" width="1" height="203.1"/>
	</g>
	<rect class="st0" width="1000" height="2500"/>
</g>
</svg>
