<?xml version="1.0" encoding="utf-8"?>
<!-- Generator: Adobe Illustrator 15.0.0, SVG Export Plug-In . SVG Version: 6.00 Build 0)  -->
<!DOCTYPE svg PUBLIC "-//W3C//DTD SVG 1.1//EN" "http://www.w3.org/Graphics/SVG/1.1/DTD/svg11.dtd">
<svg version="1.1" xmlns="http://www.w3.org/2000/svg" xmlns:xlink="http://www.w3.org/1999/xlink" x="0px" y="0px" width="1200px"
	 height="450px" viewBox="0 0 1200 450" style="enable-background:new 0 0 1200 450;" xml:space="preserve">
<style type="text/css">
<![CDATA[
	.st0{fill:#E2BBC3;}
	.st1{fill:#E473B5;}
	.st2{fill:#B0FFFF;}
	.st3{opacity:0.5;fill:#8FC0C3;}
	.st4{fill:#8FC0C3;}
	.st5{fill:#C5EB72;}
	.st6{fill:#96C1BD;}
	.st7{opacity:0.5;}
	.st8{fill:none;}
	.st9{opacity:0.5;fill:#DEFFFF;}
	.st10{stroke:#000000;stroke-width:2;stroke-miterlimit:10;}
	.st11{fill:#DEFFFF;}
	.st12{opacity:0.5;fill:#B0FFFF;}
]]>
</style>
<g id="Layer_2">
	<rect x="-48" y="373" class="st11" width="1357" height="91"/>
	<rect x="-48" y="273" class="st2" width="1357" height="100"/>
	<rect x="-54" y="182" class="st11" width="1369" height="91"/>
	<rect x="-82" y="90" class="st2" width="1410" height="90"/>
	<rect x="-34" y="-13" class="st4" width="1380" height="103"/>
	
		<rect x="-242.2" y="356.9" transform="matrix(0.8943 0.4474 -0.4474 0.8943 226.1625 -152.6843)" class="st9" width="1357" height="91"/>
	
		<rect x="-199.5" y="267" transform="matrix(0.8943 0.4474 -0.4474 0.8943 192.4648 -180.8271)" class="st12" width="1357" height="100"/>
	
		<rect x="-162.7" y="186.1" transform="matrix(0.8943 0.4474 -0.4474 0.8943 158.7668 -208.9701)" class="st9" width="1369" height="91"/>
	
		<rect x="-148.6" y="100.5" transform="matrix(-0.8943 -0.4474 0.4474 -0.8943 988.9666 524.6561)" class="st12" width="1410" height="90"/>
	
		<rect x="-60.9" y="22.5" transform="matrix(-0.8943 -0.4474 0.4474 -0.8943 1158.6702 421.6635)" class="st3" width="1380" height="103"/>
</g>
<g id="Layer_1">
	<rect x="-2" y="402" class="st1" width="416" height="111"/>
	
		<rect x="4.3" y="335.3" transform="matrix(0.9848 0.1736 -0.1736 0.9848 71.0164 -30.9229)" class="st5" width="415.9" height="110.3"/>
	
		<rect x="24.9" y="265.1" transform="matrix(0.9397 0.342 -0.342 0.9397 123.5889 -60.3318)" class="st1" width="415.9" height="110.3"/>
	<rect x="55.7" y="202.4" transform="matrix(0.866 0.5 -0.5 0.866 164.1086 -97.3009)" class="st5" width="415.9" height="110.3"/>
	
		<rect x="97.1" y="142" transform="matrix(0.766 0.6428 -0.6428 0.766 198.0918 -149.9383)" class="st1" width="415.9" height="110.3"/>
	
		<rect x="149.8" y="89.8" transform="matrix(0.6428 0.766 -0.766 0.6428 238.8122 -222.3129)" class="st5" width="415.9" height="110.3"/>
	<rect x="211.6" y="50" transform="matrix(0.5 0.866 -0.866 0.5 300.817 -310.8239)" class="st1" width="415.9" height="110.3"/>
	
		<rect x="278.7" y="20.5" transform="matrix(0.342 0.9397 -0.9397 0.342 391.2553 -407.5708)" class="st5" width="415.9" height="110.3"/>
	
		<rect x="350.5" y="2.2" transform="matrix(0.1736 0.9848 -0.9848 0.1736 517.9061 -502.6219)" class="st1" width="415.9" height="110.3"/>
	<rect x="574" y="-157" class="st5" width="111" height="416"/>
	
		<rect x="493.7" y="1.8" transform="matrix(-0.1736 0.9848 -0.9848 -0.1736 879.6716 -624.1684)" class="st1" width="415.9" height="110.3"/>
	
		<rect x="565.1" y="22" transform="matrix(-0.342 0.9397 -0.9397 -0.342 1109.9626 -622.8547)" class="st5" width="415.9" height="110.3"/>
	
		<rect x="632.2" y="51.5" transform="matrix(-0.5 0.866 -0.866 -0.5 1352.5637 -567.5464)" class="st1" width="415.9" height="110.3"/>
	
		<rect x="694" y="91.3" transform="matrix(-0.6428 0.766 -0.766 -0.6428 1593.8887 -450.269)" class="st5" width="415.9" height="110.3"/>
	
		<rect x="746.7" y="143.6" transform="matrix(-0.766 0.6428 -0.6428 -0.766 1813.761 -262.6931)" class="st1" width="415.9" height="110.3"/>
	
		<rect x="788.1" y="204" transform="matrix(-0.866 0.5 -0.5 -0.866 1988.3027 -14.4547)" class="st5" width="415.9" height="110.3"/>
	
		<rect x="818.9" y="266.7" transform="matrix(-0.9397 0.342 -0.342 -0.9397 2101.8257 273.1226)" class="st1" width="415.9" height="110.3"/>
	
		<rect x="839.5" y="336.8" transform="matrix(-0.9848 0.1736 -0.1736 -0.9848 2147.1003 596.1063)" class="st5" width="415.9" height="110.3"/>
	<rect x="846" y="404" class="st1" width="416" height="110"/>
</g>
<g id="Layer_3">
	<g class="st7">
		<rect x="118" y="369" class="st6" width="416" height="111"/>
		
			<rect x="124.3" y="302.3" transform="matrix(0.9848 0.1736 -0.1736 0.9848 67.1091 -52.2621)" class="st0" width="415.9" height="110.3"/>
		
			<rect x="144.9" y="232.1" transform="matrix(0.9397 0.342 -0.342 0.9397 119.5391 -103.3641)" class="st6" width="415.9" height="110.3"/>
		
			<rect x="175.7" y="169.4" transform="matrix(0.866 0.5 -0.5 0.866 163.6855 -161.7221)" class="st0" width="415.9" height="110.3"/>
		
			<rect x="217.1" y="109" transform="matrix(0.766 0.6428 -0.6428 0.766 204.9545 -234.7934)" class="st6" width="415.9" height="110.3"/>
		
			<rect x="269.8" y="56.8" transform="matrix(0.6428 0.766 -0.766 0.6428 256.3981 -326.0262)" class="st0" width="415.9" height="110.3"/>
		<rect x="331.6" y="17" transform="matrix(0.5 0.866 -0.866 0.5 332.2382 -431.2469)" class="st6" width="415.9" height="110.3"/>
		
			<rect x="398.7" y="-12.5" transform="matrix(0.342 0.9397 -0.9397 0.342 439.2031 -542.0472)" class="st0" width="415.9" height="110.3"/>
		
			<rect x="470.5" y="-30.8" transform="matrix(0.1736 0.9848 -0.9848 0.1736 584.5701 -648.0681)" class="st6" width="415.9" height="110.3"/>
		<rect x="694" y="-190" class="st0" width="111" height="416"/>
		
			<rect x="613.7" y="-31.2" transform="matrix(-0.1736 0.9848 -0.9848 -0.1736 988.0107 -781.0757)" class="st6" width="415.9" height="110.3"/>
		
			<rect x="685.1" y="-11" transform="matrix(-0.342 0.9397 -0.9397 -0.342 1239.9951 -779.9045)" class="st0" width="415.9" height="110.3"/>
		
			<rect x="752.2" y="18.5" transform="matrix(-0.5 0.866 -0.866 -0.5 1503.9847 -720.9695)" class="st6" width="415.9" height="110.3"/>
		
			<rect x="814" y="58.3" transform="matrix(-0.6428 0.766 -0.766 -0.6428 1765.7437 -596.4063)" class="st0" width="415.9" height="110.3"/>
		
			<rect x="866.7" y="110.6" transform="matrix(-0.766 0.6428 -0.6428 -0.766 2004.4741 -398.1074)" class="st6" width="415.9" height="110.3"/>
		
			<rect x="908.1" y="171" transform="matrix(-0.866 0.5 -0.5 -0.866 2195.7256 -136.0337)" class="st0" width="415.9" height="110.3"/>
		
			<rect x="938.9" y="233.7" transform="matrix(-0.9397 0.342 -0.342 -0.9397 2323.3022 168.0704)" class="st6" width="415.9" height="110.3"/>
		
			<rect x="959.5" y="303.8" transform="matrix(-0.9848 0.1736 -0.1736 -0.9848 2379.5471 509.7704)" class="st0" width="415.9" height="110.3"/>
		<rect x="966" y="371" class="st6" width="416" height="110"/>
	</g>
</g>
<g id="Layer_4">
	<g>
		<g>
			<path d="M313.4,189.1V114h9.2v75.2H313.4z"/>
			<path d="M372.5,182.4c-3.4,2.9-6.7,5-9.9,6.2c-3.2,1.2-6.6,1.8-10.2,1.8c-6,0-10.6-1.5-13.8-4.4c-3.2-2.9-4.8-6.7-4.8-11.2
				c0-2.7,0.6-5.1,1.8-7.3c1.2-2.2,2.8-4,4.8-5.3c2-1.3,4.2-2.3,6.6-3c1.8-0.5,4.5-0.9,8.2-1.4c7.5-0.9,12.9-1.9,16.5-3.2
				c0-1.3,0.1-2.1,0.1-2.4c0-3.8-0.9-6.4-2.6-7.9c-2.4-2.1-5.9-3.1-10.5-3.1c-4.3,0-7.5,0.8-9.6,2.3c-2.1,1.5-3.6,4.2-4.6,8.1
				l-9-1.2c0.8-3.9,2.2-7,4.1-9.4c1.9-2.4,4.6-4.2,8.2-5.5c3.6-1.3,7.7-1.9,12.4-1.9c4.6,0,8.4,0.5,11.3,1.6c2.9,1.1,5,2.5,6.4,4.1
				c1.4,1.7,2.3,3.8,2.9,6.3c0.3,1.6,0.5,4.4,0.5,8.5v12.3c0,8.6,0.2,14,0.6,16.3c0.4,2.3,1.2,4.5,2.3,6.5h-9.6
				C373.4,187.2,372.8,185,372.5,182.4z M371.7,161.8c-3.4,1.4-8.4,2.5-15.1,3.5c-3.8,0.5-6.5,1.2-8,1.8c-1.6,0.7-2.8,1.7-3.6,3
				c-0.9,1.3-1.3,2.8-1.3,4.4c0,2.5,0.9,4.5,2.8,6.2c1.9,1.6,4.6,2.5,8.2,2.5c3.6,0,6.7-0.8,9.5-2.3c2.8-1.6,4.8-3.7,6.1-6.4
				c1-2.1,1.5-5.2,1.5-9.2V161.8z"/>
			<path d="M430.7,189.1v-6.9c-3.5,5.4-8.5,8.1-15.2,8.1c-4.3,0-8.3-1.2-12-3.6c-3.6-2.4-6.5-5.7-8.5-10c-2-4.3-3-9.2-3-14.8
				c0-5.4,0.9-10.4,2.7-14.8c1.8-4.4,4.5-7.8,8.2-10.2c3.6-2.4,7.7-3.5,12.2-3.5c3.3,0,6.2,0.7,8.8,2.1c2.6,1.4,4.6,3.2,6.3,5.4v-27
				h9.2v75.2H430.7z M401.5,161.9c0,7,1.5,12.2,4.4,15.6c2.9,3.5,6.4,5.2,10.4,5.2c4,0,7.5-1.6,10.3-4.9c2.8-3.3,4.2-8.3,4.2-15.1
				c0-7.5-1.4-12.9-4.3-16.4s-6.4-5.2-10.6-5.2c-4.1,0-7.5,1.7-10.3,5C402.9,149.5,401.5,154.7,401.5,161.9z"/>
			<path d="M489.4,189.1v-8c-4.2,6.2-10,9.2-17.3,9.2c-3.2,0-6.2-0.6-9-1.8c-2.8-1.2-4.9-2.8-6.2-4.6c-1.4-1.9-2.3-4.1-2.8-6.8
				c-0.4-1.8-0.6-4.7-0.6-8.6v-33.7h9.2v30.2c0,4.8,0.2,8.1,0.6,9.7c0.6,2.4,1.8,4.3,3.7,5.7c1.9,1.4,4.2,2.1,7,2.1s5.4-0.7,7.8-2.1
				c2.4-1.4,4.1-3.3,5.2-5.8c1-2.4,1.5-6,1.5-10.6v-29.2h9.2v54.4H489.4z"/>
			<path d="M508.5,172.9l9.1-1.4c0.5,3.7,1.9,6.5,4.3,8.4c2.3,1.9,5.6,2.9,9.8,2.9c4.2,0,7.4-0.9,9.4-2.6c2.1-1.7,3.1-3.8,3.1-6.1
				c0-2.1-0.9-3.7-2.7-4.9c-1.3-0.8-4.4-1.9-9.4-3.1c-6.8-1.7-11.5-3.2-14.1-4.4c-2.6-1.2-4.6-3-5.9-5.2c-1.4-2.2-2-4.6-2-7.3
				c0-2.4,0.6-4.7,1.7-6.7c1.1-2.1,2.6-3.8,4.5-5.2c1.4-1.1,3.4-2,5.9-2.7c2.5-0.7,5.1-1.1,8-1.1c4.3,0,8,0.6,11.3,1.8
				c3.2,1.2,5.6,2.9,7.2,5c1.5,2.1,2.6,4.9,3.2,8.4l-9,1.2c-0.4-2.8-1.6-5-3.6-6.6c-2-1.6-4.7-2.4-8.3-2.4c-4.2,0-7.3,0.7-9.1,2.1
				c-1.8,1.4-2.7,3-2.7,4.9c0,1.2,0.4,2.3,1.1,3.2c0.8,1,1.9,1.8,3.5,2.5c0.9,0.3,3.6,1.1,8.2,2.4c6.5,1.7,11.1,3.2,13.7,4.3
				c2.6,1.1,4.6,2.7,6.1,4.8c1.5,2.1,2.2,4.8,2.2,7.9c0,3.1-0.9,6-2.7,8.7c-1.8,2.7-4.4,4.8-7.8,6.3c-3.4,1.5-7.2,2.2-11.5,2.2
				c-7.1,0-12.5-1.5-16.2-4.4C511.9,183,509.5,178.6,508.5,172.9z"/>
			<path d="M564.7,189.1V114h9.2v27c4.3-5,9.7-7.5,16.3-7.5c4,0,7.5,0.8,10.5,2.4c3,1.6,5.1,3.8,6.4,6.6c1.3,2.8,1.9,6.9,1.9,12.2
				v34.5h-9.2v-34.5c0-4.6-1-8-3-10.1c-2-2.1-4.8-3.2-8.5-3.2c-2.7,0-5.3,0.7-7.7,2.1c-2.4,1.4-4.1,3.3-5.2,5.8
				c-1,2.4-1.5,5.8-1.5,10v29.8H564.7z"/>
			<path d="M623.1,189.1V114h9.2v42.9l21.8-22.1h11.9l-20.8,20.2l22.9,34.2h-11.4l-18-27.8l-6.5,6.3v21.6H623.1z"/>
			<path d="M675.6,124.6V114h9.2v10.6H675.6z M675.6,189.1v-54.4h9.2v54.4H675.6z"/>
			<path d="M695.3,166.6v-9.3h28.4v9.3H695.3z"/>
			<path d="M754,180.9l1.3,8.2c-2.6,0.5-4.9,0.8-7,0.8c-3.4,0-5.9-0.5-7.8-1.6s-3.1-2.5-3.9-4.2c-0.8-1.7-1.1-5.4-1.1-10.9v-31.3
				h-6.8v-7.2h6.8v-13.5l9.2-5.5v19h9.3v7.2h-9.3v31.8c0,2.6,0.2,4.3,0.5,5.1c0.3,0.8,0.9,1.4,1.6,1.8c0.7,0.4,1.8,0.7,3.2,0.7
				C751,181.2,752.3,181.1,754,180.9z"/>
			<path d="M759.6,161.9c0-10.1,2.8-17.6,8.4-22.4c4.7-4,10.4-6,17.1-6c7.5,0,13.6,2.5,18.4,7.4c4.8,4.9,7.1,11.7,7.1,20.3
				c0,7-1.1,12.5-3.2,16.5c-2.1,4-5.2,7.1-9.2,9.4c-4,2.2-8.4,3.3-13.2,3.3c-7.6,0-13.8-2.4-18.5-7.3
				C761.9,178.1,759.6,171.1,759.6,161.9z M769.1,161.9c0,7,1.5,12.2,4.6,15.7c3,3.5,6.9,5.2,11.5,5.2c4.6,0,8.4-1.7,11.4-5.2
				s4.6-8.8,4.6-15.9c0-6.7-1.5-11.8-4.6-15.3c-3.1-3.5-6.9-5.2-11.4-5.2c-4.6,0-8.4,1.7-11.5,5.2
				C770.6,149.7,769.1,154.9,769.1,161.9z"/>
			<path d="M841.6,180.9l1.3,8.2c-2.6,0.5-4.9,0.8-7,0.8c-3.4,0-5.9-0.5-7.8-1.6s-3.1-2.5-3.9-4.2c-0.8-1.7-1.1-5.4-1.1-10.9v-31.3
				h-6.8v-7.2h6.8v-13.5l9.2-5.5v19h9.3v7.2h-9.3v31.8c0,2.6,0.2,4.3,0.5,5.1c0.3,0.8,0.9,1.4,1.6,1.8c0.7,0.4,1.8,0.7,3.2,0.7
				C838.5,181.2,839.9,181.1,841.6,180.9z"/>
			<path d="M846.9,172.9l9.1-1.4c0.5,3.7,1.9,6.5,4.3,8.4c2.3,1.9,5.6,2.9,9.8,2.9c4.2,0,7.4-0.9,9.4-2.6c2.1-1.7,3.1-3.8,3.1-6.1
				c0-2.1-0.9-3.7-2.7-4.9c-1.3-0.8-4.4-1.9-9.4-3.1c-6.8-1.7-11.5-3.2-14.1-4.4c-2.6-1.2-4.6-3-5.9-5.2c-1.4-2.2-2-4.6-2-7.3
				c0-2.4,0.6-4.7,1.7-6.7c1.1-2.1,2.6-3.8,4.5-5.2c1.4-1.1,3.4-2,5.9-2.7c2.5-0.7,5.1-1.1,8-1.1c4.3,0,8,0.6,11.3,1.8
				c3.2,1.2,5.6,2.9,7.2,5c1.5,2.1,2.6,4.9,3.2,8.4l-9,1.2c-0.4-2.8-1.6-5-3.6-6.6c-2-1.6-4.7-2.4-8.3-2.4c-4.2,0-7.3,0.7-9.1,2.1
				c-1.8,1.4-2.7,3-2.7,4.9c0,1.2,0.4,2.3,1.1,3.2c0.8,1,1.9,1.8,3.5,2.5c0.9,0.3,3.6,1.1,8.2,2.4c6.5,1.7,11.1,3.2,13.7,4.3
				c2.6,1.1,4.6,2.7,6.1,4.8c1.5,2.1,2.2,4.8,2.2,7.9c0,3.1-0.9,6-2.7,8.7c-1.8,2.7-4.4,4.8-7.8,6.3c-3.4,1.5-7.2,2.2-11.5,2.2
				c-7.1,0-12.5-1.5-16.2-4.4C850.3,183,847.9,178.6,846.9,172.9z"/>
			<path d="M306.7,204.1v-7.7h589.4v7.7H306.7z"/>
		</g>
		<g>
			<path d="M335.8,203.7h5.5c-0.6,2.9-1.8,4.7-3.5,5.4c-1.7,0.7-3.7,1-6.1,1l-5.6-0.1c-2,0-3.6,0.3-4.6,0.9c-1.1,0.6-2,1.4-2.7,2.4
				c-0.7,1-1.8,3.2-3.3,6.6c2.2-1.9,4.2-3,6.1-3.3c1.9-0.3,3.3-0.5,4.2-0.5c3,0,5.8,1.1,8.5,3.2s4,5.3,4,9.5c0,5-1.6,9.3-4.8,13
				c-3.2,3.7-7.5,5.6-12.7,5.6c-4.1,0-7.3-1.2-9.6-3.6c-2.3-2.4-3.5-5.5-3.5-9.3c0-4.2,1.1-9.3,3.3-15.4c2.2-6,4.6-9.9,7.3-11.7
				c2.6-1.7,6-2.6,10-2.6l4.9,0.1C334.6,205.1,335.5,204.6,335.8,203.7z M332.6,228.6c0-2.5-0.7-4.5-2-6.1c-1.3-1.5-3.2-2.3-5.5-2.3
				c-3.6,0-6.5,1.5-8.8,4.5c-2.2,3-3.3,6.4-3.3,10.3c0,2.2,0.7,4.1,2.1,5.7c1.4,1.6,3.3,2.5,5.6,2.5c3.6,0,6.4-1.6,8.6-4.8
				C331.5,235.1,332.6,231.9,332.6,228.6z"/>
			<path d="M365.2,236.3l5.4,0.5c-0.8,2.5-2.6,4.9-5.4,7.2c-2.8,2.3-6.1,3.4-10,3.4c-2.4,0-4.6-0.5-6.6-1.6c-2-1-3.5-2.6-4.6-4.6
				c-1.1-2-1.6-4.3-1.6-6.8c0-3.3,0.8-6.6,2.5-9.7c1.6-3.1,3.8-5.5,6.4-7c2.6-1.5,5.4-2.3,8.5-2.3c3.9,0,7,1.1,9.3,3.4
				c2.3,2.3,3.5,5.4,3.5,9.3c0,1.5-0.1,3-0.4,4.6h-24c-0.1,0.6-0.1,1.1-0.1,1.6c0,2.9,0.7,5.1,2.1,6.6c1.4,1.5,3.1,2.3,5.1,2.3
				c1.9,0,3.8-0.6,5.6-1.8C362.7,240.2,364.2,238.5,365.2,236.3z M349.1,228.7h18.3c0-0.5,0-0.9,0-1.2c0-2.6-0.7-4.6-2.1-6
				c-1.4-1.4-3.2-2.1-5.4-2.1c-2.4,0-4.5,0.8-6.5,2.3C351.5,223.3,350,225.6,349.1,228.7z"/>
			<path d="M373.5,258.5l9.4-42.4h5.1l-1,4.3c1.9-1.9,3.6-3.2,5.1-3.9c1.5-0.7,3.1-1.1,4.8-1.1c3.1,0,5.7,1.1,7.7,3.2
				c2,2.1,3.1,5.2,3.1,9.1c0,3.2-0.6,6.1-1.7,8.7c-1.1,2.6-2.5,4.7-4.1,6.3s-3.3,2.8-5,3.5c-1.7,0.8-3.4,1.1-5.2,1.1
				c-3.9,0-6.9-1.9-9.1-5.6l-3.7,16.6H373.5z M384.5,234.2c0,2.3,0.2,3.9,0.5,4.8c0.5,1.3,1.3,2.3,2.5,3c1.2,0.8,2.5,1.2,4,1.2
				c3.2,0,5.8-1.7,7.7-5.1c2-3.4,2.9-6.8,2.9-10.3c0-2.6-0.7-4.6-2-6c-1.3-1.4-3-2.1-4.9-2.1c-1.4,0-2.7,0.4-3.9,1.1
				c-1.2,0.7-2.3,1.7-3.4,3.1c-1,1.4-1.9,3.1-2.6,5.1C384.8,231,384.5,232.7,384.5,234.2z"/>
			<path d="M435.1,236.3l5.4,0.5c-0.8,2.5-2.6,4.9-5.4,7.2c-2.8,2.3-6.1,3.4-10,3.4c-2.4,0-4.6-0.5-6.6-1.6c-2-1-3.5-2.6-4.6-4.6
				c-1.1-2-1.6-4.3-1.6-6.8c0-3.3,0.8-6.6,2.5-9.7c1.6-3.1,3.8-5.5,6.4-7c2.6-1.5,5.4-2.3,8.5-2.3c3.9,0,7,1.1,9.3,3.4
				c2.3,2.3,3.5,5.4,3.5,9.3c0,1.5-0.1,3-0.4,4.6h-24c-0.1,0.6-0.1,1.1-0.1,1.6c0,2.9,0.7,5.1,2.1,6.6c1.4,1.5,3.1,2.3,5.1,2.3
				c1.9,0,3.8-0.6,5.6-1.8C432.6,240.2,434,238.5,435.1,236.3z M418.9,228.7h18.3c0-0.5,0-0.9,0-1.2c0-2.6-0.7-4.6-2.1-6
				c-1.4-1.4-3.2-2.1-5.4-2.1c-2.4,0-4.5,0.8-6.5,2.3C421.4,223.3,419.9,225.6,418.9,228.7z"/>
			<path d="M466.9,216.1h5.4l-3,13.1l0.4,0c1.2,0,2.3-0.5,3.3-1.4c1.1-0.9,2.4-2.7,4-5.2c1.8-2.8,3.4-4.6,4.8-5.3
				c1.5-0.8,3-1.2,4.5-1.2c1.1,0,2.3,0.2,3.4,0.5l-1.3,3.1c-0.7-0.2-1.3-0.3-1.8-0.3c-0.9,0-1.7,0.3-2.4,0.9
				c-0.7,0.6-1.6,1.8-2.7,3.7c-2.3,3.8-4.8,6.1-7.6,7c1,0.3,1.9,0.9,2.8,1.6c0.9,0.7,1.8,2.2,2.7,4.4l4.1,9.8H478l-3.2-7.8
				c-1-2.4-1.9-4.1-2.7-4.9c-0.8-0.9-2-1.4-3.4-1.6l-3.3,14.3h-5.5l3.3-14.3c-1.1,0-2.2,0.4-3.2,1s-2.6,2.3-5,5.2l-6.7,8.2h-6.7
				l8.6-10.2c2.5-3,5.2-4.9,8.1-5.6c-1.2-0.7-2.1-1.6-2.8-2.7c-0.6-1-1.2-2.9-1.7-5.6c-0.2-1.3-0.5-2.2-0.9-2.7
				c-0.4-0.4-0.9-0.7-1.6-0.7c-0.5,0-1.3,0.1-2.4,0.4l0.4-3.3c1-0.2,1.9-0.3,2.9-0.3c1.9,0,3.3,0.5,4.2,1.5c0.8,1,1.6,2.8,2.1,5.4
				c0.6,2.6,1.2,4.2,1.9,5s1.8,1.2,3.4,1.2L466.9,216.1z"/>
			<path d="M495.4,216.1h5.5l-2.9,12.8h15.1l2.9-12.8h5.4l-6.9,30.6H509l3.1-13.7h-15.1l-3.1,13.7h-5.5L495.4,216.1z"/>
			<path d="M524.2,235.1c0-6,1.9-10.9,5.6-14.9c3.1-3.2,7.1-4.8,12.1-4.8c3.9,0,7.1,1.2,9.5,3.5c2.4,2.3,3.6,5.4,3.6,9.3
				c0,3.5-0.8,6.8-2.3,9.8c-1.5,3-3.7,5.3-6.5,7c-2.8,1.6-5.7,2.4-8.8,2.4c-2.5,0-4.8-0.5-6.9-1.5s-3.7-2.5-4.8-4.3
				C524.7,239.7,524.2,237.6,524.2,235.1z M529.7,234.6c0,2.9,0.7,5.1,2.2,6.6c1.5,1.5,3.3,2.2,5.6,2.2c1.2,0,2.4-0.2,3.5-0.7
				c1.2-0.5,2.2-1.1,3.3-2.1c1-0.9,1.9-2,2.6-3.2s1.3-2.5,1.7-3.8c0.6-1.9,1-3.7,1-5.5c0-2.8-0.7-4.9-2.2-6.4
				c-1.5-1.5-3.3-2.3-5.6-2.3c-1.7,0-3.3,0.4-4.8,1.2c-1.4,0.8-2.7,1.9-3.9,3.4c-1.2,1.5-2,3.2-2.5,5.2
				C530,231.3,529.7,233,529.7,234.6z"/>
			<path d="M582,236.3l5.4,0.5c-0.8,2.5-2.6,4.9-5.4,7.2c-2.8,2.3-6.1,3.4-10,3.4c-2.4,0-4.6-0.5-6.6-1.6c-2-1-3.5-2.6-4.6-4.6
				c-1.1-2-1.6-4.3-1.6-6.8c0-3.3,0.8-6.6,2.5-9.7c1.6-3.1,3.8-5.5,6.4-7c2.6-1.5,5.4-2.3,8.5-2.3c3.9,0,7,1.1,9.3,3.4
				c2.3,2.3,3.5,5.4,3.5,9.3c0,1.5-0.1,3-0.4,4.6h-24c-0.1,0.6-0.1,1.1-0.1,1.6c0,2.9,0.7,5.1,2.1,6.6c1.4,1.5,3.1,2.3,5.1,2.3
				c1.9,0,3.8-0.6,5.6-1.8C579.6,240.2,581,238.5,582,236.3z M565.9,228.7h18.3c0-0.5,0-0.9,0-1.2c0-2.6-0.7-4.6-2.1-6
				c-1.4-1.4-3.2-2.1-5.4-2.1c-2.4,0-4.5,0.8-6.5,2.3C568.3,223.3,566.9,225.6,565.9,228.7z"/>
			<path d="M607.8,258.5l9.4-42.4h5.1l-1,4.3c1.9-1.9,3.6-3.2,5.1-3.9c1.5-0.7,3.1-1.1,4.8-1.1c3.1,0,5.7,1.1,7.7,3.2
				c2,2.1,3.1,5.2,3.1,9.1c0,3.2-0.6,6.1-1.7,8.7s-2.5,4.7-4.1,6.3c-1.6,1.6-3.3,2.8-5,3.5c-1.7,0.8-3.4,1.1-5.2,1.1
				c-3.9,0-6.9-1.9-9.1-5.6l-3.7,16.6H607.8z M618.8,234.2c0,2.3,0.2,3.9,0.5,4.8c0.5,1.3,1.3,2.3,2.5,3c1.2,0.8,2.5,1.2,4,1.2
				c3.2,0,5.8-1.7,7.7-5.1c2-3.4,2.9-6.8,2.9-10.3c0-2.6-0.7-4.6-2-6c-1.3-1.4-3-2.1-4.9-2.1c-1.4,0-2.7,0.4-3.9,1.1
				c-1.2,0.7-2.3,1.7-3.4,3.1c-1,1.4-1.9,3.1-2.6,5.1C619.1,231,618.8,232.7,618.8,234.2z"/>
			<path d="M667.4,242.9c-1.9,1.6-3.8,2.7-5.6,3.4c-1.8,0.7-3.7,1.1-5.7,1.1c-3,0-5.4-0.8-7.3-2.5s-2.8-3.8-2.8-6.4
				c0-1.7,0.4-3.2,1.2-4.5c0.8-1.3,1.9-2.4,3.3-3.2s3-1.4,5-1.7c1.2-0.2,3.6-0.4,7.1-0.5c3.5-0.1,6-0.5,7.5-1
				c0.4-1.4,0.6-2.6,0.6-3.5c0-1.2-0.5-2.2-1.4-2.9c-1.3-1-3.2-1.4-5.6-1.4c-2.3,0-4.2,0.5-5.7,1.5c-1.5,1-2.6,2.4-3.2,4.1l-5.6-0.5
				c1.1-3,3-5.4,5.4-7c2.5-1.6,5.6-2.4,9.4-2.4c4,0,7.2,0.9,9.6,2.7c1.8,1.3,2.7,3.1,2.7,5.2c0,1.6-0.3,3.5-0.8,5.7l-1.8,7.6
				c-0.6,2.4-0.9,4.4-0.9,5.9c0,1,0.2,2.3,0.7,4.2h-5.6C667.8,245.7,667.5,244.5,667.4,242.9z M669.5,231.2
				c-0.8,0.3-1.6,0.5-2.5,0.7c-0.9,0.2-2.4,0.3-4.5,0.5c-3.2,0.3-5.5,0.6-6.8,1s-2.3,1.1-3,2c-0.7,0.9-1,1.9-1,3
				c0,1.5,0.5,2.7,1.6,3.6c1.1,0.9,2.6,1.4,4.6,1.4c1.8,0,3.6-0.5,5.3-1.4s3-2.2,4-3.8C668.1,236.6,668.9,234.2,669.5,231.2z"/>
			<path d="M687.7,224l-5.1-0.5c1.3-3.1,3-5.2,5-6.3s4.5-1.7,7.5-1.7c3.3,0,5.8,0.7,7.7,2.1c1.9,1.4,2.8,3.3,2.8,5.6
				c0,1.8-0.5,3.4-1.5,4.7s-2.5,2.4-4.4,3.2c2.6,1.5,3.9,3.7,3.9,6.4c0,2.6-1.1,5-3.3,7c-2.2,2-5.4,3-9.6,3
				c-7.2,0-11.4-3.1-12.7-9.3l5.3-0.4c0.8,3.8,3.4,5.7,7.7,5.7c2.1,0,3.8-0.5,5.1-1.6c1.3-1,2-2.4,2-4.1c0-1.3-0.4-2.3-1.1-3
				c-0.7-0.8-1.6-1.2-2.7-1.4c-1.1-0.2-2.8-0.3-5.1-0.3l1-4.1c0.5,0,0.9,0.1,1.4,0.1c2.9,0,5-0.5,6.5-1.4c1.4-0.9,2.2-2.3,2.2-4.1
				c0-1.4-0.5-2.5-1.4-3.2c-0.9-0.7-2.3-1.1-4.2-1.1c-1.2,0-2.4,0.2-3.5,0.7S688.7,221.8,687.7,224z"/>
			<path d="M729.9,230.7c2.1,0.7,3.6,1.6,4.6,2.8c1,1.2,1.5,2.6,1.5,4.3c0,2.3-1.1,4.5-3.3,6.6c-2.2,2-5.5,3.1-9.8,3.1
				c-3.2,0-5.8-0.5-7.7-1.5s-3.4-2.5-4.5-4.4s-1.7-4-1.7-6.3c0-5.4,1.7-10.1,5-14c3.3-3.9,7.8-5.8,13.5-5.8c3.4,0,6,0.7,7.8,2.2
				s2.7,3.3,2.7,5.4c0,1.9-0.7,3.6-2,4.8C734.7,229.1,732.7,230.1,729.9,230.7z M715.1,232.6c-0.1,0.8-0.2,1.6-0.2,2.5
				c0,2.4,0.7,4.4,2.2,6s3.6,2.3,6.3,2.3c2.1,0,3.9-0.5,5.1-1.6c1.3-1.1,1.9-2.4,1.9-3.9c0-2.1-0.9-3.5-2.7-4.2c-1.8-0.7-5-1-9.8-1
				C717.5,232.6,716.6,232.6,715.1,232.6z M715.9,228.5c1.5,0.1,2.8,0.2,3.9,0.2c4.2,0,7.4-0.4,9.5-1.3c2.1-0.9,3.1-2.2,3.1-3.9
				c0-1.1-0.5-2.1-1.4-2.8c-0.9-0.7-2.1-1.1-3.6-1.1c-2.5,0-4.9,0.8-7,2.4C718.3,223.6,716.8,225.7,715.9,228.5z"/>
			<path d="M763.2,241.2c-3.9,4.2-7.9,6.2-12,6.2c-2.5,0-4.5-0.7-6.1-2s-2.3-3-2.3-5c0-1.3,0.3-3.5,1-6.6l3.9-17.7h5.6l-4.4,19.6
				c-0.4,1.6-0.6,2.9-0.6,3.8c0,1.2,0.4,2.1,1.1,2.7c0.7,0.6,1.8,1,3.3,1c1.6,0,3.1-0.4,4.6-1.1c1.5-0.7,2.8-1.7,3.8-2.9
				s1.9-2.6,2.6-4.3c0.4-1.1,1-2.9,1.6-5.6l2.9-13.2h5.6l-6.8,30.6H762L763.2,241.2z"/>
			<path d="M775.9,246.7l6.8-30.6h5.6l-1.1,5c2.1-2.2,3.9-3.7,5.5-4.5c1.6-0.8,3.4-1.2,5.3-1.2c2,0,3.7,0.5,5.1,1.5
				c1.4,1,2.3,2.4,2.7,4.2c1.7-1.9,3.4-3.4,5.2-4.3s3.8-1.4,5.8-1.4c2.7,0,4.8,0.6,6.1,1.8c1.4,1.2,2,2.9,2,5.1
				c0,0.9-0.2,2.5-0.7,4.7l-4.4,19.7h-5.6l4.5-20.2c0.4-1.7,0.6-2.8,0.6-3.5c0-1-0.3-1.8-1-2.4s-1.6-0.9-2.9-0.9
				c-1.7,0-3.3,0.5-5.1,1.4c-1.7,0.9-3.1,2.2-4,3.7s-1.8,3.9-2.5,7.1l-3.3,14.9H795l4.6-20.7c0.3-1.4,0.5-2.4,0.5-3
				c0-1-0.3-1.8-1-2.4c-0.7-0.6-1.5-0.9-2.6-0.9c-1.6,0-3.2,0.5-5,1.4c-1.7,0.9-3.1,2.3-4.2,3.9c-1.1,1.7-2,4.1-2.7,7.2l-3.2,14.5
				H775.9z"/>
			<path d="M850.5,241.2c-3.9,4.2-7.9,6.2-12,6.2c-2.5,0-4.5-0.7-6.1-2s-2.3-3-2.3-5c0-1.3,0.3-3.5,1-6.6l3.9-17.7h5.6l-4.4,19.6
				c-0.4,1.6-0.6,2.9-0.6,3.8c0,1.2,0.4,2.1,1.1,2.7c0.7,0.6,1.8,1,3.3,1c1.6,0,3.1-0.4,4.6-1.1c1.5-0.7,2.8-1.7,3.8-2.9
				s1.9-2.6,2.6-4.3c0.4-1.1,1-2.9,1.6-5.6l2.9-13.2h5.6l-6.8,30.6h-5.1L850.5,241.2z"/>
			<path d="M887.1,236.3l5.4,0.5c-0.8,2.5-2.6,4.9-5.4,7.2c-2.8,2.3-6.1,3.4-10,3.4c-2.4,0-4.6-0.5-6.6-1.6c-2-1-3.5-2.6-4.6-4.6
				c-1.1-2-1.6-4.3-1.6-6.8c0-3.3,0.8-6.6,2.5-9.7c1.6-3.1,3.8-5.5,6.4-7c2.6-1.5,5.5-2.3,8.5-2.3c3.9,0,7,1.1,9.3,3.4
				c2.3,2.3,3.5,5.4,3.5,9.3c0,1.5-0.1,3-0.4,4.6h-24c-0.1,0.6-0.1,1.1-0.1,1.6c0,2.9,0.7,5.1,2.1,6.6c1.4,1.5,3.1,2.3,5.1,2.3
				c1.9,0,3.8-0.6,5.6-1.8C884.7,240.2,886.1,238.5,887.1,236.3z M871,228.7h18.3c0-0.5,0-0.9,0-1.2c0-2.6-0.7-4.6-2.1-6
				c-1.4-1.4-3.2-2.1-5.4-2.1c-2.4,0-4.5,0.8-6.5,2.3S872,225.6,871,228.7z"/>
		</g>
	</g>
	<g>
		<path class="st10" d="M170.7,49.5c3.2,0.3,5.8,1.4,7.7,3.2c1.9,1.8,2.9,4.2,2.9,7.3c0,4.1-1.3,7.1-4,9.1c-2.7,2-7.5,3-14.4,3
			h-24.3V29.6h26.2c4.8,0,8.4,0.9,10.9,2.7c2.5,1.8,3.7,4.4,3.7,7.6c0,2.3-0.8,4.3-2.4,6c-1.6,1.7-3.7,2.8-6.3,3.4V49.5z M155,45.8
			h4.1c2.7,0,4.1-1.2,4.1-3.7c0-2-1.4-3-4.3-3H155V45.8z M155,62.1h5.4c1.3,0,2.4-0.3,3.2-0.9c0.8-0.6,1.2-1.5,1.2-2.7
			c0-2.6-1.5-3.8-4.5-3.8H155V62.1z"/>
		<path class="st10" d="M204,43.4l-15.6-1.6c0.6-2.7,1.4-4.9,2.5-6.4c1.1-1.6,2.7-2.9,4.8-4.1c1.5-0.8,3.5-1.5,6.2-1.9
			c2.6-0.5,5.4-0.7,8.5-0.7c4.9,0,8.8,0.3,11.8,0.8s5.4,1.7,7.4,3.4c1.4,1.2,2.5,2.9,3.3,5.1c0.8,2.2,1.2,4.3,1.2,6.3v18.8
			c0,2,0.1,3.6,0.4,4.7c0.3,1.1,0.8,2.6,1.7,4.3h-15.3c-0.6-1.1-1-1.9-1.2-2.5c-0.2-0.6-0.4-1.5-0.6-2.7c-2.1,2.1-4.3,3.5-6.4,4.4
			c-2.9,1.2-6.2,1.8-10,1.8c-5.1,0-8.9-1.2-11.6-3.5c-2.6-2.3-3.9-5.2-3.9-8.7c0-3.2,0.9-5.9,2.8-8c1.9-2.1,5.4-3.6,10.5-4.6
			c6.1-1.2,10.1-2.1,11.9-2.6c1.8-0.5,3.7-1.1,5.8-1.9c0-2-0.4-3.4-1.2-4.2c-0.8-0.8-2.3-1.2-4.4-1.2c-2.7,0-4.7,0.4-6,1.3
			C205.5,40.3,204.6,41.5,204,43.4z M218.1,51.9c-2.2,0.8-4.6,1.5-7,2.1c-3.3,0.9-5.4,1.7-6.3,2.6c-0.9,0.9-1.4,1.9-1.4,3
			c0,1.3,0.4,2.3,1.3,3.1c0.9,0.8,2.2,1.2,3.9,1.2c1.8,0,3.5-0.4,5.1-1.3s2.7-2,3.3-3.2c0.7-1.3,1-2.9,1-4.9V51.9z"/>
		<path class="st10" d="M302.8,72.1H289V45.4l-10.1,26.7h-9.8l-11-26.7v26.7h-13.8V29.6h19.4L274,54l9.3-24.4h19.4V72.1z"/>
		<path class="st10" d="M375.9,12.4v59.7h-16.5V33c-2.7,2-5.3,3.7-7.7,4.9c-2.5,1.3-5.6,2.5-9.4,3.6V28.1c5.6-1.8,9.9-3.9,12.9-6.4
			c3.1-2.5,5.5-5.6,7.2-9.3H375.9z"/>
		<path class="st10" d="M457.6,41.5h-18.1v30.6h-16.3V29.6h34.4V41.5z"/>
		<path class="st10" d="M462.2,51c0-6.5,2.2-11.8,6.6-16c4.4-4.2,10.3-6.3,17.7-6.3c8.5,0,14.9,2.5,19.3,7.4c3.5,4,5.2,8.9,5.2,14.7
			c0,6.5-2.2,11.9-6.5,16.1c-4.3,4.2-10.3,6.3-18,6.3c-6.8,0-12.4-1.7-16.6-5.2C464.8,63.6,462.2,57.9,462.2,51z M478.6,50.9
			c0,3.8,0.8,6.6,2.3,8.4c1.5,1.8,3.5,2.7,5.8,2.7c2.3,0,4.3-0.9,5.8-2.7c1.5-1.8,2.3-4.7,2.3-8.6c0-3.7-0.8-6.4-2.3-8.2
			c-1.5-1.8-3.4-2.7-5.6-2.7c-2.4,0-4.3,0.9-5.9,2.7C479.3,44.4,478.6,47.2,478.6,50.9z"/>
		<path class="st10" d="M567.3,84.2H556V72.1h-30.1v12.1h-11.3v-24h4.1c3-5.3,4.5-12.3,4.5-21v-9.6h39.6v30.6h4.5V84.2z M546.5,60.2
			V41.5h-7.8V42c0,5.9-1.3,12-3.8,18.3H546.5z"/>
		<path class="st10" d="M573.3,55.9h17.4v13.4c0,4.9-1,8.8-3.1,11.7c-2.1,2.9-5.6,5.4-10.5,7.6l-3.8-7.1c3.1-1.4,5.2-2.9,6.4-4.3
			c1.2-1.4,1.8-3.1,1.9-5.1h-8.3V55.9z"/>
		<path class="st10" d="M674,72.1h-48.9c0.6-4.8,2.3-9.4,5.1-13.6c2.8-4.3,8.2-9.3,16-15.1c4.8-3.5,7.8-6.2,9.2-8.1s2-3.6,2-5.2
			c0-1.8-0.7-3.3-2-4.6c-1.3-1.3-3-1.9-5-1.9c-2.1,0-3.8,0.7-5.1,2c-1.3,1.3-2.2,3.6-2.7,6.9l-16.3-1.3c0.6-4.6,1.8-8.2,3.5-10.8
			s4.1-4.6,7.2-5.9s7.4-2.1,12.9-2.1c5.7,0,10.2,0.7,13.4,2c3.2,1.3,5.7,3.3,7.5,6s2.7,5.7,2.7,9.1c0,3.6-1,7-3.1,10.3
			c-2.1,3.3-5.9,6.8-11.4,10.7c-3.3,2.3-5.5,3.9-6.6,4.8c-1.1,0.9-2.4,2.1-3.9,3.6H674V72.1z"/>
		<path class="st10" d="M757.4,72.1H742V51.2l-16,20.9h-15.5V29.6h15.4v21.2L742,29.6h15.4V72.1z"/>
		<path class="st10" d="M816.7,72.1h-16.3V41.5H788v17.8c0,4.8-1,8.3-2.9,10.6c-1.9,2.3-4.9,3.4-8.9,3.4c-4.5,0-8.6-0.4-12.2-1.2
			V60.1c1.9,0.6,3.4,0.9,4.4,0.9c2.2,0,3.3-1.6,3.3-4.9V29.6h45V72.1z"/>
		<path class="st10" d="M874,72.1h-15.4V51.2l-16,20.9h-15.5V29.6h15.4v21.2l16.2-21.2H874V72.1z"/>
		<path class="st10" d="M926,30.4l-15.4-2.8c1.3-4.9,3.7-8.7,7.4-11.3c3.6-2.6,8.8-3.9,15.5-3.9c7.7,0,13.2,1.4,16.6,4.3
			c3.4,2.9,5.1,6.4,5.1,10.8c0,2.5-0.7,4.8-2.1,6.9c-1.4,2.1-3.5,3.9-6.3,5.4c2.3,0.6,4,1.2,5.2,2c1.9,1.2,3.5,2.8,4.5,4.7
			c1.1,2,1.6,4.3,1.6,7c0,3.4-0.9,6.7-2.7,9.8s-4.4,5.6-7.7,7.2c-3.4,1.7-7.8,2.5-13.3,2.5c-5.3,0-9.5-0.6-12.6-1.9
			c-3.1-1.3-5.6-3.1-7.6-5.5s-3.5-5.5-4.6-9.1l16.3-2.2c0.6,3.3,1.6,5.6,3,6.8c1.3,1.3,3.1,1.9,5.1,1.9c2.2,0,4-0.8,5.5-2.4
			s2.2-3.7,2.2-6.4c0-2.7-0.7-4.8-2.1-6.3c-1.4-1.5-3.3-2.2-5.7-2.2c-1.3,0-3,0.3-5.3,1l0.8-11.7c0.9,0.1,1.6,0.2,2.1,0.2
			c2.1,0,3.9-0.7,5.3-2s2.1-3,2.1-4.8c0-1.8-0.5-3.2-1.6-4.3c-1.1-1.1-2.5-1.6-4.4-1.6c-1.9,0-3.5,0.6-4.7,1.7
			C927.2,25.4,926.4,27.5,926,30.4z"/>
		<path class="st10" d="M1020.3,53.7h-15.2v-1.5c0-2.6,0.3-4.7,0.9-6.3c0.6-1.6,1.5-3.1,2.6-4.4c1.2-1.3,3.8-3.7,7.8-7
			c2.2-1.8,3.2-3.4,3.2-4.8c0-1.5-0.4-2.6-1.3-3.4c-0.9-0.8-2.2-1.2-3.9-1.2c-1.9,0-3.5,0.6-4.7,1.9c-1.2,1.3-2,3.4-2.4,6.6
			l-15.5-1.9c0.5-5.7,2.6-10.3,6.2-13.8c3.6-3.5,9.2-5.2,16.6-5.2c5.8,0,10.5,1.2,14.1,3.6c4.9,3.3,7.3,7.7,7.3,13.1
			c0,2.3-0.6,4.5-1.9,6.6c-1.3,2.1-3.8,4.7-7.7,7.7c-2.7,2.1-4.4,3.9-5.1,5.1C1020.6,49.9,1020.3,51.6,1020.3,53.7z M1004.6,57.7
			h16.3v14.4h-16.3V57.7z"/>
		<path class="st10" d="M1043.9,13.4h17.4v13.4l-3.4,26.9h-10.8l-3.3-26.9V13.4z M1044.5,57.7h16.3v14.4h-16.3V57.7z"/>
	</g>
	<g>
		<rect x="306.3" y="272.9" class="st8" width="602.1" height="207.9"/>
		<path d="M306.3,285.8l4.4-6.7l-4-6.2h3l2.6,4.1l2.5-4.1h3l-4,6.3l4.4,6.6h-3.1l-2.9-4.5l-2.9,4.5H306.3z"/>
		<path d="M318.6,279.4c0-1.3,0.2-2.4,0.6-3.3c0.3-0.7,0.7-1.2,1.2-1.8s1.1-0.9,1.7-1.2c0.8-0.3,1.7-0.5,2.8-0.5
			c1.9,0,3.4,0.6,4.6,1.8s1.7,2.8,1.7,4.9c0,2.1-0.6,3.7-1.7,4.9s-2.6,1.8-4.5,1.8c-1.9,0-3.4-0.6-4.6-1.8
			C319.2,283.1,318.6,281.5,318.6,279.4z M321.3,279.3c0,1.5,0.3,2.6,1,3.3c0.7,0.8,1.5,1.1,2.6,1.1s1.9-0.4,2.6-1.1
			c0.7-0.7,1-1.9,1-3.4c0-1.5-0.3-2.6-1-3.3s-1.5-1.1-2.6-1.1s-1.9,0.4-2.6,1.1C321.6,276.8,321.3,277.9,321.3,279.3z"/>
		<path d="M336,285.8v-10.7h-3.8v-2.2h10.2v2.2h-3.8v10.7H336z"/>
		<path d="M344.2,272.9h2.4v8.6l5.2-8.6h2.6v12.9H352v-8.4l-5.2,8.4h-2.6V272.9z"/>
		<path d="M360,285.8v-10.7h-3.8v-2.2h10.2v2.2h-3.8v10.7H360z"/>
		<path d="M368.1,285.8v-12.9h9.6v2.2h-7v2.9h6.5v2.2h-6.5v3.5h7.2v2.2H368.1z"/>
		<path d="M380.4,285.8V284h1.8v1.8c0,0.7-0.1,1.2-0.4,1.6c-0.2,0.4-0.6,0.7-1.1,0.9l-0.4-0.7c0.3-0.1,0.6-0.4,0.7-0.6
			s0.2-0.7,0.3-1.2H380.4z"/>
		<path d="M389.4,276.5h1.6v1.8c0,0.8,0,1.3,0.1,1.7c0.1,0.3,0.3,0.6,0.7,0.9c0.3,0.3,0.8,0.4,1.3,0.4c0.6,0,1.4-0.2,2.3-0.5v-4.2
			h1.6v9.3h-1.6V282c-1,0.3-1.9,0.5-2.7,0.5c-0.7,0-1.3-0.2-1.9-0.5c-0.5-0.4-0.9-0.8-1.1-1.3s-0.3-1.1-0.3-1.7V276.5z"/>
		<path d="M398.5,276.5h7.6v1.3h-3v8h-1.6v-8h-3V276.5z"/>
		<path d="M406.8,281.1c0-1.7,0.5-3,1.4-3.8c0.8-0.7,1.8-1,2.9-1c1.3,0,2.3,0.4,3.1,1.3c0.8,0.8,1.2,2,1.2,3.5
			c0,1.2-0.2,2.1-0.5,2.8s-0.9,1.2-1.6,1.6s-1.4,0.6-2.3,0.6c-1.3,0-2.4-0.4-3.2-1.3S406.8,282.7,406.8,281.1z M408.4,281.1
			c0,1.2,0.3,2.1,0.8,2.7s1.2,0.9,2,0.9c0.8,0,1.4-0.3,2-0.9s0.8-1.5,0.8-2.7c0-1.2-0.3-2-0.8-2.6s-1.2-0.9-2-0.9
			c-0.8,0-1.4,0.3-2,0.9S408.4,279.9,408.4,281.1z"/>
		<path d="M424.2,272.6l1.4,0c-0.1,0.6-0.2,1.1-0.4,1.3s-0.5,0.4-0.8,0.5s-1,0.1-2,0.1c-1.3,0-2.2,0.1-2.7,0.4s-0.8,0.7-1,1.2
			c-0.2,0.6-0.3,1.3-0.3,2.1c0.4-0.6,0.9-1,1.4-1.3s1.1-0.4,1.8-0.4c1.2,0,2.2,0.4,3,1.3c0.8,0.8,1.2,2,1.2,3.4c0,1.1-0.2,2-0.6,2.7
			s-0.9,1.2-1.4,1.6s-1.3,0.6-2.3,0.6c-1.1,0-2-0.3-2.6-0.8c-0.6-0.5-1.1-1.2-1.4-1.9s-0.5-2.2-0.5-4.1c0-2.5,0.4-4.1,1.3-5
			s2.1-1.3,3.9-1.3c1.1,0,1.7,0,1.8-0.1S424.2,272.7,424.2,272.6z M424.1,281.1c0-1-0.2-1.8-0.7-2.4s-1.1-0.9-1.9-0.9
			c-0.9,0-1.5,0.3-2,1s-0.7,1.5-0.7,2.6c0,1.1,0.3,1.9,0.8,2.5s1.2,0.9,1.9,0.9c0.8,0,1.4-0.3,1.9-1
			C423.9,283.1,424.1,282.2,424.1,281.1z"/>
		<path d="M427.7,276.5h1.6v3.6h2c1.3,0,2.3,0.3,3,0.8c0.7,0.5,1.1,1.2,1.1,2.1c0,0.8-0.3,1.4-0.9,2c-0.6,0.6-1.5,0.8-2.8,0.8h-4
			V276.5z M429.3,284.5h1.7c1,0,1.7-0.1,2.1-0.4s0.6-0.6,0.6-1.2c0-0.4-0.2-0.8-0.5-1.1s-1-0.5-2.1-0.5h-1.9V284.5z M436.6,276.5
			h1.6v9.3h-1.6V276.5z"/>
		<path d="M445.8,285.8v-12.9h4.8c1,0,1.8,0.1,2.4,0.4s1.1,0.7,1.4,1.2c0.3,0.5,0.5,1.1,0.5,1.7c0,0.6-0.1,1.1-0.4,1.6
			s-0.8,0.9-1.4,1.2c0.8,0.2,1.4,0.6,1.8,1.2s0.6,1.2,0.6,2c0,0.6-0.1,1.2-0.4,1.7c-0.3,0.5-0.6,0.9-0.9,1.2s-0.8,0.5-1.4,0.6
			c-0.6,0.1-1.3,0.2-2.1,0.2H445.8z M447.5,278.3h2.8c0.8,0,1.3,0,1.6-0.1c0.4-0.1,0.8-0.3,1-0.6s0.3-0.7,0.3-1.1
			c0-0.4-0.1-0.8-0.3-1.1c-0.2-0.3-0.5-0.5-0.9-0.7c-0.4-0.1-1-0.2-2-0.2h-2.6V278.3z M447.5,284.3h3.2c0.6,0,0.9,0,1.2-0.1
			c0.4-0.1,0.7-0.2,1-0.4s0.5-0.4,0.7-0.7s0.3-0.7,0.3-1.1c0-0.5-0.1-0.9-0.4-1.3s-0.6-0.6-1-0.7c-0.4-0.1-1.1-0.2-1.9-0.2h-3V284.3
			z"/>
		<path d="M463.7,284.6c-0.6,0.5-1.1,0.8-1.7,1.1s-1.1,0.3-1.7,0.3c-1,0-1.8-0.3-2.4-0.8c-0.6-0.5-0.8-1.1-0.8-1.9
			c0-0.5,0.1-0.9,0.3-1.3c0.2-0.4,0.5-0.7,0.8-0.9s0.7-0.4,1.1-0.5c0.3-0.1,0.8-0.2,1.4-0.2c1.3-0.2,2.2-0.3,2.8-0.5
			c0-0.2,0-0.4,0-0.4c0-0.6-0.1-1.1-0.4-1.4c-0.4-0.4-1-0.5-1.8-0.5c-0.7,0-1.3,0.1-1.6,0.4c-0.4,0.3-0.6,0.7-0.8,1.4l-1.5-0.2
			c0.1-0.7,0.4-1.2,0.7-1.6s0.8-0.7,1.4-0.9c0.6-0.2,1.3-0.3,2.1-0.3c0.8,0,1.4,0.1,1.9,0.3s0.9,0.4,1.1,0.7s0.4,0.6,0.5,1.1
			c0.1,0.3,0.1,0.8,0.1,1.5v2.1c0,1.5,0,2.4,0.1,2.8s0.2,0.8,0.4,1.1H464C463.9,285.5,463.8,285.1,463.7,284.6z M463.6,281.1
			c-0.6,0.2-1.4,0.4-2.6,0.6c-0.7,0.1-1.1,0.2-1.4,0.3s-0.5,0.3-0.6,0.5c-0.1,0.2-0.2,0.5-0.2,0.8c0,0.4,0.2,0.8,0.5,1.1
			s0.8,0.4,1.4,0.4c0.6,0,1.2-0.1,1.6-0.4c0.5-0.3,0.8-0.6,1-1.1c0.2-0.4,0.3-0.9,0.3-1.6V281.1z"/>
		<path d="M467.7,276.5h1.6v8h3.6v-8h1.6v8h3.6v-8h1.6v9.3h-12V276.5z"/>
		<path d="M482.1,276.5h1.6v7.1l4.4-7.1h1.7v9.3h-1.6v-7.1l-4.4,7.1h-1.7V276.5z"/>
		<path d="M497.2,276.5h2.5l2.5,7.5l2.7-7.5h2.3v9.3h-1.6v-7.5l-2.8,7.5h-1.4l-2.6-7.9v7.9h-1.5V276.5z"/>
		<path d="M515.6,284.6c-0.6,0.5-1.1,0.8-1.7,1.1s-1.1,0.3-1.7,0.3c-1,0-1.8-0.3-2.4-0.8c-0.6-0.5-0.8-1.1-0.8-1.9
			c0-0.5,0.1-0.9,0.3-1.3c0.2-0.4,0.5-0.7,0.8-0.9s0.7-0.4,1.1-0.5c0.3-0.1,0.8-0.2,1.4-0.2c1.3-0.2,2.2-0.3,2.8-0.5
			c0-0.2,0-0.4,0-0.4c0-0.6-0.1-1.1-0.4-1.4c-0.4-0.4-1-0.5-1.8-0.5c-0.7,0-1.3,0.1-1.6,0.4c-0.4,0.3-0.6,0.7-0.8,1.4l-1.5-0.2
			c0.1-0.7,0.4-1.2,0.7-1.6s0.8-0.7,1.4-0.9c0.6-0.2,1.3-0.3,2.1-0.3c0.8,0,1.4,0.1,1.9,0.3s0.9,0.4,1.1,0.7s0.4,0.6,0.5,1.1
			c0.1,0.3,0.1,0.8,0.1,1.5v2.1c0,1.5,0,2.4,0.1,2.8s0.2,0.8,0.4,1.1h-1.7C515.8,285.5,515.6,285.1,515.6,284.6z M515.5,281.1
			c-0.6,0.2-1.4,0.4-2.6,0.6c-0.7,0.1-1.1,0.2-1.4,0.3s-0.5,0.3-0.6,0.5c-0.1,0.2-0.2,0.5-0.2,0.8c0,0.4,0.2,0.8,0.5,1.1
			s0.8,0.4,1.4,0.4c0.6,0,1.2-0.1,1.6-0.4c0.5-0.3,0.8-0.6,1-1.1c0.2-0.4,0.3-0.9,0.3-1.6V281.1z"/>
		<path d="M520.3,276.5h7.3v9.3h-1.6v-8h-4.2v4.6c0,1.1,0,1.8-0.1,2.1s-0.3,0.6-0.6,0.9s-0.8,0.4-1.4,0.4c-0.4,0-0.8,0-1.3-0.1v-1.3
			h0.7c0.3,0,0.6,0,0.7-0.1c0.1-0.1,0.2-0.2,0.3-0.3s0.1-0.6,0.1-1.4V276.5z"/>
		<path d="M530.1,276.5h1.6v3.6h2c1.3,0,2.3,0.3,3,0.8c0.7,0.5,1.1,1.2,1.1,2.1c0,0.8-0.3,1.4-0.9,2c-0.6,0.6-1.5,0.8-2.8,0.8h-4
			V276.5z M531.6,284.5h1.7c1,0,1.7-0.1,2.1-0.4s0.6-0.6,0.6-1.2c0-0.4-0.2-0.8-0.5-1.1s-1-0.5-2.1-0.5h-1.9V284.5z M538.9,276.5
			h1.6v9.3h-1.6V276.5z"/>
		<path d="M543,276.5h1.6v8h3.6v-8h1.6v8h3.6v-8h1.6v9.3h-12V276.5z"/>
		<path d="M557.4,276.5h1.6v7.1l4.4-7.1h1.7v9.3h-1.6v-7.1l-4.4,7.1h-1.7V276.5z"/>
		<path d="M578.5,282.4l1.6,0.2c-0.2,1.1-0.6,1.9-1.3,2.5c-0.7,0.6-1.6,0.9-2.6,0.9c-1.3,0-2.3-0.4-3.1-1.3c-0.8-0.8-1.2-2-1.2-3.6
			c0-1,0.2-1.9,0.5-2.6s0.8-1.3,1.5-1.7c0.7-0.4,1.4-0.6,2.2-0.6c1,0,1.8,0.3,2.5,0.8c0.6,0.5,1.1,1.2,1.2,2.2l-1.5,0.2
			c-0.1-0.6-0.4-1.1-0.8-1.4s-0.8-0.5-1.3-0.5c-0.8,0-1.4,0.3-1.9,0.9c-0.5,0.6-0.7,1.5-0.7,2.7c0,1.3,0.2,2.2,0.7,2.7
			s1.1,0.9,1.9,0.9c0.6,0,1.1-0.2,1.6-0.6S578.4,283.2,578.5,282.4z"/>
		<path d="M580.6,276.5h7.6v1.3h-3v8h-1.6v-8h-3V276.5z"/>
		<path d="M595.6,284.6c-0.6,0.5-1.1,0.8-1.7,1.1s-1.1,0.3-1.7,0.3c-1,0-1.8-0.3-2.4-0.8c-0.6-0.5-0.8-1.1-0.8-1.9
			c0-0.5,0.1-0.9,0.3-1.3c0.2-0.4,0.5-0.7,0.8-0.9s0.7-0.4,1.1-0.5c0.3-0.1,0.8-0.2,1.4-0.2c1.3-0.2,2.2-0.3,2.8-0.5
			c0-0.2,0-0.4,0-0.4c0-0.6-0.1-1.1-0.4-1.4c-0.4-0.4-1-0.5-1.8-0.5c-0.7,0-1.3,0.1-1.6,0.4c-0.4,0.3-0.6,0.7-0.8,1.4l-1.5-0.2
			c0.1-0.7,0.4-1.2,0.7-1.6s0.8-0.7,1.4-0.9c0.6-0.2,1.3-0.3,2.1-0.3c0.8,0,1.4,0.1,1.9,0.3s0.9,0.4,1.1,0.7s0.4,0.6,0.5,1.1
			c0.1,0.3,0.1,0.8,0.1,1.5v2.1c0,1.5,0,2.4,0.1,2.8s0.2,0.8,0.4,1.1h-1.7C595.7,285.5,595.6,285.1,595.6,284.6z M595.5,281.1
			c-0.6,0.2-1.4,0.4-2.6,0.6c-0.7,0.1-1.1,0.2-1.4,0.3s-0.5,0.3-0.6,0.5c-0.1,0.2-0.2,0.5-0.2,0.8c0,0.4,0.2,0.8,0.5,1.1
			s0.8,0.4,1.4,0.4c0.6,0,1.2-0.1,1.6-0.4c0.5-0.3,0.8-0.6,1-1.1c0.2-0.4,0.3-0.9,0.3-1.6V281.1z"/>
		<path d="M600.3,276.5h7.3v9.3h-1.6v-8h-4.2v4.6c0,1.1,0,1.8-0.1,2.1s-0.3,0.6-0.6,0.9s-0.8,0.4-1.4,0.4c-0.4,0-0.8,0-1.3-0.1v-1.3
			h0.7c0.3,0,0.6,0,0.7-0.1c0.1-0.1,0.2-0.2,0.3-0.3s0.1-0.6,0.1-1.4V276.5z"/>
		<path d="M610,276.5h1.6v7.1l4.4-7.1h1.7v9.3h-1.6v-7.1l-4.4,7.1H610V276.5z"/>
		<path d="M627.1,281.6v-1.2c0.7,0,1.1,0,1.4-0.1c0.2,0,0.5-0.2,0.7-0.4s0.3-0.5,0.3-0.9c0-0.4-0.1-0.8-0.4-1
			c-0.3-0.3-0.7-0.4-1.1-0.4c-0.9,0-1.5,0.5-1.9,1.6l-1.5-0.2c0.5-1.8,1.6-2.6,3.4-2.6c1,0,1.8,0.3,2.3,0.8c0.6,0.5,0.8,1.2,0.8,2
			c0,0.8-0.4,1.4-1.1,1.8c0.5,0.3,0.8,0.6,1.1,1c0.2,0.4,0.4,0.9,0.4,1.4c0,0.8-0.3,1.5-0.9,2s-1.5,0.8-2.6,0.8
			c-2.1,0-3.4-0.9-3.7-2.8l1.5-0.3c0.1,0.6,0.4,1.1,0.8,1.4c0.4,0.3,0.9,0.5,1.4,0.5s1-0.2,1.3-0.5c0.4-0.3,0.5-0.7,0.5-1.2
			c0-0.4-0.1-0.7-0.3-0.9s-0.5-0.4-0.7-0.5s-0.7-0.1-1.4-0.1C627.4,281.6,627.3,281.6,627.1,281.6z"/>
		<path d="M634.2,276.5h6.5v8h1v3.9h-1.3v-2.6H633v2.6h-1.3v-3.9h0.8C633.7,283,634.2,280.3,634.2,276.5z M635.5,277.8
			c-0.1,3-0.6,5.3-1.4,6.7h5v-6.7H635.5z"/>
		<path d="M642.8,281.1c0-1.7,0.5-3,1.4-3.8c0.8-0.7,1.8-1,2.9-1c1.3,0,2.3,0.4,3.1,1.3c0.8,0.8,1.2,2,1.2,3.5
			c0,1.2-0.2,2.1-0.5,2.8c-0.4,0.7-0.9,1.2-1.6,1.6c-0.7,0.4-1.4,0.6-2.3,0.6c-1.3,0-2.4-0.4-3.2-1.3
			C643.2,283.9,642.8,282.7,642.8,281.1z M644.5,281.1c0,1.2,0.3,2.1,0.8,2.7s1.2,0.9,2,0.9c0.8,0,1.4-0.3,2-0.9s0.8-1.5,0.8-2.7
			c0-1.2-0.3-2-0.8-2.6c-0.5-0.6-1.2-0.9-2-0.9c-0.8,0-1.4,0.3-2,0.9S644.5,279.9,644.5,281.1z"/>
		<path d="M653.4,289.4v-12.9h1.4v1.2c0.3-0.5,0.7-0.8,1.2-1.1c0.4-0.2,0.9-0.4,1.6-0.4c0.8,0,1.5,0.2,2.1,0.6s1.1,1,1.4,1.7
			c0.3,0.7,0.5,1.6,0.5,2.5c0,1-0.2,1.8-0.5,2.6c-0.3,0.8-0.8,1.4-1.5,1.8c-0.7,0.4-1.3,0.6-2.1,0.6c-0.5,0-1-0.1-1.4-0.3
			c-0.4-0.2-0.8-0.5-1-0.8v4.5H653.4z M654.9,281.2c0,1.2,0.2,2.1,0.7,2.7s1.1,0.9,1.8,0.9c0.7,0,1.3-0.3,1.8-0.9
			c0.5-0.6,0.8-1.5,0.8-2.8c0-1.2-0.2-2.1-0.7-2.7c-0.5-0.6-1.1-0.9-1.8-0.9c-0.7,0-1.3,0.3-1.8,0.9
			C655.1,279.1,654.9,280,654.9,281.2z"/>
		<path d="M662.9,281.1c0-1.7,0.5-3,1.4-3.8c0.8-0.7,1.8-1,2.9-1c1.3,0,2.3,0.4,3.1,1.3c0.8,0.8,1.2,2,1.2,3.5
			c0,1.2-0.2,2.1-0.5,2.8c-0.4,0.7-0.9,1.2-1.6,1.6c-0.7,0.4-1.4,0.6-2.3,0.6c-1.3,0-2.4-0.4-3.2-1.3
			C663.3,283.9,662.9,282.7,662.9,281.1z M664.5,281.1c0,1.2,0.3,2.1,0.8,2.7s1.2,0.9,2,0.9c0.8,0,1.4-0.3,2-0.9s0.8-1.5,0.8-2.7
			c0-1.2-0.3-2-0.8-2.6c-0.5-0.6-1.2-0.9-2-0.9c-0.8,0-1.4,0.3-2,0.9S664.5,279.9,664.5,281.1z"/>
		<path d="M673.5,276.5h3.6c0.9,0,1.6,0.1,2,0.2c0.4,0.2,0.8,0.4,1.1,0.8c0.3,0.4,0.5,0.9,0.5,1.4c0,0.4-0.1,0.8-0.3,1.2
			c-0.2,0.3-0.5,0.6-0.8,0.8c0.4,0.1,0.8,0.4,1.1,0.8c0.3,0.4,0.4,0.9,0.4,1.4c-0.1,0.9-0.4,1.5-0.9,2s-1.4,0.6-2.5,0.6h-4.2V276.5z
			 M675,280.4h1.7c0.7,0,1.1,0,1.4-0.1s0.5-0.2,0.7-0.4s0.3-0.5,0.3-0.8c0-0.5-0.2-0.8-0.5-1c-0.3-0.2-0.9-0.3-1.8-0.3H675V280.4z
			 M675,284.5h2.1c0.9,0,1.5-0.1,1.8-0.3s0.5-0.6,0.5-1.1c0-0.3-0.1-0.6-0.3-0.8c-0.2-0.3-0.4-0.4-0.8-0.5s-0.8-0.1-1.5-0.1H675
			V284.5z"/>
		<path d="M683.1,276.5h1.6v3.6h2c1.3,0,2.3,0.3,3,0.8c0.7,0.5,1.1,1.2,1.1,2.1c0,0.8-0.3,1.4-0.9,2c-0.6,0.6-1.5,0.8-2.8,0.8h-4
			V276.5z M684.6,284.5h1.7c1,0,1.7-0.1,2.1-0.4s0.6-0.6,0.6-1.2c0-0.4-0.2-0.8-0.5-1.1s-1-0.5-2.1-0.5h-1.9V284.5z M691.9,276.5
			h1.6v9.3h-1.6V276.5z"/>
		<path d="M696,276.5h2.5l2.5,7.5l2.7-7.5h2.3v9.3h-1.6v-7.5l-2.8,7.5h-1.4l-2.6-7.9v7.9H696V276.5z"/>
		<path d="M708.3,276.5h1.6v7.1l4.4-7.1h1.7v9.3h-1.6v-7.1l-4.4,7.1h-1.7V276.5z"/>
		<path d="M718.8,285.8V284h1.8v1.8c0,0.7-0.1,1.2-0.4,1.6c-0.2,0.4-0.6,0.7-1.1,0.9l-0.4-0.7c0.3-0.1,0.6-0.4,0.7-0.6
			s0.2-0.7,0.3-1.2H718.8z"/>
		<path d="M728.4,276.5h3.6c0.9,0,1.6,0.1,2,0.2c0.4,0.2,0.8,0.4,1.1,0.8c0.3,0.4,0.5,0.9,0.5,1.4c0,0.4-0.1,0.8-0.3,1.2
			c-0.2,0.3-0.5,0.6-0.8,0.8c0.4,0.1,0.8,0.4,1.1,0.8c0.3,0.4,0.4,0.9,0.4,1.4c-0.1,0.9-0.4,1.5-0.9,2s-1.4,0.6-2.5,0.6h-4.2V276.5z
			 M730,280.4h1.7c0.7,0,1.1,0,1.4-0.1s0.5-0.2,0.7-0.4s0.3-0.5,0.3-0.8c0-0.5-0.2-0.8-0.5-1c-0.3-0.2-0.9-0.3-1.8-0.3H730V280.4z
			 M730,284.5h2.1c0.9,0,1.5-0.1,1.8-0.3s0.5-0.6,0.5-1.1c0-0.3-0.1-0.6-0.3-0.8c-0.2-0.3-0.4-0.4-0.8-0.5s-0.8-0.1-1.5-0.1H730
			V284.5z"/>
		<path d="M738,276.5h1.6v3.9h4.4v-3.9h1.6v9.3h-1.6v-4.1h-4.4v4.1H738V276.5z"/>
		<path d="M747.9,276.5h1.6v7.1l4.4-7.1h1.7v9.3H754v-7.1l-4.4,7.1h-1.7V276.5z"/>
		<path d="M758,276.5h2.5l2.5,7.5l2.7-7.5h2.3v9.3h-1.6v-7.5l-2.8,7.5h-1.4l-2.6-7.9v7.9H758V276.5z"/>
		<path d="M776.4,284.6c-0.6,0.5-1.2,0.8-1.7,1.1s-1.1,0.3-1.7,0.3c-1,0-1.8-0.3-2.4-0.8c-0.6-0.5-0.8-1.1-0.8-1.9
			c0-0.5,0.1-0.9,0.3-1.3c0.2-0.4,0.5-0.7,0.8-0.9c0.3-0.2,0.7-0.4,1.1-0.5c0.3-0.1,0.8-0.2,1.4-0.2c1.3-0.2,2.2-0.3,2.8-0.5
			c0-0.2,0-0.4,0-0.4c0-0.6-0.1-1.1-0.4-1.4c-0.4-0.4-1-0.5-1.8-0.5c-0.7,0-1.3,0.1-1.6,0.4c-0.4,0.3-0.6,0.7-0.8,1.4l-1.5-0.2
			c0.1-0.7,0.4-1.2,0.7-1.6s0.8-0.7,1.4-0.9c0.6-0.2,1.3-0.3,2.1-0.3c0.8,0,1.4,0.1,1.9,0.3s0.9,0.4,1.1,0.7s0.4,0.6,0.5,1.1
			c0.1,0.3,0.1,0.8,0.1,1.5v2.1c0,1.5,0,2.4,0.1,2.8c0.1,0.4,0.2,0.8,0.4,1.1h-1.7C776.6,285.5,776.5,285.1,776.4,284.6z
			 M776.3,281.1c-0.6,0.2-1.4,0.4-2.6,0.6c-0.7,0.1-1.1,0.2-1.4,0.3s-0.5,0.3-0.6,0.5c-0.1,0.2-0.2,0.5-0.2,0.8
			c0,0.4,0.2,0.8,0.5,1.1c0.3,0.3,0.8,0.4,1.4,0.4c0.6,0,1.2-0.1,1.6-0.4c0.5-0.3,0.8-0.6,1-1.1c0.2-0.4,0.3-0.9,0.3-1.6V281.1z"/>
		<path d="M779.1,276.5h7.6v1.3h-3v8h-1.6v-8h-3V276.5z"/>
		<path d="M794.4,282.8l1.6,0.2c-0.3,1-0.7,1.7-1.4,2.2s-1.6,0.8-2.7,0.8c-1.4,0-2.4-0.4-3.2-1.3c-0.8-0.8-1.2-2-1.2-3.5
			c0-1.6,0.4-2.8,1.2-3.7s1.9-1.3,3.1-1.3c1.2,0,2.3,0.4,3.1,1.3s1.2,2,1.2,3.6c0,0.1,0,0.2,0,0.4h-7c0.1,1,0.3,1.8,0.9,2.4
			s1.2,0.8,2,0.8c0.6,0,1.1-0.2,1.5-0.5S794.1,283.5,794.4,282.8z M789.2,280.2h5.2c-0.1-0.8-0.3-1.4-0.6-1.8
			c-0.5-0.6-1.2-0.9-2-0.9c-0.7,0-1.3,0.2-1.8,0.7S789.2,279.4,789.2,280.2z"/>
		<path d="M798.2,276.5h7.3v9.3h-1.6v-8h-4.2v4.6c0,1.1,0,1.8-0.1,2.1s-0.3,0.6-0.6,0.9s-0.8,0.4-1.4,0.4c-0.4,0-0.8,0-1.3-0.1v-1.3
			h0.7c0.3,0,0.6,0,0.7-0.1c0.1-0.1,0.2-0.2,0.3-0.3s0.1-0.6,0.1-1.4V276.5z"/>
		<path d="M807.9,276.5h1.6v3.6h2c1.3,0,2.3,0.3,3,0.8c0.7,0.5,1.1,1.2,1.1,2.1c0,0.8-0.3,1.4-0.9,2c-0.6,0.6-1.5,0.8-2.8,0.8h-4
			V276.5z M809.5,284.5h1.7c1,0,1.7-0.1,2.1-0.4s0.6-0.6,0.6-1.2c0-0.4-0.2-0.8-0.5-1.1s-1-0.5-2.1-0.5h-1.9V284.5z"/>
		<path d="M817.3,276.5h1.6v3.9h4.4v-3.9h1.6v9.3h-1.6v-4.1h-4.4v4.1h-1.6V276.5z"/>
		<path d="M827.3,276.5h1.6v3.6h2c1.3,0,2.3,0.3,3,0.8c0.7,0.5,1.1,1.2,1.1,2.1c0,0.8-0.3,1.4-0.9,2c-0.6,0.6-1.5,0.8-2.8,0.8h-4
			V276.5z M828.8,284.5h1.7c1,0,1.7-0.1,2.1-0.4s0.6-0.6,0.6-1.2c0-0.4-0.2-0.8-0.5-1.1s-1-0.5-2.1-0.5h-1.9V284.5z M836.1,276.5
			h1.6v9.3h-1.6V276.5z"/>
		<path d="M840.2,276.5h2.5l2.5,7.5l2.7-7.5h2.3v9.3h-1.6v-7.5l-2.8,7.5h-1.4l-2.6-7.9v7.9h-1.5V276.5z"/>
		<path d="M852.5,276.5h1.6v7.1l4.4-7.1h1.7v9.3h-1.6v-7.1l-4.4,7.1h-1.7V276.5z"/>
		<path d="M863,285.8V284h1.8v1.8c0,0.7-0.1,1.2-0.4,1.6c-0.2,0.4-0.6,0.7-1.1,0.9l-0.4-0.7c0.3-0.1,0.6-0.4,0.7-0.6
			s0.2-0.7,0.3-1.2H863z"/>
		<path d="M307.5,298.1h3.6c0.9,0,1.6,0.1,2,0.2c0.4,0.2,0.8,0.4,1.1,0.8s0.5,0.9,0.5,1.4c0,0.4-0.1,0.8-0.3,1.2s-0.5,0.6-0.8,0.8
			c0.4,0.1,0.8,0.4,1.1,0.8s0.4,0.9,0.4,1.4c-0.1,0.9-0.4,1.5-0.9,2s-1.4,0.6-2.5,0.6h-4.2V298.1z M309.1,302h1.7
			c0.7,0,1.1,0,1.4-0.1s0.5-0.2,0.7-0.4s0.3-0.5,0.3-0.8c0-0.5-0.2-0.8-0.5-1s-0.9-0.3-1.8-0.3h-1.7V302z M309.1,306.1h2.1
			c0.9,0,1.5-0.1,1.8-0.3s0.5-0.6,0.5-1.1c0-0.3-0.1-0.6-0.3-0.8c-0.2-0.3-0.4-0.4-0.8-0.5s-0.8-0.1-1.5-0.1h-1.9V306.1z"/>
		<path d="M323.2,304.4l1.6,0.2c-0.3,1-0.7,1.7-1.4,2.2s-1.6,0.8-2.7,0.8c-1.4,0-2.4-0.4-3.2-1.3s-1.2-2-1.2-3.5
			c0-1.6,0.4-2.8,1.2-3.7s1.9-1.3,3.1-1.3c1.2,0,2.3,0.4,3.1,1.3s1.2,2,1.2,3.6c0,0.1,0,0.2,0,0.4h-7c0.1,1,0.3,1.8,0.9,2.4
			s1.2,0.8,2,0.8c0.6,0,1.1-0.2,1.5-0.5S323,305.1,323.2,304.4z M318,301.8h5.2c-0.1-0.8-0.3-1.4-0.6-1.8c-0.5-0.6-1.2-0.9-2-0.9
			c-0.7,0-1.3,0.2-1.8,0.7S318.1,301,318,301.8z"/>
		<path d="M332.9,304l1.6,0.2c-0.2,1.1-0.6,1.9-1.3,2.5c-0.7,0.6-1.6,0.9-2.6,0.9c-1.3,0-2.3-0.4-3.1-1.3c-0.8-0.8-1.2-2-1.2-3.6
			c0-1,0.2-1.9,0.5-2.6s0.8-1.3,1.5-1.7c0.7-0.4,1.4-0.6,2.2-0.6c1,0,1.8,0.3,2.5,0.8c0.6,0.5,1.1,1.2,1.2,2.2l-1.5,0.2
			c-0.1-0.6-0.4-1.1-0.8-1.4s-0.8-0.5-1.3-0.5c-0.8,0-1.4,0.3-1.9,0.9c-0.5,0.6-0.7,1.5-0.7,2.7c0,1.3,0.2,2.2,0.7,2.7
			s1.1,0.9,1.9,0.9c0.6,0,1.1-0.2,1.6-0.6S332.8,304.8,332.9,304z"/>
		<path d="M342.2,304.4l1.6,0.2c-0.3,1-0.7,1.7-1.4,2.2s-1.6,0.8-2.7,0.8c-1.4,0-2.4-0.4-3.2-1.3s-1.2-2-1.2-3.5
			c0-1.6,0.4-2.8,1.2-3.7s1.9-1.3,3.1-1.3c1.2,0,2.3,0.4,3.1,1.3s1.2,2,1.2,3.6c0,0.1,0,0.2,0,0.4h-7c0.1,1,0.3,1.8,0.9,2.4
			s1.2,0.8,2,0.8c0.6,0,1.1-0.2,1.5-0.5S342,305.1,342.2,304.4z M337,301.8h5.2c-0.1-0.8-0.3-1.4-0.6-1.8c-0.5-0.6-1.2-0.9-2-0.9
			c-0.7,0-1.3,0.2-1.8,0.7S337.1,301,337,301.8z"/>
		<path d="M346,298.1h7.3v9.3h-1.6v-8h-4.2v4.6c0,1.1,0,1.8-0.1,2.1s-0.3,0.6-0.6,0.9s-0.8,0.4-1.4,0.4c-0.4,0-0.8,0-1.3-0.1v-1.3
			h0.7c0.3,0,0.6,0,0.7-0.1c0.1-0.1,0.2-0.2,0.3-0.3s0.1-0.6,0.1-1.4V298.1z"/>
		<path d="M355.8,298.1h1.6v3.6h2c1.3,0,2.3,0.3,3,0.8c0.7,0.5,1.1,1.2,1.1,2.1c0,0.8-0.3,1.4-0.9,2c-0.6,0.6-1.5,0.8-2.8,0.8h-4
			V298.1z M357.4,306.1h1.7c1,0,1.7-0.1,2.1-0.4s0.6-0.6,0.6-1.2c0-0.4-0.2-0.8-0.5-1.1s-1-0.5-2.1-0.5h-1.9V306.1z M364.6,298.1
			h1.6v9.3h-1.6V298.1z"/>
		<path d="M368.7,298.1h2.5l2.5,7.5l2.7-7.5h2.3v9.3h-1.6v-7.5l-2.8,7.5h-1.4l-2.6-7.9v7.9h-1.5V298.1z"/>
		<path d="M381.1,298.1h1.6v7.1l4.4-7.1h1.7v9.3h-1.6v-7.1l-4.4,7.1h-1.7V298.1z"/>
		<path d="M391.5,307.4v-1.8h1.8v1.8c0,0.7-0.1,1.2-0.4,1.6c-0.2,0.4-0.6,0.7-1.1,0.9l-0.4-0.7c0.3-0.1,0.6-0.4,0.7-0.6
			s0.2-0.7,0.3-1.2H391.5z"/>
		<path d="M400.5,302.7c0-1.7,0.5-3,1.4-3.8c0.8-0.7,1.8-1,2.9-1c1.3,0,2.3,0.4,3.1,1.3c0.8,0.8,1.2,2,1.2,3.5
			c0,1.2-0.2,2.1-0.5,2.8s-0.9,1.2-1.6,1.6s-1.4,0.6-2.3,0.6c-1.3,0-2.4-0.4-3.2-1.3S400.5,304.3,400.5,302.7z M402.2,302.7
			c0,1.2,0.3,2.1,0.8,2.7s1.2,0.9,2,0.9c0.8,0,1.4-0.3,2-0.9s0.8-1.5,0.8-2.7c0-1.2-0.3-2-0.8-2.6s-1.2-0.9-2-0.9
			c-0.8,0-1.4,0.3-2,0.9S402.2,301.5,402.2,302.7z"/>
		<path d="M418,294.2l1.4,0c-0.1,0.6-0.2,1.1-0.4,1.3s-0.5,0.4-0.8,0.5s-1,0.1-2,0.1c-1.3,0-2.2,0.1-2.7,0.4s-0.8,0.7-1,1.2
			c-0.2,0.6-0.3,1.3-0.3,2.1c0.4-0.6,0.9-1,1.4-1.3s1.1-0.4,1.8-0.4c1.2,0,2.2,0.4,3,1.3c0.8,0.8,1.2,2,1.2,3.4c0,1.1-0.2,2-0.6,2.7
			s-0.9,1.2-1.4,1.6s-1.3,0.6-2.3,0.6c-1.1,0-2-0.3-2.6-0.8c-0.6-0.5-1.1-1.2-1.4-1.9s-0.5-2.2-0.5-4.1c0-2.5,0.4-4.1,1.3-5
			s2.1-1.3,3.9-1.3c1.1,0,1.7,0,1.8-0.1S417.9,294.3,418,294.2z M417.9,302.7c0-1-0.2-1.8-0.7-2.4s-1.1-0.9-1.9-0.9
			c-0.9,0-1.5,0.3-2,1s-0.7,1.5-0.7,2.6c0,1.1,0.3,1.9,0.8,2.5s1.2,0.9,1.9,0.9c0.8,0,1.4-0.3,1.9-1
			C417.6,304.7,417.9,303.8,417.9,302.7z"/>
		<path d="M421.5,298.1h1.6v8h3.6v-8h1.6v8h3.6v-8h1.6v8h1v3.9h-1.3v-2.6h-11.7V298.1z"/>
		<path d="M436.3,298.1h1.6v7.1l4.4-7.1h1.7v9.3h-1.6v-7.1l-4.4,7.1h-1.7V298.1z"/>
		<path d="M445.5,298.1h7.6v1.3h-3v8h-1.6v-8h-3V298.1z"/>
		<path d="M460.7,304.4l1.6,0.2c-0.3,1-0.7,1.7-1.4,2.2s-1.6,0.8-2.7,0.8c-1.4,0-2.4-0.4-3.2-1.3s-1.2-2-1.2-3.5
			c0-1.6,0.4-2.8,1.2-3.7s1.9-1.3,3.1-1.3c1.2,0,2.3,0.4,3.1,1.3s1.2,2,1.2,3.6c0,0.1,0,0.2,0,0.4h-7c0.1,1,0.3,1.8,0.9,2.4
			s1.2,0.8,2,0.8c0.6,0,1.1-0.2,1.5-0.5S460.5,305.1,460.7,304.4z M455.5,301.8h5.2c-0.1-0.8-0.3-1.4-0.6-1.8
			c-0.5-0.6-1.2-0.9-2-0.9c-0.7,0-1.3,0.2-1.8,0.7S455.6,301,455.5,301.8z"/>
		<path d="M464.5,298.1h7.3v9.3h-1.6v-8h-4.2v4.6c0,1.1,0,1.8-0.1,2.1s-0.3,0.6-0.6,0.9s-0.8,0.4-1.4,0.4c-0.4,0-0.8,0-1.3-0.1v-1.3
			h0.7c0.3,0,0.6,0,0.7-0.1c0.1-0.1,0.2-0.2,0.3-0.3s0.1-0.6,0.1-1.4V298.1z"/>
		<path d="M474.2,298.1h1.6v3.6h2c1.3,0,2.3,0.3,3,0.8c0.7,0.5,1.1,1.2,1.1,2.1c0,0.8-0.3,1.4-0.9,2c-0.6,0.6-1.5,0.8-2.8,0.8h-4
			V298.1z M475.8,306.1h1.7c1,0,1.7-0.1,2.1-0.4s0.6-0.6,0.6-1.2c0-0.4-0.2-0.8-0.5-1.1s-1-0.5-2.1-0.5h-1.9V306.1z"/>
		<path d="M483.7,298.1h1.6v3.9h4.4v-3.9h1.6v9.3h-1.6v-4.1h-4.4v4.1h-1.6V298.1z"/>
		<path d="M493.6,298.1h1.6v3.6h2c1.3,0,2.3,0.3,3,0.8c0.7,0.5,1.1,1.2,1.1,2.1c0,0.8-0.3,1.4-0.9,2c-0.6,0.6-1.5,0.8-2.8,0.8h-4
			V298.1z M495.2,306.1h1.7c1,0,1.7-0.1,2.1-0.4s0.6-0.6,0.6-1.2c0-0.4-0.2-0.8-0.5-1.1s-1-0.5-2.1-0.5h-1.9V306.1z M502.5,298.1
			h1.6v9.3h-1.6V298.1z"/>
		<path d="M506.6,298.1h2.5l2.5,7.5l2.7-7.5h2.3v9.3h-1.6v-7.5l-2.8,7.5h-1.4l-2.6-7.9v7.9h-1.5V298.1z"/>
		<path d="M518.9,298.1h1.6v7.1l4.4-7.1h1.7v9.3H525v-7.1l-4.4,7.1h-1.7V298.1z"/>
		<path d="M529.4,307.4v-1.8h1.8v1.8c0,0.7-0.1,1.2-0.4,1.6c-0.2,0.4-0.6,0.7-1.1,0.9l-0.4-0.7c0.3-0.1,0.6-0.4,0.7-0.6
			s0.2-0.7,0.3-1.2H529.4z"/>
		<path d="M538.9,311l-0.2-1.5c0.3,0.1,0.6,0.1,0.9,0.1c0.4,0,0.6-0.1,0.8-0.2s0.4-0.3,0.5-0.5c0.1-0.2,0.3-0.6,0.5-1.2
			c0-0.1,0.1-0.2,0.1-0.4l-3.5-9.4h1.7l1.9,5.4c0.3,0.7,0.5,1.4,0.7,2.2c0.2-0.7,0.4-1.4,0.7-2.1l2-5.4h1.6l-3.6,9.5
			c-0.4,1-0.7,1.7-0.9,2.1c-0.3,0.5-0.6,0.9-1,1.1s-0.8,0.4-1.3,0.4C539.6,311.2,539.3,311.1,538.9,311z"/>
		<path d="M547.8,298.1h2.5l2.5,7.5l2.7-7.5h2.3v9.3h-1.6v-7.5l-2.8,7.5H552l-2.6-7.9v7.9h-1.5V298.1z"/>
		<path d="M560.1,298.1h1.6v3.9h4.4v-3.9h1.6v9.3h-1.6v-4.1h-4.4v4.1h-1.6V298.1z"/>
		<path d="M570.1,298.1h1.6v3.6h2c1.3,0,2.3,0.3,3,0.8c0.7,0.5,1.1,1.2,1.1,2.1c0,0.8-0.3,1.4-0.9,2c-0.6,0.6-1.5,0.8-2.8,0.8h-4
			V298.1z M571.7,306.1h1.7c1,0,1.7-0.1,2.1-0.4s0.6-0.6,0.6-1.2c0-0.4-0.2-0.8-0.5-1.1s-1-0.5-2.1-0.5h-1.9V306.1z M579,298.1h1.6
			v9.3H579V298.1z"/>
		<path d="M583,298.1h2.5l2.5,7.5l2.7-7.5h2.3v9.3h-1.6v-7.5l-2.8,7.5h-1.4l-2.6-7.9v7.9H583V298.1z"/>
		<path d="M595.4,298.1h1.6v7.1l4.4-7.1h1.7v9.3h-1.6v-7.1l-4.4,7.1h-1.7V298.1z"/>
		<path d="M605.8,307.4v-1.8h1.8v1.8c0,0.7-0.1,1.2-0.4,1.6c-0.2,0.4-0.6,0.7-1.1,0.9l-0.4-0.7c0.3-0.1,0.6-0.4,0.7-0.6
			s0.2-0.7,0.3-1.2H605.8z"/>
		<path d="M615.4,311v-12.9h1.4v1.2c0.3-0.5,0.7-0.8,1.2-1.1c0.4-0.2,0.9-0.4,1.6-0.4c0.8,0,1.5,0.2,2.1,0.6s1.1,1,1.4,1.7
			c0.3,0.7,0.5,1.6,0.5,2.5c0,1-0.2,1.8-0.5,2.6c-0.3,0.8-0.8,1.4-1.5,1.8c-0.7,0.4-1.3,0.6-2.1,0.6c-0.5,0-1-0.1-1.4-0.3
			c-0.4-0.2-0.8-0.5-1-0.8v4.5H615.4z M616.9,302.8c0,1.2,0.2,2.1,0.7,2.7s1.1,0.9,1.8,0.9c0.7,0,1.3-0.3,1.8-0.9
			c0.5-0.6,0.8-1.5,0.8-2.8c0-1.2-0.2-2.1-0.7-2.7c-0.5-0.6-1.1-0.9-1.8-0.9c-0.7,0-1.3,0.3-1.8,0.9
			C617.1,300.7,616.9,301.6,616.9,302.8z"/>
		<path d="M631.5,306.2c-0.6,0.5-1.2,0.8-1.7,1.1c-0.5,0.2-1.1,0.3-1.7,0.3c-1,0-1.8-0.3-2.4-0.8c-0.6-0.5-0.8-1.1-0.8-1.9
			c0-0.5,0.1-0.9,0.3-1.3c0.2-0.4,0.5-0.7,0.8-0.9c0.3-0.2,0.7-0.4,1.1-0.5c0.3-0.1,0.8-0.2,1.4-0.2c1.3-0.2,2.2-0.3,2.8-0.5
			c0-0.2,0-0.4,0-0.4c0-0.6-0.1-1.1-0.4-1.4c-0.4-0.4-1-0.5-1.8-0.5c-0.7,0-1.3,0.1-1.6,0.4c-0.4,0.3-0.6,0.7-0.8,1.4l-1.5-0.2
			c0.1-0.7,0.4-1.2,0.7-1.6s0.8-0.7,1.4-0.9c0.6-0.2,1.3-0.3,2.1-0.3c0.8,0,1.4,0.1,1.9,0.3s0.9,0.4,1.1,0.7s0.4,0.6,0.5,1.1
			c0.1,0.3,0.1,0.8,0.1,1.5v2.1c0,1.5,0,2.4,0.1,2.8c0.1,0.4,0.2,0.8,0.4,1.1h-1.7C631.7,307.1,631.6,306.7,631.5,306.2z
			 M631.4,302.7c-0.6,0.2-1.4,0.4-2.6,0.6c-0.7,0.1-1.1,0.2-1.4,0.3s-0.5,0.3-0.6,0.5c-0.1,0.2-0.2,0.5-0.2,0.8
			c0,0.4,0.2,0.8,0.5,1.1c0.3,0.3,0.8,0.4,1.4,0.4c0.6,0,1.2-0.1,1.6-0.4c0.5-0.3,0.8-0.6,1-1.1c0.2-0.4,0.3-0.9,0.3-1.6V302.7z"/>
		<path d="M637.3,303.2v-1.2c0.7,0,1.1,0,1.4-0.1c0.2,0,0.5-0.2,0.7-0.4s0.3-0.5,0.3-0.9c0-0.4-0.1-0.8-0.4-1
			c-0.3-0.3-0.7-0.4-1.1-0.4c-0.9,0-1.5,0.5-1.9,1.6l-1.5-0.2c0.5-1.8,1.6-2.6,3.4-2.6c1,0,1.8,0.3,2.3,0.8c0.6,0.5,0.8,1.2,0.8,2
			c0,0.8-0.4,1.4-1.1,1.8c0.5,0.3,0.8,0.6,1.1,1c0.2,0.4,0.4,0.9,0.4,1.4c0,0.8-0.3,1.5-0.9,2s-1.5,0.8-2.6,0.8
			c-2.1,0-3.4-0.9-3.7-2.8l1.5-0.3c0.1,0.6,0.4,1.1,0.8,1.4c0.4,0.3,0.9,0.5,1.4,0.5s1-0.2,1.3-0.5c0.4-0.3,0.5-0.7,0.5-1.2
			c0-0.4-0.1-0.7-0.3-0.9s-0.5-0.4-0.7-0.5s-0.7-0.1-1.4-0.1C637.6,303.2,637.5,303.2,637.3,303.2z"/>
		<path d="M643.5,298.1h5.4v1.3h-3.8v8h-1.6V298.1z"/>
		<path d="M649.1,302.7c0-1.7,0.5-3,1.4-3.8c0.8-0.7,1.8-1,2.9-1c1.3,0,2.3,0.4,3.1,1.3c0.8,0.8,1.2,2,1.2,3.5
			c0,1.2-0.2,2.1-0.5,2.8c-0.4,0.7-0.9,1.2-1.6,1.6c-0.7,0.4-1.4,0.6-2.3,0.6c-1.3,0-2.4-0.4-3.2-1.3
			C649.5,305.5,649.1,304.3,649.1,302.7z M650.7,302.7c0,1.2,0.3,2.1,0.8,2.7s1.2,0.9,2,0.9c0.8,0,1.4-0.3,2-0.9s0.8-1.5,0.8-2.7
			c0-1.2-0.3-2-0.8-2.6c-0.5-0.6-1.2-0.9-2-0.9c-0.8,0-1.4,0.3-2,0.9S650.7,301.5,650.7,302.7z"/>
		<path d="M659.7,298.1h3.6c0.9,0,1.6,0.1,2,0.2c0.4,0.2,0.8,0.4,1.1,0.8c0.3,0.4,0.5,0.9,0.5,1.4c0,0.4-0.1,0.8-0.3,1.2
			c-0.2,0.3-0.5,0.6-0.8,0.8c0.4,0.1,0.8,0.4,1.1,0.8c0.3,0.4,0.4,0.9,0.4,1.4c-0.1,0.9-0.4,1.5-0.9,2s-1.4,0.6-2.5,0.6h-4.2V298.1z
			 M661.3,302h1.7c0.7,0,1.1,0,1.4-0.1s0.5-0.2,0.7-0.4s0.3-0.5,0.3-0.8c0-0.5-0.2-0.8-0.5-1c-0.3-0.2-0.9-0.3-1.8-0.3h-1.7V302z
			 M661.3,306.1h2.1c0.9,0,1.5-0.1,1.8-0.3s0.5-0.6,0.5-1.1c0-0.3-0.1-0.6-0.3-0.8c-0.2-0.3-0.4-0.4-0.8-0.5s-0.8-0.1-1.5-0.1h-1.9
			V306.1z"/>
		<path d="M668.5,302.7c0-1.7,0.5-3,1.4-3.8c0.8-0.7,1.8-1,2.9-1c1.3,0,2.3,0.4,3.1,1.3c0.8,0.8,1.2,2,1.2,3.5
			c0,1.2-0.2,2.1-0.5,2.8c-0.4,0.7-0.9,1.2-1.6,1.6c-0.7,0.4-1.4,0.6-2.3,0.6c-1.3,0-2.4-0.4-3.2-1.3
			C668.9,305.5,668.5,304.3,668.5,302.7z M670.1,302.7c0,1.2,0.3,2.1,0.8,2.7s1.2,0.9,2,0.9c0.8,0,1.4-0.3,2-0.9s0.8-1.5,0.8-2.7
			c0-1.2-0.3-2-0.8-2.6c-0.5-0.6-1.2-0.9-2-0.9c-0.8,0-1.4,0.3-2,0.9S670.1,301.5,670.1,302.7z"/>
		<path d="M679.1,311v-12.9h1.4v1.2c0.3-0.5,0.7-0.8,1.2-1.1c0.4-0.2,0.9-0.4,1.6-0.4c0.8,0,1.5,0.2,2.1,0.6s1.1,1,1.4,1.7
			c0.3,0.7,0.5,1.6,0.5,2.5c0,1-0.2,1.8-0.5,2.6c-0.3,0.8-0.8,1.4-1.5,1.8c-0.7,0.4-1.3,0.6-2.1,0.6c-0.5,0-1-0.1-1.4-0.3
			c-0.4-0.2-0.8-0.5-1-0.8v4.5H679.1z M680.5,302.8c0,1.2,0.2,2.1,0.7,2.7s1.1,0.9,1.8,0.9c0.7,0,1.3-0.3,1.8-0.9
			c0.5-0.6,0.8-1.5,0.8-2.8c0-1.2-0.2-2.1-0.7-2.7c-0.5-0.6-1.1-0.9-1.8-0.9c-0.7,0-1.3,0.3-1.8,0.9
			C680.8,300.7,680.5,301.6,680.5,302.8z"/>
		<path d="M688.1,298.1h1.6v1.8c0,0.8,0,1.3,0.1,1.7c0.1,0.3,0.3,0.6,0.7,0.9c0.3,0.3,0.8,0.4,1.3,0.4c0.6,0,1.4-0.2,2.3-0.5v-4.2
			h1.6v9.3h-1.6v-3.8c-1,0.3-1.9,0.5-2.7,0.5c-0.7,0-1.3-0.2-1.9-0.5c-0.5-0.4-0.9-0.8-1.1-1.3s-0.3-1.1-0.3-1.7V298.1z"/>
		<path d="M698.1,298.1h1.6v7.1l4.4-7.1h1.7v9.3h-1.6v-7.1l-4.4,7.1h-1.7V298.1z"/>
		<path d="M708.1,298.1h3.6c0.9,0,1.6,0.1,2,0.2c0.4,0.2,0.8,0.4,1.1,0.8c0.3,0.4,0.5,0.9,0.5,1.4c0,0.4-0.1,0.8-0.3,1.2
			c-0.2,0.3-0.5,0.6-0.8,0.8c0.4,0.1,0.8,0.4,1.1,0.8c0.3,0.4,0.4,0.9,0.4,1.4c-0.1,0.9-0.4,1.5-0.9,2s-1.4,0.6-2.5,0.6h-4.2V298.1z
			 M709.7,302h1.7c0.7,0,1.1,0,1.4-0.1s0.5-0.2,0.7-0.4s0.3-0.5,0.3-0.8c0-0.5-0.2-0.8-0.5-1c-0.3-0.2-0.9-0.3-1.8-0.3h-1.7V302z
			 M709.7,306.1h2.1c0.9,0,1.5-0.1,1.8-0.3s0.5-0.6,0.5-1.1c0-0.3-0.1-0.6-0.3-0.8c-0.2-0.3-0.4-0.4-0.8-0.5s-0.8-0.1-1.5-0.1h-1.9
			V306.1z"/>
		<path d="M717.7,298.1h1.6v3.6h2c1.3,0,2.3,0.3,3,0.8c0.7,0.5,1.1,1.2,1.1,2.1c0,0.8-0.3,1.4-0.9,2c-0.6,0.6-1.5,0.8-2.8,0.8h-4
			V298.1z M719.3,306.1h1.7c1,0,1.7-0.1,2.1-0.4s0.6-0.6,0.6-1.2c0-0.4-0.2-0.8-0.5-1.1s-1-0.5-2.1-0.5h-1.9V306.1z M726.6,298.1
			h1.6v9.3h-1.6V298.1z"/>
		<path d="M730.6,298.1h2.5l2.5,7.5l2.7-7.5h2.3v9.3H739v-7.5l-2.8,7.5h-1.4l-2.6-7.9v7.9h-1.5V298.1z"/>
		<path d="M743,298.1h1.6v7.1l4.4-7.1h1.7v9.3h-1.6v-7.1l-4.4,7.1H743V298.1z"/>
		<path d="M753.4,307.4v-1.8h1.8v1.8c0,0.7-0.1,1.2-0.4,1.6c-0.2,0.4-0.6,0.7-1.1,0.9l-0.4-0.7c0.3-0.1,0.6-0.4,0.7-0.6
			s0.2-0.7,0.3-1.2H753.4z"/>
		<path d="M763,298.1h7.4v9.3h-1.6v-8h-4.2v8H763V298.1z"/>
		<path d="M772.2,302.7c0-1.7,0.5-3,1.4-3.8c0.8-0.7,1.8-1,2.9-1c1.3,0,2.3,0.4,3.1,1.3c0.8,0.8,1.2,2,1.2,3.5
			c0,1.2-0.2,2.1-0.5,2.8c-0.4,0.7-0.9,1.2-1.6,1.6c-0.7,0.4-1.4,0.6-2.3,0.6c-1.3,0-2.4-0.4-3.2-1.3S772.2,304.3,772.2,302.7z
			 M773.8,302.7c0,1.2,0.3,2.1,0.8,2.7s1.2,0.9,2,0.9c0.8,0,1.4-0.3,2-0.9s0.8-1.5,0.8-2.7c0-1.2-0.3-2-0.8-2.6
			c-0.5-0.6-1.2-0.9-2-0.9c-0.8,0-1.4,0.3-2,0.9S773.8,301.5,773.8,302.7z"/>
		<path d="M788.9,304l1.6,0.2c-0.2,1.1-0.6,1.9-1.3,2.5c-0.7,0.6-1.6,0.9-2.6,0.9c-1.3,0-2.3-0.4-3.1-1.3c-0.8-0.8-1.2-2-1.2-3.6
			c0-1,0.2-1.9,0.5-2.6s0.8-1.3,1.5-1.7c0.7-0.4,1.4-0.6,2.2-0.6c1,0,1.8,0.3,2.5,0.8c0.6,0.5,1.1,1.2,1.2,2.2l-1.5,0.2
			c-0.1-0.6-0.4-1.1-0.8-1.4s-0.8-0.5-1.3-0.5c-0.8,0-1.4,0.3-1.9,0.9c-0.5,0.6-0.7,1.5-0.7,2.7c0,1.3,0.2,2.2,0.7,2.7
			s1.1,0.9,1.9,0.9c0.6,0,1.1-0.2,1.6-0.6S788.8,304.8,788.9,304z"/>
		<path d="M792.6,298.1h7.3v9.3h-1.6v-8h-4.2v4.6c0,1.1,0,1.8-0.1,2.1s-0.3,0.6-0.6,0.9s-0.8,0.4-1.4,0.4c-0.4,0-0.8,0-1.3-0.1v-1.3
			h0.7c0.3,0,0.6,0,0.7-0.1c0.1-0.1,0.2-0.2,0.3-0.3s0.1-0.6,0.1-1.4V298.1z"/>
		<path d="M802.2,311l-0.2-1.5c0.3,0.1,0.6,0.1,0.9,0.1c0.4,0,0.6-0.1,0.8-0.2s0.4-0.3,0.5-0.5c0.1-0.2,0.3-0.6,0.5-1.2
			c0-0.1,0.1-0.2,0.1-0.4l-3.5-9.4h1.7l1.9,5.4c0.3,0.7,0.5,1.4,0.7,2.2c0.2-0.7,0.4-1.4,0.7-2.1l2-5.4h1.6l-3.6,9.5
			c-0.4,1-0.7,1.7-0.9,2.1c-0.3,0.5-0.6,0.9-1,1.1s-0.8,0.4-1.3,0.4C802.9,311.2,802.6,311.1,802.2,311z"/>
		<path d="M811.4,298.1h1.6v8h3.6v-8h1.6v8h3.6v-8h1.6v9.3h-12V298.1z"/>
		<path d="M825.7,298.1h1.6v3.9h4.4v-3.9h1.6v9.3h-1.6v-4.1h-4.4v4.1h-1.6V298.1z"/>
		<path d="M835.7,298.1h1.6v3.6h2c1.3,0,2.3,0.3,3,0.8c0.7,0.5,1.1,1.2,1.1,2.1c0,0.8-0.3,1.4-0.9,2c-0.6,0.6-1.5,0.8-2.8,0.8h-4
			V298.1z M837.3,306.1h1.7c1,0,1.7-0.1,2.1-0.4s0.6-0.6,0.6-1.2c0-0.4-0.2-0.8-0.5-1.1s-1-0.5-2.1-0.5h-1.9V306.1z M844.6,298.1
			h1.6v9.3h-1.6V298.1z"/>
		<path d="M848.7,298.1h2.5l2.5,7.5l2.7-7.5h2.3v9.3H857v-7.5l-2.8,7.5h-1.4l-2.6-7.9v7.9h-1.5V298.1z"/>
		<path d="M861,298.1h1.6v7.1l4.4-7.1h1.7v9.3h-1.6v-7.1l-4.4,7.1H861V298.1z"/>
		<path d="M871.5,307.4v-1.8h1.8v1.8c0,0.7-0.1,1.2-0.4,1.6c-0.2,0.4-0.6,0.7-1.1,0.9l-0.4-0.7c0.3-0.1,0.6-0.4,0.7-0.6
			s0.2-0.7,0.3-1.2H871.5z"/>
		<path d="M313.6,327.8c-0.6,0.5-1.1,0.8-1.7,1.1s-1.1,0.3-1.7,0.3c-1,0-1.8-0.3-2.4-0.8c-0.6-0.5-0.8-1.1-0.8-1.9
			c0-0.5,0.1-0.9,0.3-1.3c0.2-0.4,0.5-0.7,0.8-0.9s0.7-0.4,1.1-0.5c0.3-0.1,0.8-0.2,1.4-0.2c1.3-0.2,2.2-0.3,2.8-0.5
			c0-0.2,0-0.4,0-0.4c0-0.6-0.1-1.1-0.4-1.4c-0.4-0.4-1-0.5-1.8-0.5c-0.7,0-1.3,0.1-1.6,0.4s-0.6,0.7-0.8,1.4l-1.5-0.2
			c0.1-0.7,0.4-1.2,0.7-1.6c0.3-0.4,0.8-0.7,1.4-0.9c0.6-0.2,1.3-0.3,2.1-0.3c0.8,0,1.4,0.1,1.9,0.3s0.9,0.4,1.1,0.7
			c0.2,0.3,0.4,0.6,0.5,1.1c0.1,0.3,0.1,0.8,0.1,1.5v2.1c0,1.5,0,2.4,0.1,2.8c0.1,0.4,0.2,0.8,0.4,1.1h-1.7
			C313.7,328.7,313.6,328.3,313.6,327.8z M313.4,324.3c-0.6,0.2-1.4,0.4-2.6,0.6c-0.7,0.1-1.1,0.2-1.4,0.3s-0.5,0.3-0.6,0.5
			s-0.2,0.5-0.2,0.8c0,0.4,0.2,0.8,0.5,1.1s0.8,0.4,1.4,0.4c0.6,0,1.2-0.1,1.6-0.4s0.8-0.6,1-1.1c0.2-0.4,0.3-0.9,0.3-1.6V324.3z"/>
		<path d="M317.5,332.6v-12.9h1.4v1.2c0.3-0.5,0.7-0.8,1.2-1.1c0.4-0.2,0.9-0.4,1.6-0.4c0.8,0,1.5,0.2,2.1,0.6s1.1,1,1.4,1.7
			c0.3,0.7,0.5,1.6,0.5,2.5c0,1-0.2,1.8-0.5,2.6c-0.3,0.8-0.8,1.4-1.5,1.8c-0.7,0.4-1.3,0.6-2.1,0.6c-0.5,0-1-0.1-1.4-0.3
			s-0.8-0.5-1-0.8v4.5H317.5z M318.9,324.4c0,1.2,0.2,2.1,0.7,2.7s1.1,0.9,1.8,0.9c0.7,0,1.3-0.3,1.8-0.9c0.5-0.6,0.8-1.5,0.8-2.8
			c0-1.2-0.2-2.1-0.7-2.7s-1.1-0.9-1.8-0.9c-0.7,0-1.3,0.3-1.8,0.9C319.2,322.3,318.9,323.2,318.9,324.4z"/>
		<path d="M326.2,319.7h7.6v1.3h-3v8h-1.6v-8h-3V319.7z"/>
		<path d="M335.3,319.7h1.6v7.1l4.4-7.1h1.7v9.3h-1.6v-7.1L337,329h-1.7V319.7z"/>
		<path d="M351.5,325.6l1.6,0.2c-0.2,1.1-0.6,1.9-1.3,2.5c-0.7,0.6-1.6,0.9-2.6,0.9c-1.3,0-2.3-0.4-3.1-1.3c-0.8-0.8-1.2-2-1.2-3.6
			c0-1,0.2-1.9,0.5-2.6s0.8-1.3,1.5-1.7c0.7-0.4,1.4-0.6,2.2-0.6c1,0,1.8,0.3,2.5,0.8s1.1,1.2,1.2,2.2l-1.5,0.2
			c-0.1-0.6-0.4-1.1-0.8-1.4s-0.8-0.5-1.3-0.5c-0.8,0-1.4,0.3-1.9,0.9c-0.5,0.6-0.7,1.5-0.7,2.7c0,1.3,0.2,2.2,0.7,2.7
			s1.1,0.9,1.9,0.9c0.6,0,1.1-0.2,1.6-0.6S351.4,326.4,351.5,325.6z"/>
		<path d="M353.5,319.7h7.6v1.3h-3v8h-1.6v-8h-3V319.7z"/>
		<path d="M362.6,319.7h1.6v7.1l4.4-7.1h1.7v9.3h-1.6v-7.1l-4.4,7.1h-1.7V319.7z"/>
		<path d="M372.1,319.7h1.6v1.8c0,0.8,0,1.3,0.1,1.7c0.1,0.3,0.3,0.6,0.7,0.9c0.3,0.3,0.8,0.4,1.3,0.4c0.6,0,1.4-0.2,2.3-0.5v-4.2
			h1.6v9.3h-1.6v-3.8c-1,0.3-1.9,0.5-2.7,0.5c-0.7,0-1.3-0.2-1.9-0.5c-0.5-0.4-0.9-0.8-1.1-1.3s-0.3-1.1-0.3-1.7V319.7z"/>
		<path d="M382.1,319.7h1.6v3.9h4.4v-3.9h1.6v9.3H388v-4.1h-4.4v4.1h-1.6V319.7z"/>
		<path d="M392,319.7h1.6v3.6h2c1.3,0,2.3,0.3,3,0.8s1.1,1.2,1.1,2.1c0,0.8-0.3,1.4-0.9,2c-0.6,0.6-1.5,0.8-2.8,0.8h-4V319.7z
			 M393.6,327.7h1.7c1,0,1.7-0.1,2.1-0.4s0.6-0.6,0.6-1.2c0-0.4-0.2-0.8-0.5-1.1s-1-0.5-2.1-0.5h-1.9V327.7z M400.9,319.7h1.6v9.3
			h-1.6V319.7z"/>
		<path d="M405,319.7h2.5l2.5,7.5l2.7-7.5h2.3v9.3h-1.6v-7.5l-2.8,7.5h-1.4l-2.6-7.9v7.9H405V319.7z"/>
		<path d="M417.3,319.7h1.6v7.1l4.4-7.1h1.7v9.3h-1.6v-7.1L419,329h-1.7V319.7z"/>
		<path d="M427.8,329v-1.8h1.8v1.8c0,0.7-0.1,1.2-0.4,1.6s-0.6,0.7-1.1,0.9l-0.4-0.7c0.3-0.1,0.6-0.4,0.7-0.6
			c0.2-0.3,0.2-0.7,0.3-1.2H427.8z"/>
		<path d="M437.4,319.7h2.5l2.5,7.5l2.7-7.5h2.3v9.3h-1.6v-7.5L443,329h-1.4l-2.6-7.9v7.9h-1.5V319.7z"/>
		<path d="M449.9,332.6l-0.2-1.5c0.3,0.1,0.6,0.1,0.9,0.1c0.4,0,0.6-0.1,0.8-0.2s0.4-0.3,0.5-0.5c0.1-0.2,0.3-0.6,0.5-1.2
			c0-0.1,0.1-0.2,0.1-0.4l-3.5-9.4h1.7l1.9,5.4c0.3,0.7,0.5,1.4,0.7,2.2c0.2-0.7,0.4-1.4,0.7-2.1l2-5.4h1.6l-3.6,9.5
			c-0.4,1-0.7,1.7-0.9,2.1c-0.3,0.5-0.6,0.9-1,1.1c-0.4,0.2-0.8,0.4-1.3,0.4C450.6,332.8,450.3,332.7,449.9,332.6z"/>
		<path d="M461,324.8v-1.2c0.7,0,1.1,0,1.4-0.1s0.5-0.2,0.7-0.4s0.3-0.5,0.3-0.9c0-0.4-0.1-0.8-0.4-1c-0.3-0.3-0.7-0.4-1.1-0.4
			c-0.9,0-1.5,0.5-1.9,1.6l-1.5-0.2c0.5-1.8,1.6-2.6,3.4-2.6c1,0,1.8,0.3,2.3,0.8s0.8,1.2,0.8,2c0,0.8-0.4,1.4-1.1,1.8
			c0.5,0.3,0.8,0.6,1.1,1s0.4,0.9,0.4,1.4c0,0.8-0.3,1.5-0.9,2s-1.5,0.8-2.6,0.8c-2.1,0-3.4-0.9-3.7-2.8l1.5-0.3
			c0.1,0.6,0.4,1.1,0.8,1.4s0.9,0.5,1.4,0.5s1-0.2,1.3-0.5s0.5-0.7,0.5-1.2c0-0.4-0.1-0.7-0.3-0.9s-0.5-0.4-0.7-0.5
			c-0.3-0.1-0.7-0.1-1.4-0.1C461.3,324.8,461.2,324.8,461,324.8z"/>
		<path d="M467.2,319.7h1.6v3.6h2c1.3,0,2.3,0.3,3,0.8s1.1,1.2,1.1,2.1c0,0.8-0.3,1.4-0.9,2c-0.6,0.6-1.5,0.8-2.8,0.8h-4V319.7z
			 M468.8,327.7h1.7c1,0,1.7-0.1,2.1-0.4s0.6-0.6,0.6-1.2c0-0.4-0.2-0.8-0.5-1.1s-1-0.5-2.1-0.5h-1.9V327.7z M476.1,319.7h1.6v9.3
			h-1.6V319.7z"/>
		<path d="M480.1,319.7h1.6v4c0.5,0,0.9-0.1,1.1-0.3s0.5-0.8,0.9-1.7c0.3-0.7,0.6-1.2,0.8-1.5s0.4-0.4,0.7-0.5s0.7-0.1,1.2-0.1h0.3
			v1.3l-0.4,0c-0.4,0-0.7,0.1-0.8,0.2c-0.1,0.1-0.3,0.5-0.6,1.2c-0.2,0.6-0.5,1-0.7,1.3s-0.5,0.4-0.9,0.6c0.7,0.2,1.3,0.8,2,1.9
			l1.7,2.9h-1.7l-1.7-2.9c-0.3-0.6-0.6-1-0.9-1.1c-0.3-0.2-0.6-0.3-0.9-0.3v4.3h-1.6V319.7z"/>
		<path d="M494.5,327.8c-0.6,0.5-1.1,0.8-1.7,1.1s-1.1,0.3-1.7,0.3c-1,0-1.8-0.3-2.4-0.8c-0.6-0.5-0.8-1.1-0.8-1.9
			c0-0.5,0.1-0.9,0.3-1.3c0.2-0.4,0.5-0.7,0.8-0.9s0.7-0.4,1.1-0.5c0.3-0.1,0.8-0.2,1.4-0.2c1.3-0.2,2.2-0.3,2.8-0.5
			c0-0.2,0-0.4,0-0.4c0-0.6-0.1-1.1-0.4-1.4c-0.4-0.4-1-0.5-1.8-0.5c-0.7,0-1.3,0.1-1.6,0.4s-0.6,0.7-0.8,1.4l-1.5-0.2
			c0.1-0.7,0.4-1.2,0.7-1.6c0.3-0.4,0.8-0.7,1.4-0.9c0.6-0.2,1.3-0.3,2.1-0.3c0.8,0,1.4,0.1,1.9,0.3s0.9,0.4,1.1,0.7
			c0.2,0.3,0.4,0.6,0.5,1.1c0.1,0.3,0.1,0.8,0.1,1.5v2.1c0,1.5,0,2.4,0.1,2.8c0.1,0.4,0.2,0.8,0.4,1.1h-1.7
			C494.7,328.7,494.6,328.3,494.5,327.8z M494.4,324.3c-0.6,0.2-1.4,0.4-2.6,0.6c-0.7,0.1-1.1,0.2-1.4,0.3s-0.5,0.3-0.6,0.5
			s-0.2,0.5-0.2,0.8c0,0.4,0.2,0.8,0.5,1.1s0.8,0.4,1.4,0.4c0.6,0,1.2-0.1,1.6-0.4s0.8-0.6,1-1.1c0.2-0.4,0.3-0.9,0.3-1.6V324.3z"/>
		<path d="M499.2,319.7h7.3v9.3H505v-8h-4.2v4.6c0,1.1,0,1.8-0.1,2.1s-0.3,0.6-0.6,0.9s-0.8,0.4-1.4,0.4c-0.4,0-0.8,0-1.3-0.1v-1.3
			h0.7c0.3,0,0.6,0,0.7-0.1s0.2-0.2,0.3-0.3s0.1-0.6,0.1-1.4V319.7z"/>
		<path d="M508.9,319.7h1.6v3.6h2c1.3,0,2.3,0.3,3,0.8s1.1,1.2,1.1,2.1c0,0.8-0.3,1.4-0.9,2c-0.6,0.6-1.5,0.8-2.8,0.8h-4V319.7z
			 M510.5,327.7h1.7c1,0,1.7-0.1,2.1-0.4s0.6-0.6,0.6-1.2c0-0.4-0.2-0.8-0.5-1.1s-1-0.5-2.1-0.5h-1.9V327.7z"/>
		<path d="M518.3,319.7h1.6v3.9h4.4v-3.9h1.6v9.3h-1.6v-4.1h-4.4v4.1h-1.6V319.7z"/>
		<path d="M528.3,319.7h1.6v3.6h2c1.3,0,2.3,0.3,3,0.8s1.1,1.2,1.1,2.1c0,0.8-0.3,1.4-0.9,2c-0.6,0.6-1.5,0.8-2.8,0.8h-4V319.7z
			 M529.9,327.7h1.7c1,0,1.7-0.1,2.1-0.4s0.6-0.6,0.6-1.2c0-0.4-0.2-0.8-0.5-1.1s-1-0.5-2.1-0.5h-1.9V327.7z M537.1,319.7h1.6v9.3
			h-1.6V319.7z"/>
		<path d="M541.2,319.7h2.5l2.5,7.5l2.7-7.5h2.3v9.3h-1.6v-7.5l-2.8,7.5h-1.4l-2.6-7.9v7.9h-1.5V319.7z"/>
		<path d="M553.6,319.7h1.6v7.1l4.4-7.1h1.7v9.3h-1.6v-7.1l-4.4,7.1h-1.7V319.7z"/>
		<path d="M564,329v-1.8h1.8v1.8c0,0.7-0.1,1.2-0.4,1.6s-0.6,0.7-1.1,0.9l-0.4-0.7c0.3-0.1,0.6-0.4,0.7-0.6c0.2-0.3,0.2-0.7,0.3-1.2
			H564z"/>
		<path d="M579.7,325.6l1.6,0.2c-0.2,1.1-0.6,1.9-1.3,2.5c-0.7,0.6-1.6,0.9-2.6,0.9c-1.3,0-2.3-0.4-3.1-1.3c-0.8-0.8-1.2-2-1.2-3.6
			c0-1,0.2-1.9,0.5-2.6s0.8-1.3,1.5-1.7c0.7-0.4,1.4-0.6,2.2-0.6c1,0,1.8,0.3,2.5,0.8s1.1,1.2,1.2,2.2l-1.5,0.2
			c-0.1-0.6-0.4-1.1-0.8-1.4s-0.8-0.5-1.3-0.5c-0.8,0-1.4,0.3-1.9,0.9c-0.5,0.6-0.7,1.5-0.7,2.7c0,1.3,0.2,2.2,0.7,2.7
			s1.1,0.9,1.9,0.9c0.6,0,1.1-0.2,1.6-0.6S579.6,326.4,579.7,325.6z"/>
		<path d="M582.6,319.7h7.4v9.3h-1.6v-8h-4.2v8h-1.6V319.7z"/>
		<path d="M591.8,324.3c0-1.7,0.5-3,1.4-3.8c0.8-0.7,1.8-1,2.9-1c1.3,0,2.3,0.4,3.1,1.3s1.2,2,1.2,3.5c0,1.2-0.2,2.1-0.5,2.8
			c-0.4,0.7-0.9,1.2-1.6,1.6s-1.4,0.6-2.3,0.6c-1.3,0-2.4-0.4-3.2-1.3S591.8,325.9,591.8,324.3z M593.4,324.3c0,1.2,0.3,2.1,0.8,2.7
			c0.5,0.6,1.2,0.9,2,0.9c0.8,0,1.4-0.3,2-0.9s0.8-1.5,0.8-2.7c0-1.2-0.3-2-0.8-2.6c-0.5-0.6-1.2-0.9-2-0.9c-0.8,0-1.4,0.3-2,0.9
			S593.4,323.1,593.4,324.3z"/>
		<path d="M602.4,332.6v-12.9h1.4v1.2c0.3-0.5,0.7-0.8,1.2-1.1c0.4-0.2,0.9-0.4,1.6-0.4c0.8,0,1.5,0.2,2.1,0.6s1.1,1,1.4,1.7
			c0.3,0.7,0.5,1.6,0.5,2.5c0,1-0.2,1.8-0.5,2.6c-0.3,0.8-0.8,1.4-1.5,1.8c-0.7,0.4-1.3,0.6-2.1,0.6c-0.5,0-1-0.1-1.4-0.3
			c-0.4-0.2-0.8-0.5-1-0.8v4.5H602.4z M603.8,324.4c0,1.2,0.2,2.1,0.7,2.7s1.1,0.9,1.8,0.9c0.7,0,1.3-0.3,1.8-0.9
			c0.5-0.6,0.8-1.5,0.8-2.8c0-1.2-0.2-2.1-0.7-2.7c-0.5-0.6-1.1-0.9-1.8-0.9c-0.7,0-1.3,0.3-1.8,0.9
			C604.1,322.3,603.8,323.2,603.8,324.4z"/>
		<path d="M611.1,319.7h7.6v1.3h-3v8h-1.6v-8h-3V319.7z"/>
		<path d="M620.2,319.7h1.6v7.1l4.4-7.1h1.7v9.3h-1.6v-7.1l-4.4,7.1h-1.7V319.7z"/>
		<path d="M630.3,319.7h3.6c0.9,0,1.6,0.1,2,0.2c0.4,0.1,0.8,0.4,1.1,0.8c0.3,0.4,0.5,0.9,0.5,1.4c0,0.4-0.1,0.8-0.3,1.2
			c-0.2,0.3-0.5,0.6-0.8,0.8c0.4,0.1,0.8,0.4,1.1,0.8c0.3,0.4,0.4,0.9,0.4,1.4c-0.1,0.9-0.4,1.5-0.9,2s-1.4,0.6-2.5,0.6h-4.2V319.7z
			 M631.9,323.6h1.7c0.7,0,1.1,0,1.4-0.1s0.5-0.2,0.7-0.4c0.2-0.2,0.3-0.5,0.3-0.8c0-0.5-0.2-0.8-0.5-1c-0.3-0.2-0.9-0.3-1.8-0.3
			h-1.7V323.6z M631.9,327.7h2.1c0.9,0,1.5-0.1,1.8-0.3c0.3-0.2,0.5-0.6,0.5-1.1c0-0.3-0.1-0.6-0.3-0.8c-0.2-0.3-0.4-0.4-0.8-0.5
			c-0.3-0.1-0.8-0.1-1.5-0.1h-1.9V327.7z"/>
		<path d="M639.9,319.7h1.6v3.9h4.4v-3.9h1.6v9.3h-1.6v-4.1h-4.4v4.1h-1.6V319.7z"/>
		<path d="M649.8,319.7h1.6v3.6h2c1.3,0,2.3,0.3,3,0.8c0.7,0.5,1.1,1.2,1.1,2.1c0,0.8-0.3,1.4-0.9,2c-0.6,0.6-1.5,0.8-2.8,0.8h-4
			V319.7z M651.4,327.7h1.7c1,0,1.7-0.1,2.1-0.4s0.6-0.6,0.6-1.2c0-0.4-0.2-0.8-0.5-1.1s-1-0.5-2.1-0.5h-1.9V327.7z M658.7,319.7
			h1.6v9.3h-1.6V319.7z"/>
		<path d="M662.8,319.7h2.5l2.5,7.5l2.7-7.5h2.3v9.3h-1.6v-7.5l-2.8,7.5h-1.4l-2.6-7.9v7.9h-1.5V319.7z"/>
		<path d="M675.1,319.7h1.6v7.1l4.4-7.1h1.7v9.3h-1.6v-7.1l-4.4,7.1h-1.7V319.7z"/>
		<path d="M685.6,329v-1.8h1.8v1.8c0,0.7-0.1,1.2-0.4,1.6s-0.6,0.7-1.1,0.9l-0.4-0.7c0.3-0.1,0.6-0.4,0.7-0.6
			c0.2-0.3,0.2-0.7,0.3-1.2H685.6z"/>
		<path d="M694.6,324.3c0-1.7,0.5-3,1.4-3.8c0.8-0.7,1.8-1,2.9-1c1.3,0,2.3,0.4,3.1,1.3s1.2,2,1.2,3.5c0,1.2-0.2,2.1-0.5,2.8
			c-0.4,0.7-0.9,1.2-1.6,1.6c-0.7,0.4-1.4,0.6-2.3,0.6c-1.3,0-2.4-0.4-3.2-1.3C695,327.1,694.6,325.9,694.6,324.3z M696.2,324.3
			c0,1.2,0.3,2.1,0.8,2.7c0.5,0.6,1.2,0.9,2,0.9c0.8,0,1.4-0.3,2-0.9s0.8-1.5,0.8-2.7c0-1.2-0.3-2-0.8-2.6c-0.5-0.6-1.2-0.9-2-0.9
			c-0.8,0-1.4,0.3-2,0.9S696.2,323.1,696.2,324.3z"/>
		<path d="M705.2,332.6v-12.9h1.4v1.2c0.3-0.5,0.7-0.8,1.2-1.1c0.4-0.2,0.9-0.4,1.6-0.4c0.8,0,1.5,0.2,2.1,0.6s1.1,1,1.4,1.7
			c0.3,0.7,0.5,1.6,0.5,2.5c0,1-0.2,1.8-0.5,2.6c-0.3,0.8-0.8,1.4-1.5,1.8c-0.7,0.4-1.3,0.6-2.1,0.6c-0.5,0-1-0.1-1.4-0.3
			c-0.4-0.2-0.8-0.5-1-0.8v4.5H705.2z M706.6,324.4c0,1.2,0.2,2.1,0.7,2.7s1.1,0.9,1.8,0.9c0.7,0,1.3-0.3,1.8-0.9
			c0.5-0.6,0.8-1.5,0.8-2.8c0-1.2-0.2-2.1-0.7-2.7c-0.5-0.6-1.1-0.9-1.8-0.9c-0.7,0-1.3,0.3-1.8,0.9
			C706.9,322.3,706.6,323.2,706.6,324.4z"/>
		<path d="M715.2,319.7h5.4v1.3h-3.8v8h-1.6V319.7z"/>
		<path d="M727.4,327.8c-0.6,0.5-1.2,0.8-1.7,1.1c-0.5,0.2-1.1,0.3-1.7,0.3c-1,0-1.8-0.3-2.4-0.8c-0.6-0.5-0.8-1.1-0.8-1.9
			c0-0.5,0.1-0.9,0.3-1.3c0.2-0.4,0.5-0.7,0.8-0.9c0.3-0.2,0.7-0.4,1.1-0.5c0.3-0.1,0.8-0.2,1.4-0.2c1.3-0.2,2.2-0.3,2.8-0.5
			c0-0.2,0-0.4,0-0.4c0-0.6-0.1-1.1-0.4-1.4c-0.4-0.4-1-0.5-1.8-0.5c-0.7,0-1.3,0.1-1.6,0.4c-0.4,0.3-0.6,0.7-0.8,1.4l-1.5-0.2
			c0.1-0.7,0.4-1.2,0.7-1.6c0.3-0.4,0.8-0.7,1.4-0.9c0.6-0.2,1.3-0.3,2.1-0.3c0.8,0,1.4,0.1,1.9,0.3s0.9,0.4,1.1,0.7
			c0.2,0.3,0.4,0.6,0.5,1.1c0.1,0.3,0.1,0.8,0.1,1.5v2.1c0,1.5,0,2.4,0.1,2.8c0.1,0.4,0.2,0.8,0.4,1.1h-1.7
			C727.6,328.7,727.5,328.3,727.4,327.8z M727.3,324.3c-0.6,0.2-1.4,0.4-2.6,0.6c-0.7,0.1-1.1,0.2-1.4,0.3s-0.5,0.3-0.6,0.5
			s-0.2,0.5-0.2,0.8c0,0.4,0.2,0.8,0.5,1.1c0.3,0.3,0.8,0.4,1.4,0.4c0.6,0,1.2-0.1,1.6-0.4s0.8-0.6,1-1.1c0.2-0.4,0.3-0.9,0.3-1.6
			V324.3z"/>
		<path d="M731.4,319.7h1.6v3.9h4.4v-3.9h1.6v9.3h-1.6v-4.1H733v4.1h-1.6V319.7z"/>
		<path d="M741.3,319.7h1.6v7.1l4.4-7.1h1.7v9.3h-1.6v-7.1L743,329h-1.7V319.7z"/>
		<path d="M753.4,324.8v-1.2c0.7,0,1.1,0,1.4-0.1c0.2,0,0.5-0.2,0.7-0.4s0.3-0.5,0.3-0.9c0-0.4-0.1-0.8-0.4-1
			c-0.3-0.3-0.7-0.4-1.1-0.4c-0.9,0-1.5,0.5-1.9,1.6l-1.5-0.2c0.5-1.8,1.6-2.6,3.4-2.6c1,0,1.8,0.3,2.3,0.8c0.6,0.5,0.8,1.2,0.8,2
			c0,0.8-0.4,1.4-1.1,1.8c0.5,0.3,0.8,0.6,1.1,1s0.4,0.9,0.4,1.4c0,0.8-0.3,1.5-0.9,2s-1.5,0.8-2.6,0.8c-2.1,0-3.4-0.9-3.7-2.8
			l1.5-0.3c0.1,0.6,0.4,1.1,0.8,1.4c0.4,0.3,0.9,0.5,1.4,0.5s1-0.2,1.3-0.5c0.4-0.3,0.5-0.7,0.5-1.2c0-0.4-0.1-0.7-0.3-0.9
			s-0.5-0.4-0.7-0.5c-0.3-0.1-0.7-0.1-1.4-0.1C753.7,324.8,753.6,324.8,753.4,324.8z"/>
		<path d="M758.8,324.3c0-1.7,0.5-3,1.4-3.8c0.8-0.7,1.8-1,2.9-1c1.3,0,2.3,0.4,3.1,1.3s1.2,2,1.2,3.5c0,1.2-0.2,2.1-0.5,2.8
			c-0.4,0.7-0.9,1.2-1.6,1.6c-0.7,0.4-1.4,0.6-2.3,0.6c-1.3,0-2.4-0.4-3.2-1.3C759.2,327.1,758.8,325.9,758.8,324.3z M760.4,324.3
			c0,1.2,0.3,2.1,0.8,2.7c0.5,0.6,1.2,0.9,2,0.9c0.8,0,1.4-0.3,2-0.9s0.8-1.5,0.8-2.7c0-1.2-0.3-2-0.8-2.6c-0.5-0.6-1.2-0.9-2-0.9
			c-0.8,0-1.4,0.3-2,0.9S760.4,323.1,760.4,324.3z"/>
		<path d="M769.4,319.7h3.6c0.9,0,1.6,0.1,2,0.2c0.4,0.1,0.8,0.4,1.1,0.8s0.5,0.9,0.5,1.4c0,0.4-0.1,0.8-0.3,1.2
			c-0.2,0.3-0.5,0.6-0.8,0.8c0.4,0.1,0.8,0.4,1.1,0.8c0.3,0.4,0.4,0.9,0.4,1.4c-0.1,0.9-0.4,1.5-0.9,2s-1.4,0.6-2.5,0.6h-4.2V319.7z
			 M771,323.6h1.7c0.7,0,1.1,0,1.4-0.1s0.5-0.2,0.7-0.4c0.2-0.2,0.3-0.5,0.3-0.8c0-0.5-0.2-0.8-0.5-1c-0.3-0.2-0.9-0.3-1.8-0.3H771
			V323.6z M771,327.7h2.1c0.9,0,1.5-0.1,1.8-0.3c0.3-0.2,0.5-0.6,0.5-1.1c0-0.3-0.1-0.6-0.3-0.8c-0.2-0.3-0.4-0.4-0.8-0.5
			c-0.3-0.1-0.8-0.1-1.5-0.1H771V327.7z"/>
		<path d="M784.9,327.8c-0.6,0.5-1.2,0.8-1.7,1.1s-1.1,0.3-1.7,0.3c-1,0-1.8-0.3-2.4-0.8c-0.6-0.5-0.8-1.1-0.8-1.9
			c0-0.5,0.1-0.9,0.3-1.3c0.2-0.4,0.5-0.7,0.8-0.9c0.3-0.2,0.7-0.4,1.1-0.5c0.3-0.1,0.8-0.2,1.4-0.2c1.3-0.2,2.2-0.3,2.8-0.5
			c0-0.2,0-0.4,0-0.4c0-0.6-0.1-1.1-0.4-1.4c-0.4-0.4-1-0.5-1.8-0.5c-0.7,0-1.3,0.1-1.6,0.4c-0.4,0.3-0.6,0.7-0.8,1.4l-1.5-0.2
			c0.1-0.7,0.4-1.2,0.7-1.6c0.3-0.4,0.8-0.7,1.4-0.9c0.6-0.2,1.3-0.3,2.1-0.3c0.8,0,1.4,0.1,1.9,0.3s0.9,0.4,1.1,0.7
			c0.2,0.3,0.4,0.6,0.5,1.1c0.1,0.3,0.1,0.8,0.1,1.5v2.1c0,1.5,0,2.4,0.1,2.8c0.1,0.4,0.2,0.8,0.4,1.1h-1.7
			C785,328.7,784.9,328.3,784.9,327.8z M784.7,324.3c-0.6,0.2-1.4,0.4-2.6,0.6c-0.7,0.1-1.1,0.2-1.4,0.3s-0.5,0.3-0.6,0.5
			s-0.2,0.5-0.2,0.8c0,0.4,0.2,0.8,0.5,1.1c0.3,0.3,0.8,0.4,1.4,0.4c0.6,0,1.2-0.1,1.6-0.4s0.8-0.6,1-1.1c0.2-0.4,0.3-0.9,0.3-1.6
			V324.3z"/>
		<path d="M788.8,319.7h1.6v3.9h4.4v-3.9h1.6v9.3h-1.6v-4.1h-4.4v4.1h-1.6V319.7z"/>
		<path d="M798.7,319.7h1.6v3.9h4.4v-3.9h1.6v9.3h-1.6v-4.1h-4.4v4.1h-1.6V319.7z"/>
		<path d="M808.7,319.7h1.6v3.6h2c1.3,0,2.3,0.3,3,0.8s1.1,1.2,1.1,2.1c0,0.8-0.3,1.4-0.9,2c-0.6,0.6-1.5,0.8-2.8,0.8h-4V319.7z
			 M810.3,327.7h1.7c1,0,1.7-0.1,2.1-0.4s0.6-0.6,0.6-1.2c0-0.4-0.2-0.8-0.5-1.1s-1-0.5-2.1-0.5h-1.9V327.7z M817.6,319.7h1.6v9.3
			h-1.6V319.7z"/>
		<path d="M821.7,319.7h2.5l2.5,7.5l2.7-7.5h2.3v9.3H830v-7.5l-2.8,7.5h-1.4l-2.6-7.9v7.9h-1.5V319.7z"/>
		<path d="M834,319.7h1.6v7.1l4.4-7.1h1.7v9.3h-1.6v-7.1l-4.4,7.1H834V319.7z"/>
		<path d="M844.5,329v-1.8h1.8v1.8c0,0.7-0.1,1.2-0.4,1.6s-0.6,0.7-1.1,0.9l-0.4-0.7c0.3-0.1,0.6-0.4,0.7-0.6
			c0.2-0.3,0.2-0.7,0.3-1.2H844.5z"/>
		<path d="M306.6,341.3h7.6v1.3h-3v8h-1.6v-8h-3V341.3z"/>
		<path d="M321.9,347.6l1.6,0.2c-0.3,1-0.7,1.7-1.4,2.2s-1.6,0.8-2.7,0.8c-1.4,0-2.4-0.4-3.2-1.3c-0.8-0.8-1.2-2-1.2-3.5
			c0-1.6,0.4-2.8,1.2-3.7s1.9-1.3,3.1-1.3c1.2,0,2.3,0.4,3.1,1.3s1.2,2,1.2,3.6c0,0.1,0,0.2,0,0.4h-7c0.1,1,0.3,1.8,0.9,2.4
			s1.2,0.8,2,0.8c0.6,0,1.1-0.2,1.5-0.5S321.7,348.3,321.9,347.6z M316.7,345h5.2c-0.1-0.8-0.3-1.4-0.6-1.8c-0.5-0.6-1.2-0.9-2-0.9
			c-0.7,0-1.3,0.2-1.8,0.7S316.8,344.2,316.7,345z"/>
		<path d="M325.5,354.2v-12.9h1.4v1.2c0.3-0.5,0.7-0.8,1.2-1.1c0.4-0.2,0.9-0.4,1.6-0.4c0.8,0,1.5,0.2,2.1,0.6s1.1,1,1.4,1.7
			c0.3,0.7,0.5,1.6,0.5,2.5c0,1-0.2,1.8-0.5,2.6c-0.3,0.8-0.8,1.4-1.5,1.8c-0.7,0.4-1.3,0.6-2.1,0.6c-0.5,0-1-0.1-1.4-0.3
			s-0.8-0.5-1-0.8v4.5H325.5z M327,346c0,1.2,0.2,2.1,0.7,2.7s1.1,0.9,1.8,0.9c0.7,0,1.3-0.3,1.8-0.9c0.5-0.6,0.8-1.5,0.8-2.8
			c0-1.2-0.2-2.1-0.7-2.7s-1.1-0.9-1.8-0.9c-0.7,0-1.3,0.3-1.8,0.9C327.2,343.9,327,344.8,327,346z"/>
		<path d="M335.5,341.3h7.4v9.3h-1.6v-8h-4.2v8h-1.6V341.3z"/>
		<path d="M351.7,347.6l1.6,0.2c-0.3,1-0.7,1.7-1.4,2.2s-1.6,0.8-2.7,0.8c-1.4,0-2.4-0.4-3.2-1.3c-0.8-0.8-1.2-2-1.2-3.5
			c0-1.6,0.4-2.8,1.2-3.7s1.9-1.3,3.1-1.3c1.2,0,2.3,0.4,3.1,1.3s1.2,2,1.2,3.6c0,0.1,0,0.2,0,0.4h-7c0.1,1,0.3,1.8,0.9,2.4
			s1.2,0.8,2,0.8c0.6,0,1.1-0.2,1.5-0.5S351.4,348.3,351.7,347.6z M346.5,345h5.2c-0.1-0.8-0.3-1.4-0.6-1.8c-0.5-0.6-1.2-0.9-2-0.9
			c-0.7,0-1.3,0.2-1.8,0.7S346.5,344.2,346.5,345z"/>
		<path d="M355.5,341.3h7.3v9.3h-1.6v-8H357v4.6c0,1.1,0,1.8-0.1,2.1s-0.3,0.6-0.6,0.9s-0.8,0.4-1.4,0.4c-0.4,0-0.8,0-1.3-0.1v-1.3
			h0.7c0.3,0,0.6,0,0.7-0.1s0.2-0.2,0.3-0.3s0.1-0.6,0.1-1.4V341.3z"/>
		<path d="M365.2,341.3h1.6v7.1l4.4-7.1h1.7v9.3h-1.6v-7.1l-4.4,7.1h-1.7V341.3z"/>
		<path d="M375.3,341.3h3.6c0.9,0,1.6,0.1,2,0.2c0.4,0.1,0.8,0.4,1.1,0.8s0.5,0.9,0.5,1.4c0,0.4-0.1,0.8-0.3,1.2
			c-0.2,0.3-0.5,0.6-0.8,0.8c0.4,0.1,0.8,0.4,1.1,0.8c0.3,0.4,0.4,0.9,0.4,1.4c-0.1,0.9-0.4,1.5-0.9,2s-1.4,0.6-2.5,0.6h-4.2V341.3z
			 M376.8,345.2h1.7c0.7,0,1.1,0,1.4-0.1s0.5-0.2,0.7-0.4c0.2-0.2,0.3-0.5,0.3-0.8c0-0.5-0.2-0.8-0.5-1s-0.9-0.3-1.8-0.3h-1.7V345.2
			z M376.8,349.3h2.1c0.9,0,1.5-0.1,1.8-0.3c0.3-0.2,0.5-0.6,0.5-1.1c0-0.3-0.1-0.6-0.3-0.8c-0.2-0.3-0.4-0.4-0.8-0.5
			c-0.3-0.1-0.8-0.1-1.5-0.1h-1.9V349.3z"/>
		<path d="M384.8,341.3h1.6v3.6h2c1.3,0,2.3,0.3,3,0.8s1.1,1.2,1.1,2.1c0,0.8-0.3,1.4-0.9,2c-0.6,0.6-1.5,0.8-2.8,0.8h-4V341.3z
			 M386.4,349.3h1.7c1,0,1.7-0.1,2.1-0.4s0.6-0.6,0.6-1.2c0-0.4-0.2-0.8-0.5-1.1s-1-0.5-2.1-0.5h-1.9V349.3z M393.7,341.3h1.6v9.3
			h-1.6V341.3z"/>
		<path d="M397.8,341.3h2.5l2.5,7.5l2.7-7.5h2.3v9.3h-1.6v-7.5l-2.8,7.5h-1.4l-2.6-7.9v7.9h-1.5V341.3z"/>
		<path d="M410.1,341.3h1.6v7.1l4.4-7.1h1.7v9.3h-1.6v-7.1l-4.4,7.1h-1.7V341.3z"/>
		<path d="M425.2,341.3h1.6v7.1l4.4-7.1h1.7v9.3h-1.6v-7.1l-4.4,7.1h-1.7V341.3z"/>
		<path d="M440.2,341.3h1.6v4c0.5,0,0.9-0.1,1.1-0.3s0.5-0.8,0.9-1.7c0.3-0.7,0.6-1.2,0.8-1.5s0.4-0.4,0.7-0.5s0.7-0.1,1.2-0.1h0.3
			v1.3l-0.4,0c-0.4,0-0.7,0.1-0.8,0.2c-0.1,0.1-0.3,0.5-0.6,1.2c-0.2,0.6-0.5,1-0.7,1.3s-0.5,0.4-0.9,0.6c0.7,0.2,1.3,0.8,2,1.9
			l1.7,2.9h-1.7l-1.7-2.9c-0.3-0.6-0.6-1-0.9-1.1c-0.3-0.2-0.6-0.3-0.9-0.3v4.3h-1.6V341.3z"/>
		<path d="M448.1,354.2v-12.9h1.4v1.2c0.3-0.5,0.7-0.8,1.2-1.1c0.4-0.2,0.9-0.4,1.6-0.4c0.8,0,1.5,0.2,2.1,0.6s1.1,1,1.4,1.7
			c0.3,0.7,0.5,1.6,0.5,2.5c0,1-0.2,1.8-0.5,2.6c-0.3,0.8-0.8,1.4-1.5,1.8c-0.7,0.4-1.3,0.6-2.1,0.6c-0.5,0-1-0.1-1.4-0.3
			s-0.8-0.5-1-0.8v4.5H448.1z M449.5,346c0,1.2,0.2,2.1,0.7,2.7s1.1,0.9,1.8,0.9c0.7,0,1.3-0.3,1.8-0.9c0.5-0.6,0.8-1.5,0.8-2.8
			c0-1.2-0.2-2.1-0.7-2.7s-1.1-0.9-1.8-0.9c-0.7,0-1.3,0.3-1.8,0.9C449.8,343.9,449.5,344.8,449.5,346z"/>
		<path d="M464.2,349.4c-0.6,0.5-1.1,0.8-1.7,1.1s-1.1,0.3-1.7,0.3c-1,0-1.8-0.3-2.4-0.8c-0.6-0.5-0.8-1.1-0.8-1.9
			c0-0.5,0.1-0.9,0.3-1.3c0.2-0.4,0.5-0.7,0.8-0.9s0.7-0.4,1.1-0.5c0.3-0.1,0.8-0.2,1.4-0.2c1.3-0.2,2.2-0.3,2.8-0.5
			c0-0.2,0-0.4,0-0.4c0-0.6-0.1-1.1-0.4-1.4c-0.4-0.4-1-0.5-1.8-0.5c-0.7,0-1.3,0.1-1.6,0.4s-0.6,0.7-0.8,1.4l-1.5-0.2
			c0.1-0.7,0.4-1.2,0.7-1.6c0.3-0.4,0.8-0.7,1.4-0.9c0.6-0.2,1.3-0.3,2.1-0.3c0.8,0,1.4,0.1,1.9,0.3s0.9,0.4,1.1,0.7
			c0.2,0.3,0.4,0.6,0.5,1.1c0.1,0.3,0.1,0.8,0.1,1.5v2.1c0,1.5,0,2.4,0.1,2.8c0.1,0.4,0.2,0.8,0.4,1.1h-1.7
			C464.4,350.3,464.3,349.9,464.2,349.4z M464.1,345.9c-0.6,0.2-1.4,0.4-2.6,0.6c-0.7,0.1-1.1,0.2-1.4,0.3s-0.5,0.3-0.6,0.5
			s-0.2,0.5-0.2,0.8c0,0.4,0.2,0.8,0.5,1.1s0.8,0.4,1.4,0.4c0.6,0,1.2-0.1,1.6-0.4s0.8-0.6,1-1.1c0.2-0.4,0.3-0.9,0.3-1.6V345.9z"/>
		<path d="M474.2,347.2l1.6,0.2c-0.2,1.1-0.6,1.9-1.3,2.5c-0.7,0.6-1.6,0.9-2.6,0.9c-1.3,0-2.3-0.4-3.1-1.3c-0.8-0.8-1.2-2-1.2-3.6
			c0-1,0.2-1.9,0.5-2.6s0.8-1.3,1.5-1.7c0.7-0.4,1.4-0.6,2.2-0.6c1,0,1.8,0.3,2.5,0.8s1.1,1.2,1.2,2.2l-1.5,0.2
			c-0.1-0.6-0.4-1.1-0.8-1.4s-0.8-0.5-1.3-0.5c-0.8,0-1.4,0.3-1.9,0.9c-0.5,0.6-0.7,1.5-0.7,2.7c0,1.3,0.2,2.2,0.7,2.7
			s1.1,0.9,1.9,0.9c0.6,0,1.1-0.2,1.6-0.6S474.1,348,474.2,347.2z"/>
		<path d="M477.1,341.3h1.6v7.1l4.4-7.1h1.7v9.3h-1.6v-7.1l-4.4,7.1h-1.7V341.3z"/>
		<path d="M487.2,341.3h3.6c0.9,0,1.6,0.1,2,0.2c0.4,0.1,0.8,0.4,1.1,0.8s0.5,0.9,0.5,1.4c0,0.4-0.1,0.8-0.3,1.2
			c-0.2,0.3-0.5,0.6-0.8,0.8c0.4,0.1,0.8,0.4,1.1,0.8c0.3,0.4,0.4,0.9,0.4,1.4c-0.1,0.9-0.4,1.5-0.9,2s-1.4,0.6-2.5,0.6h-4.2V341.3z
			 M488.8,345.2h1.7c0.7,0,1.1,0,1.4-0.1s0.5-0.2,0.7-0.4c0.2-0.2,0.3-0.5,0.3-0.8c0-0.5-0.2-0.8-0.5-1s-0.9-0.3-1.8-0.3h-1.7V345.2
			z M488.8,349.3h2.1c0.9,0,1.5-0.1,1.8-0.3c0.3-0.2,0.5-0.6,0.5-1.1c0-0.3-0.1-0.6-0.3-0.8c-0.2-0.3-0.4-0.4-0.8-0.5
			c-0.3-0.1-0.8-0.1-1.5-0.1h-1.9V349.3z"/>
		<path d="M496.8,341.3h1.6v3.6h2c1.3,0,2.3,0.3,3,0.8s1.1,1.2,1.1,2.1c0,0.8-0.3,1.4-0.9,2c-0.6,0.6-1.5,0.8-2.8,0.8h-4V341.3z
			 M498.4,349.3h1.7c1,0,1.7-0.1,2.1-0.4s0.6-0.6,0.6-1.2c0-0.4-0.2-0.8-0.5-1.1s-1-0.5-2.1-0.5h-1.9V349.3z M505.6,341.3h1.6v9.3
			h-1.6V341.3z"/>
		<path d="M509.7,341.3h2.5l2.5,7.5l2.7-7.5h2.3v9.3h-1.6v-7.5l-2.8,7.5h-1.4l-2.6-7.9v7.9h-1.5V341.3z"/>
		<path d="M522.1,341.3h1.6v7.1l4.4-7.1h1.7v9.3h-1.6v-7.1l-4.4,7.1h-1.7V341.3z"/>
		<path d="M532.5,350.6v-1.8h1.8v1.8c0,0.7-0.1,1.2-0.4,1.6s-0.6,0.7-1.1,0.9l-0.4-0.7c0.3-0.1,0.6-0.4,0.7-0.6
			c0.2-0.3,0.2-0.7,0.3-1.2H532.5z"/>
		<path d="M306.9,367.5c0-1.7,0.5-3,1.4-3.8c0.8-0.7,1.8-1,2.9-1c1.3,0,2.3,0.4,3.1,1.3c0.8,0.8,1.2,2,1.2,3.5
			c0,1.2-0.2,2.1-0.5,2.8s-0.9,1.2-1.6,1.6s-1.4,0.6-2.3,0.6c-1.3,0-2.4-0.4-3.2-1.3S306.9,369.1,306.9,367.5z M308.5,367.5
			c0,1.2,0.3,2.1,0.8,2.7s1.2,0.9,2,0.9c0.8,0,1.4-0.3,2-0.9s0.8-1.5,0.8-2.7c0-1.2-0.3-2-0.8-2.6s-1.2-0.9-2-0.9
			c-0.8,0-1.4,0.3-2,0.9S308.5,366.3,308.5,367.5z"/>
		<path d="M318.3,362.9h6.5v8h1v3.9h-1.3v-2.6h-7.3v2.6h-1.3v-3.9h0.8C317.8,369.4,318.4,366.7,318.3,362.9z M319.6,364.2
			c-0.1,3-0.6,5.3-1.4,6.7h5v-6.7H319.6z"/>
		<path d="M327.6,362.9h1.6v3.9h4.4v-3.9h1.6v9.3h-1.6v-4.1h-4.4v4.1h-1.6V362.9z"/>
		<path d="M337.5,362.9h1.6v7.1l4.4-7.1h1.7v9.3h-1.6v-7.1l-4.4,7.1h-1.7V362.9z"/>
		<path d="M347.6,362.9h2.5l2.5,7.5l2.7-7.5h2.3v9.3H356v-7.5l-2.8,7.5h-1.4l-2.6-7.9v7.9h-1.5V362.9z"/>
		<path d="M371,368.8l1.6,0.2c-0.2,1.1-0.6,1.9-1.3,2.5c-0.7,0.6-1.6,0.9-2.6,0.9c-1.3,0-2.3-0.4-3.1-1.3c-0.8-0.8-1.2-2-1.2-3.6
			c0-1,0.2-1.9,0.5-2.6s0.8-1.3,1.5-1.7c0.7-0.4,1.4-0.6,2.2-0.6c1,0,1.8,0.3,2.5,0.8c0.6,0.5,1.1,1.2,1.2,2.2l-1.5,0.2
			c-0.1-0.6-0.4-1.1-0.8-1.4s-0.8-0.5-1.3-0.5c-0.8,0-1.4,0.3-1.9,0.9c-0.5,0.6-0.7,1.5-0.7,2.7c0,1.3,0.2,2.2,0.7,2.7
			s1.1,0.9,1.9,0.9c0.6,0,1.1-0.2,1.6-0.6S370.9,369.6,371,368.8z"/>
		<path d="M374.7,362.9h7.3v9.3h-1.6v-8h-4.2v4.6c0,1.1,0,1.8-0.1,2.1s-0.3,0.6-0.6,0.9s-0.8,0.4-1.4,0.4c-0.4,0-0.8,0-1.3-0.1v-1.3
			h0.7c0.3,0,0.6,0,0.7-0.1c0.1-0.1,0.2-0.2,0.3-0.3s0.1-0.6,0.1-1.4V362.9z"/>
		<path d="M384.1,367.5c0-1.7,0.5-3,1.4-3.8c0.8-0.7,1.8-1,2.9-1c1.3,0,2.3,0.4,3.1,1.3c0.8,0.8,1.2,2,1.2,3.5
			c0,1.2-0.2,2.1-0.5,2.8s-0.9,1.2-1.6,1.6s-1.4,0.6-2.3,0.6c-1.3,0-2.4-0.4-3.2-1.3S384.1,369.1,384.1,367.5z M385.7,367.5
			c0,1.2,0.3,2.1,0.8,2.7s1.2,0.9,2,0.9c0.8,0,1.4-0.3,2-0.9s0.8-1.5,0.8-2.7c0-1.2-0.3-2-0.8-2.6s-1.2-0.9-2-0.9
			c-0.8,0-1.4,0.3-2,0.9S385.7,366.3,385.7,367.5z"/>
		<path d="M394.7,362.9h3.6c0.9,0,1.6,0.1,2,0.2c0.4,0.2,0.8,0.4,1.1,0.8s0.5,0.9,0.5,1.4c0,0.4-0.1,0.8-0.3,1.2s-0.5,0.6-0.8,0.8
			c0.4,0.1,0.8,0.4,1.1,0.8s0.4,0.9,0.4,1.4c-0.1,0.9-0.4,1.5-0.9,2s-1.4,0.6-2.5,0.6h-4.2V362.9z M396.3,366.8h1.7
			c0.7,0,1.1,0,1.4-0.1s0.5-0.2,0.7-0.4s0.3-0.5,0.3-0.8c0-0.5-0.2-0.8-0.5-1s-0.9-0.3-1.8-0.3h-1.7V366.8z M396.3,370.9h2.1
			c0.9,0,1.5-0.1,1.8-0.3s0.5-0.6,0.5-1.1c0-0.3-0.1-0.6-0.3-0.8c-0.2-0.3-0.4-0.4-0.8-0.5s-0.8-0.1-1.5-0.1h-1.9V370.9z"/>
		<path d="M403.4,367.5c0-1.7,0.5-3,1.4-3.8c0.8-0.7,1.8-1,2.9-1c1.3,0,2.3,0.4,3.1,1.3c0.8,0.8,1.2,2,1.2,3.5
			c0,1.2-0.2,2.1-0.5,2.8s-0.9,1.2-1.6,1.6s-1.4,0.6-2.3,0.6c-1.3,0-2.4-0.4-3.2-1.3S403.4,369.1,403.4,367.5z M405.1,367.5
			c0,1.2,0.3,2.1,0.8,2.7s1.2,0.9,2,0.9c0.8,0,1.4-0.3,2-0.9s0.8-1.5,0.8-2.7c0-1.2-0.3-2-0.8-2.6s-1.2-0.9-2-0.9
			c-0.8,0-1.4,0.3-2,0.9S405.1,366.3,405.1,367.5z"/>
		<path d="M414.1,362.9h2.5l2.5,7.5l2.7-7.5h2.3v9.3h-1.6v-7.5l-2.8,7.5h-1.4l-2.6-7.9v7.9h-1.5V362.9z"/>
		<path d="M430.2,359.3h2.9l3,6.7l2.6-6.7h2.7l-4.4,9.8c-0.5,1.1-1,1.9-1.5,2.4c-0.5,0.6-1.1,0.8-1.9,0.8c-0.8,0-1.4,0-1.8-0.1v-1.9
			c0.4,0,0.7,0,1,0c0.6,0,1-0.1,1.3-0.3c0.3-0.2,0.5-0.7,0.8-1.4L430.2,359.3z"/>
		<path d="M442.7,372.2v-12.9h2.6v5.1h5.1v-5.1h2.6v12.9h-2.6v-5.6h-5.1v5.6H442.7z"/>
		<path d="M455.8,359.3h2.4v8.6l5.2-8.6h2.6v12.9h-2.4v-8.4l-5.2,8.4h-2.6V359.3z"/>
		<path d="M468.7,359.3h2.6v5.5c0.6-0.1,1-0.2,1.2-0.4s0.5-0.9,0.9-2c0.5-1.4,1.1-2.3,1.6-2.6c0.5-0.3,1.4-0.5,2.6-0.5
			c0.1,0,0.2,0,0.4,0v1.9l-0.4,0c-0.5,0-0.9,0.1-1.2,0.2c-0.2,0.1-0.4,0.3-0.6,0.6s-0.4,0.8-0.7,1.7c-0.2,0.4-0.3,0.8-0.5,1.1
			s-0.5,0.6-1,0.8c0.6,0.2,1.1,0.5,1.4,1s0.8,1.2,1.2,2.1l1.8,3.5h-3.1l-1.5-3.3c0,0-0.1-0.1-0.1-0.3c0,0-0.1-0.2-0.3-0.6
			c-0.3-0.6-0.6-1-0.8-1.2s-0.5-0.2-1-0.2v5.6h-2.6V359.3z"/>
		<path d="M491.3,372.2h-2.8l-1.1-2.9h-5.2l-1.1,2.9h-2.8l5-12.9h2.8L491.3,372.2z M486.5,367.1l-1.8-4.8l-1.7,4.8H486.5z"/>
		<path d="M493.8,359.3h9v12.9h-2.6v-10.7h-3.9v5.5c0,1.6-0.1,2.7-0.2,3.3c-0.1,0.6-0.4,1.1-0.8,1.5c-0.4,0.3-1,0.5-1.9,0.5
			c-0.3,0-0.9,0-1.7-0.1v-2l0.6,0c0.5,0,0.9-0.1,1.1-0.2s0.3-0.5,0.3-1.1l0-2.2V359.3z"/>
		<path d="M505.6,359.3h2.6v5.2h3.5c1.6,0,2.8,0.4,3.6,1.2s1.1,1.7,1.1,2.8c0,0.9-0.2,1.6-0.7,2.2s-1,1-1.5,1.3
			c-0.6,0.2-1.4,0.3-2.5,0.3h-6.1V359.3z M508.2,370h2.5c0.8,0,1.4,0,1.7-0.1c0.3-0.1,0.6-0.3,0.8-0.5s0.4-0.6,0.4-1
			c0-0.6-0.2-1-0.6-1.3s-1.1-0.4-2.2-0.4h-2.6V370z"/>
		<path d="M518.5,372.2v-12.9h2.6v5.1h5.1v-5.1h2.6v12.9h-2.6v-5.6h-5.1v5.6H518.5z"/>
		<path d="M531.5,359.3h2.6v5.2h3.5c0.9,0,1.7,0.1,2.4,0.4s1.2,0.7,1.6,1.3c0.4,0.6,0.7,1.4,0.7,2.2c0,0.9-0.2,1.6-0.7,2.3
			s-1,1-1.5,1.3s-1.4,0.3-2.5,0.3h-6.1V359.3z M534.1,370h2.5c0.8,0,1.4,0,1.7-0.1c0.3-0.1,0.6-0.3,0.9-0.5s0.4-0.6,0.4-1
			c0-0.6-0.2-1-0.6-1.3s-1.1-0.4-2.2-0.4h-2.6V370z M543.8,359.3h2.6v12.9h-2.6V359.3z"/>
		<path d="M549,372.2v-12.9h3.9l2.3,8.8l2.3-8.8h3.9v12.9h-2.4v-10.1l-2.6,10.1H554l-2.5-10.1v10.1H549z"/>
		<path d="M564.1,359.3h2.4v8.6l5.2-8.6h2.6v12.9h-2.4v-8.4l-5.2,8.4h-2.6V359.3z"/>
		<path d="M582.3,368.9H580c0-0.3,0-0.5,0-0.6c0-0.7,0.1-1.3,0.4-1.8s0.7-1,1.4-1.6s1.2-1,1.3-1.2c0.2-0.3,0.3-0.6,0.3-0.9
			c0-0.5-0.2-0.9-0.6-1.2c-0.4-0.3-0.9-0.5-1.6-0.5c-0.6,0-1.2,0.2-1.6,0.5s-0.7,0.9-0.9,1.6l-2.3-0.3c0.1-1,0.5-1.9,1.3-2.7
			s1.9-1.1,3.3-1.1c1.4,0,2.5,0.4,3.4,1.1c0.8,0.7,1.3,1.6,1.3,2.6c0,0.5-0.2,1.1-0.5,1.5s-1,1.1-2,2c-0.5,0.4-0.8,0.8-1,1
			S582.3,368.2,582.3,368.9z M580,372.2v-2.5h2.5v2.5H580z"/>
		<path d="M588.9,368.9l-0.6-6.5v-3h2.7v3l-0.6,6.5H588.9z M588.4,372.2v-2.5h2.5v2.5H588.4z"/>
		<path d="M594.9,368.9l-0.6-6.5v-3h2.7v3l-0.6,6.5H594.9z M594.4,372.2v-2.5h2.5v2.5H594.4z"/>
		<path d="M530.5,383.8h13.7V401h-3.5v-14.3H534V401h-3.5V383.8z"/>
		<path d="M547.7,401v-17.2h5.6c2.1,0,3.5,0.1,4.1,0.3c1,0.3,1.8,0.8,2.5,1.7s1,2,1,3.3c0,1.1-0.2,1.9-0.6,2.7s-0.9,1.3-1.5,1.7
			s-1.2,0.7-1.8,0.8c-0.8,0.2-2,0.2-3.6,0.2h-2.3v6.5H547.7z M551.2,386.7v4.9h1.9c1.4,0,2.3-0.1,2.7-0.3s0.8-0.5,1.1-0.8
			s0.4-0.8,0.4-1.3c0-0.6-0.2-1.1-0.6-1.5s-0.8-0.7-1.4-0.8c-0.4-0.1-1.2-0.1-2.5-0.1H551.2z"/>
		<path d="M563.8,383.8h3.2v11.4l7-11.4h3.5V401h-3.2v-11.2l-6.9,11.2h-3.5V383.8z"/>
		<path d="M579.2,401l5.9-9l-5.3-8.2h4.1l3.4,5.5l3.4-5.5h4l-5.3,8.3l5.9,8.8H591l-3.8-5.9l-3.8,5.9H579.2z"/>
		<path d="M595.7,392.5c0-1.8,0.3-3.2,0.8-4.4c0.4-0.9,0.9-1.7,1.6-2.4s1.4-1.2,2.2-1.5c1.1-0.5,2.3-0.7,3.7-0.7
			c2.5,0,4.6,0.8,6.1,2.4s2.3,3.8,2.3,6.6c0,2.8-0.8,4.9-2.3,6.5s-3.5,2.3-6,2.3c-2.6,0-4.6-0.8-6.1-2.3S595.7,395.2,595.7,392.5z
			 M599.2,392.4c0,1.9,0.4,3.4,1.3,4.4s2,1.5,3.4,1.5s2.5-0.5,3.4-1.5s1.3-2.5,1.3-4.5c0-2-0.4-3.4-1.3-4.4s-2-1.5-3.4-1.5
			s-2.6,0.5-3.5,1.5S599.2,390.4,599.2,392.4z"/>
		<path d="M616.1,383.8H628v14.3h1.5v6.6h-2.9V401h-10.8v3.8h-2.9v-6.6h1.5c0.7-1.5,1.2-3.2,1.4-5.1s0.3-4.4,0.3-7.4V383.8z
			 M619.4,386.7c0,5.2-0.5,9-1.4,11.4h6.5v-11.4H619.4z"/>
		<path d="M631.9,383.8h3.2v11.4l7-11.4h3.5V401h-3.2v-11.2l-6.9,11.2h-3.5V383.8z"/>
		<path d="M652.9,401v-14.3h-5.1v-2.9h13.7v2.9h-5.1V401H652.9z"/>
		<path d="M663.7,401v-17.2h12.7v2.9h-9.3v3.8h8.6v2.9h-8.6v4.7h9.6v2.9H663.7z"/>
		<path d="M681,396.6l-0.9-8.7v-4h3.6v4l-0.8,8.7H681z M680.3,401v-3.3h3.3v3.3H680.3z"/>
	</g>
</g>
</svg>
