<?xml version="1.0" encoding="utf-8"?>
<!-- Generator: Adobe Illustrator 15.0.0, SVG Export Plug-In . SVG Version: 6.00 Build 0)  -->
<!DOCTYPE svg PUBLIC "-//W3C//DTD SVG 1.1//EN" "http://www.w3.org/Graphics/SVG/1.1/DTD/svg11.dtd">
<svg version="1.1" id="Layer_1" xmlns="http://www.w3.org/2000/svg" xmlns:xlink="http://www.w3.org/1999/xlink" x="0px" y="0px"
	 width="306px" height="75px" viewBox="0 0 306 75" style="enable-background:new 0 0 306 75;" xml:space="preserve">
<style type="text/css">
<![CDATA[
	.st0{stroke:#000000;stroke-width:2;stroke-miterlimit:10;}
]]>
</style>
<g>
	<path class="st0" d="M62.599,38.939c0,9.914-2.689,17.648-8.068,23.203s-12.768,8.332-22.166,8.332
		c-8.32,0-15.117-2.86-20.391-8.578c-5.18-5.602-7.77-13.113-7.77-22.535c0-9.937,2.273-17.977,6.82-24.117
		C15.969,8.634,23.13,5.33,32.505,5.33c9.422,0,16.792,2.941,22.113,8.824C59.938,20.037,62.599,28.299,62.599,38.939z
		 M55.181,39.15c0-8.648-1.951-15.263-5.854-19.846c-3.902-4.582-9.463-6.873-16.682-6.873c-6.844,0-12.047,2.238-15.609,6.715
		c-3.563,4.477-5.344,11.004-5.344,19.582c0,7.523,1.98,13.541,5.941,18.053c3.96,4.512,9.105,6.768,15.434,6.768
		c6.75,0,12.105-2.132,16.066-6.398C53.165,52.768,55.181,46.767,55.181,39.15z"/>
	<path class="st0" d="M96.595,26.423c0,0.891-0.27,1.641-0.809,2.25c-0.54,0.61-1.184,0.914-1.934,0.914
		c-0.563,0-1.395-0.41-2.496-1.23c-1.102-0.82-2.098-1.23-2.988-1.23c-2.227,0-4.031,0.979-5.414,2.936
		c-1.383,1.957-2.074,4.6-2.074,7.928v4.605c0,5.133-0.54,9.211-1.617,12.234c-1.008,2.836-2.309,4.254-3.902,4.254
		c-2.133,0-3.199-1.055-3.199-3.164c0-0.422,0.328-1.974,0.984-4.658c0.656-2.684,0.984-5.208,0.984-7.576
		c0-6.562-0.938-11.813-2.813-15.75c-0.047-0.117-0.691-1.301-1.934-3.551c-0.633-1.148-0.949-2.062-0.949-2.742
		c0-0.75,0.363-1.453,1.09-2.109c0.726-0.656,1.512-0.984,2.355-0.984c2.484,0,4.547,3.047,6.188,9.141
		c2.438-4.688,5.988-7.031,10.652-7.031c2.343,0,4.242,0.545,5.695,1.635C95.868,23.382,96.595,24.759,96.595,26.423z"/>
	<path class="st0" d="M139.345,47.13c0,2.438-2.473,5.567-7.418,9.387c-3.493,2.672-8.074,4.008-13.746,4.008
		c-5.625,0-10.055-1.851-13.289-5.555c-3.305-3.773-4.957-8.953-4.957-15.539c0-8.508,1.898-15.135,5.695-19.881
		s9.012-7.119,15.645-7.119c4.922,0,8.953,1.102,12.094,3.305c2.976,2.063,4.465,4.535,4.465,7.418c0,2.368-1.102,3.551-3.305,3.551
		c-1.032,0-1.781-0.363-2.25-1.09c-0.422-1.031-1.067-2.32-1.934-3.867c-1.665-1.875-4.688-2.813-9.07-2.813
		c-4.57,0-8.104,1.723-10.6,5.168s-3.744,8.367-3.744,14.766c0,10.125,4.031,15.188,12.094,15.188c4.664,0,8.648-1.652,11.953-4.957
		c0.023-0.023,0.75-1.078,2.18-3.164c0.844-1.266,1.805-1.898,2.883-1.898c0.844,0,1.605,0.322,2.285,0.967
		C139.005,45.648,139.345,46.357,139.345,47.13z"/>
	<path class="st0" d="M181.462,41.4c0,6.703-0.645,12.071-1.934,16.102c-1.219,3.844-2.754,5.766-4.605,5.766
		c-1.055,0-1.946-0.322-2.672-0.967c-0.727-0.645-1.09-1.376-1.09-2.197c2.203-8.227,3.305-14.461,3.305-18.703
		c0-6.351-0.727-10.969-2.18-13.852c-1.5-2.976-3.938-4.465-7.313-4.465c-1.781,0-3.598,0.434-5.449,1.301
		c-1.852,0.867-3.282,1.922-4.289,3.164c-1.243,1.57-1.863,3.95-1.863,7.137v2.25c0,5.977,0.229,11.772,0.686,17.385
		c0.457,5.613,0.686,8.232,0.686,7.857c0,2.32-1.078,3.48-3.234,3.48c-1.243,0-2.122-0.387-2.637-1.16
		c-0.445-0.656-0.821-1.981-1.125-3.973c-0.797-5.461-1.195-12.727-1.195-21.797c0-7.945,0.879-17.039,2.637-27.281
		c0.398-2.227,0.773-3.679,1.125-4.359c0.539-0.984,1.418-1.477,2.637-1.477c0.891,0,1.64,0.329,2.25,0.984
		c0.609,0.656,0.914,1.5,0.914,2.531c0-0.047-0.598,3.891-1.793,11.813c3.094-2.883,6.855-4.324,11.285-4.324
		C176.176,16.615,181.462,24.876,181.462,41.4z"/>
	<path class="st0" d="M221.118,40.169c0,6.422-0.938,13.137-2.813,20.145c-0.938,3.516-2.333,5.273-4.184,5.273
		c-1.898,0-2.848-1.078-2.848-3.234c0-0.492,0.023-0.856,0.07-1.09c-2.391,1.289-4.864,1.934-7.418,1.934
		c-4.523,0-8.057-1.278-10.6-3.832c-2.543-2.554-3.814-6.129-3.814-10.723c0-4.664,1.371-8.361,4.113-11.092
		c2.742-2.73,6.386-4.096,10.934-4.096c3.96,0,7.3,1.324,10.02,3.973c-0.445-9.258-3.879-13.887-10.301-13.887
		c-1.43,0-2.959,0.428-4.588,1.283c-1.629,0.856-2.689,1.283-3.182,1.283c-0.797,0-1.512-0.328-2.145-0.984
		c-0.633-0.656-0.949-1.406-0.949-2.25c0-1.406,1.02-2.707,3.059-3.902c2.18-1.289,4.781-1.934,7.805-1.934
		C215.505,17.037,221.118,24.748,221.118,40.169z M213.981,48.431c0-5.953-2.801-8.93-8.402-8.93c-6.141,0-9.211,2.953-9.211,8.859
		c0,5.954,3.046,8.93,9.141,8.93c2.648,0,4.723-0.779,6.223-2.338C213.231,53.394,213.981,51.221,213.981,48.431z"/>
	<path class="st0" d="M257.048,26.423c0,0.891-0.27,1.641-0.809,2.25c-0.54,0.61-1.184,0.914-1.934,0.914
		c-0.563,0-1.395-0.41-2.496-1.23c-1.102-0.82-2.098-1.23-2.988-1.23c-2.227,0-4.031,0.979-5.414,2.936
		c-1.383,1.957-2.074,4.6-2.074,7.928v4.605c0,5.133-0.54,9.211-1.617,12.234c-1.008,2.836-2.309,4.254-3.902,4.254
		c-2.133,0-3.199-1.055-3.199-3.164c0-0.422,0.328-1.974,0.984-4.658c0.656-2.684,0.984-5.208,0.984-7.576
		c0-6.562-0.938-11.813-2.813-15.75c-0.047-0.117-0.691-1.301-1.934-3.551c-0.633-1.148-0.949-2.062-0.949-2.742
		c0-0.75,0.363-1.453,1.09-2.109c0.726-0.656,1.512-0.984,2.355-0.984c2.484,0,4.547,3.047,6.188,9.141
		c2.438-4.688,5.988-7.031,10.652-7.031c2.343,0,4.242,0.545,5.695,1.635C256.321,23.382,257.048,24.759,257.048,26.423z"/>
	<path class="st0" d="M299.868,8.283c0-0.141-0.141,1.617-0.422,5.273c-0.305,4.242-0.563,8.754-0.773,13.535
		c-0.259,6.891-0.387,14.227-0.387,22.008c0,1.594,0.012,3.229,0.035,4.904c0.022,1.676,0.035,2.561,0.035,2.654
		c0,3.493-1.107,5.238-3.322,5.238c-2.426,0-3.639-1.969-3.639-5.906c0-0.914,0.023-1.629,0.07-2.145
		c-4.425,4.359-9.552,6.539-15.381,6.539c-4.87,0-8.727-1.576-11.571-4.729c-2.844-3.152-4.267-7.482-4.267-12.99
		c0-7.5,2.066-13.558,6.198-18.176c4.132-4.617,9.546-6.926,16.242-6.926c3.114,0,6.333,0.715,9.658,2.145
		c0.164-6.492,0.387-10.383,0.668-11.672c0.518-2.391,1.814-3.586,3.887-3.586C298.879,4.451,299.868,5.729,299.868,8.283z
		 M291.993,26.564c-3.066-1.921-6.144-2.883-9.233-2.883c-4.775,0-8.542,1.647-11.304,4.939c-2.762,3.293-4.143,7.764-4.143,13.412
		c0,3.867,0.93,6.873,2.791,9.018s4.429,3.217,7.706,3.217c4.119,0,7.255-1.371,9.408-4.113c0.609-0.914,1.206-1.84,1.791-2.777
		c0.678-0.984,1.521-1.57,2.527-1.758C291.536,39.033,291.688,32.681,291.993,26.564z"/>
</g>
</svg>