<?xml version="1.0" encoding="utf-8"?>
<!-- Generator: Adobe Illustrator 16.2.0, SVG Export Plug-In . SVG Version: 6.00 Build 0)  -->
<!DOCTYPE svg PUBLIC "-//W3C//DTD SVG 1.1//EN" "http://www.w3.org/Graphics/SVG/1.1/DTD/svg11.dtd">
<svg version="1.1" xmlns="http://www.w3.org/2000/svg" xmlns:xlink="http://www.w3.org/1999/xlink" x="0px" y="0px"
	 width="525.742px" height="125.641px" viewBox="0 0 525.742 125.641" style="enable-background:new 0 0 525.742 125.641;"
	 xml:space="preserve">
<g id="Layer_2">
</g>
<g id="Layer_1">
	<g>
		<path d="M32.008,34.495c6.185-7.771,15.218-11.658,27.1-11.658c12.071,0,21.459,3.708,28.189,11.088
			c-1.333-2.662-2.896-5.086-4.725-7.233c-6.775-7.954-16.43-11.932-28.961-11.932c-11.883,0-20.916,3.886-27.1,11.657
			c-6.186,7.772-9.277,19.104-9.277,33.997c0,13.061,3.438,23.508,10.314,31.341c0.078,0.089,0.159,0.172,0.238,0.258
			c-3.355-6.571-5.057-14.4-5.057-23.522C22.73,53.599,25.822,42.268,32.008,34.495z"/>
		<path d="M87.846,34.845c3.579,7.184,5.385,16.214,5.385,27.127c0,13.225-3.5,23.642-10.498,31.25
			c-6.877,7.406-16.174,11.108-27.893,11.108c-10.633,0-19.335-3.681-26.118-11.019c1.46,2.889,3.222,5.547,5.327,7.943
			c6.875,7.834,15.808,11.75,26.794,11.75c11.719,0,21.017-3.702,27.894-11.108c6.998-7.608,10.498-18.025,10.498-31.25
			c0-15.015-3.389-26.499-10.162-34.454C88.675,35.727,88.263,35.283,87.846,34.845z"/>
		<path d="M92.254,18.576C83.017,8.363,70.221,3.256,53.863,3.256c-16.276,0-28.708,5.737-37.292,17.212
			C8.676,31.129,4.73,45.086,4.73,62.338c0,15.443,4.013,27.928,12.029,37.459c1.808,3.227,3.953,6.205,6.46,8.916
			c9.155,9.928,20.955,14.893,35.4,14.893c16.316,0,29.144-4.821,38.483-14.465c9.338-9.644,14.007-23.071,14.007-40.283
			c0-17.685-4.245-31.575-12.71-41.69C96.648,24.038,94.602,21.172,92.254,18.576z M105.613,60.782
			c0,17.212-4.67,30.64-14.008,40.282c-9.339,9.645-22.166,14.466-38.482,14.466c-14.445,0-26.246-4.965-35.4-14.893
			c-0.254-0.274-0.492-0.562-0.738-0.841c-4.164-8.061-6.252-17.652-6.252-28.783c0-17.252,3.947-31.209,11.842-41.87
			c8.584-11.475,21.016-17.212,37.292-17.212c16.357,0,29.153,5.107,38.392,15.32c0.113,0.126,0.218,0.26,0.33,0.387
			C103.263,36.6,105.613,47.64,105.613,60.782z"/>
		<path d="M284.942,22.849c-4.18,0-8.013,0.748-11.507,2.227c-0.443,2.896-1.046,6.746-1.773,11.572
			c-2.182,1.265-3.993,2.717-5.324,4.358c-2.157,2.727-3.338,6.856-3.338,12.39v3.906c0,10.376,0.499,20.438,1.293,30.182
			c0.793,9.746,1.293,14.292,1.293,13.642c0,4.028-1.872,6.042-5.615,6.042c-0.039,0-0.075-0.004-0.113-0.004
			c-1.328-9.412-1.995-21.824-1.995-37.249c0-13.794,1.526-29.581,4.578-47.363c0.691-3.865,1.341-6.388,1.951-7.568
			c0.687-1.255,1.692-2.044,3.016-2.378c-0.506,3.324-1.364,8.955-2.567,16.927c2.289-2.133,4.782-3.808,7.49-5.031
			c0.754-4.97,1.133-7.45,1.133-7.401c0-1.79-0.529-3.255-1.587-4.395c-0.985-1.06-2.19-1.606-3.599-1.68
			c0.123-0.8,0.186-1.197,0.186-1.178c0-1.79-0.529-3.255-1.587-4.395c-1.059-1.139-2.36-1.709-3.906-1.709
			c-2.116,0-3.642,0.854-4.578,2.563c-0.61,1.181-1.262,3.703-1.953,7.568c-3.052,17.782-4.578,33.569-4.578,47.363
			c0,15.747,0.691,28.361,2.075,37.842c0.528,3.458,1.18,5.757,1.953,6.897c0.707,1.061,1.815,1.696,3.312,1.918
			c0.477,2.592,1.039,4.376,1.688,5.334c0.895,1.342,2.42,2.014,4.578,2.014c3.725,0,5.592-1.997,5.611-5.985
			c-0.031-0.036-0.297-4.6-1.037-13.698C269.248,85.816,269,75.754,269,65.379v-3.906c0-5.533,0.928-9.664,3.086-12.39
			c1.748-2.156,4.156-3.987,7.371-5.493c3.215-1.505,6.331-2.258,9.424-2.258c3.304,0,6.063,0.837,8.329,2.48
			c-0.354-1.021-0.741-1.959-1.167-2.805c-2.605-5.167-6.836-7.752-12.695-7.752c-1.15,0-2.309,0.105-3.475,0.313
			c3.377-1.358,7.066-2.044,11.072-2.044c6.773,0,12.292,1.96,16.565,5.868c2.973,6.898,4.462,16.116,4.462,27.662
			c0,11.637-1.119,20.955-3.357,27.953c-1.882,5.938-4.2,9.225-6.951,9.881c3.104-12.248,4.662-21.699,4.662-28.335
			c0-11.026-1.262-19.043-3.784-24.048c-1.217-2.414-2.795-4.253-4.722-5.54c1.671,4.986,2.513,11.937,2.513,20.913
			c0,7.365-1.918,18.188-5.742,32.471c0,1.425,0.628,2.695,1.89,3.815c1.01,0.896,2.213,1.417,3.592,1.595
			c-0.16,0.61-0.318,1.219-0.485,1.842c0,1.425,0.63,2.695,1.892,3.815c1.26,1.118,2.807,1.678,4.639,1.678
			c3.213,0,5.879-3.336,7.995-10.01c2.237-6.998,3.356-16.316,3.356-27.954c0-17.386-3.377-29.493-10.117-36.342
			C302.852,27.5,295.385,22.849,284.942,22.849z"/>
		<path d="M271.082,109.202c0,0.021-0.004,0.037-0.004,0.058C271.081,109.261,271.082,109.245,271.082,109.202z"/>
		<path d="M352.081,23.581c-5.249,0-9.766,1.12-13.55,3.357c-3.54,2.075-5.311,4.333-5.311,6.775c0,1.465,0.55,2.768,1.648,3.906
			c1.076,1.117,2.292,1.678,3.642,1.7c-0.186,0.54-0.29,1.087-0.29,1.646c0,1.465,0.55,2.768,1.648,3.906
			c1.099,1.14,2.34,1.709,3.723,1.709c0.855,0,2.695-0.742,5.524-2.228c2.827-1.485,5.482-2.228,7.965-2.228
			c4.031,0,7.377,1.063,10.052,3.165c-2.776-7.474-7.947-11.241-15.549-11.241c-2.482,0-5.137,0.742-7.965,2.228
			c-0.185,0.098-0.354,0.183-0.529,0.273c0.446-0.315,0.92-0.629,1.444-0.937c3.784-2.237,8.301-3.356,13.55-3.356
			c7.812,0,14.054,2.156,18.734,6.457c2.666,6.239,4.002,14.304,4.002,24.204c0,11.149-1.628,22.807-4.883,34.973
			c-1.628,6.104-4.049,9.156-7.264,9.156c-3.17,0-4.8-1.752-4.92-5.217c2.947-0.537,5.375-1.779,7.27-3.748
			c2.604-2.705,3.906-6.479,3.906-11.321c0-6.899-2.174-11.487-6.508-13.781c0.326,1.535,0.505,3.226,0.505,5.106
			c0,4.843-1.303,8.616-3.906,11.321c-2.604,2.707-6.206,4.06-10.804,4.06c-3.831,0-6.949-0.695-9.391-2.053
			c1.335,6.409,5.605,9.949,12.83,10.602c-2.19,0.584-4.418,0.881-6.682,0.881c-7.021,0-12.656-1.786-16.929-5.33
			c-1.06-3.057-1.597-6.533-1.597-10.439c0-8.097,2.381-14.516,7.141-19.256c0.386-0.384,0.798-0.727,1.203-1.079
			c-1.955,2.511-2.941,5.955-2.941,10.347c0,6.354,2.039,10.716,6.039,13.162c-0.349-1.53-0.543-3.213-0.543-5.085
			c0-10.254,5.33-15.381,15.992-15.381c3.45,0,6.28,0.66,8.506,1.961c-1.532-6.677-6.187-10.037-14.003-10.037
			c-1.776,0-3.39,0.155-4.87,0.439c2.895-0.94,6.082-1.438,9.6-1.438c6.876,0,12.674,2.3,17.395,6.897
			c-0.506-10.526-3.256-17.577-8.213-21.208c1.224,3.422,1.973,7.583,2.211,12.533c-4.721-4.598-10.52-6.897-17.396-6.897
			c-7.895,0-14.222,2.371-18.981,7.111c-4.762,4.74-7.142,11.16-7.142,19.256c0,7.976,2.207,14.182,6.622,18.615
			c0.17,0.171,0.359,0.315,0.534,0.479c1.084,2.583,2.556,4.854,4.466,6.772c4.415,4.436,10.549,6.653,18.402,6.653
			c4.271,0,8.408-1.05,12.415-3.123c0.099,0.003,0.184,0.021,0.285,0.021c0.048,0,0.093-0.007,0.141-0.009
			c-0.056,0.4-0.085,0.942-0.085,1.646c0,3.743,1.648,5.615,4.944,5.615c3.214,0,5.636-3.052,7.263-9.155
			c3.256-12.166,4.883-23.824,4.883-34.973c0-15.374-3.22-26.324-9.646-32.871C371.999,28.434,363.807,23.581,352.081,23.581z"/>
		<path d="M166.346,39.958c-0.397-0.298-0.821-0.564-1.257-0.815c-0.2-2.56-1.439-4.709-3.743-6.437
			c-2.523-1.893-5.819-2.838-9.888-2.838c-7.166,0-12.812,3.2-16.95,9.573c1.509,2.466,2.768,5.93,4.027,10.403
			c-0.904,2.649-1.536,5.743-1.536,9.289v7.996c0,8.911-0.761,15.991-2.632,21.239c-1.36,3.826-2.853,6.158-4.825,7.012
			c0.242-1.059,0.531-2.279,0.88-3.707c1.139-4.658,1.709-9.043,1.709-13.152c0-11.393-1.628-20.508-4.883-27.344
			c-0.082-0.203-1.2-2.259-3.356-6.165c-1.1-1.993-1.648-3.58-1.648-4.761c0-1.302,0.631-2.522,1.893-3.662
			c1.26-1.139,2.624-1.709,4.089-1.709c0.833,0,1.639,0.203,2.418,0.599c0.638,1.71,1.247,3.626,1.825,5.771
			c0.465-0.897,0.959-1.735,1.473-2.532c-1.096-1.92-2.264-3.312-3.505-4.18c-2.355-5.545-5.092-8.333-8.214-8.333
			c-1.465,0-2.829,0.57-4.089,1.709c-1.262,1.14-1.892,2.36-1.892,3.662c0,1.181,0.549,2.768,1.648,4.761
			c2.156,3.906,3.275,5.961,3.357,6.165c3.255,6.836,4.883,15.951,4.883,27.344c0,4.11-0.57,8.495-1.709,13.153
			c-1.14,4.66-1.709,7.355-1.709,8.088c0,3.561,1.765,5.375,5.266,5.474c-0.175,0.891-0.266,1.491-0.266,1.778
			c0,3.662,1.851,5.492,5.554,5.492c2.767,0,5.101-2.461,6.851-7.385c1.871-5.249,2.884-12.329,2.884-21.24V67.21
			c0-5.777,1.124-10.366,3.525-13.764c2.4-3.397,5.495-5.096,9.361-5.096c1.546,0,3.256,0.712,5.169,2.136
			c1.912,1.425,3.347,2.136,4.324,2.136c1.302,0,2.416-0.528,3.353-1.587c0.936-1.058,1.401-2.359,1.401-3.906
			C170.133,44.241,168.869,41.85,166.346,39.958z M163.23,42.959c-0.938,1.059-2.056,1.587-3.357,1.587
			c-0.977,0-2.422-0.712-4.334-2.137c-1.912-1.424-3.642-2.136-5.188-2.136c-0.466,0-0.92,0.027-1.364,0.076
			c2.54-1.201,5.363-1.808,8.474-1.808c2.719,0,5.084,0.433,7.112,1.277C164.439,41.031,164.005,42.083,163.23,42.959z"/>
		<path d="M239.066,77.752c0.181-0.667,0.283-1.311,0.283-1.926c0-1.342-0.59-2.572-1.77-3.691c-1.181-1.119-2.502-1.68-3.967-1.68
			c-1.872,0-3.54,1.1-5.005,3.297c-2.482,3.621-3.744,5.453-3.784,5.492c-5.737,5.738-12.655,8.606-20.752,8.606
			c-5.347,0-9.641-1.322-12.943-3.89c2.996,8.355,9.295,12.564,18.946,12.564c3.295,0,6.391-0.483,9.296-1.434
			c-4.907,2.093-10.646,3.165-17.261,3.165c-8.951,0-16.153-2.709-21.618-8.111c-2.368-5.33-3.56-11.664-3.56-19.011
			c0-14.771,3.296-26.275,9.888-34.515c6.592-8.24,15.646-12.36,27.161-12.36c8.545,0,15.543,1.913,20.996,5.737
			c0.343,0.238,0.673,0.479,0.993,0.724c0.171,0.862,0.259,1.747,0.259,2.655c0,4.11-1.914,6.165-5.738,6.165
			c-0.849,0-1.584-0.146-2.213-0.431c-0.37-0.286-0.75-0.565-1.17-0.817c-0.082-0.084-0.149-0.188-0.227-0.279
			c0.064,0.151,0.142,0.315,0.2,0.459c0.539,0.835,1.296,1.388,2.262,1.67c1.188,2.18,2.113,4.054,2.738,5.582
			c0.813,1.262,2.115,1.892,3.906,1.892c3.824,0,5.737-2.054,5.737-6.165c0-4.247-1.868-7.978-5.588-11.2
			c-1.027-3.352-3.411-6.33-7.164-8.931c-5.453-3.824-12.451-5.737-20.996-5.737c-11.516,0-20.569,4.12-27.161,12.36
			c-6.592,8.239-9.888,19.745-9.888,34.515c0,11.435,2.869,20.427,8.606,26.978c0.191,0.219,0.391,0.426,0.587,0.637
			c1.21,2.427,2.678,4.635,4.413,6.615c5.615,6.43,13.306,9.644,23.071,9.644c9.847,0,17.801-2.319,23.865-6.958
			c8.585-6.632,12.878-12.064,12.878-16.297c0-1.342-0.59-2.572-1.77-3.691C241.523,78.386,240.349,77.858,239.066,77.752z
			 M232.117,86.058c0.614-0.893,1.436-2.09,2.492-3.631c0.848-1.271,1.765-2.162,2.748-2.697
			C236.24,81.664,234.494,83.773,232.117,86.058z"/>
		<path d="M207.48,26.052c-7.935,0-14.068,2.991-18.402,8.973c-4.333,5.981-6.5,14.526-6.5,25.635
			c0,10.617,2.567,18.012,7.674,22.216c-1.435-3.822-2.177-8.516-2.177-14.14c0-11.108,2.167-19.653,6.5-25.635
			c4.334-5.981,10.468-8.972,18.402-8.972c5.854,0,10.283,0.984,13.342,2.913c-0.728-1.685-1.747-3.707-3.092-6.106
			C220.338,27.68,215.089,26.052,207.48,26.052z"/>
		<path d="M444.91,39.958c-0.397-0.298-0.82-0.564-1.256-0.815c-0.199-2.56-1.439-4.709-3.744-6.437
			c-2.521-1.893-5.818-2.838-9.887-2.838c-7.163,0-12.808,3.198-16.946,9.567c1.546,2.466,2.98,5.932,4.241,10.409
			c-0.904,2.649-1.318,5.743-1.318,9.289v7.996c0,8.911-0.979,15.991-2.85,21.239c-1.36,3.826-3.07,6.158-5.043,7.012
			c0.242-1.059,0.531-2.279,0.88-3.707c1.139-4.658,1.709-9.043,1.709-13.152c0-11.393-1.628-20.508-4.883-27.344
			c-0.082-0.203-1.2-2.259-3.356-6.165c-1.1-1.993-1.648-3.58-1.648-4.761c0-1.302,0.631-2.522,1.893-3.662
			c1.26-1.139,2.624-1.709,4.089-1.709c0.833,0,1.639,0.203,2.418,0.599c0.638,1.71,1.247,3.626,1.825,5.771
			c0.465-0.897,0.959-1.735,1.473-2.532c-1.096-1.921-2.265-3.313-3.505-4.18c-2.355-5.545-5.092-8.333-8.214-8.333
			c-1.465,0-2.828,0.57-4.09,1.709c-1.262,1.14-1.892,2.36-1.892,3.662c0,1.181,0.55,2.768,1.647,4.761
			c2.156,3.906,3.275,5.961,3.357,6.165c3.255,6.836,4.883,15.951,4.883,27.344c0,4.11-0.57,8.495-1.709,13.153
			c-1.14,4.66-1.709,7.355-1.709,8.088c0,3.561,1.766,5.375,5.266,5.473c-0.175,0.892-0.266,1.492-0.266,1.779
			c0,3.662,1.852,5.492,5.555,5.492c2.766,0,4.818-2.461,6.568-7.385C420.27,91.197,421,84.117,421,75.206V67.21
			c0-5.777,1.405-10.366,3.808-13.764c2.4-3.397,5.636-5.096,9.501-5.096c1.547,0,3.327,0.712,5.24,2.136
			c1.913,1.425,3.383,2.136,4.359,2.136c1.303,0,2.435-0.528,3.37-1.587c0.936-1.058,1.41-2.359,1.41-3.906
			C448.688,44.241,447.434,41.85,444.91,39.958z M441.794,42.959c-0.936,1.059-2.055,1.587-3.357,1.587
			c-0.977,0-2.42-0.712-4.333-2.137c-1.912-1.424-3.642-2.136-5.188-2.136c-0.466,0-0.92,0.027-1.364,0.076
			c2.54-1.201,5.363-1.808,8.474-1.808c2.719,0,5.084,0.433,7.112,1.277C443.004,41.031,442.568,42.083,441.794,42.959z"/>
		<path d="M517.975,8.99c0.04-0.468,0.061-0.677,0.061-0.607c0-4.435-1.719-6.653-5.152-6.653c-3.6,0-5.85,2.075-6.748,6.226
			c-0.488,2.238-0.877,8.993-1.16,20.264c-5.771-2.481-11.361-3.723-16.768-3.723c-11.625,0-21.023,4.008-28.197,12.024
			c-7.174,8.017-10.76,18.535-10.76,31.555c0,9.563,2.469,17.08,7.406,22.552c0.243,0.27,0.494,0.527,0.746,0.784
			c1.121,2.402,2.534,4.562,4.254,6.468c4.938,5.474,11.635,8.21,20.09,8.21c8.435,0,16.019-2.639,22.76-7.896
			c-1.112-1.705-1.677-4.3-1.677-7.81c0-0.681,0.009-1.284,0.024-1.837c0.784-1.198,1.568-2.396,2.332-3.617
			c1.178-1.709,2.641-2.726,4.387-3.052c0-11.434,0.266-22.461,0.795-33.081c-2.076-1.301-4.156-2.321-6.238-3.112
			c-0.362,8.902-0.559,18.059-0.559,27.519c-1.748,0.326-3.211,1.343-4.389,3.052c-1.016,1.628-2.051,3.234-3.107,4.822
			c-3.738,4.76-9.184,7.141-16.334,7.141c-4.354,0-7.966-1.122-10.878-3.305c0.805,2.467,1.957,4.613,3.503,6.396
			c3.176,3.66,7.547,5.511,13.099,5.572c-2.95,0.754-6.021,1.133-9.215,1.133c-7.552,0-13.697-2.19-18.443-6.557
			c-1.698-4.201-2.554-9.1-2.554-14.706c0-13.021,3.586-23.538,10.76-31.555c0.643-0.719,1.311-1.393,1.988-2.046
			c-4.646,5.689-6.979,13.352-6.979,23.003c0,6.714,1.614,11.932,4.845,15.655c0.647,0.746,1.362,1.39,2.11,1.984
			c-0.949-2.758-1.458-5.926-1.458-9.563c0-9.806,2.396-17.568,7.191-23.285c4.793-5.717,11.336-8.576,19.625-8.576
			c3.445,0,6.882,0.714,10.311,2.092c0.069-1.729,0.138-3.459,0.223-5.164c-5.323-3.336-10.667-5.005-16.03-5.005
			c-1.838,0-3.585,0.148-5.252,0.43c3.592-1.027,7.464-1.551,11.626-1.551c5.404,0,10.994,1.242,16.766,3.724
			c0.285-11.271,0.672-18.025,1.16-20.264c0.756-3.49,2.48-5.494,5.146-6.049c-0.118,1.494-0.276,3.531-0.477,6.132
			c-0.529,7.365-0.977,15.197-1.343,23.498c-0.448,11.963-0.672,24.699-0.672,38.208c0,2.768,0.021,5.605,0.062,8.515
			c0.04,2.909,0.062,4.445,0.062,4.607c0,5.957-1.86,8.98-5.571,9.085c-0.006-0.247-0.016-0.488-0.016-0.745
			c0-1.586,0.041-2.827,0.123-3.723c-1.232,1.215-2.5,2.32-3.795,3.34c-0.404-0.325-0.756-0.735-1.074-1.202
			c0.857,1.735,2.159,2.753,3.898,3.057c0.548,4.899,2.598,7.359,6.164,7.359c3.844,0,5.768-3.03,5.768-9.094
			c0-0.162-0.021-1.699-0.063-4.607c-0.041-2.91-0.061-5.748-0.061-8.516c0-13.508,0.223-26.245,0.672-38.208
			c0.365-8.301,0.813-16.133,1.342-23.499c0.488-6.348,0.732-9.399,0.732-9.155C523.035,11.243,521.344,9.032,517.975,8.99z"/>
		<path d="M27.787,92.014c0.102,0.199,0.19,0.409,0.295,0.606c0.209,0.237,0.427,0.461,0.64,0.691
			c-0.112-0.222-0.236-0.434-0.344-0.657C28.18,92.443,27.983,92.229,27.787,92.014z"/>
		<path d="M87.846,34.845c-0.111-0.222-0.207-0.459-0.321-0.678c-0.074-0.083-0.153-0.159-0.228-0.241
			c0.122,0.244,0.254,0.477,0.372,0.725C87.729,34.713,87.786,34.782,87.846,34.845z"/>
		<path d="M134.509,39.441c-0.17-0.278-0.341-0.552-0.518-0.804c-0.017,0.026-0.033,0.055-0.05,0.081
			c0.158,0.278,0.315,0.566,0.47,0.866C134.443,39.535,134.477,39.49,134.509,39.441z"/>
		<path d="M226.319,37.042c0.086,0.201,0.187,0.417,0.265,0.607c0.088,0.136,0.196,0.246,0.297,0.365
			c-0.122-0.284-0.239-0.563-0.378-0.866C226.445,37.11,226.378,37.079,226.319,37.042z"/>
		<path d="M191.128,83.961c-0.066-0.184-0.14-0.358-0.202-0.546c-0.232-0.171-0.452-0.356-0.674-0.54
			c0.07,0.188,0.134,0.383,0.207,0.565C190.673,83.625,190.905,83.789,191.128,83.961z"/>
		<path d="M297.21,43.812c0.107,0.31,0.212,0.627,0.313,0.953c0.102,0.063,0.197,0.135,0.297,0.202
			c-0.105-0.315-0.203-0.648-0.315-0.947C297.409,43.945,297.308,43.882,297.21,43.812z"/>
		<path d="M273.436,25.076c0.06-0.387,0.116-0.76,0.17-1.113c-0.431,0.168-0.854,0.349-1.275,0.539
			c-0.056,0.371-0.113,0.752-0.174,1.151C272.577,25.447,273.005,25.258,273.436,25.076z"/>
		<path d="M367.846,71.795c0.074,0.324,0.149,0.647,0.209,0.987c0.126,0.062,0.244,0.132,0.367,0.196
			c-0.07-0.331-0.139-0.665-0.224-0.981C368.085,71.926,367.963,71.864,367.846,71.795z"/>
		<path d="M367.133,45.29c0.116,0.313,0.235,0.622,0.344,0.948c0.095,0.066,0.184,0.142,0.277,0.21
			c-0.116-0.324-0.23-0.649-0.354-0.959C367.313,45.418,367.221,45.358,367.133,45.29z"/>
		<path d="M343.891,90.3c0.05,0.215,0.092,0.438,0.147,0.646c0.252,0.166,0.52,0.317,0.788,0.467
			c-0.043-0.207-0.092-0.408-0.129-0.621C344.41,90.646,344.159,90.464,343.891,90.3z"/>
		<path d="M413.077,39.435c-0.173-0.275-0.346-0.548-0.521-0.798c-0.017,0.026-0.033,0.055-0.05,0.082
			c0.158,0.278,0.314,0.566,0.47,0.866C413.009,39.533,413.044,39.486,413.077,39.435z"/>
		<path d="M504.506,98.193c0.023,0.037,0.052,0.068,0.076,0.104c-0.02-0.04-0.042-0.074-0.062-0.115
			C504.516,98.186,504.511,98.19,504.506,98.193z"/>
		<path d="M503.645,44.461c-0.014,0.34-0.03,0.676-0.044,1.016c0.177,0.063,0.353,0.14,0.528,0.207
			c0.015-0.337,0.023-0.68,0.038-1.016C503.993,44.594,503.818,44.531,503.645,44.461z"/>
		<path d="M467.976,83.792c0.065,0.19,0.114,0.397,0.185,0.584c0.227,0.19,0.467,0.36,0.702,0.536
			c-0.063-0.192-0.14-0.372-0.198-0.568C468.425,84.174,468.205,83.975,467.976,83.792z"/>
	</g>
	<g>
	</g>
	<g>
	</g>
	<g>
	</g>
	<g>
	</g>
	<g>
	</g>
	<g>
	</g>
	<g>
	</g>
	<g>
	</g>
	<g>
	</g>
	<g>
	</g>
	<g>
	</g>
	<g>
	</g>
	<g>
	</g>
	<g>
	</g>
	<g>
	</g>
</g>
</svg>
