<?xml version="1.0" encoding="utf-8"?>
<!-- Generator: Adobe Illustrator 15.0.0, SVG Export Plug-In . SVG Version: 6.00 Build 0)  -->
<!DOCTYPE svg PUBLIC "-//W3C//DTD SVG 1.1//EN" "http://www.w3.org/Graphics/SVG/1.1/DTD/svg11.dtd">
<svg version="1.1" xmlns="http://www.w3.org/2000/svg" xmlns:xlink="http://www.w3.org/1999/xlink" x="0px" y="0px" width="1200px"
	 height="450px" viewBox="0 0 1200 450" style="enable-background:new 0 0 1200 450;" xml:space="preserve">
<style type="text/css">
<![CDATA[
	.st0{opacity:0.5;fill:#B85455;}
	.st1{fill:#D5FCFB;}
	.st2{fill:#A6A8D5;}
	.st3{fill:#DEFFFC;}
]]>
</style>
<g id="Layer_1">
	<g>
		<rect x="-12" y="15" class="st3" width="1232" height="22"/>
		<rect x="-12" y="59" class="st3" width="1232" height="22"/>
		<rect x="-12" y="103" class="st3" width="1232" height="22"/>
		<rect x="-12" y="147" class="st3" width="1232" height="22"/>
		<rect x="-12" y="191" class="st3" width="1232" height="22"/>
		<rect x="-12" y="235" class="st3" width="1232" height="22"/>
		<rect x="-12" y="279" class="st3" width="1232" height="22"/>
		<rect x="-12" y="323" class="st3" width="1232" height="22"/>
		<rect x="-12" y="367" class="st3" width="1232" height="22"/>
		<rect x="-12" y="411" class="st3" width="1232" height="22"/>
	</g>
	<g>
		<rect x="-12" y="-7" class="st2" width="1232" height="22"/>
		<rect x="-12" y="37" class="st2" width="1232" height="22"/>
		<rect x="-12" y="81" class="st2" width="1232" height="22"/>
		<rect x="-12" y="125" class="st2" width="1232" height="22"/>
		<rect x="-12" y="169" class="st2" width="1232" height="22"/>
		<rect x="-12" y="213" class="st2" width="1232" height="22"/>
		<rect x="-12" y="257" class="st2" width="1232" height="22"/>
		<rect x="-12" y="301" class="st2" width="1232" height="22"/>
		<rect x="-12" y="345" class="st2" width="1232" height="22"/>
		<rect x="-12" y="389" class="st2" width="1232" height="22"/>
		<rect x="-12" y="433" class="st2" width="1232" height="22"/>
	</g>
	<g>
		<polygon class="st1" points="285.5,26 253,58.5 253,-6.5 		"/>
		<polygon class="st1" points="81.5,70 49,102.5 49,37.5 		"/>
		<polygon class="st1" points="93.5,334 61,366.5 61,301.5 		"/>
		<polygon class="st1" points="244.5,158 212,190.5 212,125.5 		"/>
		<polygon class="st1" points="1151.5,246 1119,278.5 1119,213.5 		"/>
		<polygon class="st1" points="968.5,334 936,366.5 936,301.5 		"/>
		<polygon class="st1" points="966.5,26 934,58.5 934,-6.5 		"/>
		<polygon class="st1" points="1076.5,114 1044,146.5 1044,81.5 		"/>
		<polygon class="st1" points="171.5,378 139,410.5 139,345.5 		"/>
		<polygon class="st1" points="1070.5,422 1038,454.5 1038,389.5 		"/>
	</g>
</g>
<g id="Layer_3">
	<polygon class="st0" points="240,527 -20,527 183,-69 443,-69 	"/>
	<polygon class="st0" points="673,523 413,523 616,-73 876,-73 	"/>
	<polygon class="st0" points="1071,516 811,516 1014,-80 1274,-80 	"/>
</g>
<g id="Layer_2">
	<g>
		<path d="M298.7,198.3c-1.9,0.9-5.6,1.7-9.8,1.7c-11.4,0-18.6-7-18.6-18c0-10.3,7.1-18.7,20.2-18.7c2.9,0,6,0.5,8.4,1.4l-1.7,8.1
			c-1.3-0.6-3.2-1.1-6.1-1.1c-5.8,0-9.5,4.1-9.4,9.9c0,6.4,4.3,9.9,9.6,9.9c2.6,0,4.6-0.4,6.3-1.2L298.7,198.3z"/>
		<path d="M315.7,164.1v14h1.2l8.9-14h12.7l-13,15.2c4.2,0.7,6.8,4.5,8.9,9.6c1.2,2.9,2.5,7.1,4.2,10.4h-11.4
			c-0.9-1.5-1.8-4-3.2-7.8c-1.5-4-3.7-6.2-7.3-6.2h-1.1v14h-10.9v-35.2H315.7z"/>
		<path d="M377.2,181.3c0,12.9-9.1,18.8-18.6,18.8c-10.3,0-18.2-6.8-18.2-18.1c0-11.4,7.5-18.7,18.9-18.7
			C370,163.2,377.2,170.6,377.2,181.3z M351.7,181.6c0,6,2.5,10.6,7.2,10.6c4.3,0,7-4.2,7-10.7c0-5.2-2-10.5-7-10.5
			C353.7,171,351.7,176.5,351.7,181.6z"/>
		<path d="M384,175.9c0-4.6-0.1-8.5-0.3-11.8h9.5l0.5,4.9h0.1c2.6-3.7,6.6-5.7,11.7-5.7c7.7,0,14.6,6.7,14.6,17.9
			c0,12.8-8.1,18.9-16,18.9c-4.2,0-7.6-1.7-9.1-4h-0.1v17.5H384V175.9z M394.9,184.2c0,0.9,0.1,1.6,0.2,2.3c0.7,3,3.2,5.2,6.4,5.2
			c4.8,0,7.6-4,7.6-9.9c0-5.6-2.5-9.9-7.4-9.9c-3.1,0-5.8,2.3-6.6,5.5c-0.1,0.6-0.2,1.3-0.2,1.9V184.2z"/>
		<path d="M461.8,181.3c0,12.9-9.1,18.8-18.6,18.8c-10.3,0-18.2-6.8-18.2-18.1c0-11.4,7.5-18.7,18.9-18.7
			C454.6,163.2,461.8,170.6,461.8,181.3z M436.3,181.6c0,6,2.5,10.6,7.2,10.6c4.3,0,7-4.2,7-10.7c0-5.2-2-10.5-7-10.5
			C438.3,171,436.3,176.5,436.3,181.6z"/>
		<path d="M479.4,150.7v14.3c0,5.6,3,8.3,8.1,8.3c2.5,0,5-0.8,7.1-1.9v-20.7h10.9v49.2h-10.9v-20.3h-0.2c-3.5,1.7-6.8,2.4-10.9,2.4
			c-8.8,0-15.1-4.7-15.1-15v-16.3H479.4z"/>
		<path d="M524.6,160h-13.1v-9.2h37.3v9.2h-13.2v39.3h-10.9V160z"/>
		<path d="M583.5,178.8h-17.9v11.5h19.9v9h-30.9v-48.5h29.9v9h-18.9v10.1h17.9V178.8z"/>
		<path d="M604.1,150.7v18.6h18.1v-18.6h10.9v48.5h-10.9V179h-18.1v20.3h-10.9v-48.5H604.1z"/>
		<path d="M652.7,150.7v14.4c0,7.8-0.2,15.5-0.6,22h0.2c2.6-5.7,5.8-12.1,8.7-17.3l10.4-19.1h11.2v48.5h-10.1v-14.3
			c0-7.5,0.1-14.1,0.8-20.4h-0.2c-2.2,5.8-5.4,12.2-8.3,17.3l-9.9,17.5h-12.5v-48.5H652.7z"/>
		<path d="M721.2,178.8h-17.9v11.5h19.9v9h-30.9v-48.5h29.9v9h-18.9v10.1h17.9V178.8z"/>
		<path d="M755.9,178.9h0.1c0.8-1.5,1.7-3,2.5-4.2l7.1-10.6h13.2l-12.6,14.3l14.4,21h-13.5l-8.6-14.5l-2.7,3.5v11H745v-51.1h10.9
			V178.9z"/>
		<path d="M796,154.3c0,3-2.2,5.5-5.9,5.5c-3.5,0-5.7-2.4-5.7-5.5c0-3.1,2.3-5.5,5.8-5.5C793.8,148.8,795.9,151.2,796,154.3z
			 M784.7,199.3v-35.2h10.9v35.2H784.7z"/>
		<path d="M838.6,148.2v40.6c0,4,0.1,8.1,0.3,10.5h-9.7l-0.4-5.1h-0.2c-2.2,3.9-6.5,5.9-11,5.9c-8.4,0-15.1-7.1-15.1-18.1
			c-0.1-11.9,7.3-18.8,15.8-18.8c4.4,0,7.7,1.6,9.3,4h0.1v-19H838.6z M827.6,179c0-0.6,0-1.4-0.1-2c-0.6-2.9-3-5.3-6.4-5.3
			c-5,0-7.6,4.5-7.6,10c0,6,3,9.7,7.5,9.7c3.2,0,5.8-2.2,6.4-5.3c0.1-0.8,0.2-1.7,0.2-2.5V179z"/>
		<path d="M847.3,189.8c2,1.2,6.2,2.6,9.4,2.6c3.3,0,4.7-1.1,4.7-2.9c0-1.9-1.1-2.7-5.1-4.1c-7.3-2.4-10.2-6.4-10.1-10.6
			c0-6.6,5.6-11.6,14.3-11.6c4.1,0,7.7,1,9.9,2.1l-1.9,7.6c-1.6-0.9-4.7-2-7.6-2c-2.7,0-4.2,1.1-4.2,2.8s1.4,2.6,5.7,4.1
			c6.7,2.3,9.4,5.8,9.5,10.9c0,6.6-5.1,11.4-15.2,11.4c-4.6,0-8.7-1.1-11.4-2.5L847.3,189.8z"/>
		<path d="M883.7,200.1c-3.7,0-6.3-2.8-6.3-6.6c0-3.9,2.7-6.6,6.5-6.6s6.3,2.7,6.4,6.6c0,3.7-2.5,6.6-6.4,6.6H883.7z M879.8,183.4
			l-1.6-32.6h11.4l-1.6,32.6H879.8z"/>
		<path d="M903,200.1c-3.7,0-6.3-2.8-6.3-6.6c0-3.9,2.7-6.6,6.5-6.6s6.3,2.7,6.4,6.6c0,3.7-2.5,6.6-6.4,6.6H903z M899,183.4
			l-1.6-32.6h11.4l-1.6,32.6H899z"/>
		<path d="M922.3,200.1c-3.7,0-6.3-2.8-6.3-6.6c0-3.9,2.7-6.6,6.5-6.6s6.3,2.7,6.4,6.6c0,3.7-2.5,6.6-6.4,6.6H922.3z M918.3,183.4
			l-1.6-32.6h11.4l-1.6,32.6H918.3z"/>
		<path d="M267.9,208.3v-3.6h664.2v3.6H267.9z"/>
	</g>
	<g>
		<path d="M331.3,16.7v8.5h7.4v-8.5h7.3v23.5h-7.3v-9.3h-7.4v9.3H324V16.7H331.3z"/>
		<path d="M375,28.2c0,8.6-6.1,12.5-12.4,12.5c-6.9,0-12.1-4.5-12.1-12.1c0-7.6,5-12.5,12.6-12.5C370.2,16.1,375,21.1,375,28.2z
			 M358,28.4c0,4,1.7,7.1,4.8,7.1c2.9,0,4.7-2.8,4.7-7.1c0-3.5-1.3-7-4.7-7C359.4,21.4,358,25,358,28.4z"/>
		<path d="M379.5,16.9c1.8-0.2,5.8-0.6,9.5-0.6c4,0,11.6,0.4,11.6,6c0,3-2.4,4.6-4.8,5v0.1c3.5,0.6,5.8,2.5,5.8,5.7
			c0,6.7-9.1,7.2-13.9,7.2c-3.3,0-6.7-0.2-8.2-0.4V16.9z M386.6,36c0.8,0.1,1.3,0.1,2.4,0.1c2.5,0,5-0.7,5-3c0-2.1-1.9-3-5.4-3h-2.1
			V36z M386.7,25.9h1.9c2.9,0,4.8-0.8,4.8-2.5c0-1.5-1.3-2.4-4.2-2.4c-1,0-1.6,0.1-2.4,0.1V25.9z"/>
		<path d="M413.3,16.7v7c1-0.1,2.2-0.3,3.8-0.3c5.2,0,10.6,2.2,10.6,8.2c0,3-1.3,4.9-3.2,6.3c-3,2.1-7.1,2.6-10.6,2.6
			c-2.7,0-5.4-0.1-7.8-0.4V16.7H413.3z M413.2,35.4c0.6,0,1.3,0.1,2.2,0.1c2.4,0,4.9-1,4.9-3.7c0-2.6-2.4-3.5-4.6-3.5
			c-1.2,0-1.9,0.1-2.5,0.2V35.4z M437.5,16.7v23.5h-7.3V16.7H437.5z"/>
		<path d="M448.9,30.8c0.2,3,3.2,4.5,6.6,4.5c2.5,0,4.5-0.3,6.5-1l1,4.9c-2.4,1-5.3,1.5-8.5,1.5c-8,0-12.5-4.6-12.5-12
			c0-6,3.7-12.5,11.9-12.5c7.6,0,10.5,5.9,10.5,11.7c0,1.2-0.1,2.4-0.2,2.9H448.9z M457.5,25.8c0-1.8-0.8-4.8-4.1-4.8
			c-3.1,0-4.3,2.8-4.5,4.8H457.5z"/>
		<path d="M497,16.7v5.6h-6.8v17.9h-7.3V22.3h-6.8v-5.6H497z"/>
		<path d="M505.4,30.8c0.2,3,3.2,4.5,6.6,4.5c2.5,0,4.5-0.3,6.5-1l1,4.9c-2.4,1-5.3,1.5-8.5,1.5c-8,0-12.5-4.6-12.5-12
			c0-6,3.7-12.5,11.9-12.5c7.6,0,10.5,5.9,10.5,11.7c0,1.2-0.1,2.4-0.2,2.9H505.4z M514,25.8c0-1.8-0.8-4.8-4.1-4.8
			c-3.1,0-4.3,2.8-4.5,4.8H514z"/>
		<path d="M530.4,16.7l2.3,3.9c0.7,1.2,1.3,2.4,1.9,3.5h0.1c0.6-1.3,1.2-2.4,1.8-3.6l2.1-3.8h7.9l-7.7,11.2l7.8,12.3h-8.3L536,36
			c-0.7-1.2-1.2-2.4-1.8-3.6H534c-0.6,1.2-1.2,2.4-1.8,3.6l-2.2,4.2h-8l8-12l-7.8-11.5H530.4z"/>
		<path d="M556.9,16.7v8.5h7.4v-8.5h7.3v23.5h-7.3v-9.3h-7.4v9.3h-7.3V16.7H556.9z"/>
		<path d="M600.7,28.2c0,8.6-6.1,12.5-12.4,12.5c-6.9,0-12.1-4.5-12.1-12.1c0-7.6,5-12.5,12.6-12.5
			C595.9,16.1,600.7,21.1,600.7,28.2z M583.7,28.4c0,4,1.7,7.1,4.8,7.1c2.9,0,4.7-2.8,4.7-7.1c0-3.5-1.3-7-4.7-7
			C585,21.4,583.7,25,583.7,28.4z"/>
		<path d="M625.6,16.7v23.5h-7.3V22.3h-5.1v4.3c0,5.7-0.7,9.7-3.3,11.8c-1.5,1.6-3.6,2.3-6.8,2.3l-0.8-5.7c1.1-0.2,2.1-0.6,2.6-1.2
			c1.3-1.4,1.5-3.6,1.5-7.5v-9.6H625.6z"/>
		<path d="M654.6,28.2c0,8.6-6.1,12.5-12.4,12.5c-6.9,0-12.1-4.5-12.1-12.1c0-7.6,5-12.5,12.6-12.5
			C649.8,16.1,654.6,21.1,654.6,28.2z M637.6,28.4c0,4,1.7,7.1,4.8,7.1c2.9,0,4.7-2.8,4.7-7.1c0-3.5-1.3-7-4.7-7
			C638.9,21.4,637.6,25,637.6,28.4z"/>
		<path d="M675.4,16.7v5.7h-9.1v17.8H659V16.7H675.4z"/>
		<path d="M685.7,16.7v7.2c0,3.7-0.2,6.4-0.4,9.6l0.2,0c1.1-2.7,1.7-4.5,2.7-6.7l4.6-10.1h8.9v23.5h-6.9V33c0-3.6,0.2-5.2,0.4-10.1
			H695c-0.9,2.5-1.5,4.1-2.4,6.3c-1.5,3.3-3.3,7.3-4.9,11h-8.9V16.7H685.7z"/>
		<path d="M714.3,16.7v7.2c0,3.7-0.2,6.4-0.4,9.6l0.2,0c1.1-2.7,1.7-4.5,2.7-6.7l4.6-10.1h8.9v23.5h-6.9V33c0-3.6,0.2-5.2,0.4-10.1
			h-0.2c-0.9,2.5-1.5,4.1-2.4,6.3c-1.5,3.3-3.3,7.3-4.9,11h-8.9V16.7H714.3z"/>
		<path d="M767.7,16.7V35l2.6,0.1l-0.3,12.6h-5.5l-0.2-7.6h-14.8l-0.3,7.6h-5.5l-0.2-12.6l2.2-0.1c1-1.5,1.8-3.2,2.4-4.9
			c0.7-2.4,1.1-5.1,1.1-7.7v-5.8H767.7z M755.3,24.8c0,2-0.3,4.1-0.9,6.1c-0.3,1.4-1,2.8-1.6,4h7.8V22h-5.3V24.8z"/>
		<path d="M779.6,30.8c0.2,3,3.2,4.5,6.6,4.5c2.5,0,4.5-0.3,6.5-1l1,4.9c-2.4,1-5.3,1.5-8.5,1.5c-8,0-12.5-4.6-12.5-12
			c0-6,3.7-12.5,11.9-12.5c7.6,0,10.5,5.9,10.5,11.7c0,1.2-0.1,2.4-0.2,2.9H779.6z M788.2,25.8c0-1.8-0.8-4.8-4.1-4.8
			c-3.1,0-4.3,2.8-4.5,4.8H788.2z"/>
		<path d="M817.5,16.7v5.6h-6.8v17.9h-7.3V22.3h-6.8v-5.6H817.5z"/>
		<path d="M841.5,40.2h-7.2v-8.8h-1.5c-1.5,0-2.6,0.7-3.4,1.7c-1.2,1.2-1.9,3.4-2.5,5.2c-0.3,0.7-0.5,1.2-0.9,1.9h-7.8
			c0.6-0.7,1.1-1.6,1.5-2.6c0.8-1.9,1.8-4.9,3.3-6.5c0.8-0.8,1.7-1.5,3-1.7v-0.1c-2.6-0.3-6-2.1-6-5.8c0-2.9,1.7-4.6,4-5.7
			c2.1-1.1,5.4-1.4,8.6-1.4c3.6,0,6.9,0.3,9,0.5V40.2z M834.3,21c-0.6-0.1-1.3-0.2-2.5-0.2c-2.4,0-4.4,0.9-4.4,3.1c0,2,2.3,3,4.5,3
			c1.2,0,1.8,0,2.4,0V21z"/>
		<path d="M848.2,16.7h9.3l2.5,8.9c0.4,1.4,1.1,3.8,1.5,5.9h0.1c0.4-1.6,1.2-4.2,1.9-6.4l2.6-8.4h9.2l1.4,23.5H870l-0.4-9.4
			c0-2-0.2-5.4-0.2-8.2h-0.1c-0.9,3.1-1.1,3.9-2.3,7.7l-3.1,9.6h-5.3l-2.8-9.3c-0.6-2.2-1.4-5.6-1.9-7.8h-0.2
			c-0.1,2.9-0.1,6.2-0.2,8.2l-0.4,9.3h-6.5L848.2,16.7z"/>
	</g>
	<g>
		<path d="M276.6,84.2l2.6,0.3c-0.3,1.8-1,3.2-2.2,4.3c-1.2,1-2.6,1.5-4.4,1.5c-2.2,0-3.9-0.7-5.2-2.1c-1.3-1.4-2-3.4-2-6.1
			c0-1.7,0.3-3.2,0.8-4.5c0.6-1.3,1.4-2.2,2.6-2.9c1.2-0.6,2.4-1,3.8-1c1.7,0,3.1,0.4,4.2,1.3c1.1,0.9,1.8,2.1,2.1,3.7l-2.6,0.4
			c-0.2-1.1-0.7-1.9-1.3-2.4c-0.6-0.5-1.4-0.8-2.3-0.8c-1.3,0-2.4,0.5-3.3,1.5c-0.8,1-1.3,2.5-1.3,4.6c0,2.1,0.4,3.7,1.2,4.6
			c0.8,1,1.9,1.4,3.2,1.4c1.1,0,1.9-0.3,2.6-1C275.9,86.5,276.4,85.5,276.6,84.2z"/>
		<path d="M281.5,74.2H294V90h-2.7V76.4h-7.1V90h-2.7V74.2z"/>
		<path d="M308.8,84.9l2.8,0.3c-0.4,1.6-1.2,2.9-2.4,3.8c-1.2,0.9-2.7,1.3-4.5,1.3c-2.3,0-4.1-0.7-5.5-2.1c-1.4-1.4-2-3.4-2-6
			c0-2.7,0.7-4.7,2.1-6.2c1.4-1.5,3.1-2.2,5.3-2.2c2.1,0,3.8,0.7,5.2,2.2s2,3.5,2,6.1c0,0.2,0,0.4,0,0.7h-11.8
			c0.1,1.7,0.6,3.1,1.5,4c0.9,0.9,2,1.4,3.3,1.4c1,0,1.8-0.3,2.5-0.8C307.9,86.9,308.4,86,308.8,84.9z M300,80.6h8.8
			c-0.1-1.3-0.5-2.3-1-3c-0.9-1-2-1.5-3.3-1.5c-1.2,0-2.3,0.4-3.1,1.2C300.6,78.1,300.1,79.2,300,80.6z"/>
		<path d="M315,74.2h2.7v13.6h7.4V74.2h2.7v13.6h1.7v6.7h-2.2V90H315V74.2z"/>
		<path d="M332.4,74.2h2.7v12.1l7.4-12.1h2.9V90h-2.7V78l-7.4,12h-2.9V74.2z"/>
		<path d="M359.8,88c-1,0.8-1.9,1.4-2.9,1.8c-0.9,0.3-1.9,0.5-3,0.5c-1.7,0-3.1-0.4-4-1.3c-0.9-0.8-1.4-1.9-1.4-3.3
			c0-0.8,0.2-1.5,0.5-2.1c0.4-0.6,0.8-1.2,1.4-1.5c0.6-0.4,1.2-0.7,1.9-0.9c0.5-0.1,1.3-0.3,2.4-0.4c2.2-0.3,3.8-0.6,4.8-0.9
			c0-0.4,0-0.6,0-0.7c0-1.1-0.3-1.9-0.8-2.3c-0.7-0.6-1.7-0.9-3.1-0.9c-1.3,0-2.2,0.2-2.8,0.7c-0.6,0.4-1,1.2-1.3,2.3l-2.6-0.4
			c0.2-1.1,0.6-2,1.2-2.7c0.5-0.7,1.3-1.2,2.4-1.6s2.2-0.6,3.6-0.6c1.3,0,2.4,0.2,3.3,0.5c0.8,0.3,1.5,0.7,1.9,1.2
			c0.4,0.5,0.7,1.1,0.8,1.8c0.1,0.5,0.1,1.3,0.1,2.5v3.6c0,2.5,0.1,4.1,0.2,4.7c0.1,0.7,0.3,1.3,0.7,1.9h-2.8
			C360,89.4,359.8,88.8,359.8,88z M359.5,82.1c-1,0.4-2.4,0.7-4.4,1c-1.1,0.2-1.9,0.3-2.3,0.5c-0.5,0.2-0.8,0.5-1.1,0.9
			s-0.4,0.8-0.4,1.3c0,0.7,0.3,1.3,0.8,1.8c0.5,0.5,1.3,0.7,2.4,0.7c1,0,1.9-0.2,2.8-0.7c0.8-0.5,1.4-1.1,1.8-1.9
			c0.3-0.6,0.4-1.5,0.4-2.7V82.1z"/>
		<path d="M367.7,74.2h12.4V90h-2.7V76.4h-7.1v7.9c0,1.8-0.1,3-0.2,3.6c-0.1,0.6-0.4,1.1-1,1.5c-0.5,0.4-1.3,0.7-2.3,0.7
			c-0.6,0-1.3,0-2.2-0.1v-2.2h1.2c0.6,0,1-0.1,1.2-0.2c0.2-0.1,0.4-0.3,0.5-0.5c0.1-0.2,0.1-1.1,0.1-2.4V74.2z"/>
		<path d="M384.1,74.2h2.7v6.2h3.4c2.2,0,3.9,0.4,5.1,1.3c1.2,0.9,1.8,2,1.8,3.5c0,1.3-0.5,2.4-1.5,3.4S393,90,390.8,90h-6.7V74.2z
			 M386.8,87.8h2.8c1.7,0,2.9-0.2,3.6-0.6c0.7-0.4,1.1-1.1,1.1-1.9c0-0.7-0.3-1.3-0.8-1.8c-0.5-0.5-1.7-0.8-3.6-0.8h-3.2V87.8z"/>
		<path d="M400.1,74.2h2.7v6.6h7.4v-6.6h2.7V90h-2.7v-7h-7.4v7h-2.7V74.2z"/>
		<path d="M427.2,88c-1,0.8-1.9,1.4-2.9,1.8c-0.9,0.3-1.9,0.5-3,0.5c-1.7,0-3.1-0.4-4-1.3c-0.9-0.8-1.4-1.9-1.4-3.3
			c0-0.8,0.2-1.5,0.5-2.1c0.4-0.6,0.8-1.2,1.4-1.5c0.6-0.4,1.2-0.7,1.9-0.9c0.5-0.1,1.3-0.3,2.4-0.4c2.2-0.3,3.8-0.6,4.8-0.9
			c0-0.4,0-0.6,0-0.7c0-1.1-0.3-1.9-0.8-2.3c-0.7-0.6-1.7-0.9-3.1-0.9c-1.3,0-2.2,0.2-2.8,0.7c-0.6,0.4-1,1.2-1.3,2.3l-2.6-0.4
			c0.2-1.1,0.6-2,1.2-2.7c0.5-0.7,1.3-1.2,2.4-1.6s2.2-0.6,3.6-0.6c1.3,0,2.4,0.2,3.3,0.5c0.8,0.3,1.5,0.7,1.9,1.2
			c0.4,0.5,0.7,1.1,0.8,1.8c0.1,0.5,0.1,1.3,0.1,2.5v3.6c0,2.5,0.1,4.1,0.2,4.7c0.1,0.7,0.3,1.3,0.7,1.9h-2.8
			C427.5,89.4,427.3,88.8,427.2,88z M427,82.1c-1,0.4-2.4,0.7-4.4,1c-1.1,0.2-1.9,0.3-2.3,0.5c-0.5,0.2-0.8,0.5-1.1,0.9
			s-0.4,0.8-0.4,1.3c0,0.7,0.3,1.3,0.8,1.8c0.5,0.5,1.3,0.7,2.4,0.7c1,0,1.9-0.2,2.8-0.7c0.8-0.5,1.4-1.1,1.8-1.9
			c0.3-0.6,0.4-1.5,0.4-2.7V82.1z"/>
		<path d="M446.3,74.2V90h-2.7v-6.2h-1.5c-0.9,0-1.6,0.1-2.1,0.4s-1.1,1-2,2.3l-2.3,3.5h-3.3l2.9-4.3c0.9-1.3,1.8-2,2.6-2.2
			c-1.5-0.2-2.7-0.8-3.4-1.7c-0.7-0.9-1.1-1.9-1.1-3.1c0-1.4,0.5-2.5,1.5-3.3c1-0.9,2.4-1.3,4.2-1.3H446.3z M443.6,76.4h-3.8
			c-1.6,0-2.6,0.2-3.1,0.7c-0.5,0.5-0.7,1.1-0.7,1.7c0,0.9,0.3,1.6,1,2.1c0.7,0.4,1.9,0.7,3.6,0.7h3V76.4z"/>
		<path d="M458.8,74.2h12.5V90h-2.7V76.4h-7.1V90h-2.7V74.2z"/>
		<path d="M475.3,96V74.2h2.4v2.1c0.6-0.8,1.2-1.4,1.9-1.8c0.7-0.4,1.6-0.6,2.6-0.6c1.3,0,2.5,0.3,3.6,1c1,0.7,1.8,1.7,2.3,2.9
			c0.5,1.3,0.8,2.7,0.8,4.2c0,1.6-0.3,3.1-0.9,4.4c-0.6,1.3-1.4,2.3-2.5,3c-1.1,0.7-2.3,1-3.5,1c-0.9,0-1.7-0.2-2.4-0.6
			s-1.3-0.9-1.7-1.4V96H475.3z M477.7,82.2c0,2,0.4,3.5,1.2,4.5c0.8,1,1.8,1.5,3,1.5c1.2,0,2.2-0.5,3.1-1.5c0.8-1,1.3-2.6,1.3-4.7
			c0-2-0.4-3.5-1.2-4.5s-1.8-1.5-3-1.5c-1.1,0-2.2,0.5-3,1.6S477.7,80.1,477.7,82.2z"/>
		<path d="M491.3,82.1c0-2.9,0.8-5.1,2.4-6.5c1.4-1.2,3-1.8,5-1.8c2.2,0,3.9,0.7,5.3,2.1c1.4,1.4,2.1,3.4,2.1,5.9
			c0,2-0.3,3.6-0.9,4.8c-0.6,1.2-1.5,2.1-2.7,2.7c-1.2,0.6-2.4,1-3.8,1c-2.2,0-4-0.7-5.4-2.1C492,86.8,491.3,84.8,491.3,82.1z
			 M494,82.1c0,2,0.4,3.5,1.3,4.5c0.9,1,2,1.5,3.3,1.5c1.3,0,2.4-0.5,3.3-1.5c0.9-1,1.3-2.6,1.3-4.6c0-2-0.4-3.4-1.3-4.4
			c-0.9-1-2-1.5-3.3-1.5c-1.3,0-2.5,0.5-3.3,1.5C494.5,78.5,494,80.1,494,82.1z"/>
		<path d="M509.2,74.2h9.1v2.2h-6.4V90h-2.7V74.2z"/>
		<path d="M520.3,96V74.2h2.4v2.1c0.6-0.8,1.2-1.4,1.9-1.8c0.7-0.4,1.6-0.6,2.6-0.6c1.3,0,2.5,0.3,3.6,1c1,0.7,1.8,1.7,2.3,2.9
			c0.5,1.3,0.8,2.7,0.8,4.2c0,1.6-0.3,3.1-0.9,4.4c-0.6,1.3-1.4,2.3-2.5,3c-1.1,0.7-2.3,1-3.5,1c-0.9,0-1.7-0.2-2.4-0.6
			s-1.3-0.9-1.7-1.4V96H520.3z M522.8,82.2c0,2,0.4,3.5,1.2,4.5c0.8,1,1.8,1.5,3,1.5c1.2,0,2.2-0.5,3.1-1.5c0.8-1,1.3-2.6,1.3-4.7
			c0-2-0.4-3.5-1.2-4.5s-1.8-1.5-3-1.5c-1.1,0-2.2,0.5-3,1.6S522.8,80.1,522.8,82.2z"/>
		<path d="M547.6,88c-1,0.8-1.9,1.4-2.9,1.8c-0.9,0.3-1.9,0.5-3,0.5c-1.7,0-3.1-0.4-4-1.3c-0.9-0.8-1.4-1.9-1.4-3.3
			c0-0.8,0.2-1.5,0.5-2.1c0.4-0.6,0.8-1.2,1.4-1.5c0.6-0.4,1.2-0.7,1.9-0.9c0.5-0.1,1.3-0.3,2.4-0.4c2.2-0.3,3.8-0.6,4.8-0.9
			c0-0.4,0-0.6,0-0.7c0-1.1-0.3-1.9-0.8-2.3c-0.7-0.6-1.7-0.9-3.1-0.9c-1.3,0-2.2,0.2-2.8,0.7c-0.6,0.4-1,1.2-1.3,2.3l-2.6-0.4
			c0.2-1.1,0.6-2,1.2-2.7c0.5-0.7,1.3-1.2,2.4-1.6s2.2-0.6,3.6-0.6c1.3,0,2.4,0.2,3.3,0.5c0.8,0.3,1.5,0.7,1.9,1.2
			c0.4,0.5,0.7,1.1,0.8,1.8c0.1,0.5,0.1,1.3,0.1,2.5v3.6c0,2.5,0.1,4.1,0.2,4.7c0.1,0.7,0.3,1.3,0.7,1.9h-2.8
			C547.9,89.4,547.7,88.8,547.6,88z M547.4,82.1c-1,0.4-2.4,0.7-4.4,1c-1.1,0.2-1.9,0.3-2.3,0.5c-0.5,0.2-0.8,0.5-1.1,0.9
			s-0.4,0.8-0.4,1.3c0,0.7,0.3,1.3,0.8,1.8c0.5,0.5,1.3,0.7,2.4,0.7c1,0,1.9-0.2,2.8-0.7c0.8-0.5,1.4-1.1,1.8-1.9
			c0.3-0.6,0.4-1.5,0.4-2.7V82.1z"/>
		<path d="M554.3,74.2h4.2l4.2,12.6l4.6-12.6h3.9V90h-2.7V77.3L563.8,90h-2.4l-4.4-13.3V90h-2.6V74.2z"/>
		<path d="M575.3,74.2h4.2l4.2,12.6l4.6-12.6h3.9V90h-2.7V77.3L584.7,90h-2.4l-4.4-13.3V90h-2.6V74.2z"/>
		<path d="M606.5,88c-1,0.8-1.9,1.4-2.9,1.8c-0.9,0.3-1.9,0.5-3,0.5c-1.7,0-3.1-0.4-4-1.3c-0.9-0.8-1.4-1.9-1.4-3.3
			c0-0.8,0.2-1.5,0.5-2.1c0.4-0.6,0.8-1.2,1.4-1.5c0.6-0.4,1.2-0.7,1.9-0.9c0.5-0.1,1.3-0.3,2.4-0.4c2.2-0.3,3.8-0.6,4.8-0.9
			c0-0.4,0-0.6,0-0.7c0-1.1-0.3-1.9-0.8-2.3c-0.7-0.6-1.7-0.9-3.1-0.9c-1.3,0-2.2,0.2-2.8,0.7c-0.6,0.4-1,1.2-1.3,2.3l-2.6-0.4
			c0.2-1.1,0.6-2,1.2-2.7c0.5-0.7,1.3-1.2,2.4-1.6s2.2-0.6,3.6-0.6c1.3,0,2.4,0.2,3.3,0.5c0.8,0.3,1.5,0.7,1.9,1.2
			c0.4,0.5,0.7,1.1,0.8,1.8c0.1,0.5,0.1,1.3,0.1,2.5v3.6c0,2.5,0.1,4.1,0.2,4.7c0.1,0.7,0.3,1.3,0.7,1.9H607
			C606.7,89.4,606.5,88.8,606.5,88z M606.2,82.1c-1,0.4-2.4,0.7-4.4,1c-1.1,0.2-1.9,0.3-2.3,0.5c-0.5,0.2-0.8,0.5-1.1,0.9
			s-0.4,0.8-0.4,1.3c0,0.7,0.3,1.3,0.8,1.8c0.5,0.5,1.3,0.7,2.4,0.7c1,0,2-0.2,2.8-0.7c0.8-0.5,1.4-1.1,1.8-1.9
			c0.3-0.6,0.4-1.5,0.4-2.7V82.1z"/>
		<path d="M612.1,83.4v-2.7h8.2v2.7H612.1z"/>
		<path d="M621.8,74.2h12.8v2.2h-5.1V90h-2.7V76.4h-5.1V74.2z"/>
		<path d="M637.2,96V74.2h2.4v2.1c0.6-0.8,1.2-1.4,1.9-1.8c0.7-0.4,1.6-0.6,2.6-0.6c1.3,0,2.5,0.3,3.6,1s1.8,1.7,2.3,2.9
			c0.5,1.3,0.8,2.7,0.8,4.2c0,1.6-0.3,3.1-0.9,4.4s-1.4,2.3-2.5,3s-2.3,1-3.5,1c-0.9,0-1.7-0.2-2.4-0.6c-0.7-0.4-1.3-0.9-1.7-1.4V96
			H637.2z M639.6,82.2c0,2,0.4,3.5,1.2,4.5c0.8,1,1.8,1.5,3,1.5c1.2,0,2.2-0.5,3.1-1.5c0.8-1,1.3-2.6,1.3-4.7c0-2-0.4-3.5-1.2-4.5
			c-0.8-1-1.8-1.5-3-1.5c-1.1,0-2.2,0.5-3,1.6S639.6,80.1,639.6,82.2z"/>
		<path d="M665,84.9l2.8,0.3c-0.4,1.6-1.2,2.9-2.4,3.8c-1.2,0.9-2.7,1.3-4.5,1.3c-2.3,0-4.1-0.7-5.5-2.1s-2-3.4-2-6
			c0-2.7,0.7-4.7,2.1-6.2c1.4-1.5,3.1-2.2,5.3-2.2c2.1,0,3.8,0.7,5.2,2.2c1.3,1.4,2,3.5,2,6.1c0,0.2,0,0.4,0,0.7H656
			c0.1,1.7,0.6,3.1,1.5,4s2,1.4,3.3,1.4c1,0,1.8-0.3,2.5-0.8C664,86.9,664.6,86,665,84.9z M656.2,80.6h8.8c-0.1-1.3-0.5-2.3-1-3
			c-0.9-1-2-1.5-3.3-1.5c-1.2,0-2.3,0.4-3.1,1.2C656.7,78.1,656.3,79.2,656.2,80.6z"/>
		<path d="M671.1,74.2h2.7v6.6h7.4v-6.6h2.7V90h-2.7v-7h-7.4v7h-2.7V74.2z"/>
		<path d="M687.9,74.2h2.7v12.1l7.4-12.1h2.9V90h-2.7V78l-7.4,12h-2.9V74.2z"/>
		<path d="M705,74.2h2.7v6.6h7.4v-6.6h2.7V90h-2.7v-7h-7.4v7H705V74.2z"/>
		<path d="M721.8,74.2h9.1v2.2h-6.4V90h-2.7V74.2z"/>
		<path d="M266.3,110.8h12.5v15.8h-2.7V113H269v13.6h-2.7V110.8z"/>
		<path d="M281.8,118.7c0-2.9,0.8-5.1,2.4-6.5c1.4-1.2,3-1.8,5-1.8c2.2,0,3.9,0.7,5.3,2.1c1.4,1.4,2.1,3.4,2.1,5.9
			c0,2-0.3,3.6-0.9,4.8c-0.6,1.2-1.5,2.1-2.7,2.7c-1.2,0.6-2.4,1-3.8,1c-2.2,0-4-0.7-5.4-2.1C282.5,123.4,281.8,121.3,281.8,118.7z
			 M284.5,118.7c0,2,0.4,3.5,1.3,4.5c0.9,1,2,1.5,3.3,1.5c1.3,0,2.4-0.5,3.3-1.5c0.9-1,1.3-2.6,1.3-4.6c0-2-0.4-3.4-1.3-4.4
			c-0.9-1-2-1.5-3.3-1.5c-1.3,0-2.5,0.5-3.3,1.5C285,115.1,284.5,116.6,284.5,118.7z"/>
		<path d="M308.2,132.6v-21.9h2.4v2.1c0.6-0.8,1.2-1.4,1.9-1.8c0.7-0.4,1.6-0.6,2.6-0.6c1.3,0,2.5,0.3,3.6,1c1,0.7,1.8,1.7,2.3,2.9
			c0.5,1.3,0.8,2.7,0.8,4.2c0,1.6-0.3,3.1-0.9,4.4c-0.6,1.3-1.4,2.3-2.5,3c-1.1,0.7-2.3,1-3.5,1c-0.9,0-1.7-0.2-2.4-0.6
			s-1.3-0.9-1.7-1.4v7.7H308.2z M310.6,118.7c0,2,0.4,3.5,1.2,4.5c0.8,1,1.8,1.5,3,1.5c1.2,0,2.2-0.5,3.1-1.5c0.8-1,1.3-2.6,1.3-4.7
			c0-2-0.4-3.5-1.2-4.5s-1.8-1.5-3-1.5c-1.1,0-2.2,0.5-3,1.6S310.6,116.7,310.6,118.7z"/>
		<path d="M335.5,124.6c-1,0.8-1.9,1.4-2.9,1.8c-0.9,0.3-1.9,0.5-3,0.5c-1.7,0-3.1-0.4-4-1.3c-0.9-0.8-1.4-1.9-1.4-3.3
			c0-0.8,0.2-1.5,0.5-2.1c0.4-0.6,0.8-1.2,1.4-1.5c0.6-0.4,1.2-0.7,1.9-0.9c0.5-0.1,1.3-0.3,2.4-0.4c2.2-0.3,3.8-0.6,4.8-0.9
			c0-0.4,0-0.6,0-0.7c0-1.1-0.3-1.9-0.8-2.3c-0.7-0.6-1.7-0.9-3.1-0.9c-1.3,0-2.2,0.2-2.8,0.7c-0.6,0.4-1,1.2-1.3,2.3l-2.6-0.4
			c0.2-1.1,0.6-2,1.2-2.7c0.5-0.7,1.3-1.2,2.4-1.6s2.2-0.6,3.6-0.6c1.3,0,2.4,0.2,3.3,0.5c0.8,0.3,1.5,0.7,1.9,1.2
			c0.4,0.5,0.7,1.1,0.8,1.8c0.1,0.5,0.1,1.3,0.1,2.5v3.6c0,2.5,0.1,4.1,0.2,4.7c0.1,0.7,0.3,1.3,0.7,1.9H336
			C335.7,126,335.5,125.4,335.5,124.6z M335.2,118.6c-1,0.4-2.4,0.7-4.4,1c-1.1,0.2-1.9,0.3-2.3,0.5c-0.5,0.2-0.8,0.5-1.1,0.9
			s-0.4,0.8-0.4,1.3c0,0.7,0.3,1.3,0.8,1.8c0.5,0.5,1.3,0.7,2.4,0.7c1,0,1.9-0.2,2.8-0.7c0.8-0.5,1.4-1.1,1.8-1.9
			c0.3-0.6,0.4-1.5,0.4-2.7V118.6z"/>
		<path d="M345.3,119.4v-2.1c1.1,0,1.9-0.1,2.3-0.1c0.4-0.1,0.8-0.3,1.2-0.7c0.4-0.4,0.6-0.9,0.6-1.5c0-0.7-0.2-1.3-0.7-1.7
			c-0.5-0.4-1.1-0.6-1.9-0.6c-1.5,0-2.6,0.9-3.2,2.7l-2.5-0.4c0.8-3,2.7-4.5,5.7-4.5c1.7,0,3,0.5,4,1.4s1.4,2,1.4,3.3
			c0,1.3-0.6,2.3-1.9,3.1c0.8,0.4,1.4,1,1.8,1.6c0.4,0.7,0.6,1.4,0.6,2.3c0,1.4-0.5,2.6-1.5,3.5c-1,0.9-2.5,1.3-4.3,1.3
			c-3.6,0-5.7-1.6-6.3-4.8l2.5-0.5c0.2,1,0.7,1.8,1.4,2.4c0.7,0.6,1.5,0.8,2.4,0.8s1.7-0.3,2.3-0.8c0.6-0.5,0.9-1.2,0.9-2
			c0-0.6-0.2-1.2-0.6-1.6c-0.4-0.5-0.8-0.7-1.2-0.9c-0.4-0.1-1.2-0.2-2.3-0.2C345.8,119.4,345.6,119.4,345.3,119.4z"/>
		<path d="M355.7,110.8h6.2c1.5,0,2.6,0.1,3.4,0.4c0.7,0.3,1.4,0.7,1.9,1.4s0.8,1.5,0.8,2.4c0,0.8-0.2,1.4-0.5,2
			c-0.3,0.6-0.8,1-1.4,1.4c0.7,0.2,1.4,0.7,1.9,1.4c0.5,0.7,0.7,1.5,0.7,2.4c-0.1,1.5-0.6,2.6-1.6,3.3c-1,0.7-2.4,1.1-4.2,1.1h-7.1
			V110.8z M358.4,117.4h2.9c1.1,0,1.9-0.1,2.4-0.2c0.4-0.1,0.8-0.4,1.1-0.7c0.3-0.4,0.5-0.8,0.5-1.3c0-0.8-0.3-1.4-0.9-1.7
			c-0.6-0.3-1.6-0.5-3-0.5h-2.9V117.4z M358.4,124.4h3.5c1.5,0,2.6-0.2,3.1-0.5c0.6-0.4,0.9-1,0.9-1.8c0-0.5-0.2-1-0.5-1.4
			c-0.3-0.4-0.8-0.7-1.3-0.8c-0.5-0.1-1.4-0.2-2.5-0.2h-3.2V124.4z"/>
		<path d="M371.9,110.8h2.7v12.1l7.4-12.1h2.9v15.8h-2.7v-12l-7.4,12h-2.9V110.8z"/>
		<path d="M387.5,110.8h12.8v2.2h-5.1v13.6h-2.7V113h-5.1V110.8z"/>
		<path d="M402.9,110.8h2.7v12.1l7.4-12.1h2.9v15.8h-2.7v-12l-7.4,12h-2.9V110.8z"/>
		<path d="M420,110.8h2.7v6.6h3.2c0.2-2.3,0.9-4,2.1-5.2c1.2-1.2,2.7-1.8,4.6-1.8c1.6,0,2.9,0.3,3.8,1c0.9,0.6,1.7,1.5,2.3,2.7
			c0.6,1.1,0.9,2.7,0.9,4.6c0,2.7-0.6,4.8-1.9,6.2c-1.2,1.4-2.9,2.1-5,2.1c-2,0-3.6-0.7-4.7-2s-1.9-3.1-2-5.4h-3.2v7H420V110.8z
			 M432.7,112.7c-1.3,0-2.3,0.5-3.1,1.5c-0.7,1-1.1,2.4-1.1,4.2c0,2.2,0.4,3.8,1.1,4.8s1.7,1.5,2.9,1.5c1.2,0,2.2-0.5,3-1.4
			c0.8-0.9,1.2-2.4,1.2-4.5c0-2-0.3-3.6-1-4.6C435.1,113.2,434.1,112.7,432.7,112.7z"/>
		<path d="M451.3,110.8h2.7v12.1l7.4-12.1h2.9v15.8h-2.7v-12l-7.4,12h-2.9V110.8z"/>
		<path d="M469.6,110.8H482v15.8h-2.7V113h-7.1v7.9c0,1.8-0.1,3-0.2,3.6c-0.1,0.6-0.4,1.1-1,1.5c-0.5,0.4-1.3,0.7-2.3,0.7
			c-0.6,0-1.3,0-2.2-0.1v-2.2h1.2c0.6,0,1-0.1,1.2-0.2c0.2-0.1,0.4-0.3,0.5-0.5c0.1-0.2,0.1-1.1,0.1-2.4V110.8z"/>
		<path d="M486.1,110.8h2.7v12.1l7.4-12.1h2.9v15.8h-2.7v-12l-7.4,12h-2.9V110.8z"/>
		<path d="M511.6,110.8H524v15.8h-2.7V113h-7.1v13.6h-2.7V110.8z"/>
		<path d="M527.1,118.7c0-2.9,0.8-5.1,2.4-6.5c1.4-1.2,3-1.8,5-1.8c2.2,0,3.9,0.7,5.3,2.1c1.4,1.4,2.1,3.4,2.1,5.9
			c0,2-0.3,3.6-0.9,4.8c-0.6,1.2-1.5,2.1-2.7,2.7c-1.2,0.6-2.4,1-3.8,1c-2.2,0-4-0.7-5.4-2.1C527.8,123.4,527.1,121.3,527.1,118.7z
			 M529.8,118.7c0,2,0.4,3.5,1.3,4.5c0.9,1,2,1.5,3.3,1.5c1.3,0,2.4-0.5,3.3-1.5c0.9-1,1.3-2.6,1.3-4.6c0-2-0.4-3.4-1.3-4.4
			c-0.9-1-2-1.5-3.3-1.5c-1.3,0-2.5,0.5-3.3,1.5C530.3,115.1,529.8,116.6,529.8,118.7z"/>
		<path d="M553.5,110.8h2.7v6.8c0.9,0,1.5-0.2,1.8-0.5c0.3-0.3,0.8-1.3,1.5-2.9c0.5-1.3,1-2.1,1.3-2.5c0.3-0.4,0.7-0.7,1.1-0.8
			s1.1-0.2,2.1-0.2h0.5v2.2l-0.7,0c-0.7,0-1.2,0.1-1.4,0.3c-0.2,0.2-0.5,0.9-1,1.9c-0.4,1-0.8,1.7-1.1,2.1c-0.3,0.4-0.9,0.8-1.6,1.1
			c1.2,0.3,2.3,1.4,3.4,3.2l2.9,4.9h-2.9l-2.9-4.9c-0.6-1-1.1-1.6-1.5-1.9c-0.4-0.3-1-0.5-1.6-0.5v7.3h-2.7V110.8z"/>
		<path d="M566.2,118.7c0-2.9,0.8-5.1,2.4-6.5c1.4-1.2,3-1.8,5-1.8c2.2,0,3.9,0.7,5.3,2.1c1.4,1.4,2.1,3.4,2.1,5.9
			c0,2-0.3,3.6-0.9,4.8c-0.6,1.2-1.5,2.1-2.7,2.7c-1.2,0.6-2.4,1-3.8,1c-2.2,0-4-0.7-5.4-2.1C566.8,123.4,566.2,121.3,566.2,118.7z
			 M568.9,118.7c0,2,0.4,3.5,1.3,4.5c0.9,1,2,1.5,3.3,1.5c1.3,0,2.4-0.5,3.3-1.5c0.9-1,1.3-2.6,1.3-4.6c0-2-0.4-3.4-1.3-4.4
			c-0.9-1-2-1.5-3.3-1.5c-1.3,0-2.5,0.5-3.3,1.5C569.4,115.1,568.9,116.6,568.9,118.7z"/>
		<path d="M584.1,132.6v-21.9h2.4v2.1c0.6-0.8,1.2-1.4,1.9-1.8c0.7-0.4,1.6-0.6,2.6-0.6c1.3,0,2.5,0.3,3.6,1c1,0.7,1.8,1.7,2.3,2.9
			c0.5,1.3,0.8,2.7,0.8,4.2c0,1.6-0.3,3.1-0.9,4.4c-0.6,1.3-1.4,2.3-2.5,3c-1.1,0.7-2.3,1-3.5,1c-0.9,0-1.7-0.2-2.4-0.6
			s-1.3-0.9-1.7-1.4v7.7H584.1z M586.5,118.7c0,2,0.4,3.5,1.2,4.5c0.8,1,1.8,1.5,3,1.5c1.2,0,2.2-0.5,3.1-1.5c0.8-1,1.3-2.6,1.3-4.7
			c0-2-0.4-3.5-1.2-4.5s-1.8-1.5-3-1.5c-1.1,0-2.2,0.5-3,1.6S586.5,116.7,586.5,118.7z"/>
		<path d="M601.1,132.6v-21.9h2.4v2.1c0.6-0.8,1.2-1.4,1.9-1.8c0.7-0.4,1.6-0.6,2.6-0.6c1.3,0,2.5,0.3,3.6,1s1.8,1.7,2.3,2.9
			c0.5,1.3,0.8,2.7,0.8,4.2c0,1.6-0.3,3.1-0.9,4.4s-1.4,2.3-2.5,3s-2.3,1-3.5,1c-0.9,0-1.7-0.2-2.4-0.6c-0.7-0.4-1.3-0.9-1.7-1.4
			v7.7H601.1z M603.5,118.7c0,2,0.4,3.5,1.2,4.5c0.8,1,1.8,1.5,3,1.5c1.2,0,2.2-0.5,3.1-1.5c0.8-1,1.3-2.6,1.3-4.7
			c0-2-0.4-3.5-1.2-4.5c-0.8-1-1.8-1.5-3-1.5c-1.1,0-2.2,0.5-3,1.6S603.5,116.7,603.5,118.7z"/>
		<path d="M628.8,121.5l2.8,0.3c-0.4,1.6-1.2,2.9-2.4,3.8c-1.2,0.9-2.7,1.3-4.5,1.3c-2.3,0-4.1-0.7-5.5-2.1c-1.4-1.4-2-3.4-2-6
			c0-2.7,0.7-4.7,2.1-6.2c1.4-1.5,3.1-2.2,5.3-2.2c2.1,0,3.8,0.7,5.2,2.2c1.3,1.4,2,3.5,2,6.1c0,0.2,0,0.4,0,0.7h-11.8
			c0.1,1.7,0.6,3.1,1.5,4c0.9,0.9,2,1.4,3.3,1.4c1,0,1.8-0.3,2.5-0.8S628.4,122.6,628.8,121.5z M620,117.1h8.8c-0.1-1.3-0.5-2.3-1-3
			c-0.9-1-2-1.5-3.3-1.5c-1.2,0-2.3,0.4-3.1,1.2C620.6,114.7,620.1,115.8,620,117.1z"/>
		<path d="M635,110.8h2.7v6.8c0.9,0,1.5-0.2,1.8-0.5c0.3-0.3,0.8-1.3,1.5-2.9c0.5-1.3,1-2.1,1.3-2.5c0.3-0.4,0.7-0.7,1.1-0.8
			s1.1-0.2,2.1-0.2h0.5v2.2l-0.7,0c-0.7,0-1.2,0.1-1.4,0.3c-0.2,0.2-0.5,0.9-1,1.9c-0.4,1-0.8,1.7-1.1,2.1c-0.3,0.4-0.9,0.8-1.6,1.1
			c1.2,0.3,2.3,1.4,3.4,3.2l2.9,4.9h-2.9l-2.9-4.9c-0.6-1-1.1-1.6-1.5-1.9s-1-0.5-1.6-0.5v7.3H635V110.8z"/>
		<path d="M648.3,110.8h2.7v13.6h7.4v-13.6h2.7v13.6h1.7v6.7h-2.2v-4.5h-12.3V110.8z"/>
		<path d="M665.8,110.8h2.7v12.1l7.4-12.1h2.9v15.8h-2.7v-12l-7.4,12h-2.9V110.8z"/>
		<path d="M682.8,110.8h2.7v12.1l7.4-12.1h2.9v15.8h-2.7v-12l-7.4,12h-2.9V110.8z"/>
		<path d="M706.8,110.8h12.8v2.2h-5.1v13.6h-2.7V113h-5.1V110.8z"/>
		<path d="M732.7,121.5l2.8,0.3c-0.4,1.6-1.2,2.9-2.4,3.8c-1.2,0.9-2.7,1.3-4.5,1.3c-2.3,0-4.1-0.7-5.5-2.1s-2-3.4-2-6
			c0-2.7,0.7-4.7,2.1-6.2c1.4-1.5,3.1-2.2,5.3-2.2c2.1,0,3.8,0.7,5.2,2.2c1.3,1.4,2,3.5,2,6.1c0,0.2,0,0.4,0,0.7h-11.8
			c0.1,1.7,0.6,3.1,1.5,4s2,1.4,3.3,1.4c1,0,1.8-0.3,2.5-0.8C731.8,123.4,732.3,122.6,732.7,121.5z M723.9,117.1h8.8
			c-0.1-1.3-0.5-2.3-1-3c-0.9-1-2-1.5-3.3-1.5c-1.2,0-2.3,0.4-3.1,1.2C724.5,114.7,724,115.8,723.9,117.1z"/>
		<path d="M736.4,126.6l5.8-8.2l-5.3-7.6h3.3l2.4,3.7c0.5,0.7,0.8,1.3,1.1,1.8c0.4-0.7,0.8-1.2,1.2-1.7l2.7-3.7h3.2l-5.5,7.4
			l5.9,8.4h-3.3l-3.2-4.9l-0.9-1.3l-4.2,6.2H736.4z"/>
		<path d="M753.4,110.8h2.7v6.6h7.4v-6.6h2.7v15.8h-2.7v-7h-7.4v7h-2.7V110.8z"/>
		<path d="M770.2,110.8h2.7v12.1l7.4-12.1h2.9v15.8h-2.7v-12l-7.4,12h-2.9V110.8z"/>
		<path d="M787.3,110.8h2.7v6.8c0.9,0,1.5-0.2,1.8-0.5c0.3-0.3,0.8-1.3,1.5-2.9c0.5-1.3,1-2.1,1.3-2.5s0.7-0.7,1.1-0.8
			s1.1-0.2,2.1-0.2h0.5v2.2l-0.7,0c-0.7,0-1.2,0.1-1.4,0.3c-0.2,0.2-0.5,0.9-1,1.9c-0.4,1-0.8,1.7-1.1,2.1c-0.3,0.4-0.9,0.8-1.6,1.1
			c1.2,0.3,2.3,1.4,3.4,3.2l2.9,4.9h-2.9l-2.9-4.9c-0.6-1-1.1-1.6-1.5-1.9s-1-0.5-1.6-0.5v7.3h-2.7V110.8z"/>
		<path d="M800.6,110.8h2.7v12.1l7.4-12.1h2.9v15.8h-2.7v-12l-7.4,12h-2.9V110.8z"/>
		<path d="M825.1,110.8h2.7v3c0,1.3,0.1,2.2,0.2,2.8c0.2,0.6,0.5,1.1,1.1,1.5c0.6,0.4,1.3,0.6,2.2,0.6c1,0,2.3-0.3,3.9-0.8v-7.2h2.7
			v15.8h-2.7v-6.4c-1.6,0.5-3.2,0.8-4.6,0.8c-1.2,0-2.3-0.3-3.2-0.9s-1.5-1.4-1.9-2.2c-0.3-0.9-0.5-1.9-0.5-2.9V110.8z"/>
		<path d="M840.5,110.8h12.8v2.2h-5.1v13.6h-2.7V113h-5.1V110.8z"/>
		<path d="M866.4,121.5l2.8,0.3c-0.4,1.6-1.2,2.9-2.4,3.8c-1.2,0.9-2.7,1.3-4.5,1.3c-2.3,0-4.1-0.7-5.5-2.1s-2-3.4-2-6
			c0-2.7,0.7-4.7,2.1-6.2c1.4-1.5,3.1-2.2,5.3-2.2c2.1,0,3.8,0.7,5.2,2.2c1.3,1.4,2,3.5,2,6.1c0,0.2,0,0.4,0,0.7h-11.8
			c0.1,1.7,0.6,3.1,1.5,4s2,1.4,3.3,1.4c1,0,1.8-0.3,2.5-0.8S866,122.6,866.4,121.5z M857.6,117.1h8.8c-0.1-1.3-0.5-2.3-1-3
			c-0.9-1-2-1.5-3.3-1.5c-1.2,0-2.3,0.4-3.1,1.2C858.2,114.7,857.7,115.8,857.6,117.1z"/>
		<path d="M872.6,110.8h2.7v6.6h7.4v-6.6h2.7v15.8h-2.7v-7h-7.4v7h-2.7V110.8z"/>
		<path d="M889.4,110.8h2.7v12.1l7.4-12.1h2.9v15.8h-2.7v-12l-7.4,12h-2.9V110.8z"/>
		<path d="M918.8,110.8v15.8h-2.7v-6.2h-1.5c-0.9,0-1.6,0.1-2.1,0.4c-0.5,0.2-1.1,1-2,2.3l-2.3,3.5h-3.3l2.9-4.3
			c0.9-1.3,1.8-2,2.6-2.2c-1.5-0.2-2.7-0.8-3.4-1.7c-0.7-0.9-1.1-1.9-1.1-3.1c0-1.4,0.5-2.5,1.5-3.3c1-0.9,2.4-1.3,4.2-1.3H918.8z
			 M916.2,113h-3.8c-1.6,0-2.6,0.2-3.1,0.7c-0.5,0.5-0.7,1.1-0.7,1.7c0,0.9,0.3,1.6,1,2.1s1.9,0.7,3.6,0.7h3V113z"/>
	</g>
	<g>
		<path d="M269.9,227.2h7.7c1.5,0,2.7,0.1,3.4,0.2s1.4,0.4,2,0.8c0.6,0.4,1.1,0.9,1.5,1.6c0.4,0.7,0.6,1.4,0.6,2.3
			c0,0.9-0.2,1.7-0.7,2.5c-0.5,0.8-1.2,1.3-2,1.7c1.2,0.3,2.1,0.9,2.7,1.8c0.6,0.8,1,1.8,1,2.9c0,0.9-0.2,1.7-0.6,2.6
			c-0.4,0.8-1,1.5-1.7,2s-1.6,0.8-2.6,0.9c-0.7,0.1-2.2,0.1-4.7,0.1h-6.6V227.2z M273.8,230.4v4.5h2.6c1.5,0,2.5,0,2.8-0.1
			c0.7-0.1,1.2-0.3,1.6-0.7c0.4-0.4,0.6-0.9,0.6-1.5c0-0.6-0.2-1.1-0.5-1.5c-0.3-0.4-0.8-0.6-1.5-0.7c-0.4,0-1.5-0.1-3.3-0.1H273.8z
			 M273.8,238.1v5.2h3.6c1.4,0,2.3,0,2.7-0.1c0.6-0.1,1.1-0.4,1.4-0.8c0.4-0.4,0.5-1,0.5-1.6c0-0.6-0.1-1.1-0.4-1.5
			c-0.3-0.4-0.7-0.7-1.2-0.9c-0.5-0.2-1.7-0.3-3.5-0.3H273.8z"/>
		<path d="M289.3,232.5h3.7v5.1h5.3v-5.1h3.7v14h-3.7v-5.9H293v5.9h-3.7V232.5z"/>
		<path d="M305.6,232.5h3.6v8.8l5.7-8.8h3.6v14H315v-9l-5.8,9h-3.6V232.5z"/>
		<path d="M322.5,232.5h4.6l3.5,9.8l3.5-9.8h4.6v14h-3.2v-9.2l-3.4,9.2h-3.2l-3.3-9.2v9.2h-3.2V232.5z"/>
		<path d="M344.8,236.8l-3.4-0.6c0.4-1.4,1-2.4,2-3c0.9-0.7,2.3-1,4.1-1c1.7,0,2.9,0.2,3.7,0.6c0.8,0.4,1.4,0.9,1.7,1.5
			c0.3,0.6,0.5,1.7,0.5,3.3l0,4.3c0,1.2,0.1,2.1,0.2,2.7c0.1,0.6,0.3,1.2,0.7,1.9h-3.7c-0.1-0.2-0.2-0.6-0.4-1.1
			c-0.1-0.2-0.1-0.4-0.1-0.4c-0.6,0.6-1.3,1.1-2,1.4s-1.5,0.5-2.3,0.5c-1.4,0-2.6-0.4-3.4-1.2c-0.8-0.8-1.2-1.8-1.2-3
			c0-0.8,0.2-1.5,0.6-2.1c0.4-0.6,0.9-1.1,1.6-1.4s1.7-0.6,3-0.9c1.7-0.3,2.9-0.6,3.6-0.9V237c0-0.7-0.2-1.2-0.5-1.5s-1-0.5-2-0.5
			c-0.7,0-1.2,0.1-1.5,0.4C345.3,235.7,345,236.2,344.8,236.8z M349.7,239.8c-0.5,0.2-1.2,0.3-2.3,0.6c-1,0.2-1.7,0.4-2,0.6
			c-0.5,0.3-0.7,0.8-0.7,1.3c0,0.5,0.2,1,0.6,1.3c0.4,0.4,0.9,0.6,1.5,0.6c0.7,0,1.3-0.2,1.9-0.7c0.4-0.3,0.7-0.7,0.9-1.2
			c0.1-0.3,0.1-0.9,0.1-1.8V239.8z"/>
		<path d="M356.9,232.5h3.7v5.1h5.3v-5.1h3.7v14h-3.7v-5.9h-5.3v5.9h-3.7V232.5z"/>
		<path d="M373.3,232.5h3.6v8.8l5.7-8.8h3.6v14h-3.6v-9l-5.8,9h-3.6V232.5z"/>
		<path d="M398.1,242.1l3.7,0.6c-0.5,1.4-1.2,2.4-2.3,3.1c-1,0.7-2.3,1.1-3.8,1.1c-2.4,0-4.2-0.8-5.4-2.4c-0.9-1.3-1.4-2.9-1.4-4.8
			c0-2.3,0.6-4.1,1.8-5.5c1.2-1.3,2.8-2,4.6-2c2.1,0,3.7,0.7,4.9,2.1c1.2,1.4,1.8,3.5,1.7,6.3h-9.3c0,1.1,0.3,2,0.9,2.6
			c0.6,0.6,1.3,0.9,2.1,0.9c0.6,0,1.1-0.2,1.5-0.5C397.6,243.3,397.9,242.8,398.1,242.1z M398.3,238.3c0-1.1-0.3-1.9-0.8-2.4
			c-0.5-0.6-1.2-0.8-1.9-0.8c-0.8,0-1.5,0.3-2,0.9c-0.5,0.6-0.8,1.4-0.8,2.4H398.3z"/>
		<path d="M406.5,241.6l-1-9.8v-4.5h4v4.5l-1,9.8H406.5z M405.7,246.5v-3.7h3.7v3.7H405.7z"/>
		<path d="M421.4,232.5h11.1v14h-2.4v-12.1h-6.3v12.1h-2.4V232.5z"/>
		<path d="M436,251.9v-19.4h2.2v1.8c0.5-0.7,1.1-1.2,1.7-1.6s1.4-0.5,2.3-0.5c1.2,0,2.3,0.3,3.2,0.9c0.9,0.6,1.6,1.5,2.1,2.6
			c0.5,1.1,0.7,2.4,0.7,3.7c0,1.4-0.3,2.7-0.8,3.9c-0.5,1.1-1.3,2-2.2,2.6c-1,0.6-2,0.9-3.1,0.9c-0.8,0-1.5-0.2-2.1-0.5
			c-0.6-0.3-1.1-0.8-1.6-1.3v6.8H436z M438.2,239.6c0,1.8,0.4,3.1,1.1,4c0.7,0.9,1.6,1.3,2.7,1.3c1.1,0,2-0.4,2.7-1.3
			c0.8-0.9,1.1-2.3,1.1-4.2c0-1.8-0.4-3.1-1.1-4c-0.7-0.9-1.6-1.3-2.6-1.3c-1,0-1.9,0.5-2.7,1.4S438.2,237.8,438.2,239.6z"/>
		<path d="M450.2,239.5c0-2.6,0.7-4.5,2.2-5.8c1.2-1,2.7-1.6,4.4-1.6c1.9,0,3.5,0.6,4.7,1.9c1.2,1.3,1.8,3,1.8,5.2
			c0,1.8-0.3,3.2-0.8,4.3c-0.5,1-1.3,1.8-2.4,2.4c-1,0.6-2.2,0.9-3.4,0.9c-2,0-3.5-0.6-4.8-1.9C450.8,243.7,450.2,241.9,450.2,239.5
			z M452.6,239.5c0,1.8,0.4,3.1,1.2,4c0.8,0.9,1.8,1.3,3,1.3c1.2,0,2.2-0.4,2.9-1.3c0.8-0.9,1.2-2.3,1.2-4.1c0-1.7-0.4-3-1.2-3.9
			c-0.8-0.9-1.8-1.3-2.9-1.3c-1.2,0-2.2,0.4-3,1.3C453,236.4,452.6,237.7,452.6,239.5z"/>
		<path d="M466.1,232.5h8.1v2h-5.7v12.1h-2.4V232.5z"/>
		<path d="M476,251.9v-19.4h2.2v1.8c0.5-0.7,1.1-1.2,1.7-1.6s1.4-0.5,2.3-0.5c1.2,0,2.3,0.3,3.2,0.9c0.9,0.6,1.6,1.5,2.1,2.6
			c0.5,1.1,0.7,2.4,0.7,3.7c0,1.4-0.3,2.7-0.8,3.9c-0.5,1.1-1.3,2-2.2,2.6c-1,0.6-2,0.9-3.1,0.9c-0.8,0-1.5-0.2-2.1-0.5
			c-0.6-0.3-1.1-0.8-1.6-1.3v6.8H476z M478.1,239.6c0,1.8,0.4,3.1,1.1,4c0.7,0.9,1.6,1.3,2.7,1.3c1.1,0,2-0.4,2.7-1.3
			c0.8-0.9,1.1-2.3,1.1-4.2c0-1.8-0.4-3.1-1.1-4c-0.7-0.9-1.6-1.3-2.6-1.3c-1,0-1.9,0.5-2.7,1.4S478.1,237.8,478.1,239.6z"/>
		<path d="M500.1,244.8c-0.9,0.7-1.7,1.3-2.5,1.6c-0.8,0.3-1.7,0.5-2.6,0.5c-1.5,0-2.7-0.4-3.6-1.1c-0.8-0.8-1.2-1.7-1.2-2.9
			c0-0.7,0.2-1.3,0.5-1.9c0.3-0.6,0.7-1,1.2-1.4c0.5-0.3,1.1-0.6,1.7-0.8c0.5-0.1,1.2-0.2,2.1-0.4c1.9-0.2,3.3-0.5,4.2-0.8
			c0-0.3,0-0.5,0-0.6c0-1-0.2-1.7-0.7-2c-0.6-0.5-1.5-0.8-2.7-0.8c-1.1,0-1.9,0.2-2.5,0.6c-0.5,0.4-0.9,1.1-1.2,2.1l-2.3-0.3
			c0.2-1,0.6-1.8,1-2.4c0.5-0.6,1.2-1.1,2.1-1.4s2-0.5,3.2-0.5c1.2,0,2.2,0.1,2.9,0.4c0.7,0.3,1.3,0.6,1.6,1.1s0.6,1,0.7,1.6
			c0.1,0.4,0.1,1.1,0.1,2.2v3.2c0,2.2,0.1,3.6,0.2,4.2c0.1,0.6,0.3,1.1,0.6,1.7h-2.5C500.4,246.1,500.2,245.5,500.1,244.8z
			 M499.9,239.5c-0.9,0.4-2.2,0.7-3.9,0.9c-1,0.1-1.7,0.3-2.1,0.5c-0.4,0.2-0.7,0.4-0.9,0.8c-0.2,0.3-0.3,0.7-0.3,1.1
			c0,0.6,0.2,1.2,0.7,1.6c0.5,0.4,1.2,0.6,2.1,0.6c0.9,0,1.7-0.2,2.4-0.6s1.2-0.9,1.6-1.6c0.3-0.5,0.4-1.3,0.4-2.4V239.5z"/>
		<path d="M506.1,232.5h3.7l3.7,11.2l4.1-11.2h3.4v14h-2.4v-11.3l-4.1,11.3h-2.1l-3.9-11.8v11.8h-2.3V232.5z"/>
		<path d="M524.7,232.5h3.7l3.7,11.2l4.1-11.2h3.4v14h-2.4v-11.3l-4.1,11.3h-2.1l-3.9-11.8v11.8h-2.3V232.5z"/>
		<path d="M552.4,244.8c-0.9,0.7-1.7,1.3-2.5,1.6c-0.8,0.3-1.7,0.5-2.6,0.5c-1.5,0-2.7-0.4-3.6-1.1c-0.8-0.8-1.2-1.7-1.2-2.9
			c0-0.7,0.2-1.3,0.5-1.9c0.3-0.6,0.7-1,1.2-1.4c0.5-0.3,1.1-0.6,1.7-0.8c0.5-0.1,1.2-0.2,2.1-0.4c1.9-0.2,3.3-0.5,4.2-0.8
			c0-0.3,0-0.5,0-0.6c0-1-0.2-1.7-0.7-2c-0.6-0.5-1.5-0.8-2.7-0.8c-1.1,0-1.9,0.2-2.5,0.6c-0.5,0.4-0.9,1.1-1.2,2.1l-2.3-0.3
			c0.2-1,0.6-1.8,1-2.4c0.5-0.6,1.2-1.1,2.1-1.4s2-0.5,3.2-0.5c1.2,0,2.2,0.1,2.9,0.4c0.7,0.3,1.3,0.6,1.6,1.1s0.6,1,0.7,1.6
			c0.1,0.4,0.1,1.1,0.1,2.2v3.2c0,2.2,0.1,3.6,0.2,4.2c0.1,0.6,0.3,1.1,0.6,1.7h-2.5C552.6,246.1,552.4,245.5,552.4,244.8z
			 M552.2,239.5c-0.9,0.4-2.2,0.7-3.9,0.9c-1,0.1-1.7,0.3-2.1,0.5c-0.4,0.2-0.7,0.4-0.9,0.8c-0.2,0.3-0.3,0.7-0.3,1.1
			c0,0.6,0.2,1.2,0.7,1.6c0.5,0.4,1.2,0.6,2.1,0.6c0.9,0,1.7-0.2,2.4-0.6s1.2-0.9,1.6-1.6c0.3-0.5,0.4-1.3,0.4-2.4V239.5z"/>
		<path d="M565.8,232.5h2.4v5.8h6.6v-5.8h2.4v14h-2.4v-6.2h-6.6v6.2h-2.4V232.5z"/>
		<path d="M590.3,242l2.5,0.3c-0.4,1.4-1.1,2.5-2.2,3.3c-1,0.8-2.4,1.2-4,1.2c-2.1,0-3.7-0.6-4.9-1.9c-1.2-1.3-1.8-3-1.8-5.3
			c0-2.4,0.6-4.2,1.8-5.5c1.2-1.3,2.8-2,4.7-2c1.9,0,3.4,0.6,4.6,1.9c1.2,1.3,1.8,3.1,1.8,5.4c0,0.1,0,0.4,0,0.6h-10.5
			c0.1,1.5,0.5,2.7,1.3,3.5c0.8,0.8,1.8,1.2,2.9,1.2c0.9,0,1.6-0.2,2.2-0.7C589.4,243.8,589.9,243,590.3,242z M582.5,238.2h7.8
			c-0.1-1.2-0.4-2.1-0.9-2.7c-0.8-0.9-1.7-1.4-2.9-1.4c-1.1,0-2,0.4-2.8,1.1S582.6,237,582.5,238.2z"/>
		<path d="M614.3,232.5v14h-2.4v-5.5h-1.4c-0.8,0-1.5,0.1-1.9,0.3s-1,0.9-1.8,2.1l-2.1,3.1h-2.9l2.6-3.8c0.8-1.2,1.6-1.8,2.3-2
			c-1.4-0.2-2.4-0.7-3-1.5c-0.7-0.8-1-1.7-1-2.7c0-1.2,0.4-2.2,1.3-3c0.9-0.8,2.1-1.1,3.7-1.1H614.3z M611.9,234.5h-3.4
			c-1.4,0-2.3,0.2-2.7,0.7s-0.6,1-0.6,1.5c0,0.8,0.3,1.5,0.9,1.8c0.6,0.4,1.7,0.6,3.2,0.6h2.6V234.5z"/>
		<path d="M617.9,232.5h5.5c1.3,0,2.3,0.1,3,0.3c0.7,0.2,1.2,0.6,1.7,1.2c0.5,0.6,0.7,1.3,0.7,2.2c0,0.7-0.1,1.3-0.4,1.7
			s-0.7,0.9-1.2,1.2c0.7,0.2,1.2,0.6,1.6,1.2s0.7,1.3,0.7,2.1c-0.1,1.3-0.6,2.3-1.4,3s-2.1,1-3.8,1h-6.3V232.5z M620.3,238.4h2.5
			c1,0,1.7-0.1,2.1-0.2c0.4-0.1,0.7-0.3,1-0.6c0.3-0.3,0.4-0.7,0.4-1.2c0-0.7-0.3-1.3-0.8-1.5s-1.4-0.4-2.7-0.4h-2.6V238.4z
			 M620.3,244.6h3.1c1.3,0,2.3-0.2,2.8-0.5s0.8-0.9,0.8-1.6c0-0.4-0.1-0.9-0.4-1.2s-0.7-0.6-1.1-0.7c-0.5-0.1-1.2-0.2-2.2-0.2h-2.9
			V244.6z"/>
		<path d="M632.8,232.5h11v14h-2.4v-12.1h-6.3v7c0,1.6-0.1,2.7-0.2,3.2s-0.4,1-0.9,1.4c-0.5,0.4-1.2,0.6-2.1,0.6
			c-0.6,0-1.2,0-1.9-0.1v-2h1c0.5,0,0.8,0,1.1-0.2s0.4-0.3,0.4-0.5c0.1-0.2,0.1-0.9,0.1-2.2V232.5z"/>
		<path d="M658.4,232.5v14h-2.4v-5.5h-1.4c-0.8,0-1.5,0.1-1.9,0.3s-1,0.9-1.8,2.1l-2.1,3.1H646l2.6-3.8c0.8-1.2,1.6-1.8,2.3-2
			c-1.4-0.2-2.4-0.7-3-1.5c-0.7-0.8-1-1.7-1-2.7c0-1.2,0.4-2.2,1.3-3c0.9-0.8,2.1-1.1,3.7-1.1H658.4z M656.1,234.5h-3.4
			c-1.4,0-2.3,0.2-2.7,0.7s-0.6,1-0.6,1.5c0,0.8,0.3,1.5,0.9,1.8c0.6,0.4,1.7,0.6,3.2,0.6h2.6V234.5z"/>
		<path d="M671.6,242l2.5,0.3c-0.4,1.4-1.1,2.5-2.2,3.3c-1,0.8-2.4,1.2-4,1.2c-2.1,0-3.7-0.6-4.9-1.9c-1.2-1.3-1.8-3-1.8-5.3
			c0-2.4,0.6-4.2,1.8-5.5c1.2-1.3,2.8-2,4.7-2c1.9,0,3.4,0.6,4.6,1.9c1.2,1.3,1.8,3.1,1.8,5.4c0,0.1,0,0.4,0,0.6h-10.5
			c0.1,1.5,0.5,2.7,1.3,3.5s1.8,1.2,2.9,1.2c0.9,0,1.6-0.2,2.2-0.7C670.8,243.8,671.3,243,671.6,242z M663.8,238.2h7.8
			c-0.1-1.2-0.4-2.1-0.9-2.7c-0.8-0.9-1.7-1.4-2.9-1.4c-1.1,0-2,0.4-2.8,1.1C664.3,236,663.9,237,663.8,238.2z"/>
		<path d="M674.9,232.5h11.4v2h-4.5v12.1h-2.4v-12.1h-4.5V232.5z"/>
		<path d="M697.4,241.4l2.3,0.3c-0.3,1.6-0.9,2.9-2,3.8s-2.3,1.4-3.9,1.4c-1.9,0-3.5-0.6-4.6-1.9c-1.2-1.3-1.7-3.1-1.7-5.4
			c0-1.5,0.3-2.8,0.8-4s1.3-2,2.3-2.6c1-0.6,2.1-0.9,3.3-0.9c1.5,0,2.8,0.4,3.7,1.2c1,0.8,1.6,1.9,1.9,3.3l-2.3,0.4
			c-0.2-0.9-0.6-1.7-1.2-2.1c-0.6-0.5-1.2-0.7-2-0.7c-1.2,0-2.2,0.4-2.9,1.3s-1.1,2.2-1.1,4.1c0,1.9,0.4,3.3,1.1,4.1
			s1.7,1.3,2.8,1.3c0.9,0,1.7-0.3,2.3-0.9S697.2,242.6,697.4,241.4z"/>
		<path d="M712.8,232.5v14h-2.4v-5.5h-1.4c-0.8,0-1.5,0.1-1.9,0.3s-1,0.9-1.8,2.1l-2.1,3.1h-2.9l2.6-3.8c0.8-1.2,1.6-1.8,2.3-2
			c-1.4-0.2-2.4-0.7-3-1.5c-0.7-0.8-1-1.7-1-2.7c0-1.2,0.4-2.2,1.3-3c0.9-0.8,2.1-1.1,3.7-1.1H712.8z M710.5,234.5h-3.4
			c-1.4,0-2.3,0.2-2.7,0.7s-0.6,1-0.6,1.5c0,0.8,0.3,1.5,0.9,1.8c0.6,0.4,1.7,0.6,3.2,0.6h2.6V234.5z"/>
		<path d="M269.8,265h2.4V277h5.4V265h2.4V277h5.4V265h2.4v14h-18V265z"/>
		<path d="M291.4,265h2.4v6.1c0.8,0,1.3-0.1,1.6-0.4c0.3-0.3,0.8-1.1,1.3-2.5c0.5-1.1,0.8-1.8,1.1-2.2c0.3-0.4,0.6-0.6,1-0.7
			c0.4-0.1,1-0.2,1.8-0.2h0.5v2l-0.7,0c-0.6,0-1,0.1-1.2,0.3c-0.2,0.2-0.5,0.8-0.8,1.7c-0.4,0.9-0.7,1.5-1,1.9
			c-0.3,0.4-0.8,0.7-1.4,1c1,0.3,2,1.2,3,2.9l2.6,4.3h-2.6l-2.5-4.3c-0.5-0.9-1-1.4-1.4-1.7s-0.8-0.4-1.4-0.4v6.5h-2.4V265z"/>
		<path d="M302.7,272c0-2.6,0.7-4.5,2.2-5.8c1.2-1,2.7-1.6,4.4-1.6c1.9,0,3.5,0.6,4.7,1.9c1.2,1.3,1.8,3,1.8,5.2
			c0,1.8-0.3,3.2-0.8,4.3c-0.5,1-1.3,1.8-2.4,2.4c-1,0.6-2.2,0.9-3.4,0.9c-2,0-3.5-0.6-4.8-1.9C303.3,276.2,302.7,274.3,302.7,272z
			 M305.1,272c0,1.8,0.4,3.1,1.2,4c0.8,0.9,1.8,1.3,3,1.3c1.2,0,2.2-0.4,2.9-1.3c0.8-0.9,1.2-2.3,1.2-4.1c0-1.7-0.4-3-1.2-3.9
			s-1.8-1.3-2.9-1.3c-1.2,0-2.2,0.4-3,1.3C305.5,268.8,305.1,270.2,305.1,272z"/>
		<path d="M319.1,265h11v14h-2.4v-12.1h-6.3v7c0,1.6-0.1,2.7-0.2,3.2c-0.1,0.5-0.4,1-0.9,1.4c-0.5,0.4-1.2,0.6-2.1,0.6
			c-0.6,0-1.2,0-1.9-0.1v-2h1c0.5,0,0.8-0.1,1.1-0.2c0.2-0.1,0.4-0.3,0.4-0.5s0.1-0.9,0.1-2.2V265z"/>
		<path d="M333.7,265h2.4v5.5h3c2,0,3.5,0.4,4.5,1.1c1.1,0.8,1.6,1.8,1.6,3.1c0,1.2-0.4,2.2-1.3,3c-0.9,0.8-2.3,1.2-4.2,1.2h-5.9
			V265z M336.1,277h2.5c1.5,0,2.6-0.2,3.2-0.6c0.6-0.4,1-0.9,1-1.7c0-0.6-0.2-1.1-0.7-1.6c-0.5-0.5-1.5-0.7-3.2-0.7h-2.8V277z"/>
		<path d="M347.9,265h2.4v5.8h6.6V265h2.4v14h-2.4v-6.2h-6.6v6.2h-2.4V265z"/>
		<path d="M362.8,265h2.4v5.5h3c2,0,3.5,0.4,4.5,1.1c1.1,0.8,1.6,1.8,1.6,3.1c0,1.2-0.4,2.2-1.3,3c-0.9,0.8-2.3,1.2-4.2,1.2h-5.9
			V265z M365.2,277h2.5c1.5,0,2.6-0.2,3.2-0.6c0.6-0.4,1-0.9,1-1.7c0-0.6-0.2-1.1-0.7-1.6c-0.5-0.5-1.5-0.7-3.2-0.7h-2.8V277z
			 M376.1,265h2.4v14h-2.4V265z"/>
		<path d="M382.3,265h3.7l3.7,11.2l4.1-11.2h3.4v14h-2.4v-11.3l-4.1,11.3h-2.1l-3.9-11.8V279h-2.3V265z"/>
		<path d="M400.8,265h2.4v10.7l6.6-10.7h2.6v14h-2.4v-10.6l-6.6,10.6h-2.6V265z"/>
		<path d="M423.4,265h2.4v10.7l6.6-10.7h2.6v14h-2.4v-10.6L426,279h-2.6V265z"/>
		<path d="M439.7,265h11v14h-2.4v-12.1h-6.3v7c0,1.6-0.1,2.7-0.2,3.2c-0.1,0.5-0.4,1-0.9,1.4c-0.5,0.4-1.2,0.6-2.1,0.6
			c-0.6,0-1.2,0-1.9-0.1v-2h1c0.5,0,0.8-0.1,1.1-0.2c0.2-0.1,0.4-0.3,0.4-0.5s0.1-0.9,0.1-2.2V265z"/>
		<path d="M454.3,265h2.4v10.7l6.6-10.7h2.6v14h-2.4v-10.6l-6.6,10.6h-2.6V265z"/>
		<path d="M478.8,265h9.8V277h1.5v5.9h-2v-4h-11v4h-2V277h1.3C478.1,274.8,478.9,270.7,478.8,265z M480.8,266.9
			c-0.2,4.6-0.9,7.9-2.1,10.1h7.5v-10.1H480.8z"/>
		<path d="M491.8,272c0-2.6,0.7-4.5,2.2-5.8c1.2-1,2.7-1.6,4.4-1.6c1.9,0,3.5,0.6,4.7,1.9c1.2,1.3,1.8,3,1.8,5.2
			c0,1.8-0.3,3.2-0.8,4.3c-0.5,1-1.3,1.8-2.4,2.4c-1,0.6-2.2,0.9-3.4,0.9c-2,0-3.5-0.6-4.8-1.9C492.4,276.2,491.8,274.3,491.8,272z
			 M494.2,272c0,1.8,0.4,3.1,1.2,4c0.8,0.9,1.8,1.3,3,1.3c1.2,0,2.2-0.4,2.9-1.3c0.8-0.9,1.2-2.3,1.2-4.1c0-1.7-0.4-3-1.2-3.9
			s-1.8-1.3-2.9-1.3c-1.2,0-2.2,0.4-3,1.3C494.6,268.8,494.2,270.2,494.2,272z"/>
		<path d="M507.8,265h2.4V277h5.4V265h2.4V277h5.4V265h2.4v14h-18V265z"/>
		<path d="M529.4,265h2.4v6.1c0.8,0,1.3-0.1,1.6-0.4c0.3-0.3,0.8-1.1,1.3-2.5c0.5-1.1,0.8-1.8,1.1-2.2c0.3-0.4,0.6-0.6,1-0.7
			c0.4-0.1,1-0.2,1.8-0.2h0.5v2l-0.7,0c-0.6,0-1,0.1-1.2,0.3c-0.2,0.2-0.5,0.8-0.8,1.7c-0.4,0.9-0.7,1.5-1,1.9
			c-0.3,0.4-0.8,0.7-1.4,1c1,0.3,2,1.2,3,2.9l2.6,4.3h-2.6l-2.5-4.3c-0.5-0.9-1-1.4-1.4-1.7s-0.8-0.4-1.4-0.4v6.5h-2.4V265z"/>
		<path d="M540.7,272c0-2.6,0.7-4.5,2.2-5.8c1.2-1,2.7-1.6,4.4-1.6c1.9,0,3.5,0.6,4.7,1.9c1.2,1.3,1.8,3,1.8,5.2
			c0,1.8-0.3,3.2-0.8,4.3c-0.5,1-1.3,1.8-2.4,2.4c-1,0.6-2.2,0.9-3.4,0.9c-2,0-3.5-0.6-4.8-1.9C541.3,276.2,540.7,274.3,540.7,272z
			 M543.1,272c0,1.8,0.4,3.1,1.2,4c0.8,0.9,1.8,1.3,3,1.3c1.2,0,2.2-0.4,2.9-1.3c0.8-0.9,1.2-2.3,1.2-4.1c0-1.7-0.4-3-1.2-3.9
			s-1.8-1.3-2.9-1.3c-1.2,0-2.2,0.4-3,1.3C543.5,268.8,543.1,270.2,543.1,272z"/>
		<path d="M557.2,265h11v14h-2.4v-12.1h-6.3v7c0,1.6-0.1,2.7-0.2,3.2c-0.1,0.5-0.4,1-0.9,1.4c-0.5,0.4-1.2,0.6-2.1,0.6
			c-0.6,0-1.2,0-1.9-0.1v-2h1c0.5,0,0.8-0.1,1.1-0.2c0.2-0.1,0.4-0.3,0.4-0.5s0.1-0.9,0.1-2.2V265z"/>
		<path d="M571.7,265h2.4v5.5h3c2,0,3.5,0.4,4.5,1.1c1.1,0.8,1.6,1.8,1.6,3.1c0,1.2-0.4,2.2-1.3,3c-0.9,0.8-2.3,1.2-4.2,1.2h-5.9
			V265z M574.1,277h2.5c1.5,0,2.6-0.2,3.2-0.6c0.6-0.4,1-0.9,1-1.7c0-0.6-0.2-1.1-0.7-1.6c-0.5-0.5-1.5-0.7-3.2-0.7h-2.8V277z"/>
		<path d="M585.9,265h2.4v5.8h6.6V265h2.4v14h-2.4v-6.2h-6.6v6.2h-2.4V265z"/>
		<path d="M600.8,265h2.4v5.5h3c2,0,3.5,0.4,4.5,1.1c1.1,0.8,1.6,1.8,1.6,3.1c0,1.2-0.4,2.2-1.3,3c-0.9,0.8-2.3,1.2-4.2,1.2h-5.9
			V265z M603.2,277h2.5c1.5,0,2.6-0.2,3.2-0.6c0.6-0.4,1-0.9,1-1.7c0-0.6-0.2-1.1-0.7-1.6c-0.5-0.5-1.5-0.7-3.2-0.7h-2.8V277z
			 M614.1,265h2.4v14h-2.4V265z"/>
		<path d="M620.3,265h3.7l3.7,11.2l4.1-11.2h3.4v14h-2.4v-11.3l-4.1,11.3h-2.1l-3.9-11.8V279h-2.3V265z"/>
		<path d="M638.8,265h2.4v10.7l6.6-10.7h2.6v14H648v-10.6l-6.6,10.6h-2.6V265z"/>
		<path d="M661.3,284.4l-0.3-2.2c0.5,0.1,1,0.2,1.4,0.2c0.5,0,1-0.1,1.3-0.3c0.3-0.2,0.6-0.4,0.8-0.7c0.2-0.2,0.4-0.8,0.7-1.8
			c0-0.1,0.1-0.3,0.2-0.6l-5.3-14h2.6l2.9,8.1c0.4,1,0.7,2.1,1,3.2c0.3-1.1,0.6-2.2,1-3.2l3-8.2h2.4l-5.3,14.3
			c-0.6,1.5-1,2.6-1.3,3.2c-0.4,0.8-0.9,1.4-1.5,1.7s-1.2,0.5-2,0.5C662.4,284.7,661.9,284.6,661.3,284.4z"/>
		<path d="M674.6,284.4V265h2.2v1.8c0.5-0.7,1.1-1.2,1.7-1.6s1.4-0.5,2.3-0.5c1.2,0,2.3,0.3,3.2,0.9c0.9,0.6,1.6,1.5,2.1,2.6
			s0.7,2.4,0.7,3.7c0,1.4-0.3,2.7-0.8,3.9c-0.5,1.1-1.3,2-2.2,2.6s-2,0.9-3.1,0.9c-0.8,0-1.5-0.2-2.1-0.5c-0.6-0.3-1.1-0.8-1.6-1.3
			v6.8H674.6z M676.8,272.1c0,1.8,0.4,3.1,1.1,4s1.6,1.3,2.7,1.3c1.1,0,2-0.4,2.7-1.3c0.8-0.9,1.1-2.3,1.1-4.2c0-1.8-0.4-3.1-1.1-4
			c-0.7-0.9-1.6-1.3-2.6-1.3c-1,0-1.9,0.5-2.7,1.4S676.8,270.3,676.8,272.1z"/>
		<path d="M688.8,272c0-2.6,0.7-4.5,2.2-5.8c1.2-1,2.7-1.6,4.4-1.6c1.9,0,3.5,0.6,4.7,1.9c1.2,1.3,1.8,3,1.8,5.2
			c0,1.8-0.3,3.2-0.8,4.3c-0.5,1-1.3,1.8-2.4,2.4c-1,0.6-2.2,0.9-3.4,0.9c-2,0-3.5-0.6-4.8-1.9S688.8,274.3,688.8,272z M691.2,272
			c0,1.8,0.4,3.1,1.2,4c0.8,0.9,1.8,1.3,3,1.3c1.2,0,2.2-0.4,2.9-1.3c0.8-0.9,1.2-2.3,1.2-4.1c0-1.7-0.4-3-1.2-3.9
			c-0.8-0.9-1.8-1.3-2.9-1.3c-1.2,0-2.2,0.4-3,1.3C691.6,268.8,691.2,270.2,691.2,272z"/>
		<path d="M704.7,265h2.4v6.1c0.8,0,1.3-0.1,1.6-0.4c0.3-0.3,0.8-1.1,1.3-2.5c0.5-1.1,0.8-1.8,1.1-2.2c0.3-0.4,0.6-0.6,1-0.7
			c0.4-0.1,1-0.2,1.8-0.2h0.5v2l-0.7,0c-0.6,0-1,0.1-1.2,0.3c-0.2,0.2-0.5,0.8-0.8,1.7c-0.4,0.9-0.7,1.5-1,1.9
			c-0.3,0.4-0.8,0.7-1.4,1c1,0.3,2,1.2,3,2.9l2.6,4.3h-2.6l-2.5-4.3c-0.5-0.9-1-1.4-1.4-1.7c-0.4-0.3-0.8-0.4-1.4-0.4v6.5h-2.4V265z
			"/>
		<path d="M726.3,277.3c-0.9,0.7-1.7,1.3-2.5,1.6c-0.8,0.3-1.7,0.5-2.6,0.5c-1.5,0-2.7-0.4-3.6-1.1c-0.8-0.8-1.2-1.7-1.2-2.9
			c0-0.7,0.2-1.3,0.5-1.9c0.3-0.6,0.7-1,1.2-1.4c0.5-0.3,1.1-0.6,1.7-0.8c0.5-0.1,1.2-0.2,2.1-0.4c1.9-0.2,3.3-0.5,4.2-0.8
			c0-0.3,0-0.5,0-0.6c0-1-0.2-1.7-0.7-2c-0.6-0.5-1.5-0.8-2.7-0.8c-1.1,0-1.9,0.2-2.5,0.6c-0.5,0.4-0.9,1.1-1.2,2.1l-2.3-0.3
			c0.2-1,0.6-1.8,1-2.4c0.5-0.6,1.2-1.1,2.1-1.4s2-0.5,3.2-0.5c1.2,0,2.2,0.1,2.9,0.4c0.7,0.3,1.3,0.6,1.7,1.1
			c0.4,0.4,0.6,1,0.7,1.6c0.1,0.4,0.1,1.1,0.1,2.2v3.2c0,2.2,0.1,3.6,0.2,4.2c0.1,0.6,0.3,1.1,0.6,1.7h-2.5
			C726.5,278.5,726.4,277.9,726.3,277.3z M726.1,272c-0.9,0.4-2.2,0.7-3.9,0.9c-1,0.1-1.7,0.3-2.1,0.5c-0.4,0.2-0.7,0.4-0.9,0.8
			s-0.3,0.7-0.3,1.1c0,0.6,0.2,1.2,0.7,1.6c0.5,0.4,1.2,0.6,2.1,0.6c0.9,0,1.7-0.2,2.4-0.6s1.2-0.9,1.6-1.6c0.3-0.5,0.4-1.3,0.4-2.4
			V272z"/>
		<path d="M732.2,265h3.7l3.7,11.2l4.1-11.2h3.4v14h-2.4v-11.3l-4.1,11.3h-2.1l-3.9-11.8V279h-2.3V265z"/>
		<path d="M750.8,265h2.4v10.7l6.6-10.7h2.6v14h-2.4v-10.6l-6.6,10.6h-2.6V265z"/>
		<path d="M268.8,297.4h2.4v2.7c0,1.1,0.1,2,0.2,2.5c0.1,0.5,0.5,1,1,1.3c0.5,0.4,1.2,0.6,2,0.6c0.9,0,2.1-0.2,3.5-0.7v-6.3h2.4v14
			h-2.4v-5.7c-1.5,0.5-2.8,0.7-4.1,0.7c-1.1,0-2-0.3-2.8-0.8c-0.8-0.5-1.4-1.2-1.7-2s-0.4-1.6-0.4-2.6V297.4z"/>
		<path d="M282.5,297.4h11.4v2h-4.5v12.1H287v-12.1h-4.5V297.4z"/>
		<path d="M305.5,306.9l2.5,0.3c-0.4,1.4-1.1,2.5-2.2,3.3c-1,0.8-2.4,1.2-4,1.2c-2.1,0-3.7-0.6-4.9-1.9c-1.2-1.3-1.8-3-1.8-5.3
			c0-2.4,0.6-4.2,1.8-5.5c1.2-1.3,2.8-2,4.7-2c1.9,0,3.4,0.6,4.6,1.9s1.8,3.1,1.8,5.4c0,0.1,0,0.4,0,0.6h-10.5
			c0.1,1.5,0.5,2.7,1.3,3.5c0.8,0.8,1.8,1.2,2.9,1.2c0.9,0,1.6-0.2,2.2-0.7C304.6,308.7,305.1,307.9,305.5,306.9z M297.7,303.1h7.8
			c-0.1-1.2-0.4-2.1-0.9-2.7c-0.8-0.9-1.7-1.4-2.9-1.4c-1.1,0-2,0.4-2.8,1.1S297.8,301.9,297.7,303.1z"/>
		<path d="M310.9,297.4h2.4v5.8h6.6v-5.8h2.4v14h-2.4v-6.2h-6.6v6.2h-2.4V297.4z"/>
		<path d="M325.9,297.4h2.4v10.7l6.6-10.7h2.6v14H335v-10.6l-6.6,10.6h-2.6V297.4z"/>
		<path d="M352,297.4v14h-2.4V306h-1.4c-0.8,0-1.5,0.1-1.9,0.3c-0.4,0.2-1,0.9-1.8,2.1l-2.1,3.1h-2.9l2.6-3.8c0.8-1.2,1.6-1.8,2.3-2
			c-1.4-0.2-2.4-0.7-3-1.5s-1-1.7-1-2.7c0-1.2,0.4-2.2,1.3-3c0.9-0.8,2.1-1.1,3.7-1.1H352z M349.6,299.4h-3.4
			c-1.4,0-2.3,0.2-2.7,0.7c-0.4,0.4-0.6,1-0.6,1.5c0,0.8,0.3,1.5,0.9,1.8c0.6,0.4,1.7,0.6,3.2,0.6h2.6V299.4z"/>
		<path d="M356.3,300.1v-2.7h2.7v2.7H356.3z M356.3,311.4v-2.7h2.7v2.7H356.3z"/>
		<path d="M370.6,297.4h11.1v14h-2.4v-12.1H373v12.1h-2.4V297.4z"/>
		<path d="M384.4,304.4c0-2.6,0.7-4.5,2.2-5.8c1.2-1,2.7-1.6,4.4-1.6c1.9,0,3.5,0.6,4.7,1.9c1.2,1.3,1.8,3,1.8,5.2
			c0,1.8-0.3,3.2-0.8,4.3c-0.5,1-1.3,1.8-2.4,2.4c-1,0.6-2.2,0.9-3.4,0.9c-2,0-3.5-0.6-4.8-1.9C385,308.6,384.4,306.8,384.4,304.4z
			 M386.8,304.4c0,1.8,0.4,3.1,1.2,4c0.8,0.9,1.8,1.3,3,1.3c1.2,0,2.2-0.4,2.9-1.3c0.8-0.9,1.2-2.3,1.2-4.1c0-1.7-0.4-3-1.2-3.9
			s-1.8-1.3-2.9-1.3c-1.2,0-2.2,0.4-3,1.3C387.2,301.3,386.8,302.6,386.8,304.4z"/>
		<path d="M400.9,297.4h11v14h-2.4v-12.1h-6.3v7c0,1.6-0.1,2.7-0.2,3.2c-0.1,0.5-0.4,1-0.9,1.4c-0.5,0.4-1.2,0.6-2.1,0.6
			c-0.6,0-1.2,0-1.9-0.1v-2h1c0.5,0,0.8-0.1,1.1-0.2c0.2-0.1,0.4-0.3,0.4-0.5s0.1-0.9,0.1-2.2V297.4z"/>
		<path d="M415.4,316.8l-0.3-2.2c0.5,0.1,1,0.2,1.4,0.2c0.5,0,1-0.1,1.3-0.3c0.3-0.2,0.6-0.4,0.8-0.7c0.1-0.2,0.4-0.8,0.7-1.8
			c0-0.1,0.1-0.3,0.2-0.6l-5.3-14h2.6l2.9,8.1c0.4,1,0.7,2.1,1,3.2c0.3-1.1,0.6-2.2,1-3.2l3-8.2h2.4l-5.3,14.3
			c-0.6,1.5-1,2.6-1.3,3.2c-0.4,0.8-0.9,1.4-1.5,1.7c-0.5,0.4-1.2,0.5-2,0.5C416.4,317.1,415.9,317,415.4,316.8z"/>
		<path d="M428.1,297.4h2.4v2.7c0,1.1,0.1,2,0.2,2.5c0.1,0.5,0.5,1,1,1.3c0.5,0.4,1.2,0.6,2,0.6c0.9,0,2.1-0.2,3.5-0.7v-6.3h2.4v14
			h-2.4v-5.7c-1.5,0.5-2.8,0.7-4.1,0.7c-1.1,0-2-0.3-2.8-0.8c-0.8-0.5-1.4-1.2-1.7-2s-0.4-1.6-0.4-2.6V297.4z"/>
		<path d="M443.1,297.4h2.4v10.7l6.6-10.7h2.6v14h-2.4v-10.6l-6.6,10.6h-2.6V297.4z"/>
		<path d="M456.9,297.4h11.4v2h-4.5v12.1h-2.4v-12.1h-4.5V297.4z"/>
		<path d="M479.9,306.9l2.5,0.3c-0.4,1.4-1.1,2.5-2.2,3.3c-1,0.8-2.4,1.2-4,1.2c-2.1,0-3.7-0.6-4.9-1.9c-1.2-1.3-1.8-3-1.8-5.3
			c0-2.4,0.6-4.2,1.8-5.5c1.2-1.3,2.8-2,4.7-2c1.9,0,3.4,0.6,4.6,1.9c1.2,1.3,1.8,3.1,1.8,5.4c0,0.1,0,0.4,0,0.6h-10.5
			c0.1,1.5,0.5,2.7,1.3,3.5c0.8,0.8,1.8,1.2,2.9,1.2c0.9,0,1.6-0.2,2.2-0.7C479,308.7,479.5,307.9,479.9,306.9z M472.1,303.1h7.8
			c-0.1-1.2-0.4-2.1-0.9-2.7c-0.8-0.9-1.7-1.4-2.9-1.4c-1.1,0-2,0.4-2.8,1.1S472.1,301.9,472.1,303.1z"/>
		<path d="M492.8,297.4h2.4v6.1c0.8,0,1.3-0.1,1.6-0.4c0.3-0.3,0.8-1.1,1.3-2.5c0.5-1.1,0.8-1.8,1.1-2.2c0.3-0.4,0.6-0.6,1-0.7
			c0.4-0.1,1-0.2,1.8-0.2h0.5v2l-0.7,0c-0.6,0-1,0.1-1.2,0.3c-0.2,0.2-0.5,0.8-0.8,1.7c-0.4,0.9-0.7,1.5-1,1.9
			c-0.3,0.4-0.8,0.7-1.4,1c1,0.3,2,1.2,3,2.9l2.6,4.3h-2.6l-2.5-4.3c-0.5-0.9-1-1.4-1.4-1.7s-0.8-0.4-1.4-0.4v6.5h-2.4V297.4z"/>
		<path d="M504.1,304.4c0-2.6,0.7-4.5,2.2-5.8c1.2-1,2.7-1.6,4.4-1.6c1.9,0,3.5,0.6,4.7,1.9c1.2,1.3,1.8,3,1.8,5.2
			c0,1.8-0.3,3.2-0.8,4.3c-0.5,1-1.3,1.8-2.4,2.4c-1,0.6-2.2,0.9-3.4,0.9c-2,0-3.5-0.6-4.8-1.9C504.7,308.6,504.1,306.8,504.1,304.4
			z M506.5,304.4c0,1.8,0.4,3.1,1.2,4c0.8,0.9,1.8,1.3,3,1.3c1.2,0,2.2-0.4,2.9-1.3c0.8-0.9,1.2-2.3,1.2-4.1c0-1.7-0.4-3-1.2-3.9
			s-1.8-1.3-2.9-1.3c-1.2,0-2.2,0.4-3,1.3C506.9,301.3,506.5,302.6,506.5,304.4z"/>
		<path d="M520,297.4h2.4v5.8h6.6v-5.8h2.4v14H529v-6.2h-6.6v6.2H520V297.4z"/>
		<path d="M544.1,306.3l2.3,0.3c-0.3,1.6-0.9,2.9-2,3.8s-2.3,1.4-3.9,1.4c-1.9,0-3.5-0.6-4.6-1.9c-1.2-1.3-1.7-3.1-1.7-5.4
			c0-1.5,0.3-2.8,0.8-4c0.5-1.1,1.3-2,2.3-2.6c1-0.6,2.1-0.9,3.3-0.9c1.5,0,2.8,0.4,3.7,1.2c1,0.8,1.6,1.9,1.9,3.3l-2.3,0.4
			c-0.2-0.9-0.6-1.7-1.2-2.1c-0.6-0.5-1.2-0.7-2-0.7c-1.2,0-2.2,0.4-2.9,1.3c-0.7,0.9-1.1,2.2-1.1,4.1c0,1.9,0.4,3.3,1.1,4.1
			c0.7,0.9,1.7,1.3,2.8,1.3c0.9,0,1.7-0.3,2.3-0.9S543.9,307.5,544.1,306.3z"/>
		<path d="M548.3,316.8l-0.3-2.2c0.5,0.1,1,0.2,1.4,0.2c0.5,0,1-0.1,1.3-0.3c0.3-0.2,0.6-0.4,0.8-0.7c0.1-0.2,0.4-0.8,0.7-1.8
			c0-0.1,0.1-0.3,0.2-0.6l-5.3-14h2.6l2.9,8.1c0.4,1,0.7,2.1,1,3.2c0.3-1.1,0.6-2.2,1-3.2l3-8.2h2.4l-5.3,14.3
			c-0.6,1.5-1,2.6-1.3,3.2c-0.4,0.8-0.9,1.4-1.5,1.7c-0.5,0.4-1.2,0.5-2,0.5C549.4,317.1,548.9,317,548.3,316.8z"/>
		<path d="M562.5,297.4h11v14h-2.4v-12.1h-6.3v7c0,1.6-0.1,2.7-0.2,3.2c-0.1,0.5-0.4,1-0.9,1.4c-0.5,0.4-1.2,0.6-2.1,0.6
			c-0.6,0-1.2,0-1.9-0.1v-2h1c0.5,0,0.8-0.1,1.1-0.2c0.2-0.1,0.4-0.3,0.4-0.5s0.1-0.9,0.1-2.2V297.4z"/>
		<path d="M577.1,297.4h2.4v5.5h3c2,0,3.5,0.4,4.5,1.1c1.1,0.8,1.6,1.8,1.6,3.1c0,1.2-0.4,2.2-1.3,3c-0.9,0.8-2.3,1.2-4.2,1.2h-5.9
			V297.4z M579.5,309.5h2.5c1.5,0,2.6-0.2,3.2-0.6c0.6-0.4,1-0.9,1-1.7c0-0.6-0.2-1.1-0.7-1.6c-0.5-0.5-1.5-0.7-3.2-0.7h-2.8V309.5z
			"/>
		<path d="M587.8,297.4h11.4v2h-4.5v12.1h-2.4v-12.1h-4.5V297.4z"/>
		<path d="M610.3,309.7c-0.9,0.7-1.7,1.3-2.5,1.6c-0.8,0.3-1.7,0.5-2.6,0.5c-1.5,0-2.7-0.4-3.6-1.1c-0.8-0.8-1.2-1.7-1.2-2.9
			c0-0.7,0.2-1.3,0.5-1.9c0.3-0.6,0.7-1,1.2-1.4c0.5-0.3,1.1-0.6,1.7-0.8c0.5-0.1,1.2-0.2,2.1-0.4c1.9-0.2,3.3-0.5,4.2-0.8
			c0-0.3,0-0.5,0-0.6c0-1-0.2-1.7-0.7-2c-0.6-0.5-1.5-0.8-2.7-0.8c-1.1,0-1.9,0.2-2.5,0.6s-0.9,1.1-1.2,2.1l-2.3-0.3
			c0.2-1,0.6-1.8,1-2.4s1.2-1.1,2.1-1.4c0.9-0.3,2-0.5,3.2-0.5c1.2,0,2.2,0.1,2.9,0.4c0.7,0.3,1.3,0.6,1.7,1.1
			c0.4,0.4,0.6,1,0.7,1.6c0.1,0.4,0.1,1.1,0.1,2.2v3.2c0,2.2,0.1,3.6,0.2,4.2c0.1,0.6,0.3,1.1,0.6,1.7h-2.5
			C610.6,310.9,610.4,310.4,610.3,309.7z M610.1,304.4c-0.9,0.4-2.2,0.7-3.9,0.9c-1,0.1-1.7,0.3-2.1,0.5c-0.4,0.2-0.7,0.4-0.9,0.8
			c-0.2,0.3-0.3,0.7-0.3,1.1c0,0.6,0.2,1.2,0.7,1.6c0.5,0.4,1.2,0.6,2.1,0.6c0.9,0,1.7-0.2,2.4-0.6s1.2-0.9,1.6-1.6
			c0.3-0.5,0.4-1.3,0.4-2.4V304.4z"/>
		<path d="M616.3,297.4h2.4v12.1h6.6v-12.1h2.4v12.1h1.5v5.9h-2v-4h-10.9V297.4z"/>
		<path d="M631.7,297.4h2.4v10.7l6.6-10.7h2.6v14h-2.4v-10.6l-6.6,10.6h-2.6V297.4z"/>
		<path d="M646.8,297.4h2.4v5.9h2.9c0.2-2,0.8-3.5,1.9-4.6c1-1.1,2.4-1.6,4.1-1.6c1.4,0,2.5,0.3,3.4,0.9s1.5,1.4,2,2.4
			s0.8,2.4,0.8,4.1c0,2.4-0.5,4.3-1.7,5.5c-1.1,1.3-2.6,1.9-4.5,1.9c-1.8,0-3.2-0.6-4.2-1.7c-1.1-1.2-1.7-2.8-1.8-4.8h-2.9v6.2h-2.4
			V297.4z M658.2,299.1c-1.2,0-2.1,0.4-2.7,1.3c-0.6,0.9-1,2.1-1,3.8c0,1.9,0.3,3.3,1,4.2c0.7,0.9,1.5,1.3,2.6,1.3
			c1.1,0,2-0.4,2.7-1.2c0.7-0.8,1-2.2,1-4c0-1.8-0.3-3.2-0.9-4.1C660.3,299.6,659.4,299.1,658.2,299.1z"/>
		<path d="M668.4,306.6l-0.7-10.3v-4.3h2.9v4.3l-0.7,10.3H668.4z M667.7,311.4v-2.7h2.7v2.7H667.7z"/>
		<path d="M269.6,349.3l-0.3-2.2c0.5,0.1,1,0.2,1.4,0.2c0.5,0,1-0.1,1.3-0.3c0.3-0.2,0.6-0.4,0.8-0.7c0.1-0.2,0.4-0.8,0.7-1.8
			c0-0.1,0.1-0.3,0.2-0.6l-5.3-14h2.6l2.9,8.1c0.4,1,0.7,2.1,1,3.2c0.3-1.1,0.6-2.2,1-3.2l3-8.2h2.4l-5.3,14.3
			c-0.6,1.5-1,2.6-1.3,3.2c-0.4,0.8-0.9,1.4-1.5,1.7c-0.5,0.4-1.2,0.5-2,0.5C270.7,349.6,270.2,349.5,269.6,349.3z"/>
		<path d="M282.4,329.9h2.4v2.7c0,1.1,0.1,2,0.2,2.5c0.1,0.5,0.5,1,1,1.3c0.5,0.4,1.2,0.6,2,0.6c0.9,0,2.1-0.2,3.5-0.7v-6.3h2.4v14
			h-2.4v-5.7c-1.5,0.5-2.8,0.7-4.1,0.7c-1.1,0-2-0.3-2.8-0.8c-0.8-0.5-1.4-1.2-1.7-2s-0.4-1.6-0.4-2.6V329.9z"/>
		<path d="M306.5,342.2c-0.9,0.7-1.7,1.3-2.5,1.6c-0.8,0.3-1.7,0.5-2.6,0.5c-1.5,0-2.7-0.4-3.6-1.1c-0.8-0.8-1.2-1.7-1.2-2.9
			c0-0.7,0.2-1.3,0.5-1.9c0.3-0.6,0.7-1,1.2-1.4c0.5-0.3,1.1-0.6,1.7-0.8c0.5-0.1,1.2-0.2,2.1-0.4c1.9-0.2,3.3-0.5,4.2-0.8
			c0-0.3,0-0.5,0-0.6c0-1-0.2-1.7-0.7-2c-0.6-0.5-1.5-0.8-2.7-0.8c-1.1,0-1.9,0.2-2.5,0.6c-0.5,0.4-0.9,1.1-1.2,2.1l-2.3-0.3
			c0.2-1,0.6-1.8,1-2.4c0.5-0.6,1.2-1.1,2.1-1.4s2-0.5,3.2-0.5c1.2,0,2.2,0.1,2.9,0.4c0.7,0.3,1.3,0.6,1.6,1.1
			c0.4,0.4,0.6,1,0.7,1.6c0.1,0.4,0.1,1.1,0.1,2.2v3.2c0,2.2,0.1,3.6,0.2,4.2c0.1,0.6,0.3,1.1,0.6,1.7h-2.5
			C306.7,343.4,306.5,342.8,306.5,342.2z M306.3,336.8c-0.9,0.4-2.2,0.7-3.9,0.9c-1,0.1-1.7,0.3-2.1,0.5c-0.4,0.2-0.7,0.4-0.9,0.8
			c-0.2,0.3-0.3,0.7-0.3,1.1c0,0.6,0.2,1.2,0.7,1.6c0.5,0.4,1.2,0.6,2.1,0.6c0.9,0,1.7-0.2,2.4-0.6s1.2-0.9,1.6-1.6
			c0.3-0.5,0.4-1.3,0.4-2.4V336.8z"/>
		<path d="M321.5,338.7l2.3,0.3c-0.3,1.6-0.9,2.9-2,3.8s-2.3,1.4-3.9,1.4c-1.9,0-3.5-0.6-4.6-1.9c-1.2-1.3-1.7-3.1-1.7-5.4
			c0-1.5,0.3-2.8,0.8-4c0.5-1.1,1.3-2,2.3-2.6c1-0.6,2.1-0.9,3.3-0.9c1.5,0,2.8,0.4,3.7,1.2c1,0.8,1.6,1.9,1.9,3.3l-2.3,0.4
			c-0.2-0.9-0.6-1.7-1.2-2.1c-0.6-0.5-1.2-0.7-2-0.7c-1.2,0-2.2,0.4-2.9,1.3c-0.7,0.9-1.1,2.2-1.1,4.1c0,1.9,0.4,3.3,1.1,4.1
			c0.7,0.9,1.7,1.3,2.8,1.3c0.9,0,1.7-0.3,2.3-0.9S321.3,339.9,321.5,338.7z"/>
		<path d="M324.6,329.9H336v2h-4.5v12.1h-2.4v-12.1h-4.5V329.9z"/>
		<path d="M338.3,329.9h5.5c1.3,0,2.3,0.1,3,0.3c0.7,0.2,1.2,0.6,1.7,1.2c0.5,0.6,0.7,1.3,0.7,2.2c0,0.7-0.1,1.3-0.4,1.7
			c-0.3,0.5-0.7,0.9-1.2,1.2c0.7,0.2,1.2,0.6,1.6,1.2s0.7,1.3,0.7,2.1c-0.1,1.3-0.6,2.3-1.4,3s-2.1,1-3.8,1h-6.3V329.9z
			 M340.7,335.8h2.5c1,0,1.7-0.1,2.1-0.2c0.4-0.1,0.7-0.3,1-0.6s0.4-0.7,0.4-1.2c0-0.7-0.3-1.3-0.8-1.5c-0.5-0.3-1.4-0.4-2.7-0.4
			h-2.6V335.8z M340.7,341.9h3.1c1.3,0,2.3-0.2,2.8-0.5s0.8-0.9,0.8-1.6c0-0.4-0.1-0.9-0.4-1.2s-0.7-0.6-1.1-0.7
			c-0.5-0.1-1.2-0.2-2.2-0.2h-2.9V341.9z"/>
		<path d="M351.9,349.3l-0.3-2.2c0.5,0.1,1,0.2,1.4,0.2c0.5,0,1-0.1,1.3-0.3c0.3-0.2,0.6-0.4,0.8-0.7c0.1-0.2,0.4-0.8,0.7-1.8
			c0-0.1,0.1-0.3,0.2-0.6l-5.3-14h2.6l2.9,8.1c0.4,1,0.7,2.1,1,3.2c0.3-1.1,0.6-2.2,1-3.2l3-8.2h2.4l-5.3,14.3
			c-0.6,1.5-1,2.6-1.3,3.2c-0.4,0.8-0.9,1.4-1.5,1.7c-0.5,0.4-1.2,0.5-2,0.5C353,349.6,352.5,349.5,351.9,349.3z"/>
		<path d="M365.6,329.9h2.4v5.9h2.9c0.2-2,0.8-3.5,1.9-4.6c1-1.1,2.4-1.6,4.1-1.6c1.4,0,2.5,0.3,3.4,0.9s1.5,1.4,2,2.4
			c0.5,1,0.8,2.4,0.8,4.1c0,2.4-0.6,4.3-1.7,5.5s-2.6,1.9-4.5,1.9c-1.8,0-3.2-0.6-4.2-1.7s-1.6-2.8-1.8-4.8H368v6.2h-2.4V329.9z
			 M376.9,331.6c-1.2,0-2.1,0.4-2.7,1.3c-0.6,0.9-1,2.1-1,3.8c0,1.9,0.3,3.3,1,4.2c0.7,0.9,1.5,1.3,2.6,1.3c1.1,0,2-0.4,2.7-1.2
			c0.7-0.8,1-2.2,1-4c0-1.8-0.3-3.2-0.9-4.1C379,332,378.1,331.6,376.9,331.6z"/>
		<path d="M384,329.9h11.4v2h-4.5v12.1h-2.4v-12.1H384V329.9z"/>
		<path d="M407,329.9h9.8v12.1h1.5v5.9h-2v-4h-11v4h-2v-5.9h1.3C406.3,339.7,407.1,335.6,407,329.9z M409,331.8
			c-0.2,4.6-0.9,7.9-2.1,10.1h7.5v-10.1H409z"/>
		<path d="M430.5,339.4l2.5,0.3c-0.4,1.4-1.1,2.5-2.2,3.3c-1,0.8-2.4,1.2-4,1.2c-2.1,0-3.7-0.6-4.9-1.9c-1.2-1.3-1.8-3-1.8-5.3
			c0-2.4,0.6-4.2,1.8-5.5c1.2-1.3,2.8-2,4.7-2c1.9,0,3.4,0.6,4.6,1.9s1.8,3.1,1.8,5.4c0,0.1,0,0.4,0,0.6h-10.5
			c0.1,1.5,0.5,2.7,1.3,3.5c0.8,0.8,1.8,1.2,2.9,1.2c0.9,0,1.6-0.2,2.2-0.7C429.7,341.1,430.1,340.4,430.5,339.4z M422.7,335.5h7.8
			c-0.1-1.2-0.4-2.1-0.9-2.7c-0.8-0.9-1.7-1.4-2.9-1.4c-1.1,0-2,0.4-2.8,1.1S422.8,334.3,422.7,335.5z"/>
		<path d="M433.8,329.9h11.4v2h-4.5v12.1h-2.4v-12.1h-4.5V329.9z"/>
		<path d="M447.4,329.9h2.4v10.7l6.6-10.7h2.6v14h-2.4v-10.6l-6.6,10.6h-2.6V329.9z"/>
		<path d="M463.2,343.9v-2.7h2.7v2.7c0,1-0.2,1.8-0.5,2.4c-0.4,0.6-0.9,1.1-1.7,1.4l-0.7-1c0.5-0.2,0.9-0.5,1.1-1
			c0.2-0.4,0.4-1,0.4-1.8H463.2z"/>
		<path d="M477.6,329.9h11.1v14h-2.4v-12.1h-6.3v12.1h-2.4V329.9z"/>
		<path d="M491.3,336.9c0-2.6,0.7-4.5,2.2-5.8c1.2-1,2.7-1.6,4.4-1.6c1.9,0,3.5,0.6,4.7,1.9c1.2,1.3,1.8,3,1.8,5.2
			c0,1.8-0.3,3.2-0.8,4.3c-0.5,1-1.3,1.8-2.4,2.4c-1,0.6-2.2,0.9-3.4,0.9c-2,0-3.5-0.6-4.8-1.9C491.9,341.1,491.3,339.2,491.3,336.9
			z M493.8,336.9c0,1.8,0.4,3.1,1.2,4c0.8,0.9,1.8,1.3,3,1.3c1.2,0,2.2-0.4,2.9-1.3c0.8-0.9,1.2-2.3,1.2-4.1c0-1.7-0.4-3-1.2-3.9
			s-1.8-1.3-2.9-1.3c-1.2,0-2.2,0.4-3,1.3C494.1,333.7,493.8,335.1,493.8,336.9z"/>
		<path d="M516.4,338.7l2.3,0.3c-0.3,1.6-0.9,2.9-2,3.8s-2.3,1.4-3.9,1.4c-1.9,0-3.5-0.6-4.6-1.9c-1.2-1.3-1.7-3.1-1.7-5.4
			c0-1.5,0.3-2.8,0.8-4c0.5-1.1,1.3-2,2.3-2.6c1-0.6,2.1-0.9,3.3-0.9c1.5,0,2.8,0.4,3.7,1.2c1,0.8,1.6,1.9,1.9,3.3l-2.3,0.4
			c-0.2-0.9-0.6-1.7-1.2-2.1c-0.6-0.5-1.2-0.7-2-0.7c-1.2,0-2.2,0.4-2.9,1.3c-0.7,0.9-1.1,2.2-1.1,4.1c0,1.9,0.4,3.3,1.1,4.1
			c0.7,0.9,1.7,1.3,2.8,1.3c0.9,0,1.7-0.3,2.3-0.9S516.2,339.9,516.4,338.7z"/>
		<path d="M519.5,329.9h11.4v2h-4.5v12.1H524v-12.1h-4.5V329.9z"/>
		<path d="M533.3,349.3l-0.3-2.2c0.5,0.1,1,0.2,1.4,0.2c0.5,0,1-0.1,1.3-0.3c0.3-0.2,0.6-0.4,0.8-0.7c0.1-0.2,0.4-0.8,0.7-1.8
			c0-0.1,0.1-0.3,0.2-0.6l-5.3-14h2.6l2.9,8.1c0.4,1,0.7,2.1,1,3.2c0.3-1.1,0.6-2.2,1-3.2l3-8.2h2.4l-5.3,14.3
			c-0.6,1.5-1,2.6-1.3,3.2c-0.4,0.8-0.9,1.4-1.5,1.7c-0.5,0.4-1.2,0.5-2,0.5C534.4,349.6,533.9,349.5,533.3,349.3z"/>
		<path d="M547,329.9H558v14h-2.4v-12.1h-6.3v12.1H547V329.9z"/>
		<path d="M570.8,342.2c-0.9,0.7-1.7,1.3-2.5,1.6c-0.8,0.3-1.7,0.5-2.6,0.5c-1.5,0-2.7-0.4-3.6-1.1c-0.8-0.8-1.2-1.7-1.2-2.9
			c0-0.7,0.2-1.3,0.5-1.9c0.3-0.6,0.7-1,1.2-1.4c0.5-0.3,1.1-0.6,1.7-0.8c0.5-0.1,1.2-0.2,2.1-0.4c1.9-0.2,3.3-0.5,4.2-0.8
			c0-0.3,0-0.5,0-0.6c0-1-0.2-1.7-0.7-2c-0.6-0.5-1.5-0.8-2.7-0.8c-1.1,0-1.9,0.2-2.5,0.6c-0.5,0.4-0.9,1.1-1.2,2.1l-2.3-0.3
			c0.2-1,0.6-1.8,1-2.4c0.5-0.6,1.2-1.1,2.1-1.4s2-0.5,3.2-0.5c1.2,0,2.2,0.1,2.9,0.4c0.7,0.3,1.3,0.6,1.6,1.1
			c0.4,0.4,0.6,1,0.7,1.6c0.1,0.4,0.1,1.1,0.1,2.2v3.2c0,2.2,0.1,3.6,0.2,4.2c0.1,0.6,0.3,1.1,0.6,1.7h-2.5
			C571,343.4,570.8,342.8,570.8,342.2z M570.6,336.8c-0.9,0.4-2.2,0.7-3.9,0.9c-1,0.1-1.7,0.3-2.1,0.5c-0.4,0.2-0.7,0.4-0.9,0.8
			c-0.2,0.3-0.3,0.7-0.3,1.1c0,0.6,0.2,1.2,0.7,1.6c0.5,0.4,1.2,0.6,2.1,0.6c0.9,0,1.7-0.2,2.4-0.6s1.2-0.9,1.6-1.6
			c0.3-0.5,0.4-1.3,0.4-2.4V336.8z"/>
		<path d="M576.7,329.9h2.4v5.9h2.9c0.2-2,0.8-3.5,1.9-4.6c1-1.1,2.4-1.6,4.1-1.6c1.4,0,2.5,0.3,3.4,0.9s1.5,1.4,2,2.4
			c0.5,1,0.8,2.4,0.8,4.1c0,2.4-0.6,4.3-1.7,5.5s-2.6,1.9-4.5,1.9c-1.8,0-3.2-0.6-4.2-1.7s-1.6-2.8-1.8-4.8H579v6.2h-2.4V329.9z
			 M588,331.6c-1.2,0-2.1,0.4-2.7,1.3c-0.6,0.9-1,2.1-1,3.8c0,1.9,0.3,3.3,1,4.2c0.7,0.9,1.5,1.3,2.6,1.3c1.1,0,2-0.4,2.7-1.2
			c0.7-0.8,1-2.2,1-4c0-1.8-0.3-3.2-0.9-4.1C590.1,332,589.2,331.6,588,331.6z"/>
		<path d="M597,329.9h2.4v12.1h5.4v-12.1h2.4v12.1h5.4v-12.1h2.4v12.1h1.6v5.9h-2v-4H597V329.9z"/>
		<path d="M619.2,329.9h2.4v10.7l6.6-10.7h2.6v14h-2.4v-10.6l-6.6,10.6h-2.6V329.9z"/>
		<path d="M643.9,339.4l2.5,0.3c-0.4,1.4-1.1,2.5-2.2,3.3c-1,0.8-2.4,1.2-4,1.2c-2.1,0-3.7-0.6-4.9-1.9c-1.2-1.3-1.8-3-1.8-5.3
			c0-2.4,0.6-4.2,1.8-5.5c1.2-1.3,2.8-2,4.7-2c1.9,0,3.4,0.6,4.6,1.9s1.8,3.1,1.8,5.4c0,0.1,0,0.4,0,0.6h-10.5
			c0.1,1.5,0.5,2.7,1.3,3.5c0.8,0.8,1.8,1.2,2.9,1.2c0.9,0,1.6-0.2,2.2-0.7C643,341.1,643.5,340.4,643.9,339.4z M636.1,335.5h7.8
			c-0.1-1.2-0.4-2.1-0.9-2.7c-0.8-0.9-1.7-1.4-2.9-1.4c-1.1,0-2,0.4-2.8,1.1C636.6,333.3,636.1,334.3,636.1,335.5z"/>
		<path d="M656.8,329.9h5.5c1.3,0,2.3,0.1,3,0.3c0.7,0.2,1.2,0.6,1.7,1.2s0.7,1.3,0.7,2.2c0,0.7-0.1,1.3-0.4,1.7
			c-0.3,0.5-0.7,0.9-1.2,1.2c0.7,0.2,1.2,0.6,1.6,1.2s0.7,1.3,0.7,2.1c-0.1,1.3-0.6,2.3-1.4,3s-2.1,1-3.8,1h-6.3V329.9z
			 M659.2,335.8h2.5c1,0,1.7-0.1,2.1-0.2c0.4-0.1,0.7-0.3,1-0.6c0.3-0.3,0.4-0.7,0.4-1.2c0-0.7-0.3-1.3-0.8-1.5
			c-0.5-0.3-1.4-0.4-2.7-0.4h-2.6V335.8z M659.2,341.9h3.1c1.3,0,2.3-0.2,2.8-0.5s0.8-0.9,0.8-1.6c0-0.4-0.1-0.9-0.4-1.2
			s-0.7-0.6-1.1-0.7c-0.5-0.1-1.2-0.2-2.2-0.2h-2.9V341.9z"/>
		<path d="M678.8,329.9h2.4v12.1h5.4v-12.1h2.4v12.1h5.4v-12.1h2.4v14h-18V329.9z"/>
		<path d="M700.4,329.9h2.4v6.1c0.8,0,1.3-0.1,1.6-0.4c0.3-0.3,0.8-1.1,1.3-2.5c0.5-1.1,0.8-1.8,1.1-2.2c0.3-0.4,0.6-0.6,1-0.7
			c0.4-0.1,1-0.2,1.8-0.2h0.5v2l-0.7,0c-0.6,0-1,0.1-1.2,0.3c-0.2,0.2-0.5,0.8-0.8,1.7c-0.4,0.9-0.7,1.5-1,1.9
			c-0.3,0.4-0.8,0.7-1.4,1c1,0.3,2,1.2,3,2.9l2.6,4.3H708l-2.5-4.3c-0.5-0.9-1-1.4-1.4-1.7c-0.4-0.3-0.8-0.4-1.4-0.4v6.5h-2.4V329.9
			z"/>
		<path d="M711.6,336.9c0-2.6,0.7-4.5,2.2-5.8c1.2-1,2.7-1.6,4.4-1.6c1.9,0,3.5,0.6,4.7,1.9c1.2,1.3,1.8,3,1.8,5.2
			c0,1.8-0.3,3.2-0.8,4.3c-0.5,1-1.3,1.8-2.4,2.4c-1,0.6-2.2,0.9-3.4,0.9c-2,0-3.5-0.6-4.8-1.9S711.6,339.2,711.6,336.9z
			 M714.1,336.9c0,1.8,0.4,3.1,1.2,4c0.8,0.9,1.8,1.3,3,1.3c1.2,0,2.2-0.4,2.9-1.3c0.8-0.9,1.2-2.3,1.2-4.1c0-1.7-0.4-3-1.2-3.9
			c-0.8-0.9-1.8-1.3-2.9-1.3c-1.2,0-2.2,0.4-3,1.3C714.5,333.7,714.1,335.1,714.1,336.9z"/>
		<path d="M728.1,329.9h11v14h-2.4v-12.1h-6.3v7c0,1.6-0.1,2.7-0.2,3.2c-0.1,0.5-0.4,1-0.9,1.4c-0.5,0.4-1.2,0.6-2.1,0.6
			c-0.6,0-1.2,0-1.9-0.1v-2h1c0.5,0,0.8-0.1,1.1-0.2c0.2-0.1,0.4-0.3,0.4-0.5c0.1-0.2,0.1-0.9,0.1-2.2V329.9z"/>
		<path d="M742.6,349.3l-0.3-2.2c0.5,0.1,1,0.2,1.4,0.2c0.5,0,1-0.1,1.3-0.3c0.3-0.2,0.6-0.4,0.8-0.7c0.2-0.2,0.4-0.8,0.7-1.8
			c0-0.1,0.1-0.3,0.2-0.6l-5.3-14h2.6l2.9,8.1c0.4,1,0.7,2.1,1,3.2c0.3-1.1,0.6-2.2,1-3.2l3-8.2h2.4l-5.3,14.3
			c-0.6,1.5-1,2.6-1.3,3.2c-0.4,0.8-0.9,1.4-1.5,1.7s-1.2,0.5-2,0.5C743.7,349.6,743.2,349.5,742.6,349.3z"/>
		<path d="M756.9,332.6v-2.7h2.7v2.7H756.9z M756.9,343.9v-2.7h2.7v2.7H756.9z"/>
		<path d="M782.9,329.3l-2.4,0.2c-0.2-0.9-0.5-1.6-0.9-2c-0.6-0.7-1.4-1-2.4-1c-0.8,0-1.4,0.2-2,0.6c-0.7,0.5-1.3,1.3-1.8,2.4
			c-0.4,1-0.7,2.5-0.7,4.5c0.6-0.9,1.3-1.5,2.1-1.9c0.8-0.4,1.7-0.6,2.6-0.6c1.6,0,2.9,0.6,4,1.8s1.7,2.7,1.7,4.5
			c0,1.2-0.3,2.3-0.8,3.4s-1.2,1.8-2.2,2.4c-0.9,0.6-2,0.8-3.1,0.8c-2,0-3.6-0.7-4.8-2.2c-1.3-1.5-1.9-3.9-1.9-7.2
			c0-3.7,0.7-6.5,2.1-8.2c1.2-1.5,2.8-2.2,4.9-2.2c1.5,0,2.8,0.4,3.7,1.3C782.2,326.6,782.8,327.8,782.9,329.3z M773.2,337.6
			c0,0.8,0.2,1.6,0.5,2.4s0.8,1.3,1.5,1.7s1.3,0.6,2,0.6c1,0,1.9-0.4,2.6-1.2c0.7-0.8,1.1-1.9,1.1-3.3c0-1.3-0.4-2.4-1.1-3.2
			s-1.6-1.2-2.7-1.2c-1.1,0-2,0.4-2.7,1.2C773.6,335.4,773.2,336.4,773.2,337.6z"/>
		<path d="M785.4,338.1v-2.4h7.3v2.4H785.4z"/>
		<path d="M794.8,327.1v-2.3h12.5v1.8c-1.2,1.3-2.5,3.1-3.7,5.2s-2.1,4.4-2.8,6.7c-0.5,1.6-0.8,3.4-0.9,5.3h-2.4
			c0-1.5,0.3-3.4,0.9-5.5s1.4-4.2,2.5-6.2c1.1-2,2.2-3.7,3.4-5.1H794.8z"/>
		<path d="M819,329.9h11v14h-2.4v-12.1h-6.3v7c0,1.6-0.1,2.7-0.2,3.2c-0.1,0.5-0.4,1-0.9,1.4c-0.5,0.4-1.2,0.6-2.1,0.6
			c-0.6,0-1.2,0-1.9-0.1v-2h1c0.5,0,0.8-0.1,1.1-0.2c0.2-0.1,0.4-0.3,0.4-0.5c0.1-0.2,0.1-0.9,0.1-2.2V329.9z"/>
		<path d="M843.2,339.4l2.5,0.3c-0.4,1.4-1.1,2.5-2.2,3.3c-1,0.8-2.4,1.2-4,1.2c-2.1,0-3.7-0.6-4.9-1.9c-1.2-1.3-1.8-3-1.8-5.3
			c0-2.4,0.6-4.2,1.8-5.5c1.2-1.3,2.8-2,4.7-2c1.9,0,3.4,0.6,4.6,1.9s1.8,3.1,1.8,5.4c0,0.1,0,0.4,0,0.6h-10.5
			c0.1,1.5,0.5,2.7,1.3,3.5c0.8,0.8,1.8,1.2,2.9,1.2c0.9,0,1.6-0.2,2.2-0.7C842.4,341.1,842.9,340.4,843.2,339.4z M835.4,335.5h7.8
			c-0.1-1.2-0.4-2.1-0.9-2.7c-0.8-0.9-1.7-1.4-2.9-1.4c-1.1,0-2,0.4-2.8,1.1C835.9,333.3,835.5,334.3,835.4,335.5z"/>
		<path d="M846.5,329.9h11.4v2h-4.5v12.1H851v-12.1h-4.5V329.9z"/>
		<path d="M857.8,343.9v-2.7h2.7v2.7c0,1-0.2,1.8-0.5,2.4c-0.4,0.6-0.9,1.1-1.7,1.4l-0.7-1c0.5-0.2,0.9-0.5,1.1-1
			c0.2-0.4,0.4-1,0.4-1.8H857.8z"/>
		<path d="M269.8,362.3h2.4v12.1h5.4v-12.1h2.4v12.1h5.4v-12.1h2.4v14h-18V362.3z"/>
		<path d="M291.4,362.3h2.4v6.1c0.8,0,1.3-0.1,1.6-0.4c0.3-0.3,0.8-1.1,1.3-2.5c0.5-1.1,0.8-1.8,1.1-2.2c0.3-0.4,0.6-0.6,1-0.7
			c0.4-0.1,1-0.2,1.8-0.2h0.5v2l-0.7,0c-0.6,0-1,0.1-1.2,0.3c-0.2,0.2-0.5,0.8-0.8,1.7c-0.4,0.9-0.7,1.5-1,1.9
			c-0.3,0.4-0.8,0.7-1.4,1c1,0.3,2,1.2,3,2.9l2.6,4.3h-2.6l-2.5-4.3c-0.5-0.9-1-1.4-1.4-1.7s-0.8-0.4-1.4-0.4v6.5h-2.4V362.3z"/>
		<path d="M302.7,369.3c0-2.6,0.7-4.5,2.2-5.8c1.2-1,2.7-1.6,4.4-1.6c1.9,0,3.5,0.6,4.7,1.9c1.2,1.3,1.8,3,1.8,5.2
			c0,1.8-0.3,3.2-0.8,4.3c-0.5,1-1.3,1.8-2.4,2.4c-1,0.6-2.2,0.9-3.4,0.9c-2,0-3.5-0.6-4.8-1.9C303.3,373.5,302.7,371.7,302.7,369.3
			z M305.1,369.3c0,1.8,0.4,3.1,1.2,4c0.8,0.9,1.8,1.3,3,1.3c1.2,0,2.2-0.4,2.9-1.3c0.8-0.9,1.2-2.3,1.2-4.1c0-1.7-0.4-3-1.2-3.9
			s-1.8-1.3-2.9-1.3c-1.2,0-2.2,0.4-3,1.3C305.5,366.2,305.1,367.5,305.1,369.3z"/>
		<path d="M319.1,362.3h11v14h-2.4v-12.1h-6.3v7c0,1.6-0.1,2.7-0.2,3.2c-0.1,0.5-0.4,1-0.9,1.4c-0.5,0.4-1.2,0.6-2.1,0.6
			c-0.6,0-1.2,0-1.9-0.1v-2h1c0.5,0,0.8-0.1,1.1-0.2c0.2-0.1,0.4-0.3,0.4-0.5s0.1-0.9,0.1-2.2V362.3z"/>
		<path d="M333.7,362.3h2.4v5.5h3c2,0,3.5,0.4,4.5,1.1c1.1,0.8,1.6,1.8,1.6,3.1c0,1.2-0.4,2.2-1.3,3c-0.9,0.8-2.3,1.2-4.2,1.2h-5.9
			V362.3z M336.1,374.4h2.5c1.5,0,2.6-0.2,3.2-0.6c0.6-0.4,1-0.9,1-1.7c0-0.6-0.2-1.1-0.7-1.6c-0.5-0.5-1.5-0.7-3.2-0.7h-2.8V374.4z
			"/>
		<path d="M347.9,362.3h2.4v5.8h6.6v-5.8h2.4v14h-2.4v-6.2h-6.6v6.2h-2.4V362.3z"/>
		<path d="M362.8,362.3h2.4V373l6.6-10.7h2.6v14h-2.4v-10.6l-6.6,10.6h-2.6V362.3z"/>
		<path d="M377.9,362.3h2.4v6.1c0.8,0,1.3-0.1,1.6-0.4c0.3-0.3,0.8-1.1,1.3-2.5c0.5-1.1,0.8-1.8,1.1-2.2c0.3-0.4,0.6-0.6,1-0.7
			c0.4-0.1,1-0.2,1.8-0.2h0.5v2l-0.7,0c-0.6,0-1,0.1-1.2,0.3c-0.2,0.2-0.5,0.8-0.8,1.7c-0.4,0.9-0.7,1.5-1,1.9
			c-0.3,0.4-0.8,0.7-1.4,1c1,0.3,2,1.2,3,2.9l2.6,4.3h-2.6L383,372c-0.5-0.9-1-1.4-1.4-1.7s-0.8-0.4-1.4-0.4v6.5h-2.4V362.3z"/>
		<path d="M389.7,362.3h2.4V373l6.6-10.7h2.6v14h-2.4v-10.6l-6.6,10.6h-2.6V362.3z"/>
		<path d="M429,371.2l2.3,0.3c-0.3,1.6-0.9,2.9-2,3.8s-2.3,1.4-3.9,1.4c-1.9,0-3.5-0.6-4.6-1.9c-1.2-1.3-1.7-3.1-1.7-5.4
			c0-1.5,0.3-2.8,0.8-4c0.5-1.1,1.3-2,2.3-2.6c1-0.6,2.1-0.9,3.3-0.9c1.5,0,2.8,0.4,3.7,1.2c1,0.8,1.6,1.9,1.9,3.3l-2.3,0.4
			c-0.2-0.9-0.6-1.7-1.2-2.1c-0.6-0.5-1.2-0.7-2-0.7c-1.2,0-2.2,0.4-2.9,1.3c-0.7,0.9-1.1,2.2-1.1,4.1c0,1.9,0.4,3.3,1.1,4.1
			c0.7,0.9,1.7,1.3,2.8,1.3c0.9,0,1.7-0.3,2.3-0.9S428.8,372.4,429,371.2z"/>
		<path d="M440.9,362.3h2.4v5.8h6.6v-5.8h2.4v14h-2.4v-6.2h-6.6v6.2h-2.4V362.3z"/>
		<path d="M455.8,362.3h2.4V373l6.6-10.7h2.6v14h-2.4v-10.6l-6.6,10.6h-2.6V362.3z"/>
		<path d="M474,370v-1.9c1,0,1.7,0,2.1-0.1s0.7-0.3,1-0.6c0.3-0.4,0.5-0.8,0.5-1.3c0-0.6-0.2-1.2-0.6-1.5s-1-0.6-1.7-0.6
			c-1.3,0-2.3,0.8-2.8,2.4l-2.3-0.4c0.7-2.6,2.4-3.9,5.1-3.9c1.5,0,2.7,0.4,3.5,1.2c0.8,0.8,1.3,1.8,1.3,2.9c0,1.1-0.6,2.1-1.7,2.7
			c0.7,0.4,1.2,0.9,1.6,1.4c0.4,0.6,0.5,1.3,0.5,2.1c0,1.3-0.5,2.3-1.4,3.1c-0.9,0.8-2.2,1.2-3.8,1.2c-3.2,0-5-1.4-5.6-4.3l2.2-0.5
			c0.2,0.9,0.6,1.6,1.2,2.1c0.6,0.5,1.3,0.7,2.1,0.7s1.5-0.2,2-0.7s0.8-1,0.8-1.7c0-0.5-0.2-1-0.5-1.4c-0.3-0.4-0.7-0.7-1.1-0.8
			c-0.4-0.1-1.1-0.2-2.1-0.2C474.5,370,474.3,370,474,370z"/>
		<path d="M483.3,362.3h2.4v6.1c0.8,0,1.3-0.1,1.6-0.4c0.3-0.3,0.8-1.1,1.3-2.5c0.5-1.1,0.8-1.8,1.1-2.2c0.3-0.4,0.6-0.6,1-0.7
			c0.4-0.1,1-0.2,1.8-0.2h0.5v2l-0.7,0c-0.6,0-1,0.1-1.2,0.3c-0.2,0.2-0.5,0.8-0.8,1.7c-0.4,0.9-0.7,1.5-1,1.9
			c-0.3,0.4-0.8,0.7-1.4,1c1,0.3,2,1.2,3,2.9l2.6,4.3h-2.6l-2.5-4.3c-0.5-0.9-1-1.4-1.4-1.7s-0.8-0.4-1.4-0.4v6.5h-2.4V362.3z"/>
		<path d="M494.5,369.3c0-2.6,0.7-4.5,2.2-5.8c1.2-1,2.7-1.6,4.4-1.6c1.9,0,3.5,0.6,4.7,1.9c1.2,1.3,1.8,3,1.8,5.2
			c0,1.8-0.3,3.2-0.8,4.3c-0.5,1-1.3,1.8-2.4,2.4c-1,0.6-2.2,0.9-3.4,0.9c-2,0-3.5-0.6-4.8-1.9C495.2,373.5,494.5,371.7,494.5,369.3
			z M497,369.3c0,1.8,0.4,3.1,1.2,4c0.8,0.9,1.8,1.3,3,1.3c1.2,0,2.2-0.4,2.9-1.3c0.8-0.9,1.2-2.3,1.2-4.1c0-1.7-0.4-3-1.2-3.9
			s-1.8-1.3-2.9-1.3c-1.2,0-2.2,0.4-3,1.3C497.4,366.2,497,367.5,497,369.3z"/>
		<path d="M510.5,362.3h2.4V373l6.6-10.7h2.6v14h-2.4v-10.6l-6.6,10.6h-2.6V362.3z M518.7,357h1.6c-0.1,1.1-0.5,1.9-1.2,2.5
			s-1.6,0.9-2.7,0.9c-1.1,0-2-0.3-2.7-0.9c-0.7-0.6-1.1-1.4-1.2-2.5h1.6c0.1,0.6,0.4,1,0.7,1.3c0.4,0.3,0.9,0.4,1.5,0.4
			c0.7,0,1.3-0.1,1.6-0.4S518.6,357.6,518.7,357z"/>
		<path d="M533.1,362.3h2.4V373l6.6-10.7h2.6v14h-2.4v-10.6l-6.6,10.6h-2.6V362.3z"/>
		<path d="M564.8,371.2l2.3,0.3c-0.3,1.6-0.9,2.9-2,3.8s-2.3,1.4-3.9,1.4c-1.9,0-3.5-0.6-4.6-1.9c-1.2-1.3-1.7-3.1-1.7-5.4
			c0-1.5,0.3-2.8,0.8-4c0.5-1.1,1.3-2,2.3-2.6c1-0.6,2.1-0.9,3.3-0.9c1.5,0,2.8,0.4,3.7,1.2c1,0.8,1.6,1.9,1.9,3.3l-2.3,0.4
			c-0.2-0.9-0.6-1.7-1.2-2.1c-0.6-0.5-1.2-0.7-2-0.7c-1.2,0-2.2,0.4-2.9,1.3c-0.7,0.9-1.1,2.2-1.1,4.1c0,1.9,0.4,3.3,1.1,4.1
			c0.7,0.9,1.7,1.3,2.8,1.3c0.9,0,1.7-0.3,2.3-0.9S564.7,372.4,564.8,371.2z"/>
		<path d="M575.1,376.3l5.1-7.3l-4.7-6.7h3l2.2,3.3c0.4,0.6,0.7,1.1,1,1.6c0.4-0.6,0.7-1.1,1.1-1.5l2.4-3.3h2.8l-4.8,6.6l5.2,7.4
			h-2.9l-2.9-4.4l-0.8-1.2l-3.7,5.5H575.1z"/>
		<path d="M589.1,369.3c0-2.6,0.7-4.5,2.2-5.8c1.2-1,2.7-1.6,4.4-1.6c1.9,0,3.5,0.6,4.7,1.9c1.2,1.3,1.8,3,1.8,5.2
			c0,1.8-0.3,3.2-0.8,4.3c-0.5,1-1.3,1.8-2.4,2.4c-1,0.6-2.2,0.9-3.4,0.9c-2,0-3.5-0.6-4.8-1.9C589.7,373.5,589.1,371.7,589.1,369.3
			z M591.5,369.3c0,1.8,0.4,3.1,1.2,4c0.8,0.9,1.8,1.3,3,1.3c1.2,0,2.2-0.4,2.9-1.3c0.8-0.9,1.2-2.3,1.2-4.1c0-1.7-0.4-3-1.2-3.9
			s-1.8-1.3-2.9-1.3c-1.2,0-2.2,0.4-3,1.3C591.9,366.2,591.5,367.5,591.5,369.3z"/>
		<path d="M605,381.7v-19.4h2.2v1.8c0.5-0.7,1.1-1.2,1.7-1.6s1.4-0.5,2.3-0.5c1.2,0,2.3,0.3,3.2,0.9c0.9,0.6,1.6,1.5,2.1,2.6
			s0.7,2.4,0.7,3.7c0,1.4-0.3,2.7-0.8,3.9c-0.5,1.1-1.3,2-2.2,2.6s-2,0.9-3.1,0.9c-0.8,0-1.5-0.2-2.1-0.5c-0.6-0.3-1.1-0.8-1.6-1.3
			v6.8H605z M607.1,369.4c0,1.8,0.4,3.1,1.1,4s1.6,1.3,2.7,1.3c1.1,0,2-0.4,2.7-1.3c0.8-0.9,1.1-2.3,1.1-4.2c0-1.8-0.4-3.1-1.1-4
			c-0.7-0.9-1.6-1.3-2.6-1.3c-1,0-1.9,0.5-2.7,1.4S607.1,367.6,607.1,369.4z"/>
		<path d="M619.1,369.3c0-2.6,0.7-4.5,2.2-5.8c1.2-1,2.7-1.6,4.4-1.6c1.9,0,3.5,0.6,4.7,1.9c1.2,1.3,1.8,3,1.8,5.2
			c0,1.8-0.3,3.2-0.8,4.3c-0.5,1-1.3,1.8-2.4,2.4c-1,0.6-2.2,0.9-3.4,0.9c-2,0-3.5-0.6-4.8-1.9S619.1,371.7,619.1,369.3z
			 M621.6,369.3c0,1.8,0.4,3.1,1.2,4c0.8,0.9,1.8,1.3,3,1.3c1.2,0,2.2-0.4,2.9-1.3c0.8-0.9,1.2-2.3,1.2-4.1c0-1.7-0.4-3-1.2-3.9
			c-0.8-0.9-1.8-1.3-2.9-1.3c-1.2,0-2.2,0.4-3,1.3C622,366.2,621.6,367.5,621.6,369.3z"/>
		<path d="M635.1,362.3h2.4v12.1h5.4v-12.1h2.4v12.1h5.4v-12.1h2.4v14h-18V362.3z"/>
		<path d="M666.3,371.8l2.5,0.3c-0.4,1.4-1.1,2.5-2.2,3.3c-1,0.8-2.4,1.2-4,1.2c-2.1,0-3.7-0.6-4.9-1.9c-1.2-1.3-1.8-3-1.8-5.3
			c0-2.4,0.6-4.2,1.8-5.5c1.2-1.3,2.8-2,4.7-2c1.9,0,3.4,0.6,4.6,1.9s1.8,3.1,1.8,5.4c0,0.1,0,0.4,0,0.6h-10.5
			c0.1,1.5,0.5,2.7,1.3,3.5c0.8,0.8,1.8,1.2,2.9,1.2c0.9,0,1.6-0.2,2.2-0.7C665.5,373.5,666,372.8,666.3,371.8z M658.5,368h7.8
			c-0.1-1.2-0.4-2.1-0.9-2.7c-0.8-0.9-1.7-1.4-2.9-1.4c-1.1,0-2,0.4-2.8,1.1C659,365.8,658.6,366.7,658.5,368z"/>
		<path d="M671.8,362.3h2.4V373l6.6-10.7h2.6v14h-2.4v-10.6l-6.6,10.6h-2.6V362.3z M680,357h1.6c-0.1,1.1-0.5,1.9-1.2,2.5
			c-0.7,0.6-1.6,0.9-2.7,0.9c-1.1,0-2-0.3-2.7-0.9c-0.7-0.6-1.1-1.4-1.2-2.5h1.6c0.1,0.6,0.4,1,0.7,1.3c0.4,0.3,0.9,0.4,1.5,0.4
			c0.7,0,1.3-0.1,1.6-0.4S679.9,357.6,680,357z"/>
		<path d="M703.6,371.2l2.3,0.3c-0.3,1.6-0.9,2.9-2,3.8s-2.3,1.4-3.9,1.4c-1.9,0-3.5-0.6-4.6-1.9c-1.2-1.3-1.7-3.1-1.7-5.4
			c0-1.5,0.3-2.8,0.8-4c0.5-1.1,1.3-2,2.3-2.6c1-0.6,2.1-0.9,3.3-0.9c1.5,0,2.8,0.4,3.7,1.2c1,0.8,1.6,1.9,1.9,3.3l-2.3,0.4
			c-0.2-0.9-0.6-1.7-1.2-2.1c-0.6-0.5-1.2-0.7-2-0.7c-1.2,0-2.2,0.4-2.9,1.3c-0.7,0.9-1.1,2.2-1.1,4.1c0,1.9,0.4,3.3,1.1,4.1
			c0.7,0.9,1.7,1.3,2.8,1.3c0.9,0,1.7-0.3,2.3-0.9S703.4,372.4,703.6,371.2z"/>
		<path d="M707.9,362.3h2.4v6.1c0.8,0,1.3-0.1,1.6-0.4c0.3-0.3,0.8-1.1,1.3-2.5c0.5-1.1,0.8-1.8,1.1-2.2c0.3-0.4,0.6-0.6,1-0.7
			c0.4-0.1,1-0.2,1.8-0.2h0.5v2l-0.7,0c-0.6,0-1,0.1-1.2,0.3c-0.2,0.2-0.5,0.8-0.8,1.7c-0.4,0.9-0.7,1.5-1,1.9
			c-0.3,0.4-0.8,0.7-1.4,1c1,0.3,2,1.2,3,2.9l2.6,4.3h-2.6L713,372c-0.5-0.9-1-1.4-1.4-1.7c-0.4-0.3-0.8-0.4-1.4-0.4v6.5h-2.4V362.3
			z"/>
		<path d="M719.2,369.3c0-2.6,0.7-4.5,2.2-5.8c1.2-1,2.7-1.6,4.4-1.6c1.9,0,3.5,0.6,4.7,1.9c1.2,1.3,1.8,3,1.8,5.2
			c0,1.8-0.3,3.2-0.8,4.3c-0.5,1-1.3,1.8-2.4,2.4c-1,0.6-2.2,0.9-3.4,0.9c-2,0-3.5-0.6-4.8-1.9S719.2,371.7,719.2,369.3z
			 M721.6,369.3c0,1.8,0.4,3.1,1.2,4c0.8,0.9,1.8,1.3,3,1.3c1.2,0,2.2-0.4,2.9-1.3c0.8-0.9,1.2-2.3,1.2-4.1c0-1.7-0.4-3-1.2-3.9
			c-0.8-0.9-1.8-1.3-2.9-1.3c-1.2,0-2.2,0.4-3,1.3C722,366.2,721.6,367.5,721.6,369.3z"/>
		<path d="M735.1,381.7v-19.4h2.2v1.8c0.5-0.7,1.1-1.2,1.7-1.6s1.4-0.5,2.3-0.5c1.2,0,2.3,0.3,3.2,0.9c0.9,0.6,1.6,1.5,2.1,2.6
			s0.7,2.4,0.7,3.7c0,1.4-0.3,2.7-0.8,3.9c-0.5,1.1-1.3,2-2.2,2.6s-2,0.9-3.1,0.9c-0.8,0-1.5-0.2-2.1-0.5c-0.6-0.3-1.1-0.8-1.6-1.3
			v6.8H735.1z M737.2,369.4c0,1.8,0.4,3.1,1.1,4s1.6,1.3,2.7,1.3c1.1,0,2-0.4,2.7-1.3c0.8-0.9,1.1-2.3,1.1-4.2c0-1.8-0.4-3.1-1.1-4
			c-0.7-0.9-1.6-1.3-2.6-1.3c-1,0-1.9,0.5-2.7,1.4S737.2,367.6,737.2,369.4z"/>
		<path d="M749.2,369.3c0-2.6,0.7-4.5,2.2-5.8c1.2-1,2.7-1.6,4.4-1.6c1.9,0,3.5,0.6,4.7,1.9c1.2,1.3,1.8,3,1.8,5.2
			c0,1.8-0.3,3.2-0.8,4.3c-0.5,1-1.3,1.8-2.4,2.4c-1,0.6-2.2,0.9-3.4,0.9c-2,0-3.5-0.6-4.8-1.9S749.2,371.7,749.2,369.3z
			 M751.7,369.3c0,1.8,0.4,3.1,1.2,4c0.8,0.9,1.8,1.3,3,1.3c1.2,0,2.2-0.4,2.9-1.3c0.8-0.9,1.2-2.3,1.2-4.1c0-1.7-0.4-3-1.2-3.9
			c-0.8-0.9-1.8-1.3-2.9-1.3c-1.2,0-2.2,0.4-3,1.3C752.1,366.2,751.7,367.5,751.7,369.3z"/>
		<path d="M774.3,371.2l2.3,0.3c-0.3,1.6-0.9,2.9-2,3.8s-2.3,1.4-3.9,1.4c-1.9,0-3.5-0.6-4.6-1.9c-1.2-1.3-1.7-3.1-1.7-5.4
			c0-1.5,0.3-2.8,0.8-4c0.5-1.1,1.3-2,2.3-2.6c1-0.6,2.1-0.9,3.3-0.9c1.5,0,2.8,0.4,3.7,1.2c1,0.8,1.6,1.9,1.9,3.3l-2.3,0.4
			c-0.2-0.9-0.6-1.7-1.2-2.1c-0.6-0.5-1.2-0.7-2-0.7c-1.2,0-2.2,0.4-2.9,1.3c-0.7,0.9-1.1,2.2-1.1,4.1c0,1.9,0.4,3.3,1.1,4.1
			c0.7,0.9,1.7,1.3,2.8,1.3c0.9,0,1.7-0.3,2.3-0.9S774.1,372.4,774.3,371.2z"/>
		<path d="M777.4,362.3h11.4v2h-4.5v12.1h-2.4v-12.1h-4.5V362.3z"/>
		<path d="M791,362.3h2.4v5.5h3c2,0,3.5,0.4,4.5,1.1c1.1,0.8,1.6,1.8,1.6,3.1c0,1.2-0.4,2.2-1.3,3c-0.9,0.8-2.3,1.2-4.2,1.2H791
			V362.3z M793.4,374.4h2.5c1.5,0,2.6-0.2,3.2-0.6c0.6-0.4,1-0.9,1-1.7c0-0.6-0.2-1.1-0.7-1.6c-0.5-0.5-1.5-0.7-3.2-0.7h-2.8V374.4z
			"/>
		<path d="M805.2,362.3h2.4v5.9h2.9c0.2-2,0.8-3.5,1.9-4.6c1-1.1,2.4-1.6,4.1-1.6c1.4,0,2.5,0.3,3.4,0.9s1.5,1.4,2,2.4
			s0.8,2.4,0.8,4.1c0,2.4-0.5,4.3-1.7,5.5c-1.1,1.3-2.6,1.9-4.5,1.9c-1.8,0-3.2-0.6-4.2-1.7c-1.1-1.2-1.7-2.8-1.8-4.8h-2.9v6.2h-2.4
			V362.3z M816.5,364c-1.2,0-2.1,0.4-2.7,1.3c-0.6,0.9-1,2.1-1,3.8c0,1.9,0.3,3.3,1,4.2c0.7,0.9,1.5,1.3,2.6,1.3
			c1.1,0,2-0.4,2.7-1.2c0.7-0.8,1-2.2,1-4c0-1.8-0.3-3.2-0.9-4.1C818.6,364.5,817.7,364,816.5,364z"/>
		<path d="M832.1,362.3h2.4v2.7c0,1.1,0.1,2,0.2,2.5c0.1,0.5,0.5,1,1,1.3s1.2,0.6,2,0.6c0.9,0,2.1-0.2,3.5-0.7v-6.3h2.4v14h-2.4
			v-5.7c-1.5,0.5-2.8,0.7-4.1,0.7c-1.1,0-2-0.3-2.8-0.8c-0.8-0.5-1.4-1.2-1.7-2s-0.4-1.6-0.4-2.6V362.3z"/>
		<path d="M845.8,362.3h11.4v2h-4.5v12.1h-2.4v-12.1h-4.5V362.3z"/>
		<path d="M868.7,371.8l2.5,0.3c-0.4,1.4-1.1,2.5-2.2,3.3c-1,0.8-2.4,1.2-4,1.2c-2.1,0-3.7-0.6-4.9-1.9c-1.2-1.3-1.8-3-1.8-5.3
			c0-2.4,0.6-4.2,1.8-5.5c1.2-1.3,2.8-2,4.7-2c1.9,0,3.4,0.6,4.6,1.9s1.8,3.1,1.8,5.4c0,0.1,0,0.4,0,0.6h-10.5
			c0.1,1.5,0.5,2.7,1.3,3.5c0.8,0.8,1.8,1.2,2.9,1.2c0.9,0,1.6-0.2,2.2-0.7C867.9,373.5,868.3,372.8,868.7,371.8z M860.9,368h7.8
			c-0.1-1.2-0.4-2.1-0.9-2.7c-0.8-0.9-1.7-1.4-2.9-1.4c-1.1,0-2,0.4-2.8,1.1C861.4,365.8,861,366.7,860.9,368z"/>
		<path d="M874.2,362.3h2.4v5.8h6.6v-5.8h2.4v14h-2.4v-6.2h-6.6v6.2h-2.4V362.3z"/>
		<path d="M889.1,362.3h2.4V373l6.6-10.7h2.6v14h-2.4v-10.6l-6.6,10.6h-2.6V362.3z"/>
		<path d="M915.2,362.3v14h-2.4v-5.5h-1.4c-0.8,0-1.5,0.1-1.9,0.3c-0.4,0.2-1,0.9-1.8,2.1l-2.1,3.1h-2.9l2.6-3.8
			c0.8-1.2,1.6-1.8,2.3-2c-1.4-0.2-2.4-0.7-3-1.5c-0.7-0.8-1-1.7-1-2.7c0-1.2,0.4-2.2,1.3-3c0.9-0.8,2.1-1.1,3.7-1.1H915.2z
			 M912.9,364.3h-3.4c-1.4,0-2.3,0.2-2.7,0.7c-0.4,0.4-0.6,1-0.6,1.5c0,0.8,0.3,1.5,0.9,1.8c0.6,0.4,1.7,0.6,3.2,0.6h2.6V364.3z"/>
		<path d="M919.4,376.3v-2.7h2.7v2.7c0,1-0.2,1.8-0.5,2.4c-0.4,0.6-0.9,1.1-1.7,1.4l-0.7-1c0.5-0.2,0.9-0.5,1.1-1
			c0.2-0.4,0.4-1,0.4-1.8H919.4z"/>
		<path d="M269.7,394.8h2.4v6.1c0.8,0,1.3-0.1,1.6-0.4c0.3-0.3,0.8-1.1,1.3-2.5c0.5-1.1,0.8-1.8,1.1-2.2c0.3-0.4,0.6-0.6,1-0.7
			c0.4-0.1,1-0.2,1.8-0.2h0.5v2l-0.7,0c-0.6,0-1,0.1-1.2,0.3c-0.2,0.2-0.5,0.8-0.8,1.7c-0.4,0.9-0.7,1.5-1,1.9
			c-0.3,0.4-0.8,0.7-1.4,1c1,0.3,2,1.2,3,2.9l2.6,4.3h-2.6l-2.5-4.3c-0.5-0.9-1-1.4-1.4-1.7s-0.8-0.4-1.4-0.4v6.5h-2.4V394.8z"/>
		<path d="M281,401.8c0-2.6,0.7-4.5,2.2-5.8c1.2-1,2.7-1.6,4.4-1.6c1.9,0,3.5,0.6,4.7,1.9c1.2,1.3,1.8,3,1.8,5.2
			c0,1.8-0.3,3.2-0.8,4.3c-0.5,1-1.3,1.8-2.4,2.4c-1,0.6-2.2,0.9-3.4,0.9c-2,0-3.5-0.6-4.8-1.9C281.6,405.9,281,404.1,281,401.8z
			 M283.4,401.8c0,1.8,0.4,3.1,1.2,4c0.8,0.9,1.8,1.3,3,1.3c1.2,0,2.2-0.4,2.9-1.3c0.8-0.9,1.2-2.3,1.2-4.1c0-1.7-0.4-3-1.2-3.9
			s-1.8-1.3-2.9-1.3c-1.2,0-2.2,0.4-3,1.3C283.8,398.6,283.4,400,283.4,401.8z"/>
		<path d="M295,394.8h11.4v2h-4.5v12.1h-2.4v-12.1H295V394.8z"/>
		<path d="M307.5,401.8c0-2.6,0.7-4.5,2.2-5.8c1.2-1,2.7-1.6,4.4-1.6c1.9,0,3.5,0.6,4.7,1.9c1.2,1.3,1.8,3,1.8,5.2
			c0,1.8-0.3,3.2-0.8,4.3c-0.5,1-1.3,1.8-2.4,2.4c-1,0.6-2.2,0.9-3.4,0.9c-2,0-3.5-0.6-4.8-1.9C308.1,405.9,307.5,404.1,307.5,401.8
			z M309.9,401.8c0,1.8,0.4,3.1,1.2,4c0.8,0.9,1.8,1.3,3,1.3c1.2,0,2.2-0.4,2.9-1.3c0.8-0.9,1.2-2.3,1.2-4.1c0-1.7-0.4-3-1.2-3.9
			s-1.8-1.3-2.9-1.3c-1.2,0-2.2,0.4-3,1.3C310.3,398.6,309.9,400,309.9,401.8z"/>
		<path d="M323.4,414.1v-19.4h2.2v1.8c0.5-0.7,1.1-1.2,1.7-1.6s1.4-0.5,2.3-0.5c1.2,0,2.3,0.3,3.2,0.9s1.6,1.5,2.1,2.6
			s0.7,2.4,0.7,3.7c0,1.4-0.3,2.7-0.8,3.9c-0.5,1.1-1.3,2-2.2,2.6s-2,0.9-3.1,0.9c-0.8,0-1.5-0.2-2.1-0.5c-0.6-0.3-1.1-0.8-1.6-1.3
			v6.8H323.4z M325.6,401.8c0,1.8,0.4,3.1,1.1,4s1.6,1.3,2.7,1.3c1.1,0,2-0.4,2.7-1.3c0.8-0.9,1.1-2.3,1.1-4.2c0-1.8-0.4-3.1-1.1-4
			c-0.7-0.9-1.6-1.3-2.6-1.3c-1,0-1.9,0.5-2.7,1.4S325.6,400,325.6,401.8z"/>
		<path d="M338.5,394.8h2.4v5.5h3c2,0,3.5,0.4,4.5,1.1c1.1,0.8,1.6,1.8,1.6,3.1c0,1.2-0.4,2.2-1.3,3c-0.9,0.8-2.3,1.2-4.2,1.2h-5.9
			V394.8z M340.9,406.8h2.5c1.5,0,2.6-0.2,3.2-0.6c0.6-0.4,1-0.9,1-1.7c0-0.6-0.2-1.1-0.7-1.6c-0.5-0.5-1.5-0.7-3.2-0.7h-2.8V406.8z
			 M351.8,394.8h2.4v14h-2.4V394.8z"/>
		<path d="M367.5,404.3l2.5,0.3c-0.4,1.4-1.1,2.5-2.2,3.3c-1,0.8-2.4,1.2-4,1.2c-2.1,0-3.7-0.6-4.9-1.9c-1.2-1.3-1.8-3-1.8-5.3
			c0-2.4,0.6-4.2,1.8-5.5c1.2-1.3,2.8-2,4.7-2c1.9,0,3.4,0.6,4.6,1.9c1.2,1.3,1.8,3.1,1.8,5.4c0,0.1,0,0.4,0,0.6h-10.5
			c0.1,1.5,0.5,2.7,1.3,3.5c0.8,0.8,1.8,1.2,2.9,1.2c0.9,0,1.6-0.2,2.2-0.7C366.6,406,367.1,405.3,367.5,404.3z M359.7,400.4h7.8
			c-0.1-1.2-0.4-2.1-0.9-2.7c-0.8-0.9-1.7-1.4-2.9-1.4c-1.1,0-2,0.4-2.8,1.1S359.8,399.2,359.7,400.4z"/>
		<path d="M378.8,408.8l5.1-7.3l-4.7-6.7h3l2.2,3.3c0.4,0.6,0.7,1.1,1,1.6c0.4-0.6,0.7-1.1,1.1-1.5l2.4-3.3h2.8l-4.8,6.6l5.2,7.4
			H389l-2.9-4.4l-0.8-1.2l-3.7,5.5H378.8z"/>
		<path d="M392.8,401.8c0-2.6,0.7-4.5,2.2-5.8c1.2-1,2.7-1.6,4.4-1.6c1.9,0,3.5,0.6,4.7,1.9c1.2,1.3,1.8,3,1.8,5.2
			c0,1.8-0.3,3.2-0.8,4.3c-0.5,1-1.3,1.8-2.4,2.4c-1,0.6-2.2,0.9-3.4,0.9c-2,0-3.5-0.6-4.8-1.9C393.4,405.9,392.8,404.1,392.8,401.8
			z M395.2,401.8c0,1.8,0.4,3.1,1.2,4c0.8,0.9,1.8,1.3,3,1.3c1.2,0,2.2-0.4,2.9-1.3c0.8-0.9,1.2-2.3,1.2-4.1c0-1.7-0.4-3-1.2-3.9
			s-1.8-1.3-2.9-1.3c-1.2,0-2.2,0.4-3,1.3C395.6,398.6,395.2,400,395.2,401.8z"/>
		<path d="M406.8,394.8h11.4v2h-4.5v12.1h-2.4v-12.1h-4.5V394.8z"/>
		<path d="M431.5,394.8v14h-2.4v-5.5h-1.4c-0.8,0-1.5,0.1-1.9,0.3c-0.4,0.2-1,0.9-1.8,2.1l-2.1,3.1h-2.9l2.6-3.8
			c0.8-1.2,1.6-1.8,2.3-2c-1.4-0.2-2.4-0.7-3-1.5s-1-1.7-1-2.7c0-1.2,0.4-2.2,1.3-3c0.9-0.8,2.1-1.1,3.7-1.1H431.5z M429.1,396.7
			h-3.4c-1.4,0-2.3,0.2-2.7,0.7c-0.4,0.4-0.6,1-0.6,1.5c0,0.8,0.3,1.5,0.9,1.8c0.6,0.4,1.7,0.6,3.2,0.6h2.6V396.7z"/>
		<path d="M433.8,394.8h11.4v2h-4.5v12.1h-2.4v-12.1h-4.5V394.8z"/>
		<path d="M454.1,394.8h2.4v2.7c0,1.1,0.1,2,0.2,2.5c0.1,0.5,0.5,1,1,1.3c0.5,0.4,1.2,0.6,2,0.6c0.9,0,2.1-0.2,3.5-0.7v-6.3h2.4v14
			h-2.4v-5.7c-1.5,0.5-2.8,0.7-4.1,0.7c-1.1,0-2-0.3-2.8-0.8c-0.8-0.5-1.4-1.2-1.7-2s-0.4-1.6-0.4-2.6V394.8z"/>
		<path d="M469.1,394.8h2.4v10.7l6.6-10.7h2.6v14h-2.4v-10.6l-6.6,10.6h-2.6V394.8z"/>
		<path d="M482.9,394.8h11.4v2h-4.5v12.1h-2.4v-12.1h-4.5V394.8z"/>
		<path d="M505.4,407c-0.9,0.7-1.7,1.3-2.5,1.6c-0.8,0.3-1.7,0.5-2.6,0.5c-1.5,0-2.7-0.4-3.6-1.1c-0.8-0.8-1.2-1.7-1.2-2.9
			c0-0.7,0.2-1.3,0.5-1.9c0.3-0.6,0.7-1,1.2-1.4c0.5-0.3,1.1-0.6,1.7-0.8c0.5-0.1,1.2-0.2,2.1-0.4c1.9-0.2,3.3-0.5,4.2-0.8
			c0-0.3,0-0.5,0-0.6c0-1-0.2-1.7-0.7-2c-0.6-0.5-1.5-0.8-2.7-0.8c-1.1,0-1.9,0.2-2.5,0.6c-0.5,0.4-0.9,1.1-1.2,2.1l-2.3-0.3
			c0.2-1,0.6-1.8,1-2.4c0.5-0.6,1.2-1.1,2.1-1.4s2-0.5,3.2-0.5c1.2,0,2.2,0.1,2.9,0.4c0.7,0.3,1.3,0.6,1.6,1.1
			c0.4,0.4,0.6,1,0.7,1.6c0.1,0.4,0.1,1.1,0.1,2.2v3.2c0,2.2,0.1,3.6,0.2,4.2c0.1,0.6,0.3,1.1,0.6,1.7h-2.5
			C505.7,408.3,505.5,407.7,505.4,407z M505.2,401.7c-0.9,0.4-2.2,0.7-3.9,0.9c-1,0.1-1.7,0.3-2.1,0.5c-0.4,0.2-0.7,0.4-0.9,0.8
			c-0.2,0.3-0.3,0.7-0.3,1.1c0,0.6,0.2,1.2,0.7,1.6c0.5,0.4,1.2,0.6,2.1,0.6c0.9,0,1.7-0.2,2.4-0.6s1.2-0.9,1.6-1.6
			c0.3-0.5,0.4-1.3,0.4-2.4V401.7z"/>
		<path d="M509.4,394.8h11.4v2h-4.5v12.1H514v-12.1h-4.5V394.8z"/>
		<path d="M523.1,394.8h2.4v5.5h3c2,0,3.5,0.4,4.5,1.1c1.1,0.8,1.6,1.8,1.6,3.1c0,1.2-0.4,2.2-1.3,3c-0.9,0.8-2.3,1.2-4.2,1.2h-5.9
			V394.8z M525.4,406.8h2.5c1.5,0,2.6-0.2,3.2-0.6c0.6-0.4,1-0.9,1-1.7c0-0.6-0.2-1.1-0.7-1.6c-0.5-0.5-1.5-0.7-3.2-0.7h-2.8V406.8z
			"/>
		<path d="M555,389l2.1,0c-0.1,0.9-0.3,1.6-0.6,2c-0.3,0.4-0.7,0.6-1.2,0.7c-0.5,0.1-1.5,0.2-3,0.2c-2,0-3.3,0.2-4,0.6
			c-0.7,0.4-1.2,1-1.5,1.8c-0.3,0.8-0.5,1.9-0.5,3.2c0.6-0.9,1.3-1.6,2.1-2s1.7-0.7,2.7-0.7c1.8,0,3.4,0.6,4.6,1.9
			c1.2,1.3,1.8,3,1.8,5.1c0,1.6-0.3,3-0.9,4c-0.6,1-1.3,1.9-2.2,2.4c-0.8,0.6-2,0.9-3.4,0.9c-1.7,0-3-0.4-3.9-1.1
			c-0.9-0.8-1.6-1.7-2.1-2.9c-0.5-1.2-0.7-3.3-0.7-6.2c0-3.7,0.6-6.2,1.9-7.5c1.3-1.3,3.2-1.9,5.8-1.9c1.6,0,2.5,0,2.8-0.1
			C554.8,389.3,554.9,389.2,555,389z M554.9,401.7c0-1.5-0.3-2.7-1-3.6c-0.7-0.9-1.7-1.4-2.9-1.4c-1.3,0-2.3,0.5-3,1.5
			c-0.7,1-1.1,2.3-1.1,3.9c0,1.6,0.4,2.9,1.2,3.7c0.8,0.9,1.8,1.3,2.9,1.3c1.2,0,2.1-0.5,2.9-1.5
			C554.5,404.7,554.9,403.4,554.9,401.7z"/>
		<path d="M560.2,394.8h2.4v5.5h3c2,0,3.5,0.4,4.5,1.1c1.1,0.8,1.6,1.8,1.6,3.1c0,1.2-0.4,2.2-1.3,3c-0.9,0.8-2.3,1.2-4.2,1.2h-5.9
			V394.8z M562.6,406.8h2.5c1.5,0,2.6-0.2,3.2-0.6c0.6-0.4,1-0.9,1-1.7c0-0.6-0.2-1.1-0.7-1.6c-0.5-0.5-1.5-0.7-3.2-0.7h-2.8V406.8z
			 M573.5,394.8h2.4v14h-2.4V394.8z"/>
		<path d="M588.8,403.6l2.3,0.3c-0.3,1.6-0.9,2.9-2,3.8s-2.3,1.4-3.9,1.4c-1.9,0-3.5-0.6-4.6-1.9c-1.2-1.3-1.7-3.1-1.7-5.4
			c0-1.5,0.3-2.8,0.8-4c0.5-1.1,1.3-2,2.3-2.6c1-0.6,2.1-0.9,3.3-0.9c1.5,0,2.8,0.4,3.7,1.2c1,0.8,1.6,1.9,1.9,3.3l-2.3,0.4
			c-0.2-0.9-0.6-1.7-1.2-2.1c-0.6-0.5-1.2-0.7-2-0.7c-1.2,0-2.2,0.4-2.9,1.3c-0.7,0.9-1.1,2.2-1.1,4.1c0,1.9,0.4,3.3,1.1,4.1
			c0.7,0.9,1.7,1.3,2.8,1.3c0.9,0,1.7-0.3,2.3-0.9S588.6,404.8,588.8,403.6z"/>
		<path d="M591.9,394.8h11.4v2h-4.5v12.1h-2.4v-12.1h-4.5V394.8z"/>
		<path d="M605.5,414.1v-19.4h2.2v1.8c0.5-0.7,1.1-1.2,1.7-1.6s1.4-0.5,2.3-0.5c1.2,0,2.3,0.3,3.2,0.9c0.9,0.6,1.6,1.5,2.1,2.6
			s0.7,2.4,0.7,3.7c0,1.4-0.3,2.7-0.8,3.9c-0.5,1.1-1.3,2-2.2,2.6s-2,0.9-3.1,0.9c-0.8,0-1.5-0.2-2.1-0.5c-0.6-0.3-1.1-0.8-1.6-1.3
			v6.8H605.5z M607.7,401.8c0,1.8,0.4,3.1,1.1,4s1.6,1.3,2.7,1.3c1.1,0,2-0.4,2.7-1.3c0.8-0.9,1.1-2.3,1.1-4.2c0-1.8-0.4-3.1-1.1-4
			c-0.7-0.9-1.6-1.3-2.6-1.3c-1,0-1.9,0.5-2.7,1.4S607.7,400,607.7,401.8z"/>
		<path d="M630.2,404.3l2.5,0.3c-0.4,1.4-1.1,2.5-2.2,3.3c-1,0.8-2.4,1.2-4,1.2c-2.1,0-3.7-0.6-4.9-1.9c-1.2-1.3-1.8-3-1.8-5.3
			c0-2.4,0.6-4.2,1.8-5.5c1.2-1.3,2.8-2,4.7-2c1.9,0,3.4,0.6,4.6,1.9s1.8,3.1,1.8,5.4c0,0.1,0,0.4,0,0.6h-10.5
			c0.1,1.5,0.5,2.7,1.3,3.5c0.8,0.8,1.8,1.2,2.9,1.2c0.9,0,1.6-0.2,2.2-0.7C629.3,406,629.8,405.3,630.2,404.3z M622.4,400.4h7.8
			c-0.1-1.2-0.4-2.1-0.9-2.7c-0.8-0.9-1.7-1.4-2.9-1.4c-1.1,0-2,0.4-2.8,1.1C622.8,398.2,622.4,399.2,622.4,400.4z"/>
		<path d="M645.2,404.3l2.5,0.3c-0.4,1.4-1.1,2.5-2.2,3.3c-1,0.8-2.4,1.2-4,1.2c-2.1,0-3.7-0.6-4.9-1.9c-1.2-1.3-1.8-3-1.8-5.3
			c0-2.4,0.6-4.2,1.8-5.5c1.2-1.3,2.8-2,4.7-2c1.9,0,3.4,0.6,4.6,1.9s1.8,3.1,1.8,5.4c0,0.1,0,0.4,0,0.6h-10.5
			c0.1,1.5,0.5,2.7,1.3,3.5c0.8,0.8,1.8,1.2,2.9,1.2c0.9,0,1.6-0.2,2.2-0.7C644.3,406,644.8,405.3,645.2,404.3z M637.4,400.4h7.8
			c-0.1-1.2-0.4-2.1-0.9-2.7c-0.8-0.9-1.7-1.4-2.9-1.4c-1.1,0-2,0.4-2.8,1.1C637.9,398.2,637.5,399.2,637.4,400.4z"/>
		<path d="M658.1,394.8h2.4v10.7l6.6-10.7h2.6v14h-2.4v-10.6l-6.6,10.6h-2.6V394.8z"/>
		<path d="M680.8,394.8h11.1v14h-2.4v-12.1h-6.3v12.1h-2.4V394.8z"/>
		<path d="M695.4,414.1v-19.4h2.2v1.8c0.5-0.7,1.1-1.2,1.7-1.6s1.4-0.5,2.3-0.5c1.2,0,2.3,0.3,3.2,0.9c0.9,0.6,1.6,1.5,2.1,2.6
			s0.7,2.4,0.7,3.7c0,1.4-0.3,2.7-0.8,3.9c-0.5,1.1-1.3,2-2.2,2.6s-2,0.9-3.1,0.9c-0.8,0-1.5-0.2-2.1-0.5c-0.6-0.3-1.1-0.8-1.6-1.3
			v6.8H695.4z M697.6,401.8c0,1.8,0.4,3.1,1.1,4s1.6,1.3,2.7,1.3c1.1,0,2-0.4,2.7-1.3c0.8-0.9,1.1-2.3,1.1-4.2c0-1.8-0.4-3.1-1.1-4
			c-0.7-0.9-1.6-1.3-2.6-1.3c-1,0-1.9,0.5-2.7,1.4S697.6,400,697.6,401.8z"/>
		<path d="M709.6,401.8c0-2.6,0.7-4.5,2.2-5.8c1.2-1,2.7-1.6,4.4-1.6c1.9,0,3.5,0.6,4.7,1.9c1.2,1.3,1.8,3,1.8,5.2
			c0,1.8-0.3,3.2-0.8,4.3c-0.5,1-1.3,1.8-2.4,2.4c-1,0.6-2.2,0.9-3.4,0.9c-2,0-3.5-0.6-4.8-1.9S709.6,404.1,709.6,401.8z M712,401.8
			c0,1.8,0.4,3.1,1.2,4c0.8,0.9,1.8,1.3,3,1.3c1.2,0,2.2-0.4,2.9-1.3c0.8-0.9,1.2-2.3,1.2-4.1c0-1.7-0.4-3-1.2-3.9
			c-0.8-0.9-1.8-1.3-2.9-1.3c-1.2,0-2.2,0.4-3,1.3C712.4,398.6,712,400,712,401.8z"/>
		<path d="M726.8,394.8h9.8v12.1h1.5v5.9h-2v-4h-11v4h-2v-5.9h1.3C726,404.5,726.8,400.5,726.8,394.8z M728.7,396.7
			c-0.2,4.6-0.9,7.9-2.1,10.1h7.5v-10.1H728.7z"/>
		<path d="M740.6,414.2l-0.3-2.2c0.5,0.1,1,0.2,1.4,0.2c0.5,0,1-0.1,1.3-0.3c0.3-0.2,0.6-0.4,0.8-0.7c0.2-0.2,0.4-0.8,0.7-1.8
			c0-0.1,0.1-0.3,0.2-0.6l-5.3-14h2.6l2.9,8.1c0.4,1,0.7,2.1,1,3.2c0.3-1.1,0.6-2.2,1-3.2l3-8.2h2.4l-5.3,14.3
			c-0.6,1.5-1,2.6-1.3,3.2c-0.4,0.8-0.9,1.4-1.5,1.7s-1.2,0.5-2,0.5C741.6,414.5,741.1,414.4,740.6,414.2z"/>
		<path d="M754.2,394.8h2.4v6.1c0.8,0,1.3-0.1,1.6-0.4c0.3-0.3,0.8-1.1,1.3-2.5c0.5-1.1,0.8-1.8,1.1-2.2c0.3-0.4,0.6-0.6,1-0.7
			c0.4-0.1,1-0.2,1.8-0.2h0.5v2l-0.7,0c-0.6,0-1,0.1-1.2,0.3c-0.2,0.2-0.5,0.8-0.8,1.7c-0.4,0.9-0.7,1.5-1,1.9
			c-0.3,0.4-0.8,0.7-1.4,1c1,0.3,2,1.2,3,2.9l2.6,4.3h-2.6l-2.5-4.3c-0.5-0.9-1-1.4-1.4-1.7c-0.4-0.3-0.8-0.4-1.4-0.4v6.5h-2.4
			V394.8z"/>
		<path d="M765,394.8h11.4v2h-4.5v12.1h-2.4v-12.1H765V394.8z"/>
		<path d="M778.7,394.8h2.4v10.7l6.6-10.7h2.6v14h-2.4v-10.6l-6.6,10.6h-2.6V394.8z"/>
		<path d="M793.8,394.8h5.5c1.3,0,2.3,0.1,3,0.3c0.7,0.2,1.2,0.6,1.7,1.2s0.7,1.3,0.7,2.2c0,0.7-0.1,1.3-0.4,1.7
			c-0.3,0.5-0.7,0.9-1.2,1.2c0.7,0.2,1.2,0.6,1.6,1.2s0.7,1.3,0.7,2.1c-0.1,1.3-0.6,2.3-1.4,3s-2.1,1-3.8,1h-6.3V394.8z
			 M796.2,400.7h2.5c1,0,1.7-0.1,2.1-0.2c0.4-0.1,0.7-0.3,1-0.6c0.3-0.3,0.4-0.7,0.4-1.2c0-0.7-0.3-1.3-0.8-1.5
			c-0.5-0.3-1.4-0.4-2.7-0.4h-2.6V400.7z M796.2,406.8h3.1c1.3,0,2.3-0.2,2.8-0.5s0.8-0.9,0.8-1.6c0-0.4-0.1-0.9-0.4-1.2
			s-0.7-0.6-1.1-0.7c-0.5-0.1-1.2-0.2-2.2-0.2h-2.9V406.8z"/>
		<path d="M808.2,394.8h2.4v5.8h6.6v-5.8h2.4v14h-2.4v-6.2h-6.6v6.2h-2.4V394.8z"/>
		<path d="M832.7,404.3l2.5,0.3c-0.4,1.4-1.1,2.5-2.2,3.3c-1,0.8-2.4,1.2-4,1.2c-2.1,0-3.7-0.6-4.9-1.9c-1.2-1.3-1.8-3-1.8-5.3
			c0-2.4,0.6-4.2,1.8-5.5c1.2-1.3,2.8-2,4.7-2c1.9,0,3.4,0.6,4.6,1.9s1.8,3.1,1.8,5.4c0,0.1,0,0.4,0,0.6h-10.5
			c0.1,1.5,0.5,2.7,1.3,3.5c0.8,0.8,1.8,1.2,2.9,1.2c0.9,0,1.6-0.2,2.2-0.7C831.8,406,832.3,405.3,832.7,404.3z M824.9,400.4h7.8
			c-0.1-1.2-0.4-2.1-0.9-2.7c-0.8-0.9-1.7-1.4-2.9-1.4c-1.1,0-2,0.4-2.8,1.1C825.4,398.2,825,399.2,824.9,400.4z"/>
		<path d="M847.7,404.3l2.5,0.3c-0.4,1.4-1.1,2.5-2.2,3.3c-1,0.8-2.4,1.2-4,1.2c-2.1,0-3.7-0.6-4.9-1.9c-1.2-1.3-1.8-3-1.8-5.3
			c0-2.4,0.6-4.2,1.8-5.5c1.2-1.3,2.8-2,4.7-2c1.9,0,3.4,0.6,4.6,1.9s1.8,3.1,1.8,5.4c0,0.1,0,0.4,0,0.6h-10.5
			c0.1,1.5,0.5,2.7,1.3,3.5c0.8,0.8,1.8,1.2,2.9,1.2c0.9,0,1.6-0.2,2.2-0.7C846.9,406,847.4,405.3,847.7,404.3z M839.9,400.4h7.8
			c-0.1-1.2-0.4-2.1-0.9-2.7c-0.8-0.9-1.7-1.4-2.9-1.4c-1.1,0-2,0.4-2.8,1.1C840.4,398.2,840,399.2,839.9,400.4z"/>
		<path d="M853.8,408.8v-2.7h2.7v2.7H853.8z"/>
	</g>
</g>
</svg>
