<?xml version="1.0" encoding="utf-8"?>
<!-- Generator: Adobe Illustrator 15.0.0, SVG Export Plug-In . SVG Version: 6.00 Build 0)  -->
<!DOCTYPE svg PUBLIC "-//W3C//DTD SVG 1.1//EN" "http://www.w3.org/Graphics/SVG/1.1/DTD/svg11.dtd">
<svg version="1.1" xmlns="http://www.w3.org/2000/svg" xmlns:xlink="http://www.w3.org/1999/xlink" x="0px" y="0px" width="1200px"
	 height="450px" viewBox="0 0 1200 450" style="enable-background:new 0 0 1200 450;" xml:space="preserve">
<style type="text/css">
<![CDATA[
	.st0{opacity:0.5;fill:#54889E;}
	.st1{fill:#EC3929;}
	.st2{opacity:0.5;fill:#FEFFFE;}
	.st3{fill:#C3EBF6;}
	.st4{fill:#FEFFFF;}
]]>
</style>
<g id="Layer_1">
	
		<rect x="200.5" y="-301.7" transform="matrix(0.7071 -0.7071 0.7071 0.7071 -161.4981 317.1321)" class="st3" width="203.1" height="1310.4"/>
	
		<rect x="-70.3" y="-286.9" transform="matrix(0.7071 -0.7071 0.7071 0.7071 -251.328 129.9861)" class="st1" width="203.1" height="1310.4"/>
	
		<rect x="745.4" y="-328.1" transform="matrix(0.7071 -0.7071 0.7071 0.7071 16.7961 694.7288)" class="st3" width="203.1" height="1310.4"/>
	
		<rect x="474.6" y="-313.3" transform="matrix(0.7071 -0.7071 0.7071 0.7071 -73.0351 507.5823)" class="st1" width="203.1" height="1310.4"/>
	
		<rect x="1280.5" y="-364.5" transform="matrix(0.7071 -0.7071 0.7071 0.7071 199.1968 1062.4197)" class="st3" width="203.1" height="1310.4"/>
	
		<rect x="1009.7" y="-349.6" transform="matrix(0.7071 -0.7071 0.7071 0.7071 109.3629 875.2697)" class="st1" width="203.1" height="1310.4"/>
</g>
<g id="Layer_2">
	
		<rect x="945.1" y="-368.7" transform="matrix(-0.7071 -0.7071 0.7071 -0.7071 1607.0813 1130.5703)" class="st2" width="185.3" height="1202.2"/>
	
		<rect x="1192.8" y="-355.8" transform="matrix(-0.7071 -0.7071 0.7071 -0.7071 2020.8168 1327.7104)" class="st0" width="185.3" height="1202.2"/>
	
		<rect x="446.6" y="-391.4" transform="matrix(-0.7071 -0.7071 0.7071 -0.7071 772.2828 739.325)" class="st2" width="185.3" height="1202.2"/>
	
		<rect x="694.3" y="-378.5" transform="matrix(-0.7071 -0.7071 0.7071 -0.7071 1186.0292 936.4611)" class="st0" width="185.3" height="1202.2"/>
	
		<rect x="-42.7" y="-423.2" transform="matrix(-0.7071 -0.7071 0.7071 -0.7071 -40.5634 338.988)" class="st2" width="185.3" height="1202.2"/>
	
		<rect x="205" y="-410.3" transform="matrix(-0.7071 -0.7071 0.7071 -0.7071 373.1766 536.1265)" class="st0" width="185.3" height="1202.2"/>
</g>
<g id="Layer_4">
	<g>
		<polygon class="st4" points="463.9,333.8 423.6,312.7 446.7,275.9 486.9,297 		"/>
		<polygon class="st4" points="446.5,275.3 406.2,254.2 429.3,217.4 469.6,238.5 		"/>
		<polygon class="st4" points="425.6,205.1 385.3,184 408.4,147.2 448.7,168.3 		"/>
		<polygon class="st4" points="498.7,450.8 458.4,429.8 481.4,392.9 521.7,414 		"/>
		<polygon class="st4" points="481.3,392.3 441,371.2 464.1,334.4 504.3,355.5 		"/>
		<polygon class="st4" points="527.9,317.9 487.6,296.8 510.7,260 550.9,281.1 		"/>
		<polygon class="st4" points="510.5,259.4 470.2,238.3 493.3,201.5 533.5,222.6 		"/>
		<polygon class="st4" points="489.6,189.2 449.3,168.1 472.4,131.3 512.7,152.4 		"/>
		<polygon class="st4" points="562.7,434.9 522.4,413.9 545.4,377 585.7,398.1 		"/>
		<polygon class="st4" points="545.3,376.4 505,355.3 528,318.5 568.3,339.6 		"/>
		<polygon class="st4" points="591.9,302 551.6,280.9 574.6,244.1 614.9,265.2 		"/>
		<polygon class="st4" points="574.5,243.5 534.2,222.4 557.3,185.6 597.5,206.7 		"/>
		<polygon class="st4" points="553.6,173.3 513.3,152.2 536.4,115.4 576.7,136.5 		"/>
		<polygon class="st4" points="626.6,419 586.4,398 609.4,361.1 649.7,382.2 		"/>
		<polygon class="st4" points="609.3,360.5 569,339.4 592,302.6 632.3,323.7 		"/>
		<polygon class="st4" points="655.9,286.1 615.6,265 638.6,228.2 678.9,249.3 		"/>
		<polygon class="st4" points="638.5,227.6 598.2,206.5 621.2,169.7 661.5,190.8 		"/>
		<polygon class="st4" points="617.6,157.4 577.3,136.3 600.4,99.5 640.7,120.6 		"/>
		<polygon class="st4" points="690.6,403.1 650.4,382.1 673.4,345.2 713.7,366.3 		"/>
		<polygon class="st4" points="673.2,344.6 633,323.5 656,286.7 696.3,307.8 		"/>
		<polygon class="st4" points="719.8,270.2 679.6,249.1 702.6,212.3 742.9,233.4 		"/>
		<polygon class="st4" points="702.5,211.7 662.2,190.6 685.2,153.8 725.5,174.9 		"/>
		<polygon class="st4" points="681.6,141.5 641.3,120.4 664.4,83.6 704.7,104.7 		"/>
		<polygon class="st4" points="754.6,387.2 714.3,366.2 737.4,329.3 777.7,350.4 		"/>
		<polygon class="st4" points="737.2,328.7 697,307.7 720,270.8 760.3,291.9 		"/>
		<polygon class="st4" points="783.8,254.3 743.6,233.2 766.6,196.4 806.9,217.5 		"/>
		<polygon class="st4" points="766.4,195.8 726.2,174.7 749.2,137.9 789.5,159 		"/>
		<polygon class="st4" points="745.6,125.6 705.3,104.5 728.4,67.7 768.6,88.8 		"/>
		<polygon class="st4" points="818.6,371.3 778.3,350.3 801.4,313.4 841.7,334.5 		"/>
		<polygon class="st4" points="801.2,312.8 760.9,291.7 784,254.9 824.3,276 		"/>
		<polygon class="st4" points="847.8,238.4 807.5,217.3 830.6,180.5 870.9,201.6 		"/>
		<polygon class="st4" points="830.4,179.9 790.2,158.8 813.2,122 853.5,143.1 		"/>
		<polygon class="st4" points="809.6,109.7 769.3,88.6 792.4,51.8 832.6,72.9 		"/>
		<polygon class="st4" points="882.6,355.4 842.3,334.4 865.4,297.5 905.7,318.6 		"/>
		<polygon class="st4" points="865.2,296.9 824.9,275.8 848,239 888.3,260.1 		"/>
		<polygon class="st4" points="911.8,222.5 871.5,201.4 894.6,164.6 934.9,185.7 		"/>
		<polygon class="st4" points="894.4,164 854.1,142.9 877.2,106.1 917.5,127.2 		"/>
		<polygon class="st4" points="873.6,93.8 833.3,72.7 856.3,35.9 896.6,57 		"/>
		<polygon class="st4" points="946.6,339.5 906.3,318.5 929.4,281.6 969.7,302.7 		"/>
		<polygon class="st4" points="929.2,281 888.9,259.9 912,223.1 952.3,244.2 		"/>
		<polygon class="st4" points="975.8,206.6 935.5,185.5 958.6,148.7 998.9,169.8 		"/>
		<polygon class="st4" points="958.4,148.1 918.1,127 941.2,90.2 981.5,111.3 		"/>
		<polygon class="st4" points="937.5,77.9 897.3,56.8 920.3,20 960.6,41.1 		"/>
		<polygon class="st4" points="1010.6,323.6 970.3,302.6 993.4,265.7 1033.7,286.8 		"/>
		<polygon class="st4" points="993.2,265.1 952.9,244 976,207.2 1016.3,228.3 		"/>
		<polygon class="st4" points="1039.8,190.7 999.5,169.6 1022.6,132.8 1062.9,153.9 		"/>
		<polygon class="st4" points="1022.4,132.2 982.1,111.1 1005.2,74.3 1045.5,95.4 		"/>
		<polygon class="st4" points="1001.5,62 961.3,40.9 984.3,4.1 1024.6,25.2 		"/>
		<polygon class="st4" points="1074.6,307.7 1034.3,286.7 1057.4,249.8 1097.6,270.9 		"/>
		<polygon class="st4" points="1057.2,249.2 1016.9,228.1 1040,191.3 1080.3,212.4 		"/>
		<polygon class="st4" points="1037.6,66.3 397.3,225.4 393.8,213.8 1034.2,54.7 		"/>
	</g>
</g>
<g id="Layer_3">
	<g>
		<path d="M82.2,122.2V58.4h19.3l11.6,43.5l11.5-43.5h19.3v63.8h-12V72l-12.7,50.2h-12.4L94.2,72v50.2H82.2z"/>
		<path d="M156.7,122.2V58.4H204v10.8h-34.4v14.2h32v10.8h-32v17.4h35.7v10.8H156.7z"/>
		<path d="M216.2,122.2V58.4h12.9v25.1h25.3V58.4h12.9v63.8h-12.9V94.3h-25.3v27.9H216.2z"/>
		<path d="M275.7,76h37.6v6.5h-14.9v39.8h-7.8V82.5h-14.9V76z"/>
		<path d="M349.9,116.5c-2.9,2.5-5.7,4.2-8.4,5.2c-2.7,1-5.6,1.5-8.6,1.5c-5.1,0-9-1.2-11.7-3.7c-2.7-2.5-4.1-5.7-4.1-9.5
			c0-2.3,0.5-4.3,1.5-6.2c1-1.9,2.4-3.4,4-4.5c1.7-1.1,3.5-2,5.6-2.6c1.5-0.4,3.9-0.8,7-1.2c6.3-0.8,11-1.7,14-2.7c0-1.1,0-1.8,0-2
			c0-3.2-0.7-5.4-2.2-6.7c-2-1.8-5-2.7-8.9-2.7c-3.7,0-6.4,0.6-8.2,1.9c-1.8,1.3-3.1,3.6-3.9,6.9l-7.7-1c0.7-3.3,1.8-5.9,3.4-7.9
			c1.6-2,3.9-3.6,6.9-4.7c3-1.1,6.5-1.6,10.5-1.6c3.9,0,7.2,0.5,9.6,1.4c2.5,0.9,4.3,2.1,5.4,3.5c1.2,1.4,2,3.2,2.4,5.3
			c0.3,1.3,0.4,3.7,0.4,7.2v10.4c0,7.3,0.2,11.9,0.5,13.8c0.3,1.9,1,3.8,2,5.6h-8.2C350.7,120.6,350.2,118.7,349.9,116.5z M349.3,99
			c-2.8,1.2-7.1,2.1-12.8,3c-3.2,0.5-5.5,1-6.8,1.6c-1.3,0.6-2.4,1.4-3.1,2.5c-0.7,1.1-1.1,2.4-1.1,3.7c0,2.1,0.8,3.8,2.4,5.2
			c1.6,1.4,3.9,2.1,6.9,2.1c3,0,5.7-0.7,8.1-2c2.4-1.3,4.1-3.1,5.2-5.4c0.8-1.8,1.3-4.4,1.3-7.8V99z"/>
		<path d="M373.2,76h36.4v46.2h-7.8V82.5H381v23c0,5.4-0.2,8.9-0.5,10.6c-0.3,1.7-1.3,3.2-2.9,4.5c-1.6,1.3-3.8,1.9-6.8,1.9
			c-1.8,0-3.9-0.1-6.3-0.3v-6.5h3.4c1.6,0,2.8-0.2,3.5-0.5c0.7-0.3,1.2-0.9,1.4-1.6c0.2-0.7,0.3-3.1,0.3-7.1V76z"/>
		<path d="M421.3,76h7.8v18.1h9.9c6.5,0,11.5,1.3,15,3.8c3.5,2.5,5.2,6,5.2,10.4c0,3.9-1.5,7.2-4.4,9.9c-2.9,2.7-7.6,4.1-14,4.1
			h-19.6V76z M429.1,115.8h8.2c5,0,8.5-0.6,10.6-1.8c2.1-1.2,3.2-3.1,3.2-5.7c0-2-0.8-3.8-2.4-5.4c-1.6-1.6-5-2.4-10.4-2.4h-9.3
			V115.8z"/>
		<path d="M467.9,76h7.8v19.2h21.7V76h7.8v46.2h-7.8v-20.5h-21.7v20.5h-7.8V76z"/>
		<path d="M547.3,116.5c-2.9,2.5-5.7,4.2-8.4,5.2c-2.7,1-5.6,1.5-8.6,1.5c-5.1,0-9-1.2-11.7-3.7c-2.7-2.5-4.1-5.7-4.1-9.5
			c0-2.3,0.5-4.3,1.5-6.2c1-1.9,2.4-3.4,4-4.5c1.7-1.1,3.5-2,5.6-2.6c1.5-0.4,3.9-0.8,7-1.2c6.3-0.8,11-1.7,14-2.7c0-1.1,0-1.8,0-2
			c0-3.2-0.7-5.4-2.2-6.7c-2-1.8-5-2.7-8.9-2.7c-3.7,0-6.4,0.6-8.2,1.9c-1.8,1.3-3.1,3.6-3.9,6.9l-7.7-1c0.7-3.3,1.8-5.9,3.4-7.9
			c1.6-2,3.9-3.6,6.9-4.7c3-1.1,6.5-1.6,10.5-1.6c3.9,0,7.2,0.5,9.6,1.4c2.5,0.9,4.3,2.1,5.4,3.5c1.2,1.4,2,3.2,2.4,5.3
			c0.3,1.3,0.4,3.7,0.4,7.2v10.4c0,7.3,0.2,11.9,0.5,13.8c0.3,1.9,1,3.8,2,5.6h-8.2C548,120.6,547.5,118.7,547.3,116.5z M546.6,99
			c-2.8,1.2-7.1,2.1-12.8,3c-3.2,0.5-5.5,1-6.8,1.6c-1.3,0.6-2.4,1.4-3.1,2.5c-0.7,1.1-1.1,2.4-1.1,3.7c0,2.1,0.8,3.8,2.4,5.2
			c1.6,1.4,3.9,2.1,6.9,2.1c3,0,5.7-0.7,8.1-2c2.4-1.3,4.1-3.1,5.2-5.4c0.8-1.8,1.3-4.4,1.3-7.8V99z"/>
		<path d="M603.1,76v46.2h-7.8v-18h-4.5c-2.8,0-4.8,0.4-6.2,1.1c-1.3,0.7-3.3,3-5.9,6.9l-6.8,10.1h-9.7l8.4-12.5
			c2.6-3.8,5.2-5.9,7.7-6.4c-4.5-0.6-7.8-2.2-9.9-4.8c-2.2-2.6-3.2-5.6-3.2-9c0-4,1.4-7.3,4.2-9.8c2.8-2.5,6.9-3.7,12.3-3.7H603.1z
			 M595.3,82.5h-11.1c-4.7,0-7.7,0.7-9,2.2c-1.3,1.5-2,3.1-2,5.1c0,2.8,1,4.8,3,6.1c2,1.3,5.5,1.9,10.6,1.9h8.7V82.5z"/>
		<path d="M139.9,229.2h-14l-5.6-14.5H94.8l-5.3,14.5H75.9l24.9-63.8h13.6L139.9,229.2z M116.2,204l-8.8-23.7L98.8,204H116.2z"/>
		<path d="M146.8,229.2v-63.8h20.7c7.8,0,12.9,0.3,15.3,1c3.7,1,6.7,3,9.2,6.2c2.5,3.2,3.7,7.4,3.7,12.4c0,3.9-0.7,7.2-2.1,9.9
			c-1.4,2.7-3.2,4.8-5.4,6.3c-2.2,1.5-4.4,2.5-6.7,3c-3.1,0.6-7.5,0.9-13.4,0.9h-8.4v24.1H146.8z M159.7,176.2v18.1h7.1
			c5.1,0,8.5-0.3,10.2-1c1.7-0.7,3.1-1.7,4-3.1c1-1.4,1.5-3.1,1.5-5c0-2.3-0.7-4.2-2-5.7c-1.4-1.5-3.1-2.5-5.2-2.8
			c-1.5-0.3-4.6-0.4-9.3-0.4H159.7z"/>
		<path d="M205.6,183h7.8v35.3l21.7-35.3h8.4v46.2h-7.8v-35l-21.7,35h-8.4V183z"/>
		<path d="M282.4,165.4h7.8v22.1c1.6-1.9,3.4-3.2,5.4-4.2c1.9-0.9,4-1.4,6.3-1.4c5.5,0,9.8,2.3,13,6.9c3.2,4.6,4.8,10.3,4.8,17.3
			c0,7.2-1.7,13.1-5.2,17.5c-3.5,4.5-7.8,6.7-12.9,6.7c-1.7,0-3.4-0.3-5.1-0.8c-1.7-0.5-3.8-1.9-6.3-4.3v21.7h-7.8v-21.7
			c-1.6,1.7-3.3,2.9-5.2,3.8c-1.9,0.8-4,1.3-6.2,1.3c-4.8,0-9.1-2.1-12.7-6.4c-3.6-4.3-5.4-10.3-5.4-18.3c0-6.7,1.6-12.3,4.9-16.9
			c3.3-4.5,7.7-6.8,13.2-6.8c2.3,0,4.4,0.5,6.3,1.4c1.9,0.9,3.6,2.3,5.1,4.2V165.4z M260.8,205.4c0,6.5,1.1,11.2,3.3,14.1
			c2.2,2.9,4.9,4.3,8.2,4.3c3.4,0,5.9-1.4,7.6-4.3c1.7-2.9,2.5-7.1,2.5-12.9c0-6.1-0.9-10.7-2.7-13.7c-1.8-3-4.4-4.6-8-4.6
			c-3.2,0-5.8,1.5-7.9,4.5C261.8,195.8,260.8,200,260.8,205.4z M290.2,206.3c0,7,1,11.6,2.9,14c1.9,2.4,4.3,3.6,7.2,3.6
			c3.2,0,5.9-1.5,8.2-4.4c2.2-2.9,3.4-7.5,3.4-13.7c0-5.9-1-10.2-3.1-13.1c-2.1-2.9-4.7-4.3-8-4.3c-3.5,0-6.1,1.5-7.9,4.5
			C291,195.8,290.2,200.3,290.2,206.3z"/>
		<path d="M329,183h12.2l12.1,37l13.5-37h11.3v46.2h-7.8V192l-13.7,37.2h-7l-12.9-39v39H329V183z"/>
		<path d="M421.8,214.3l8.1,1c-1.3,4.7-3.6,8.4-7.1,11c-3.5,2.6-7.9,3.9-13.2,3.9c-6.8,0-12.1-2.1-16.1-6.2c-4-4.2-5.9-10-5.9-17.5
			c0-7.8,2-13.8,6-18.1c4-4.3,9.2-6.4,15.6-6.4c6.2,0,11.2,2.1,15.2,6.3s5.9,10.1,5.9,17.8c0,0.5,0,1.2,0,2.1h-34.5
			c0.3,5.1,1.7,9,4.3,11.7c2.6,2.7,5.8,4,9.7,4c2.9,0,5.3-0.8,7.4-2.3C419,220.1,420.6,217.6,421.8,214.3z M396,201.7h25.8
			c-0.3-3.9-1.3-6.8-3-8.8c-2.5-3-5.7-4.5-9.7-4.5c-3.6,0-6.6,1.2-9.1,3.6C397.7,194.4,396.3,197.6,396,201.7z"/>
		<path d="M432.5,183h37.6v6.5h-14.9v39.8h-7.8v-39.8h-14.9V183z"/>
		<path d="M477.6,183h7.8v35.3l21.7-35.3h8.4v46.2h-7.8v-35l-21.7,35h-8.4V183z"/>
		<path d="M527.4,183h7.8v20c2.5,0,4.2-0.5,5.2-1.4s2.5-3.7,4.4-8.4c1.5-3.7,2.8-6.1,3.7-7.2c1-1.2,2.1-1.9,3.3-2.4
			c1.2-0.4,3.3-0.6,6-0.6h1.6v6.5l-2.2,0c-2.1,0-3.4,0.3-4,0.9c-0.6,0.6-1.5,2.5-2.8,5.7c-1.2,3-2.3,5.1-3.3,6.3
			c-1,1.2-2.5,2.2-4.6,3.2c3.4,0.9,6.7,4,9.9,9.4l8.6,14.3h-8.6l-8.4-14.3c-1.7-2.9-3.2-4.8-4.5-5.7c-1.3-0.9-2.8-1.4-4.6-1.4v21.4
			h-7.8V183z"/>
		<path d="M598.5,223.5c-2.9,2.5-5.7,4.2-8.4,5.2c-2.7,1-5.6,1.5-8.6,1.5c-5.1,0-9-1.2-11.7-3.7c-2.7-2.5-4.1-5.7-4.1-9.5
			c0-2.3,0.5-4.3,1.5-6.2c1-1.9,2.4-3.4,4-4.5c1.7-1.1,3.5-2,5.6-2.6c1.5-0.4,3.9-0.8,7-1.2c6.3-0.8,11-1.7,14-2.7c0-1.1,0-1.8,0-2
			c0-3.2-0.7-5.4-2.2-6.7c-2-1.8-5-2.7-8.9-2.7c-3.7,0-6.4,0.6-8.2,1.9c-1.8,1.3-3.1,3.6-3.9,6.9l-7.7-1c0.7-3.3,1.8-5.9,3.4-7.9
			c1.6-2,3.9-3.6,6.9-4.7c3-1.1,6.5-1.6,10.5-1.6c3.9,0,7.2,0.5,9.6,1.4c2.5,0.9,4.3,2.1,5.4,3.5s2,3.2,2.4,5.3
			c0.3,1.3,0.4,3.7,0.4,7.2v10.5c0,7.3,0.2,11.9,0.5,13.8c0.3,1.9,1,3.8,2,5.6h-8.2C599.3,227.6,598.8,225.7,598.5,223.5z
			 M597.9,206c-2.8,1.2-7.1,2.1-12.8,3c-3.2,0.5-5.5,1-6.8,1.6c-1.3,0.6-2.4,1.4-3.1,2.5c-0.7,1.1-1.1,2.4-1.1,3.7
			c0,2.1,0.8,3.8,2.4,5.2c1.6,1.4,3.9,2.1,6.9,2.1c3,0,5.7-0.7,8.1-2c2.4-1.3,4.1-3.1,5.2-5.4c0.8-1.8,1.3-4.4,1.3-7.8V206z"/>
	</g>
	<g>
		<path d="M86.5,277.3h-1.7v-5.2c-1.5,0.6-2.9,0.9-4,0.9c-0.9,0-1.7-0.2-2.4-0.6c-0.7-0.4-1.1-1-1.4-1.6s-0.3-1.5-0.3-2.5v-3.8h1.7
			v3.6c0,1.4,0.3,2.3,0.8,2.8c0.5,0.4,1.1,0.7,1.9,0.7c1.2,0,2.5-0.3,3.8-0.8v-6.3h1.7V277.3z"/>
		<path d="M88.2,268h7.6v1.3h-3v8h-1.6v-8h-3V268z"/>
		<path d="M96.5,272.7c0-1.7,0.5-3,1.4-3.8c0.8-0.7,1.8-1,2.9-1c1.3,0,2.3,0.4,3.1,1.3s1.2,2,1.2,3.5c0,1.2-0.2,2.1-0.5,2.8
			c-0.4,0.7-0.9,1.2-1.6,1.6s-1.4,0.6-2.3,0.6c-1.3,0-2.4-0.4-3.2-1.3S96.5,274.2,96.5,272.7z M98.2,272.7c0,1.2,0.3,2.1,0.8,2.7
			c0.5,0.6,1.2,0.9,2,0.9c0.8,0,1.4-0.3,2-0.9s0.8-1.5,0.8-2.7c0-1.2-0.3-2-0.8-2.6c-0.5-0.6-1.2-0.9-2-0.9c-0.8,0-1.4,0.3-2,0.9
			S98.2,271.5,98.2,272.7z"/>
		<path d="M117.8,271.9c-0.1-0.8-0.4-1.5-0.8-2c-0.4-0.5-1-0.8-1.7-0.8c-1.2,0-2,0.6-2.2,1.9l-1.5-0.2c0.1-0.9,0.5-1.6,1.2-2.1
			c0.6-0.6,1.5-0.8,2.5-0.8c1.3,0,2.3,0.4,3.1,1.3s1.1,2.1,1.1,3.6c0,1.5-0.3,2.7-1,3.6c-0.7,0.9-1.8,1.3-3.1,1.3
			c-1.1,0-2-0.3-2.7-0.9s-1.1-1.5-1.3-2.5l1.5-0.2c0.2,1.5,1,2.3,2.4,2.3c0.8,0,1.3-0.3,1.8-0.8s0.7-1.3,0.8-2.3h-3.3v-1.3H117.8z"
			/>
		<path d="M120.1,268h7.6v1.3h-3v8h-1.6v-8h-3V268z"/>
		<path d="M128.4,272.7c0-1.7,0.5-3,1.4-3.8c0.8-0.7,1.8-1,2.9-1c1.3,0,2.3,0.4,3.1,1.3s1.2,2,1.2,3.5c0,1.2-0.2,2.1-0.5,2.8
			c-0.4,0.7-0.9,1.2-1.6,1.6s-1.4,0.6-2.3,0.6c-1.3,0-2.4-0.4-3.2-1.3S128.4,274.2,128.4,272.7z M130,272.7c0,1.2,0.3,2.1,0.8,2.7
			c0.5,0.6,1.2,0.9,2,0.9c0.8,0,1.4-0.3,2-0.9s0.8-1.5,0.8-2.7c0-1.2-0.3-2-0.8-2.6c-0.5-0.6-1.2-0.9-2-0.9c-0.8,0-1.4,0.3-2,0.9
			S130,271.5,130,272.7z"/>
		<path d="M143.1,268h7.6v1.3h-3v8h-1.6v-8h-3V268z"/>
		<path d="M158.1,276.2c-0.6,0.5-1.1,0.8-1.7,1.1s-1.1,0.3-1.7,0.3c-1,0-1.8-0.3-2.4-0.8c-0.6-0.5-0.8-1.1-0.8-1.9
			c0-0.5,0.1-0.9,0.3-1.3c0.2-0.4,0.5-0.7,0.8-0.9s0.7-0.4,1.1-0.5c0.3-0.1,0.8-0.2,1.4-0.2c1.3-0.2,2.2-0.3,2.8-0.5
			c0-0.2,0-0.4,0-0.4c0-0.6-0.1-1.1-0.4-1.4c-0.4-0.4-1-0.5-1.8-0.5c-0.7,0-1.3,0.1-1.6,0.4s-0.6,0.7-0.8,1.4l-1.5-0.2
			c0.1-0.7,0.4-1.2,0.7-1.6c0.3-0.4,0.8-0.7,1.4-0.9c0.6-0.2,1.3-0.3,2.1-0.3c0.8,0,1.4,0.1,1.9,0.3s0.9,0.4,1.1,0.7
			c0.2,0.3,0.4,0.6,0.5,1.1c0.1,0.3,0.1,0.8,0.1,1.5v2.1c0,1.5,0,2.4,0.1,2.8c0.1,0.4,0.2,0.8,0.4,1.1h-1.7
			C158.3,277,158.2,276.6,158.1,276.2z M158,272.6c-0.6,0.2-1.4,0.4-2.6,0.6c-0.7,0.1-1.1,0.2-1.4,0.3s-0.5,0.3-0.6,0.5
			s-0.2,0.5-0.2,0.8c0,0.4,0.2,0.8,0.5,1.1s0.8,0.4,1.4,0.4c0.6,0,1.2-0.1,1.6-0.4s0.8-0.6,1-1.1c0.2-0.4,0.3-0.9,0.3-1.6V272.6z"/>
		<path d="M162,268h1.6v4c0.5,0,0.9-0.1,1.1-0.3s0.5-0.8,0.9-1.7c0.3-0.7,0.6-1.2,0.8-1.5s0.4-0.4,0.7-0.5s0.7-0.1,1.2-0.1h0.3v1.3
			l-0.4,0c-0.4,0-0.7,0.1-0.8,0.2c-0.1,0.1-0.3,0.5-0.6,1.2c-0.2,0.6-0.5,1-0.7,1.3s-0.5,0.4-0.9,0.6c0.7,0.2,1.3,0.8,2,1.9l1.7,2.9
			h-1.7l-1.7-2.9c-0.3-0.6-0.6-1-0.9-1.1c-0.3-0.2-0.6-0.3-0.9-0.3v4.3H162V268z"/>
		<path d="M169.5,272.7c0-1.7,0.5-3,1.4-3.8c0.8-0.7,1.8-1,2.9-1c1.3,0,2.3,0.4,3.1,1.3s1.2,2,1.2,3.5c0,1.2-0.2,2.1-0.5,2.8
			c-0.4,0.7-0.9,1.2-1.6,1.6s-1.4,0.6-2.3,0.6c-1.3,0-2.4-0.4-3.2-1.3S169.5,274.2,169.5,272.7z M171.1,272.7c0,1.2,0.3,2.1,0.8,2.7
			c0.5,0.6,1.2,0.9,2,0.9c0.8,0,1.4-0.3,2-0.9s0.8-1.5,0.8-2.7c0-1.2-0.3-2-0.8-2.6c-0.5-0.6-1.2-0.9-2-0.9c-0.8,0-1.4,0.3-2,0.9
			S171.1,271.5,171.1,272.7z"/>
		<path d="M186.5,274.3l1.6,0.2c-0.3,1-0.7,1.7-1.4,2.2s-1.6,0.8-2.7,0.8c-1.4,0-2.4-0.4-3.2-1.3c-0.8-0.8-1.2-2-1.2-3.5
			c0-1.6,0.4-2.8,1.2-3.7s1.9-1.3,3.1-1.3c1.2,0,2.3,0.4,3.1,1.3s1.2,2,1.2,3.6c0,0.1,0,0.2,0,0.4h-7c0.1,1,0.3,1.8,0.9,2.4
			s1.2,0.8,2,0.8c0.6,0,1.1-0.2,1.5-0.5S186.3,275,186.5,274.3z M181.3,271.8h5.2c-0.1-0.8-0.3-1.4-0.6-1.8c-0.5-0.6-1.2-0.9-2-0.9
			c-0.7,0-1.3,0.2-1.8,0.7S181.4,271,181.3,271.8z"/>
		<path d="M193.1,274.2c0-0.2,0-0.4,0-0.5c0-0.6,0.1-1.2,0.3-1.6c0.1-0.3,0.3-0.7,0.6-1c0.2-0.3,0.6-0.6,1.1-1.1
			c0.5-0.5,0.9-0.9,1.1-1.2s0.2-0.6,0.2-0.9c0-0.6-0.2-1.2-0.7-1.6c-0.5-0.5-1.1-0.7-1.8-0.7c-0.7,0-1.2,0.2-1.7,0.6s-0.7,1.1-0.9,2
			l-1.6-0.2c0.1-1.2,0.6-2.1,1.3-2.8s1.7-1,2.9-1c1.3,0,2.3,0.3,3,1s1.1,1.5,1.1,2.5c0,0.6-0.1,1.1-0.4,1.6s-0.8,1.1-1.5,1.7
			c-0.5,0.5-0.9,0.8-1,1s-0.3,0.5-0.4,0.7s-0.1,0.7-0.1,1.4H193.1z M193,277.3v-1.8h1.8v1.8H193z"/>
		<path d="M209.2,269.8h4c-0.1-1-0.4-1.8-1-2.4s-1.3-1-2.2-1c-0.7,0-1.3,0.2-1.8,0.6s-0.8,0.9-1,1.5l-2.6-0.6
			c0.3-1.1,0.8-2.1,1.7-2.7c0.9-0.7,2.1-1,3.5-1c1.9,0,3.3,0.6,4.4,1.9s1.6,2.9,1.6,4.9c0,1.4-0.2,2.5-0.7,3.5s-1.2,1.7-2,2.3
			s-1.9,0.8-3.1,0.8c-2.9,0-4.7-1.4-5.4-4.1l2.6-0.8c0.1,0.9,0.5,1.6,1,2.1c0.5,0.4,1.2,0.7,1.9,0.7c0.8,0,1.4-0.3,2-0.8
			s0.9-1.4,1.1-2.6h-4V269.8z"/>
		<path d="M216.9,268h8.4v2h-3v7.3h-2.5V270h-3V268z"/>
		<path d="M226.1,272.5c0-0.8,0.2-1.6,0.6-2.4s1-1.4,1.7-1.8s1.6-0.6,2.5-0.6c1.4,0,2.6,0.5,3.5,1.4c0.9,0.9,1.4,2.1,1.4,3.5
			c0,1.4-0.5,2.6-1.4,3.5s-2.1,1.4-3.4,1.4c-0.9,0-1.7-0.2-2.4-0.6s-1.4-1-1.8-1.7C226.3,274.5,226.1,273.6,226.1,272.5z
			 M228.6,272.7c0,0.9,0.2,1.6,0.7,2.1s1,0.7,1.6,0.7s1.2-0.2,1.6-0.7s0.7-1.2,0.7-2.1c0-0.9-0.2-1.6-0.7-2.1s-1-0.7-1.6-0.7
			s-1.2,0.2-1.6,0.7S228.6,271.7,228.6,272.7z"/>
		<path d="M242.6,268h2.3v1.4c0.3-0.5,0.7-0.8,1.2-1.1s1.1-0.4,1.7-0.4c1.1,0,2,0.4,2.8,1.3s1.1,2,1.1,3.6c0,1.6-0.4,2.8-1.1,3.6
			c-0.8,0.9-1.7,1.3-2.8,1.3c-0.5,0-1-0.1-1.4-0.3s-0.9-0.6-1.3-1.1v4.7h-2.5V268z M245,272.5c0,1,0.2,1.8,0.6,2.3
			c0.4,0.5,0.9,0.8,1.5,0.8c0.6,0,1.1-0.2,1.4-0.7c0.4-0.5,0.6-1.2,0.6-2.3c0-1-0.2-1.7-0.6-2.2s-0.9-0.7-1.5-0.7
			c-0.6,0-1.1,0.2-1.5,0.7C245.2,270.9,245,271.6,245,272.5z"/>
		<path d="M255.5,270.8l-2.2-0.4c0.3-0.9,0.7-1.6,1.3-2s1.5-0.7,2.7-0.7c1.1,0,1.9,0.1,2.5,0.4c0.5,0.3,0.9,0.6,1.1,1
			s0.3,1.1,0.3,2.2l0,2.9c0,0.8,0,1.4,0.1,1.8s0.2,0.8,0.4,1.3h-2.4c-0.1-0.2-0.1-0.4-0.2-0.7c0-0.1-0.1-0.2-0.1-0.3
			c-0.4,0.4-0.9,0.7-1.4,0.9s-1,0.3-1.5,0.3c-1,0-1.7-0.3-2.3-0.8s-0.8-1.2-0.8-2c0-0.5,0.1-1,0.4-1.4c0.3-0.4,0.6-0.7,1.1-0.9
			c0.5-0.2,1.1-0.4,2-0.6c1.2-0.2,2-0.4,2.4-0.6V271c0-0.5-0.1-0.8-0.4-1c-0.2-0.2-0.7-0.3-1.3-0.3c-0.4,0-0.8,0.1-1,0.3
			C255.8,270.1,255.6,270.4,255.5,270.8z M258.8,272.8c-0.3,0.1-0.8,0.2-1.5,0.4s-1.1,0.3-1.3,0.4c-0.3,0.2-0.5,0.5-0.5,0.9
			c0,0.3,0.1,0.6,0.4,0.9s0.6,0.4,1,0.4c0.4,0,0.9-0.1,1.3-0.4c0.3-0.2,0.5-0.5,0.6-0.8c0.1-0.2,0.1-0.6,0.1-1.2V272.8z"/>
		<path d="M266.4,273.5v-1.6c0.4,0,0.7,0,0.9-0.1s0.4-0.2,0.5-0.4s0.3-0.5,0.3-0.7c0-0.3-0.1-0.6-0.3-0.8s-0.5-0.4-1-0.4
			c-0.3,0-0.6,0.1-0.9,0.2s-0.5,0.5-0.7,1l-2.1-0.4c0.2-0.8,0.7-1.4,1.4-1.8s1.5-0.6,2.4-0.6c1.1,0,2,0.3,2.6,0.8s0.9,1.2,0.9,1.9
			c0,0.5-0.1,0.9-0.4,1.2c-0.3,0.3-0.7,0.6-1.3,0.9c0.7,0.2,1.2,0.5,1.6,0.9s0.5,0.9,0.5,1.4c0,0.7-0.3,1.4-1,1.9
			c-0.7,0.5-1.7,0.8-2.9,0.8c-2.2,0-3.6-0.9-4.1-2.6l2.3-0.4c0.4,0.9,1,1.4,1.8,1.4c0.5,0,0.8-0.1,1.1-0.4c0.3-0.2,0.4-0.5,0.4-0.9
			c0-0.4-0.1-0.6-0.4-0.9s-0.7-0.3-1.1-0.3H266.4z"/>
		<path d="M272.8,268h5.4c1.1,0,1.9,0.2,2.5,0.6s0.8,1,0.8,1.8c0,0.5-0.2,1-0.5,1.4s-0.7,0.6-1.1,0.8c0.6,0.2,1.1,0.5,1.4,0.9
			s0.5,0.9,0.5,1.4c0,0.7-0.3,1.3-0.8,1.8c-0.5,0.5-1.3,0.7-2.4,0.7h-5.9V268z M275.3,271.9h1.6c0.8,0,1.3-0.1,1.7-0.3
			s0.5-0.5,0.5-0.9c0-0.4-0.2-0.7-0.5-0.8c-0.3-0.2-0.9-0.3-1.7-0.3h-1.6V271.9z M275.3,275.7h2c0.7,0,1.2-0.1,1.5-0.3
			s0.5-0.5,0.5-0.9c0-0.5-0.2-0.8-0.6-0.9s-1.1-0.3-2.2-0.3h-1.3V275.7z"/>
		<path d="M283.8,268h2.4v5.9l3.8-5.9h2.4v9.3H290v-6l-3.8,6h-2.4V268z"/>
		<path d="M295,268h5.4c1.1,0,1.9,0.2,2.5,0.6s0.8,1,0.8,1.8c0,0.5-0.2,1-0.5,1.4s-0.7,0.6-1.1,0.8c0.6,0.2,1.1,0.5,1.4,0.9
			s0.5,0.9,0.5,1.4c0,0.7-0.3,1.3-0.8,1.8c-0.5,0.5-1.3,0.7-2.4,0.7H295V268z M297.4,271.9h1.6c0.8,0,1.3-0.1,1.7-0.3
			s0.5-0.5,0.5-0.9c0-0.4-0.2-0.7-0.5-0.8c-0.3-0.2-0.9-0.3-1.7-0.3h-1.6V271.9z M297.4,275.7h2c0.7,0,1.2-0.1,1.5-0.3
			s0.5-0.5,0.5-0.9c0-0.5-0.2-0.8-0.6-0.9s-1.1-0.3-2.2-0.3h-1.3V275.7z"/>
		<path d="M307.6,270.8l-2.2-0.4c0.3-0.9,0.7-1.6,1.3-2s1.5-0.7,2.7-0.7c1.1,0,1.9,0.1,2.5,0.4c0.5,0.3,0.9,0.6,1.1,1
			s0.3,1.1,0.3,2.2l0,2.9c0,0.8,0,1.4,0.1,1.8s0.2,0.8,0.4,1.3h-2.4c-0.1-0.2-0.1-0.4-0.2-0.7c0-0.1-0.1-0.2-0.1-0.3
			c-0.4,0.4-0.9,0.7-1.4,0.9s-1,0.3-1.5,0.3c-1,0-1.7-0.3-2.3-0.8s-0.8-1.2-0.8-2c0-0.5,0.1-1,0.4-1.4c0.3-0.4,0.6-0.7,1.1-0.9
			c0.5-0.2,1.1-0.4,2-0.6c1.2-0.2,2-0.4,2.4-0.6V271c0-0.5-0.1-0.8-0.4-1c-0.2-0.2-0.7-0.3-1.3-0.3c-0.4,0-0.8,0.1-1,0.3
			C308,270.1,307.8,270.4,307.6,270.8z M310.9,272.8c-0.3,0.1-0.8,0.2-1.5,0.4s-1.1,0.3-1.3,0.4c-0.3,0.2-0.5,0.5-0.5,0.9
			c0,0.3,0.1,0.6,0.4,0.9s0.6,0.4,1,0.4c0.4,0,0.9-0.1,1.3-0.4c0.3-0.2,0.5-0.5,0.6-0.8c0.1-0.2,0.1-0.6,0.1-1.2V272.8z"/>
		<path d="M315.7,268h2.5v3.8h2c0.1-1.2,0.6-2.2,1.4-2.9c0.8-0.7,1.8-1.1,3.1-1.1c1.3,0,2.4,0.4,3.2,1.3s1.3,2.1,1.3,3.7
			c0,0.9-0.2,1.8-0.5,2.5s-0.8,1.3-1.4,1.7c-0.6,0.4-1.5,0.6-2.5,0.6c-1.5,0-2.6-0.4-3.3-1.2s-1.1-1.7-1.2-2.6h-2v3.6h-2.5V268z
			 M324.6,269.7c-0.7,0-1.2,0.2-1.5,0.7s-0.5,1.1-0.5,2.1c0,1.2,0.2,2.1,0.5,2.5c0.3,0.4,0.8,0.6,1.5,0.6c0.6,0,1.1-0.2,1.4-0.7
			c0.3-0.5,0.5-1.2,0.5-2.2c0-1.2-0.2-2-0.5-2.4C325.7,269.9,325.3,269.7,324.6,269.7z"/>
		<path d="M331.1,268h2.3v7.3h2.8V268h2.3v7.3h2.9V268h2.3v7.3h1v4.5h-2v-2.5h-11.6V268z"/>
		<path d="M346.3,268h2.4v5.9l3.8-5.9h2.4v9.3h-2.4v-6l-3.8,6h-2.4V268z"/>
		<path d="M357.3,268h2.4v5.9l3.8-5.9h2.4v9.3h-2.4v-6l-3.8,6h-2.4V268z M363.2,264.2h1.2c-0.1,0.8-0.4,1.4-0.8,1.9
			c-0.5,0.5-1.1,0.7-1.9,0.7s-1.4-0.2-1.9-0.7c-0.5-0.5-0.8-1.1-0.8-1.9h1.2c0,0.4,0.2,0.7,0.4,0.9c0.3,0.2,0.6,0.3,1.1,0.3
			s0.8-0.1,1.1-0.3C363.1,264.9,363.2,264.6,363.2,264.2z"/>
		<path d="M373.4,268h2.5v3.8c0.4,0,0.7-0.2,0.9-0.4s0.4-0.7,0.6-1.3c0.3-0.9,0.7-1.5,1-1.8s0.9-0.4,1.5-0.4c0.2,0,0.5,0,1,0l0,1.6
			c-0.7,0-1.1,0.1-1.2,0.2c-0.2,0.1-0.4,0.5-0.6,1.2c-0.3,0.9-0.7,1.4-1.2,1.6c0.8,0.2,1.4,0.9,2,2c0,0.1,0.1,0.1,0.1,0.2l1.4,2.6
			h-2.7l-1.2-2.7c-0.3-0.5-0.5-0.9-0.7-1c-0.2-0.2-0.5-0.2-0.8-0.2v4h-2.5V268z"/>
		<path d="M381.3,268h2.6l2.2,6.6l2.2-6.6h2.6l-3.3,9l-0.6,1.6c-0.2,0.5-0.4,1-0.6,1.2c-0.2,0.3-0.4,0.5-0.7,0.7
			c-0.3,0.2-0.6,0.3-0.9,0.4c-0.4,0.1-0.8,0.1-1.3,0.1c-0.5,0-0.9,0-1.4-0.1l-0.2-1.9c0.4,0.1,0.7,0.1,1,0.1c0.6,0,1-0.2,1.3-0.5
			c0.3-0.3,0.5-0.8,0.6-1.3L381.3,268z"/>
		<path d="M392.2,268h2.3v1.4c0.3-0.5,0.7-0.8,1.2-1.1s1.1-0.4,1.7-0.4c1.1,0,2,0.4,2.8,1.3s1.1,2,1.1,3.6c0,1.6-0.4,2.8-1.1,3.6
			c-0.8,0.9-1.7,1.3-2.8,1.3c-0.5,0-1-0.1-1.4-0.3s-0.9-0.6-1.3-1.1v4.7h-2.5V268z M394.6,272.5c0,1,0.2,1.8,0.6,2.3
			c0.4,0.5,0.9,0.8,1.5,0.8c0.6,0,1.1-0.2,1.4-0.7c0.4-0.5,0.6-1.2,0.6-2.3c0-1-0.2-1.7-0.6-2.2s-0.9-0.7-1.5-0.7
			c-0.6,0-1.1,0.2-1.5,0.7C394.8,270.9,394.6,271.6,394.6,272.5z"/>
		<path d="M411.4,270.8l-2.4,0.4c-0.1-0.5-0.3-0.9-0.6-1.1c-0.3-0.2-0.7-0.4-1.1-0.4c-0.6,0-1.1,0.2-1.5,0.6
			c-0.4,0.4-0.5,1.1-0.5,2.1c0,1.1,0.2,1.9,0.6,2.3s0.9,0.7,1.5,0.7c0.5,0,0.9-0.1,1.2-0.4s0.5-0.7,0.6-1.4l2.4,0.4
			c-0.3,1.1-0.7,2-1.5,2.5s-1.7,0.9-2.9,0.9c-1.4,0-2.5-0.4-3.3-1.3s-1.2-2.1-1.2-3.6c0-1.5,0.4-2.7,1.2-3.6
			c0.8-0.9,1.9-1.3,3.3-1.3c1.1,0,2,0.2,2.7,0.7C410.6,269,411.1,269.8,411.4,270.8z"/>
		<path d="M413.6,277.3v-1.8h1.8v1.8c0,0.7-0.1,1.2-0.4,1.6s-0.6,0.7-1.1,0.9l-0.4-0.7c0.3-0.1,0.6-0.4,0.7-0.6
			c0.2-0.3,0.2-0.7,0.3-1.2H413.6z"/>
		<path d="M429.2,273.9l1.6,0.2c-0.2,1.1-0.6,1.9-1.3,2.5c-0.7,0.6-1.6,0.9-2.6,0.9c-1.3,0-2.3-0.4-3.1-1.3c-0.8-0.8-1.2-2-1.2-3.6
			c0-1,0.2-1.9,0.5-2.6s0.8-1.3,1.5-1.7c0.7-0.4,1.4-0.6,2.2-0.6c1,0,1.8,0.3,2.5,0.8s1.1,1.2,1.2,2.2l-1.5,0.2
			c-0.1-0.6-0.4-1.1-0.8-1.4s-0.8-0.5-1.3-0.5c-0.8,0-1.4,0.3-1.9,0.9c-0.5,0.6-0.7,1.5-0.7,2.7c0,1.3,0.2,2.2,0.7,2.7
			s1.1,0.9,1.9,0.9c0.6,0,1.1-0.2,1.6-0.6S429.1,274.7,429.2,273.9z"/>
		<path d="M431.8,272.7c0-1.7,0.5-3,1.4-3.8c0.8-0.7,1.8-1,2.9-1c1.3,0,2.3,0.4,3.1,1.3s1.2,2,1.2,3.5c0,1.2-0.2,2.1-0.5,2.8
			c-0.4,0.7-0.9,1.2-1.6,1.6c-0.7,0.4-1.4,0.6-2.3,0.6c-1.3,0-2.4-0.4-3.2-1.3S431.8,274.2,431.8,272.7z M433.4,272.7
			c0,1.2,0.3,2.1,0.8,2.7c0.5,0.6,1.2,0.9,2,0.9c0.8,0,1.4-0.3,2-0.9s0.8-1.5,0.8-2.7c0-1.2-0.3-2-0.8-2.6c-0.5-0.6-1.2-0.9-2-0.9
			c-0.8,0-1.4,0.3-2,0.9S433.4,271.5,433.4,272.7z"/>
		<path d="M441.4,268h1.6v1.8c0,0.8,0,1.3,0.1,1.7c0.1,0.3,0.3,0.6,0.7,0.9c0.3,0.3,0.8,0.4,1.3,0.4c0.6,0,1.4-0.2,2.3-0.5V268h1.6
			v9.3h-1.6v-3.8c-1,0.3-1.9,0.5-2.7,0.5c-0.7,0-1.3-0.2-1.9-0.5c-0.5-0.4-0.9-0.8-1.1-1.3s-0.3-1.1-0.3-1.7V268z"/>
		<path d="M457.7,274.3l1.6,0.2c-0.3,1-0.7,1.7-1.4,2.2s-1.6,0.8-2.7,0.8c-1.4,0-2.4-0.4-3.2-1.3c-0.8-0.8-1.2-2-1.2-3.5
			c0-1.6,0.4-2.8,1.2-3.7s1.9-1.3,3.1-1.3c1.2,0,2.3,0.4,3.1,1.3s1.2,2,1.2,3.6c0,0.1,0,0.2,0,0.4h-7c0.1,1,0.3,1.8,0.9,2.4
			s1.2,0.8,2,0.8c0.6,0,1.1-0.2,1.5-0.5S457.5,275,457.7,274.3z M452.5,271.8h5.2c-0.1-0.8-0.3-1.4-0.6-1.8c-0.5-0.6-1.2-0.9-2-0.9
			c-0.7,0-1.3,0.2-1.8,0.7S452.6,271,452.5,271.8z"/>
		<path d="M459.9,268h7.6v1.3h-3v8h-1.6v-8h-3V268z"/>
		<path d="M474.9,276.2c-0.6,0.5-1.2,0.8-1.7,1.1c-0.5,0.2-1.1,0.3-1.7,0.3c-1,0-1.8-0.3-2.4-0.8c-0.6-0.5-0.8-1.1-0.8-1.9
			c0-0.5,0.1-0.9,0.3-1.3c0.2-0.4,0.5-0.7,0.8-0.9s0.7-0.4,1.1-0.5c0.3-0.1,0.8-0.2,1.4-0.2c1.3-0.2,2.2-0.3,2.8-0.5
			c0-0.2,0-0.4,0-0.4c0-0.6-0.1-1.1-0.4-1.4c-0.4-0.4-1-0.5-1.8-0.5c-0.7,0-1.3,0.1-1.6,0.4s-0.6,0.7-0.8,1.4l-1.5-0.2
			c0.1-0.7,0.4-1.2,0.7-1.6c0.3-0.4,0.8-0.7,1.4-0.9c0.6-0.2,1.3-0.3,2.1-0.3c0.8,0,1.4,0.1,1.9,0.3s0.9,0.4,1.1,0.7
			c0.2,0.3,0.4,0.6,0.5,1.1c0.1,0.3,0.1,0.8,0.1,1.5v2.1c0,1.5,0,2.4,0.1,2.8c0.1,0.4,0.2,0.8,0.4,1.1h-1.7
			C475,277,474.9,276.6,474.9,276.2z M474.7,272.6c-0.6,0.2-1.4,0.4-2.6,0.6c-0.7,0.1-1.1,0.2-1.4,0.3s-0.5,0.3-0.6,0.5
			s-0.2,0.5-0.2,0.8c0,0.4,0.2,0.8,0.5,1.1s0.8,0.4,1.4,0.4c0.6,0,1.2-0.1,1.6-0.4s0.8-0.6,1-1.1c0.2-0.4,0.3-0.9,0.3-1.6V272.6z"/>
		<path d="M478.8,268h1.6v3.9h1.9c0.1-1.3,0.6-2.4,1.3-3.1c0.7-0.7,1.6-1.1,2.7-1.1c0.9,0,1.7,0.2,2.2,0.6s1,0.9,1.3,1.6
			c0.4,0.7,0.5,1.6,0.5,2.7c0,1.6-0.4,2.8-1.1,3.7s-1.7,1.2-3,1.2c-1.2,0-2.1-0.4-2.8-1.2s-1.1-1.8-1.2-3.2h-1.9v4.1h-1.6V268z
			 M486.4,269.1c-0.8,0-1.4,0.3-1.8,0.9c-0.4,0.6-0.6,1.4-0.6,2.5c0,1.3,0.2,2.2,0.7,2.8s1,0.9,1.7,0.9c0.7,0,1.3-0.3,1.8-0.8
			c0.5-0.6,0.7-1.4,0.7-2.7c0-1.2-0.2-2.1-0.6-2.7S487.2,269.1,486.4,269.1z"/>
		<path d="M492.4,268h1.6v8h3.6v-8h1.6v8h3.6v-8h1.6v8h1v3.9H504v-2.6h-11.7V268z"/>
		<path d="M507.1,268h1.6v7.1l4.4-7.1h1.7v9.3h-1.6v-7.1l-4.4,7.1h-1.7V268z"/>
		<path d="M517.2,268h1.6v7.1l4.4-7.1h1.7v9.3h-1.6v-7.1l-4.4,7.1h-1.7V268z M522.7,264.5h1.1c-0.1,0.7-0.4,1.3-0.8,1.7
			c-0.4,0.4-1,0.6-1.8,0.6c-0.8,0-1.3-0.2-1.8-0.6c-0.4-0.4-0.7-1-0.8-1.7h1.1c0.1,0.4,0.2,0.7,0.5,0.9s0.6,0.3,1,0.3
			c0.5,0,0.8-0.1,1.1-0.3C522.4,265.2,522.6,264.9,522.7,264.5z"/>
		<path d="M532.2,268h3.6c0.9,0,1.6,0.1,2,0.2c0.4,0.1,0.8,0.4,1.1,0.8c0.3,0.4,0.5,0.9,0.5,1.4c0,0.4-0.1,0.8-0.3,1.2
			c-0.2,0.3-0.5,0.6-0.8,0.8c0.4,0.1,0.8,0.4,1.1,0.8c0.3,0.4,0.4,0.9,0.4,1.4c-0.1,0.9-0.4,1.5-0.9,2s-1.4,0.6-2.5,0.6h-4.2V268z
			 M533.8,271.9h1.7c0.7,0,1.1,0,1.4-0.1s0.5-0.2,0.7-0.4c0.2-0.2,0.3-0.5,0.3-0.8c0-0.5-0.2-0.8-0.5-1s-0.9-0.3-1.8-0.3h-1.7V271.9
			z M533.8,276h2.1c0.9,0,1.5-0.1,1.8-0.3c0.3-0.2,0.5-0.6,0.5-1.1c0-0.3-0.1-0.6-0.3-0.8c-0.2-0.3-0.4-0.4-0.8-0.5
			c-0.3-0.1-0.8-0.1-1.5-0.1h-1.9V276z"/>
		<path d="M552.9,273.9l1.6,0.2c-0.2,1.1-0.6,1.9-1.3,2.5c-0.7,0.6-1.6,0.9-2.6,0.9c-1.3,0-2.3-0.4-3.1-1.3c-0.8-0.8-1.2-2-1.2-3.6
			c0-1,0.2-1.9,0.5-2.6s0.8-1.3,1.5-1.7c0.7-0.4,1.4-0.6,2.2-0.6c1,0,1.8,0.3,2.5,0.8s1.1,1.2,1.2,2.2l-1.5,0.2
			c-0.1-0.6-0.4-1.1-0.8-1.4s-0.8-0.5-1.3-0.5c-0.8,0-1.4,0.3-1.9,0.9c-0.5,0.6-0.7,1.5-0.7,2.7c0,1.3,0.2,2.2,0.7,2.7
			s1.1,0.9,1.9,0.9c0.6,0,1.1-0.2,1.6-0.6S552.8,274.7,552.9,273.9z"/>
		<path d="M562.2,274.3l1.6,0.2c-0.3,1-0.7,1.7-1.4,2.2s-1.6,0.8-2.7,0.8c-1.4,0-2.4-0.4-3.2-1.3c-0.8-0.8-1.2-2-1.2-3.5
			c0-1.6,0.4-2.8,1.2-3.7s1.9-1.3,3.1-1.3c1.2,0,2.3,0.4,3.1,1.3s1.2,2,1.2,3.6c0,0.1,0,0.2,0,0.4h-7c0.1,1,0.3,1.8,0.9,2.4
			s1.2,0.8,2,0.8c0.6,0,1.1-0.2,1.5-0.5S561.9,275,562.2,274.3z M557,271.8h5.2c-0.1-0.8-0.3-1.4-0.6-1.8c-0.5-0.6-1.2-0.9-2-0.9
			c-0.7,0-1.3,0.2-1.8,0.7S557,271,557,271.8z"/>
		<path d="M572.4,264.1l1.4,0c-0.1,0.6-0.2,1.1-0.4,1.3s-0.5,0.4-0.8,0.5s-1,0.1-2,0.1c-1.3,0-2.2,0.1-2.7,0.4s-0.8,0.7-1,1.2
			c-0.2,0.6-0.3,1.3-0.3,2.1c0.4-0.6,0.9-1,1.4-1.3c0.5-0.3,1.1-0.4,1.8-0.4c1.2,0,2.2,0.4,3,1.3s1.2,2,1.2,3.4c0,1.1-0.2,2-0.6,2.7
			s-0.9,1.2-1.4,1.6c-0.6,0.4-1.3,0.6-2.3,0.6c-1.1,0-2-0.3-2.6-0.8s-1.1-1.2-1.4-1.9s-0.5-2.2-0.5-4.1c0-2.5,0.4-4.1,1.3-5
			c0.8-0.9,2.1-1.3,3.9-1.3c1.1,0,1.7,0,1.8-0.1S572.4,264.3,572.4,264.1z M572.4,272.6c0-1-0.2-1.8-0.7-2.4
			c-0.5-0.6-1.1-0.9-1.9-0.9c-0.9,0-1.5,0.3-2,1s-0.7,1.5-0.7,2.6c0,1.1,0.3,1.9,0.8,2.5s1.2,0.9,1.9,0.9c0.8,0,1.4-0.3,1.9-1
			S572.4,273.7,572.4,272.6z"/>
		<path d="M582.1,274.3l1.6,0.2c-0.3,1-0.7,1.7-1.4,2.2s-1.6,0.8-2.7,0.8c-1.4,0-2.4-0.4-3.2-1.3c-0.8-0.8-1.2-2-1.2-3.5
			c0-1.6,0.4-2.8,1.2-3.7s1.9-1.3,3.1-1.3c1.2,0,2.3,0.4,3.1,1.3s1.2,2,1.2,3.6c0,0.1,0,0.2,0,0.4h-7c0.1,1,0.3,1.8,0.9,2.4
			s1.2,0.8,2,0.8c0.6,0,1.1-0.2,1.5-0.5S581.8,275,582.1,274.3z M576.9,271.8h5.2c-0.1-0.8-0.3-1.4-0.6-1.8c-0.5-0.6-1.2-0.9-2-0.9
			c-0.7,0-1.3,0.2-1.8,0.7S576.9,271,576.9,271.8z"/>
		<path d="M590.1,272.7c0-1.7,0.5-3,1.4-3.8c0.8-0.7,1.8-1,2.9-1c1.3,0,2.3,0.4,3.1,1.3s1.2,2,1.2,3.5c0,1.2-0.2,2.1-0.5,2.8
			c-0.4,0.7-0.9,1.2-1.6,1.6s-1.4,0.6-2.3,0.6c-1.3,0-2.4-0.4-3.2-1.3C590.5,275.4,590.1,274.2,590.1,272.7z M591.7,272.7
			c0,1.2,0.3,2.1,0.8,2.7c0.5,0.6,1.2,0.9,2,0.9c0.8,0,1.4-0.3,2-0.9s0.8-1.5,0.8-2.7c0-1.2-0.3-2-0.8-2.6c-0.5-0.6-1.2-0.9-2-0.9
			c-0.8,0-1.4,0.3-2,0.9S591.7,271.5,591.7,272.7z"/>
		<path d="M607.6,264.1l1.4,0c-0.1,0.6-0.2,1.1-0.4,1.3c-0.2,0.2-0.5,0.4-0.8,0.5c-0.3,0.1-1,0.1-2,0.1c-1.3,0-2.2,0.1-2.7,0.4
			s-0.8,0.7-1,1.2c-0.2,0.6-0.3,1.3-0.3,2.1c0.4-0.6,0.9-1,1.4-1.3c0.5-0.3,1.1-0.4,1.8-0.4c1.2,0,2.2,0.4,3,1.3s1.2,2,1.2,3.4
			c0,1.1-0.2,2-0.6,2.7s-0.9,1.2-1.4,1.6c-0.6,0.4-1.3,0.6-2.3,0.6c-1.1,0-2-0.3-2.6-0.8s-1.1-1.2-1.4-1.9s-0.5-2.2-0.5-4.1
			c0-2.5,0.4-4.1,1.3-5c0.8-0.9,2.1-1.3,3.9-1.3c1.1,0,1.7,0,1.8-0.1S607.5,264.3,607.6,264.1z M607.5,272.6c0-1-0.2-1.8-0.7-2.4
			s-1.1-0.9-1.9-0.9c-0.9,0-1.5,0.3-2,1s-0.7,1.5-0.7,2.6c0,1.1,0.3,1.9,0.8,2.5c0.5,0.6,1.2,0.9,1.9,0.9c0.8,0,1.4-0.3,1.9-1
			C607.2,274.6,607.5,273.7,607.5,272.6z"/>
		<path d="M610.6,280.9l-0.2-1.5c0.3,0.1,0.6,0.1,0.9,0.1c0.4,0,0.6-0.1,0.8-0.2s0.4-0.3,0.5-0.5c0.1-0.2,0.3-0.6,0.5-1.2
			c0-0.1,0.1-0.2,0.1-0.4l-3.5-9.4h1.7l1.9,5.4c0.3,0.7,0.5,1.4,0.7,2.2c0.2-0.7,0.4-1.4,0.7-2.1l2-5.4h1.6l-3.6,9.5
			c-0.4,1-0.7,1.7-0.9,2.1c-0.3,0.5-0.6,0.9-1,1.1c-0.4,0.2-0.8,0.4-1.3,0.4C611.3,281.1,610.9,281.1,610.6,280.9z"/>
		<path d="M619.1,268h1.6v1.8c0,0.8,0,1.3,0.1,1.7c0.1,0.3,0.3,0.6,0.7,0.9c0.3,0.3,0.8,0.4,1.3,0.4c0.6,0,1.4-0.2,2.3-0.5V268h1.6
			v9.3h-1.6v-3.8c-1,0.3-1.9,0.5-2.7,0.5c-0.7,0-1.3-0.2-1.9-0.5c-0.5-0.4-0.9-0.8-1.1-1.3s-0.3-1.1-0.3-1.7V268z"/>
		<path d="M635.4,274.3l1.6,0.2c-0.3,1-0.7,1.7-1.4,2.2s-1.6,0.8-2.7,0.8c-1.4,0-2.4-0.4-3.2-1.3c-0.8-0.8-1.2-2-1.2-3.5
			c0-1.6,0.4-2.8,1.2-3.7s1.9-1.3,3.1-1.3c1.2,0,2.3,0.4,3.1,1.3s1.2,2,1.2,3.6c0,0.1,0,0.2,0,0.4h-7c0.1,1,0.3,1.8,0.9,2.4
			s1.2,0.8,2,0.8c0.6,0,1.1-0.2,1.5-0.5S635.2,275,635.4,274.3z M630.2,271.8h5.2c-0.1-0.8-0.3-1.4-0.6-1.8c-0.5-0.6-1.2-0.9-2-0.9
			c-0.7,0-1.3,0.2-1.8,0.7S630.3,271,630.2,271.8z"/>
		<path d="M639,268h1.6v3.9h4.4V268h1.6v9.3H645v-4.1h-4.4v4.1H639V268z"/>
		<path d="M649,268h1.6v7.1l4.4-7.1h1.7v9.3h-1.6v-7.1l-4.4,7.1H649V268z"/>
		<path d="M665.4,274.3l1.6,0.2c-0.3,1-0.7,1.7-1.4,2.2s-1.6,0.8-2.7,0.8c-1.4,0-2.4-0.4-3.2-1.3c-0.8-0.8-1.2-2-1.2-3.5
			c0-1.6,0.4-2.8,1.2-3.7s1.9-1.3,3.1-1.3c1.2,0,2.3,0.4,3.1,1.3s1.2,2,1.2,3.6c0,0.1,0,0.2,0,0.4h-7c0.1,1,0.3,1.8,0.9,2.4
			s1.2,0.8,2,0.8c0.6,0,1.1-0.2,1.5-0.5S665.2,275,665.4,274.3z M660.2,271.8h5.2c-0.1-0.8-0.3-1.4-0.6-1.8c-0.5-0.6-1.2-0.9-2-0.9
			c-0.7,0-1.3,0.2-1.8,0.7S660.3,271,660.2,271.8z"/>
		<path d="M680.9,264.1l1.4,0c-0.1,0.6-0.2,1.1-0.4,1.3s-0.5,0.4-0.8,0.5s-1,0.1-2,0.1c-1.3,0-2.2,0.1-2.7,0.4s-0.8,0.7-1,1.2
			c-0.2,0.6-0.3,1.3-0.3,2.1c0.4-0.6,0.9-1,1.4-1.3c0.5-0.3,1.1-0.4,1.8-0.4c1.2,0,2.2,0.4,3,1.3s1.2,2,1.2,3.4c0,1.1-0.2,2-0.6,2.7
			s-0.9,1.2-1.4,1.6c-0.6,0.4-1.3,0.6-2.3,0.6c-1.1,0-2-0.3-2.6-0.8s-1.1-1.2-1.4-1.9s-0.5-2.2-0.5-4.1c0-2.5,0.4-4.1,1.3-5
			c0.8-0.9,2.1-1.3,3.9-1.3c1.1,0,1.7,0,1.8-0.1S680.8,264.3,680.9,264.1z M680.8,272.6c0-1-0.2-1.8-0.7-2.4
			c-0.5-0.6-1.1-0.9-1.9-0.9c-0.9,0-1.5,0.3-2,1s-0.7,1.5-0.7,2.6c0,1.1,0.3,1.9,0.8,2.5s1.2,0.9,1.9,0.9c0.8,0,1.4-0.3,1.9-1
			S680.8,273.7,680.8,272.6z"/>
		<path d="M684.4,268h1.6v3.6h2c1.3,0,2.3,0.3,3,0.8c0.7,0.5,1.1,1.2,1.1,2.1c0,0.8-0.3,1.4-0.9,2c-0.6,0.6-1.5,0.8-2.8,0.8h-4V268z
			 M686,276h1.7c1,0,1.7-0.1,2.1-0.4s0.6-0.6,0.6-1.2c0-0.4-0.2-0.8-0.5-1.1s-1-0.5-2.1-0.5H686V276z M693.2,268h1.6v9.3h-1.6V268z"
			/>
		<path d="M703.4,273.9l1.6,0.2c-0.2,1.1-0.6,1.9-1.3,2.5c-0.7,0.6-1.6,0.9-2.6,0.9c-1.3,0-2.3-0.4-3.1-1.3c-0.8-0.8-1.2-2-1.2-3.6
			c0-1,0.2-1.9,0.5-2.6s0.8-1.3,1.5-1.7c0.7-0.4,1.4-0.6,2.2-0.6c1,0,1.8,0.3,2.5,0.8s1.1,1.2,1.2,2.2l-1.5,0.2
			c-0.1-0.6-0.4-1.1-0.8-1.4c-0.4-0.3-0.8-0.5-1.3-0.5c-0.8,0-1.4,0.3-1.9,0.9c-0.5,0.6-0.7,1.5-0.7,2.7c0,1.3,0.2,2.2,0.7,2.7
			s1.1,0.9,1.9,0.9c0.6,0,1.1-0.2,1.6-0.6S703.3,274.7,703.4,273.9z"/>
		<path d="M705.4,268h7.6v1.3h-3v8h-1.6v-8h-3V268z"/>
		<path d="M714.5,280.9V268h1.4v1.2c0.3-0.5,0.7-0.8,1.2-1.1c0.4-0.2,0.9-0.4,1.6-0.4c0.8,0,1.5,0.2,2.1,0.6s1.1,1,1.4,1.7
			c0.3,0.7,0.5,1.6,0.5,2.5c0,1-0.2,1.8-0.5,2.6c-0.3,0.8-0.8,1.4-1.5,1.8c-0.7,0.4-1.3,0.6-2.1,0.6c-0.5,0-1-0.1-1.4-0.3
			c-0.4-0.2-0.8-0.5-1-0.8v4.5H714.5z M716,272.7c0,1.2,0.2,2.1,0.7,2.7s1.1,0.9,1.8,0.9c0.7,0,1.3-0.3,1.8-0.9
			c0.5-0.6,0.8-1.5,0.8-2.8c0-1.2-0.2-2.1-0.7-2.7s-1.1-0.9-1.8-0.9c-0.7,0-1.3,0.3-1.8,0.9C716.2,270.6,716,271.5,716,272.7z"/>
		<path d="M723.9,272.7c0-1.7,0.5-3,1.4-3.8c0.8-0.7,1.8-1,2.9-1c1.3,0,2.3,0.4,3.1,1.3s1.2,2,1.2,3.5c0,1.2-0.2,2.1-0.5,2.8
			c-0.4,0.7-0.9,1.2-1.6,1.6s-1.4,0.6-2.3,0.6c-1.3,0-2.4-0.4-3.2-1.3C724.3,275.4,723.9,274.2,723.9,272.7z M725.6,272.7
			c0,1.2,0.3,2.1,0.8,2.7c0.5,0.6,1.2,0.9,2,0.9c0.8,0,1.4-0.3,2-0.9s0.8-1.5,0.8-2.7c0-1.2-0.3-2-0.8-2.6c-0.5-0.6-1.2-0.9-2-0.9
			c-0.8,0-1.4,0.3-2,0.9S725.6,271.5,725.6,272.7z"/>
		<path d="M734.6,268h2.5l2.5,7.5l2.7-7.5h2.3v9.3h-1.6v-7.5l-2.8,7.5h-1.4l-2.6-7.9v7.9h-1.5V268z"/>
		<path d="M747.1,280.9l-0.2-1.5c0.3,0.1,0.6,0.1,0.9,0.1c0.4,0,0.6-0.1,0.8-0.2s0.4-0.3,0.5-0.5c0.1-0.2,0.3-0.6,0.5-1.2
			c0-0.1,0.1-0.2,0.1-0.4l-3.5-9.4h1.7l1.9,5.4c0.3,0.7,0.5,1.4,0.7,2.2c0.2-0.7,0.4-1.4,0.7-2.1l2-5.4h1.6l-3.6,9.5
			c-0.4,1-0.7,1.7-0.9,2.1c-0.3,0.5-0.6,0.9-1,1.1c-0.4,0.2-0.8,0.4-1.3,0.4C747.8,281.1,747.4,281.1,747.1,280.9z"/>
		<path d="M767.2,273.9l1.6,0.2c-0.2,1.1-0.6,1.9-1.3,2.5c-0.7,0.6-1.6,0.9-2.6,0.9c-1.3,0-2.3-0.4-3.1-1.3c-0.8-0.8-1.2-2-1.2-3.6
			c0-1,0.2-1.9,0.5-2.6s0.8-1.3,1.5-1.7c0.7-0.4,1.4-0.6,2.2-0.6c1,0,1.8,0.3,2.5,0.8s1.1,1.2,1.2,2.2l-1.5,0.2
			c-0.1-0.6-0.4-1.1-0.8-1.4c-0.4-0.3-0.8-0.5-1.3-0.5c-0.8,0-1.4,0.3-1.9,0.9c-0.5,0.6-0.7,1.5-0.7,2.7c0,1.3,0.2,2.2,0.7,2.7
			s1.1,0.9,1.9,0.9c0.6,0,1.1-0.2,1.6-0.6S767.1,274.7,767.2,273.9z"/>
		<path d="M769.3,268h1.6v1.8c0,0.8,0,1.3,0.1,1.7c0.1,0.3,0.3,0.6,0.7,0.9c0.3,0.3,0.8,0.4,1.3,0.4c0.6,0,1.4-0.2,2.3-0.5V268h1.6
			v9.3h-1.6v-3.8c-1,0.3-1.9,0.5-2.7,0.5c-0.7,0-1.3-0.2-1.9-0.5c-0.5-0.4-0.9-0.8-1.1-1.3s-0.3-1.1-0.3-1.7V268z"/>
		<path d="M785.7,274.3l1.6,0.2c-0.3,1-0.7,1.7-1.4,2.2s-1.6,0.8-2.7,0.8c-1.4,0-2.4-0.4-3.2-1.3c-0.8-0.8-1.2-2-1.2-3.5
			c0-1.6,0.4-2.8,1.2-3.7s1.9-1.3,3.1-1.3c1.2,0,2.3,0.4,3.1,1.3s1.2,2,1.2,3.6c0,0.1,0,0.2,0,0.4h-7c0.1,1,0.3,1.8,0.9,2.4
			s1.2,0.8,2,0.8c0.6,0,1.1-0.2,1.5-0.5S785.4,275,785.7,274.3z M780.5,271.8h5.2c-0.1-0.8-0.3-1.4-0.6-1.8c-0.5-0.6-1.2-0.9-2-0.9
			c-0.7,0-1.3,0.2-1.8,0.7C780.8,270.3,780.5,271,780.5,271.8z"/>
		<path d="M787.9,268h7.6v1.3h-3v8h-1.6v-8h-3V268z"/>
		<path d="M797.1,280.9l-0.2-1.5c0.3,0.1,0.6,0.1,0.9,0.1c0.4,0,0.6-0.1,0.8-0.2s0.4-0.3,0.5-0.5c0.1-0.2,0.3-0.6,0.5-1.2
			c0-0.1,0.1-0.2,0.1-0.4l-3.5-9.4h1.7l1.9,5.4c0.3,0.7,0.5,1.4,0.7,2.2c0.2-0.7,0.4-1.4,0.7-2.1l2-5.4h1.6l-3.6,9.5
			c-0.4,1-0.7,1.7-0.9,2.1c-0.3,0.5-0.6,0.9-1,1.1c-0.4,0.2-0.8,0.4-1.3,0.4C797.8,281.1,797.5,281.1,797.1,280.9z"/>
		<path d="M811.2,268h2.5l2.5,7.5l2.7-7.5h2.3v9.3h-1.6v-7.5l-2.8,7.5h-1.4l-2.6-7.9v7.9h-1.5V268z"/>
		<path d="M823.5,268h1.6v3.9h4.4V268h1.6v9.3h-1.6v-4.1h-4.4v4.1h-1.6V268z"/>
		<path d="M832.9,272.7c0-1.7,0.5-3,1.4-3.8c0.8-0.7,1.8-1,2.9-1c1.3,0,2.3,0.4,3.1,1.3s1.2,2,1.2,3.5c0,1.2-0.2,2.1-0.5,2.8
			c-0.4,0.7-0.9,1.2-1.6,1.6c-0.7,0.4-1.4,0.6-2.3,0.6c-1.3,0-2.4-0.4-3.2-1.3S832.9,274.2,832.9,272.7z M834.5,272.7
			c0,1.2,0.3,2.1,0.8,2.7c0.5,0.6,1.2,0.9,2,0.9c0.8,0,1.4-0.3,2-0.9s0.8-1.5,0.8-2.7c0-1.2-0.3-2-0.8-2.6c-0.5-0.6-1.2-0.9-2-0.9
			c-0.8,0-1.4,0.3-2,0.9S834.5,271.5,834.5,272.7z"/>
		<path d="M843.5,268h5.4v1.3h-3.8v8h-1.6V268z"/>
		<path d="M849.1,272.7c0-1.7,0.5-3,1.4-3.8c0.8-0.7,1.8-1,2.9-1c1.3,0,2.3,0.4,3.1,1.3s1.2,2,1.2,3.5c0,1.2-0.2,2.1-0.5,2.8
			c-0.4,0.7-0.9,1.2-1.6,1.6s-1.4,0.6-2.3,0.6c-1.3,0-2.4-0.4-3.2-1.3C849.5,275.4,849.1,274.2,849.1,272.7z M850.7,272.7
			c0,1.2,0.3,2.1,0.8,2.7c0.5,0.6,1.2,0.9,2,0.9c0.8,0,1.4-0.3,2-0.9s0.8-1.5,0.8-2.7c0-1.2-0.3-2-0.8-2.6c-0.5-0.6-1.2-0.9-2-0.9
			c-0.8,0-1.4,0.3-2,0.9S850.7,271.5,850.7,272.7z"/>
		<path d="M861.5,273.1v-1.2c0.7,0,1.1,0,1.4-0.1c0.2,0,0.5-0.2,0.7-0.4s0.3-0.5,0.3-0.9c0-0.4-0.1-0.8-0.4-1
			c-0.3-0.3-0.7-0.4-1.1-0.4c-0.9,0-1.5,0.5-1.9,1.6l-1.5-0.2c0.5-1.8,1.6-2.6,3.4-2.6c1,0,1.8,0.3,2.3,0.8c0.6,0.5,0.8,1.2,0.8,2
			c0,0.8-0.4,1.4-1.1,1.8c0.5,0.3,0.8,0.6,1.1,1s0.4,0.9,0.4,1.4c0,0.8-0.3,1.5-0.9,2s-1.5,0.8-2.6,0.8c-2.1,0-3.4-0.9-3.7-2.8
			l1.5-0.3c0.1,0.6,0.4,1.1,0.8,1.4c0.4,0.3,0.9,0.5,1.4,0.5s1-0.2,1.3-0.5c0.4-0.3,0.5-0.7,0.5-1.2c0-0.4-0.1-0.7-0.3-0.9
			s-0.5-0.4-0.7-0.5c-0.3-0.1-0.7-0.1-1.4-0.1C861.8,273.1,861.7,273.1,861.5,273.1z"/>
		<path d="M867.7,268h1.6v3.9h4.4V268h1.6v9.3h-1.6v-4.1h-4.4v4.1h-1.6V268z"/>
		<path d="M883.7,276.2c-0.6,0.5-1.2,0.8-1.7,1.1c-0.5,0.2-1.1,0.3-1.7,0.3c-1,0-1.8-0.3-2.4-0.8c-0.6-0.5-0.8-1.1-0.8-1.9
			c0-0.5,0.1-0.9,0.3-1.3c0.2-0.4,0.5-0.7,0.8-0.9s0.7-0.4,1.1-0.5c0.3-0.1,0.8-0.2,1.4-0.2c1.3-0.2,2.2-0.3,2.8-0.5
			c0-0.2,0-0.4,0-0.4c0-0.6-0.1-1.1-0.4-1.4c-0.4-0.4-1-0.5-1.8-0.5c-0.7,0-1.3,0.1-1.6,0.4s-0.6,0.7-0.8,1.4l-1.5-0.2
			c0.1-0.7,0.4-1.2,0.7-1.6c0.3-0.4,0.8-0.7,1.4-0.9c0.6-0.2,1.3-0.3,2.1-0.3c0.8,0,1.4,0.1,1.9,0.3s0.9,0.4,1.1,0.7
			c0.2,0.3,0.4,0.6,0.5,1.1c0.1,0.3,0.1,0.8,0.1,1.5v2.1c0,1.5,0,2.4,0.1,2.8c0.1,0.4,0.2,0.8,0.4,1.1h-1.7
			C883.9,277,883.8,276.6,883.7,276.2z M883.6,272.6c-0.6,0.2-1.4,0.4-2.6,0.6c-0.7,0.1-1.1,0.2-1.4,0.3s-0.5,0.3-0.6,0.5
			s-0.2,0.5-0.2,0.8c0,0.4,0.2,0.8,0.5,1.1s0.8,0.4,1.4,0.4c0.6,0,1.2-0.1,1.6-0.4s0.8-0.6,1-1.1c0.2-0.4,0.3-0.9,0.3-1.6V272.6z"/>
		<path d="M886.7,268h1.6v1.8c0,0.8,0,1.3,0.1,1.7c0.1,0.3,0.3,0.6,0.7,0.9c0.3,0.3,0.8,0.4,1.3,0.4c0.6,0,1.4-0.2,2.3-0.5V268h1.6
			v9.3h-1.6v-3.8c-1,0.3-1.9,0.5-2.7,0.5c-0.7,0-1.3-0.2-1.9-0.5c-0.5-0.4-0.9-0.8-1.1-1.3s-0.3-1.1-0.3-1.7V268z"/>
		<path d="M896.7,268h1.6v3.9h4.4V268h1.6v9.3h-1.6v-4.1h-4.4v4.1h-1.6V268z"/>
		<path d="M906.6,268h1.6v3.6h2c1.3,0,2.3,0.3,3,0.8s1.1,1.2,1.1,2.1c0,0.8-0.3,1.4-0.9,2c-0.6,0.6-1.5,0.8-2.8,0.8h-4V268z
			 M908.2,276h1.7c1,0,1.7-0.1,2.1-0.4s0.6-0.6,0.6-1.2c0-0.4-0.2-0.8-0.5-1.1s-1-0.5-2.1-0.5h-1.9V276z M915.5,268h1.6v9.3h-1.6
			V268z"/>
		<path d="M918.5,277.3l3.4-4.9l-3.2-4.5h2l1.4,2.2c0.3,0.4,0.5,0.8,0.7,1c0.3-0.4,0.5-0.7,0.7-1l1.6-2.2h1.9l-3.2,4.4l3.5,4.9h-1.9
			l-1.9-2.9l-0.5-0.8l-2.5,3.7H918.5z"/>
		<path d="M932.9,268h1.6v1.8c0,0.8,0,1.3,0.1,1.7c0.1,0.3,0.3,0.6,0.7,0.9c0.3,0.3,0.8,0.4,1.3,0.4c0.6,0,1.4-0.2,2.3-0.5V268h1.6
			v9.3h-1.6v-3.8c-1,0.3-1.9,0.5-2.7,0.5c-0.7,0-1.3-0.2-1.9-0.5c-0.5-0.4-0.9-0.8-1.1-1.3s-0.3-1.1-0.3-1.7V268z"/>
		<path d="M942.9,268h1.6v7.1l4.4-7.1h1.7v9.3H949v-7.1l-4.4,7.1h-1.7V268z"/>
		<path d="M959.1,273.9l1.6,0.2c-0.2,1.1-0.6,1.9-1.3,2.5c-0.7,0.6-1.6,0.9-2.6,0.9c-1.3,0-2.3-0.4-3.1-1.3c-0.8-0.8-1.2-2-1.2-3.6
			c0-1,0.2-1.9,0.5-2.6s0.8-1.3,1.5-1.7c0.7-0.4,1.4-0.6,2.2-0.6c1,0,1.8,0.3,2.5,0.8s1.1,1.2,1.2,2.2l-1.5,0.2
			c-0.1-0.6-0.4-1.1-0.8-1.4s-0.8-0.5-1.3-0.5c-0.8,0-1.4,0.3-1.9,0.9c-0.5,0.6-0.7,1.5-0.7,2.7c0,1.3,0.2,2.2,0.7,2.7
			s1.1,0.9,1.9,0.9c0.6,0,1.1-0.2,1.6-0.6S958.9,274.7,959.1,273.9z"/>
		<path d="M968.4,274.3l1.6,0.2c-0.3,1-0.7,1.7-1.4,2.2s-1.6,0.8-2.7,0.8c-1.4,0-2.4-0.4-3.2-1.3c-0.8-0.8-1.2-2-1.2-3.5
			c0-1.6,0.4-2.8,1.2-3.7s1.9-1.3,3.1-1.3c1.2,0,2.3,0.4,3.1,1.3s1.2,2,1.2,3.6c0,0.1,0,0.2,0,0.4h-7c0.1,1,0.3,1.8,0.9,2.4
			s1.2,0.8,2,0.8c0.6,0,1.1-0.2,1.5-0.5S968.1,275,968.4,274.3z M963.2,271.8h5.2c-0.1-0.8-0.3-1.4-0.6-1.8c-0.5-0.6-1.2-0.9-2-0.9
			c-0.7,0-1.3,0.2-1.8,0.7S963.2,271,963.2,271.8z"/>
		<path d="M972.1,268h7.3v9.3h-1.6v-8h-4.2v4.6c0,1.1,0,1.8-0.1,2.1s-0.3,0.6-0.6,0.9s-0.8,0.4-1.4,0.4c-0.4,0-0.8,0-1.3-0.1V276
			h0.7c0.3,0,0.6,0,0.7-0.1s0.2-0.2,0.3-0.3s0.1-0.6,0.1-1.4V268z"/>
		<path d="M982.3,277.3v-1.8h1.8v1.8c0,0.7-0.1,1.2-0.4,1.6s-0.6,0.7-1.1,0.9l-0.4-0.7c0.3-0.1,0.6-0.4,0.7-0.6
			c0.2-0.3,0.2-0.7,0.3-1.2H982.3z"/>
		<path d="M76.2,289.6h7.6v1.3h-3v8h-1.6v-8h-3V289.6z"/>
		<path d="M85.3,302.5v-12.9h1.4v1.2c0.3-0.5,0.7-0.8,1.2-1.1c0.4-0.2,0.9-0.4,1.6-0.4c0.8,0,1.5,0.2,2.1,0.6s1.1,1,1.4,1.7
			c0.3,0.7,0.5,1.6,0.5,2.5c0,1-0.2,1.8-0.5,2.6c-0.3,0.8-0.8,1.4-1.5,1.8c-0.7,0.4-1.3,0.6-2.1,0.6c-0.5,0-1-0.1-1.4-0.3
			s-0.8-0.5-1-0.8v4.5H85.3z M86.8,294.3c0,1.2,0.2,2.1,0.7,2.7s1.1,0.9,1.8,0.9c0.7,0,1.3-0.3,1.8-0.9c0.5-0.6,0.8-1.5,0.8-2.8
			c0-1.2-0.2-2.1-0.7-2.7s-1.1-0.9-1.8-0.9c-0.7,0-1.3,0.3-1.8,0.9C87,292.2,86.8,293.1,86.8,294.3z"/>
		<path d="M101.7,295.9l1.6,0.2c-0.3,1-0.7,1.7-1.4,2.2s-1.6,0.8-2.7,0.8c-1.4,0-2.4-0.4-3.2-1.3c-0.8-0.8-1.2-2-1.2-3.5
			c0-1.6,0.4-2.8,1.2-3.7s1.9-1.3,3.1-1.3c1.2,0,2.3,0.4,3.1,1.3s1.2,2,1.2,3.6c0,0.1,0,0.2,0,0.4h-7c0.1,1,0.3,1.8,0.9,2.4
			s1.2,0.8,2,0.8c0.6,0,1.1-0.2,1.5-0.5S101.5,296.6,101.7,295.9z M96.5,293.4h5.2c-0.1-0.8-0.3-1.4-0.6-1.8c-0.5-0.6-1.2-0.9-2-0.9
			c-0.7,0-1.3,0.2-1.8,0.7S96.6,292.6,96.5,293.4z"/>
		<path d="M105.4,289.6h1.6v3.9h4.4v-3.9h1.6v9.3h-1.6v-4.1h-4.4v4.1h-1.6V289.6z"/>
		<path d="M115.3,289.6h1.6v7.1l4.4-7.1h1.7v9.3h-1.6v-7.1l-4.4,7.1h-1.7V289.6z"/>
		<path d="M125.3,302.5v-12.9h1.4v1.2c0.3-0.5,0.7-0.8,1.2-1.1c0.4-0.2,0.9-0.4,1.6-0.4c0.8,0,1.5,0.2,2.1,0.6s1.1,1,1.4,1.7
			c0.3,0.7,0.5,1.6,0.5,2.5c0,1-0.2,1.8-0.5,2.6c-0.3,0.8-0.8,1.4-1.5,1.8c-0.7,0.4-1.3,0.6-2.1,0.6c-0.5,0-1-0.1-1.4-0.3
			s-0.8-0.5-1-0.8v4.5H125.3z M126.8,294.3c0,1.2,0.2,2.1,0.7,2.7s1.1,0.9,1.8,0.9c0.7,0,1.3-0.3,1.8-0.9c0.5-0.6,0.8-1.5,0.8-2.8
			c0-1.2-0.2-2.1-0.7-2.7s-1.1-0.9-1.8-0.9c-0.7,0-1.3,0.3-1.8,0.9C127,292.2,126.8,293.1,126.8,294.3z"/>
		<path d="M134.8,294.3c0-1.7,0.5-3,1.4-3.8c0.8-0.7,1.8-1,2.9-1c1.3,0,2.3,0.4,3.1,1.3s1.2,2,1.2,3.5c0,1.2-0.2,2.1-0.5,2.8
			c-0.4,0.7-0.9,1.2-1.6,1.6s-1.4,0.6-2.3,0.6c-1.3,0-2.4-0.4-3.2-1.3S134.8,295.8,134.8,294.3z M136.4,294.3c0,1.2,0.3,2.1,0.8,2.7
			c0.5,0.6,1.2,0.9,2,0.9c0.8,0,1.4-0.3,2-0.9s0.8-1.5,0.8-2.7c0-1.2-0.3-2-0.8-2.6c-0.5-0.6-1.2-0.9-2-0.9c-0.8,0-1.4,0.3-2,0.9
			S136.4,293.1,136.4,294.3z"/>
		<path d="M145.4,289.6h3.6c0.9,0,1.6,0.1,2,0.2c0.4,0.1,0.8,0.4,1.1,0.8s0.5,0.9,0.5,1.4c0,0.4-0.1,0.8-0.3,1.2
			c-0.2,0.3-0.5,0.6-0.8,0.8c0.4,0.1,0.8,0.4,1.1,0.8c0.3,0.4,0.4,0.9,0.4,1.4c-0.1,0.9-0.4,1.5-0.9,2s-1.4,0.6-2.5,0.6h-4.2V289.6z
			 M147,293.5h1.7c0.7,0,1.1,0,1.4-0.1s0.5-0.2,0.7-0.4c0.2-0.2,0.3-0.5,0.3-0.8c0-0.5-0.2-0.8-0.5-1s-0.9-0.3-1.8-0.3H147V293.5z
			 M147,297.6h2.1c0.9,0,1.5-0.1,1.8-0.3c0.3-0.2,0.5-0.6,0.5-1.1c0-0.3-0.1-0.6-0.3-0.8c-0.2-0.3-0.4-0.4-0.8-0.5
			c-0.3-0.1-0.8-0.1-1.5-0.1H147V297.6z"/>
		<path d="M154.9,289.6h1.6v4c0.5,0,0.9-0.1,1.1-0.3s0.5-0.8,0.9-1.7c0.3-0.7,0.6-1.2,0.8-1.5s0.4-0.4,0.7-0.5s0.7-0.1,1.2-0.1h0.3
			v1.3l-0.4,0c-0.4,0-0.7,0.1-0.8,0.2c-0.1,0.1-0.3,0.5-0.6,1.2c-0.2,0.6-0.5,1-0.7,1.3s-0.5,0.4-0.9,0.6c0.7,0.2,1.3,0.8,2,1.9
			l1.7,2.9H160l-1.7-2.9c-0.3-0.6-0.6-1-0.9-1.1c-0.3-0.2-0.6-0.3-0.9-0.3v4.3h-1.6V289.6z"/>
		<path d="M162.9,302.5l-0.2-1.5c0.3,0.1,0.6,0.1,0.9,0.1c0.4,0,0.6-0.1,0.8-0.2s0.4-0.3,0.5-0.5c0.1-0.2,0.3-0.6,0.5-1.2
			c0-0.1,0.1-0.2,0.1-0.4l-3.5-9.4h1.7l1.9,5.4c0.3,0.7,0.5,1.4,0.7,2.2c0.2-0.7,0.4-1.4,0.7-2.1l2-5.4h1.6l-3.6,9.5
			c-0.4,1-0.7,1.7-0.9,2.1c-0.3,0.5-0.6,0.9-1,1.1c-0.4,0.2-0.8,0.4-1.3,0.4C163.6,302.7,163.3,302.7,162.9,302.5z"/>
		<path d="M176.9,302.5l-0.2-1.5c0.3,0.1,0.6,0.1,0.9,0.1c0.4,0,0.6-0.1,0.8-0.2s0.4-0.3,0.5-0.5c0.1-0.2,0.3-0.6,0.5-1.2
			c0-0.1,0.1-0.2,0.1-0.4l-3.5-9.4h1.7l1.9,5.4c0.3,0.7,0.5,1.4,0.7,2.2c0.2-0.7,0.4-1.4,0.7-2.1l2-5.4h1.6l-3.6,9.5
			c-0.4,1-0.7,1.7-0.9,2.1c-0.3,0.5-0.6,0.9-1,1.1c-0.4,0.2-0.8,0.4-1.3,0.4C177.6,302.7,177.3,302.7,176.9,302.5z"/>
		<path d="M185.8,289.6h2.5l2.5,7.5l2.7-7.5h2.3v9.3h-1.6v-7.5l-2.8,7.5H190l-2.6-7.9v7.9h-1.5V289.6z"/>
		<path d="M204.3,297.8c-0.6,0.5-1.1,0.8-1.7,1.1s-1.1,0.3-1.7,0.3c-1,0-1.8-0.3-2.4-0.8c-0.6-0.5-0.8-1.1-0.8-1.9
			c0-0.5,0.1-0.9,0.3-1.3c0.2-0.4,0.5-0.7,0.8-0.9s0.7-0.4,1.1-0.5c0.3-0.1,0.8-0.2,1.4-0.2c1.3-0.2,2.2-0.3,2.8-0.5
			c0-0.2,0-0.4,0-0.4c0-0.6-0.1-1.1-0.4-1.4c-0.4-0.4-1-0.5-1.8-0.5c-0.7,0-1.3,0.1-1.6,0.4s-0.6,0.7-0.8,1.4l-1.5-0.2
			c0.1-0.7,0.4-1.2,0.7-1.6c0.3-0.4,0.8-0.7,1.4-0.9c0.6-0.2,1.3-0.3,2.1-0.3c0.8,0,1.4,0.1,1.9,0.3s0.9,0.4,1.1,0.7
			c0.2,0.3,0.4,0.6,0.5,1.1c0.1,0.3,0.1,0.8,0.1,1.5v2.1c0,1.5,0,2.4,0.1,2.8c0.1,0.4,0.2,0.8,0.4,1.1h-1.7
			C204.4,298.6,204.3,298.2,204.3,297.8z M204.1,294.2c-0.6,0.2-1.4,0.4-2.6,0.6c-0.7,0.1-1.1,0.2-1.4,0.3s-0.5,0.3-0.6,0.5
			s-0.2,0.5-0.2,0.8c0,0.4,0.2,0.8,0.5,1.1s0.8,0.4,1.4,0.4c0.6,0,1.2-0.1,1.6-0.4s0.8-0.6,1-1.1c0.2-0.4,0.3-0.9,0.3-1.6V294.2z"/>
		<path d="M213.2,289.6h1.6v7.1l4.4-7.1h1.7v9.3h-1.6v-7.1l-4.4,7.1h-1.7V289.6z"/>
		<path d="M228.2,302.5v-12.9h1.4v1.2c0.3-0.5,0.7-0.8,1.2-1.1c0.4-0.2,0.9-0.4,1.6-0.4c0.8,0,1.5,0.2,2.1,0.6s1.1,1,1.4,1.7
			c0.3,0.7,0.5,1.6,0.5,2.5c0,1-0.2,1.8-0.5,2.6c-0.3,0.8-0.8,1.4-1.5,1.8c-0.7,0.4-1.3,0.6-2.1,0.6c-0.5,0-1-0.1-1.4-0.3
			s-0.8-0.5-1-0.8v4.5H228.2z M229.7,294.3c0,1.2,0.2,2.1,0.7,2.7s1.1,0.9,1.8,0.9c0.7,0,1.3-0.3,1.8-0.9c0.5-0.6,0.8-1.5,0.8-2.8
			c0-1.2-0.2-2.1-0.7-2.7s-1.1-0.9-1.8-0.9c-0.7,0-1.3,0.3-1.8,0.9C229.9,292.2,229.7,293.1,229.7,294.3z"/>
		<path d="M244.3,297.8c-0.6,0.5-1.1,0.8-1.7,1.1s-1.1,0.3-1.7,0.3c-1,0-1.8-0.3-2.4-0.8c-0.6-0.5-0.8-1.1-0.8-1.9
			c0-0.5,0.1-0.9,0.3-1.3c0.2-0.4,0.5-0.7,0.8-0.9s0.7-0.4,1.1-0.5c0.3-0.1,0.8-0.2,1.4-0.2c1.3-0.2,2.2-0.3,2.8-0.5
			c0-0.2,0-0.4,0-0.4c0-0.6-0.1-1.1-0.4-1.4c-0.4-0.4-1-0.5-1.8-0.5c-0.7,0-1.3,0.1-1.6,0.4s-0.6,0.7-0.8,1.4l-1.5-0.2
			c0.1-0.7,0.4-1.2,0.7-1.6c0.3-0.4,0.8-0.7,1.4-0.9c0.6-0.2,1.3-0.3,2.1-0.3c0.8,0,1.4,0.1,1.9,0.3s0.9,0.4,1.1,0.7
			c0.2,0.3,0.4,0.6,0.5,1.1c0.1,0.3,0.1,0.8,0.1,1.5v2.1c0,1.5,0,2.4,0.1,2.8c0.1,0.4,0.2,0.8,0.4,1.1h-1.7
			C244.5,298.6,244.4,298.2,244.3,297.8z M244.2,294.2c-0.6,0.2-1.4,0.4-2.6,0.6c-0.7,0.1-1.1,0.2-1.4,0.3s-0.5,0.3-0.6,0.5
			s-0.2,0.5-0.2,0.8c0,0.4,0.2,0.8,0.5,1.1s0.8,0.4,1.4,0.4c0.6,0,1.2-0.1,1.6-0.4s0.8-0.6,1-1.1c0.2-0.4,0.3-0.9,0.3-1.6V294.2z"/>
		<path d="M250.1,294.7v-1.2c0.7,0,1.1,0,1.4-0.1s0.5-0.2,0.7-0.4s0.3-0.5,0.3-0.9c0-0.4-0.1-0.8-0.4-1c-0.3-0.3-0.7-0.4-1.1-0.4
			c-0.9,0-1.5,0.5-1.9,1.6l-1.5-0.2c0.5-1.8,1.6-2.6,3.4-2.6c1,0,1.8,0.3,2.3,0.8s0.8,1.2,0.8,2c0,0.8-0.4,1.4-1.1,1.8
			c0.5,0.3,0.8,0.6,1.1,1s0.4,0.9,0.4,1.4c0,0.8-0.3,1.5-0.9,2s-1.5,0.8-2.6,0.8c-2.1,0-3.4-0.9-3.7-2.8l1.5-0.3
			c0.1,0.6,0.4,1.1,0.8,1.4s0.9,0.5,1.4,0.5s1-0.2,1.3-0.5s0.5-0.7,0.5-1.2c0-0.4-0.1-0.7-0.3-0.9s-0.5-0.4-0.7-0.5
			c-0.3-0.1-0.7-0.1-1.4-0.1C250.4,294.7,250.3,294.7,250.1,294.7z"/>
		<path d="M256.3,289.6h3.6c0.9,0,1.6,0.1,2,0.2c0.4,0.1,0.8,0.4,1.1,0.8s0.5,0.9,0.5,1.4c0,0.4-0.1,0.8-0.3,1.2
			c-0.2,0.3-0.5,0.6-0.8,0.8c0.4,0.1,0.8,0.4,1.1,0.8c0.3,0.4,0.4,0.9,0.4,1.4c-0.1,0.9-0.4,1.5-0.9,2s-1.4,0.6-2.5,0.6h-4.2V289.6z
			 M257.9,293.5h1.7c0.7,0,1.1,0,1.4-0.1s0.5-0.2,0.7-0.4c0.2-0.2,0.3-0.5,0.3-0.8c0-0.5-0.2-0.8-0.5-1s-0.9-0.3-1.8-0.3h-1.7V293.5
			z M257.9,297.6h2.1c0.9,0,1.5-0.1,1.8-0.3c0.3-0.2,0.5-0.6,0.5-1.1c0-0.3-0.1-0.6-0.3-0.8c-0.2-0.3-0.4-0.4-0.8-0.5
			c-0.3-0.1-0.8-0.1-1.5-0.1h-1.9V297.6z"/>
		<path d="M265.9,289.6h1.6v7.1l4.4-7.1h1.7v9.3H272v-7.1l-4.4,7.1h-1.7V289.6z"/>
		<path d="M275.1,289.6h7.6v1.3h-3v8h-1.6v-8h-3V289.6z"/>
		<path d="M284.2,289.6h1.6v7.1l4.4-7.1h1.7v9.3h-1.6v-7.1l-4.4,7.1h-1.7V289.6z"/>
		<path d="M300.6,295.9l1.6,0.2c-0.3,1-0.7,1.7-1.4,2.2s-1.6,0.8-2.7,0.8c-1.4,0-2.4-0.4-3.2-1.3c-0.8-0.8-1.2-2-1.2-3.5
			c0-1.6,0.4-2.8,1.2-3.7s1.9-1.3,3.1-1.3c1.2,0,2.3,0.4,3.1,1.3s1.2,2,1.2,3.6c0,0.1,0,0.2,0,0.4h-7c0.1,1,0.3,1.8,0.9,2.4
			s1.2,0.8,2,0.8c0.6,0,1.1-0.2,1.5-0.5S300.4,296.6,300.6,295.9z M295.4,293.4h5.2c-0.1-0.8-0.3-1.4-0.6-1.8
			c-0.5-0.6-1.2-0.9-2-0.9c-0.7,0-1.3,0.2-1.8,0.7S295.5,292.6,295.4,293.4z"/>
		<path d="M310.5,289.6h6.5v8h1v3.9h-1.3v-2.6h-7.3v2.6h-1.3v-3.9h0.8C310,296.1,310.5,293.4,310.5,289.6z M311.8,290.9
			c-0.1,3-0.6,5.3-1.4,6.7h5v-6.7H311.8z"/>
		<path d="M319.7,302.5v-12.9h1.4v1.2c0.3-0.5,0.7-0.8,1.2-1.1c0.4-0.2,0.9-0.4,1.6-0.4c0.8,0,1.5,0.2,2.1,0.6s1.1,1,1.4,1.7
			c0.3,0.7,0.5,1.6,0.5,2.5c0,1-0.2,1.8-0.5,2.6c-0.3,0.8-0.8,1.4-1.5,1.8c-0.7,0.4-1.3,0.6-2.1,0.6c-0.5,0-1-0.1-1.4-0.3
			s-0.8-0.5-1-0.8v4.5H319.7z M321.2,294.3c0,1.2,0.2,2.1,0.7,2.7s1.1,0.9,1.8,0.9c0.7,0,1.3-0.3,1.8-0.9c0.5-0.6,0.8-1.5,0.8-2.8
			c0-1.2-0.2-2.1-0.7-2.7s-1.1-0.9-1.8-0.9c-0.7,0-1.3,0.3-1.8,0.9C321.4,292.2,321.2,293.1,321.2,294.3z"/>
		<path d="M329.5,302.5l-0.2-1.5c0.3,0.1,0.6,0.1,0.9,0.1c0.4,0,0.6-0.1,0.8-0.2s0.4-0.3,0.5-0.5c0.1-0.2,0.3-0.6,0.5-1.2
			c0-0.1,0.1-0.2,0.1-0.4l-3.5-9.4h1.7l1.9,5.4c0.3,0.7,0.5,1.4,0.7,2.2c0.2-0.7,0.4-1.4,0.7-2.1l2-5.4h1.6l-3.6,9.5
			c-0.4,1-0.7,1.7-0.9,2.1c-0.3,0.5-0.6,0.9-1,1.1c-0.4,0.2-0.8,0.4-1.3,0.4C330.2,302.7,329.9,302.7,329.5,302.5z"/>
		<path d="M338.6,289.6h5.4v1.3h-3.8v8h-1.6V289.6z"/>
		<path d="M345.1,289.6h1.6v7.1l4.4-7.1h1.7v9.3h-1.6v-7.1l-4.4,7.1h-1.7V289.6z"/>
		<path d="M354.1,298.9l3.4-4.9l-3.2-4.5h2l1.4,2.2c0.3,0.4,0.5,0.8,0.7,1c0.3-0.4,0.5-0.7,0.7-1l1.6-2.2h1.9l-3.2,4.4l3.5,4.9h-1.9
			L359,296l-0.5-0.8l-2.5,3.7H354.1z"/>
		<path d="M375.3,295.5l1.6,0.2c-0.2,1.1-0.6,1.9-1.3,2.5c-0.7,0.6-1.6,0.9-2.6,0.9c-1.3,0-2.3-0.4-3.1-1.3c-0.8-0.8-1.2-2-1.2-3.6
			c0-1,0.2-1.9,0.5-2.6s0.8-1.3,1.5-1.7c0.7-0.4,1.4-0.6,2.2-0.6c1,0,1.8,0.3,2.5,0.8s1.1,1.2,1.2,2.2l-1.5,0.2
			c-0.1-0.6-0.4-1.1-0.8-1.4s-0.8-0.5-1.3-0.5c-0.8,0-1.4,0.3-1.9,0.9c-0.5,0.6-0.7,1.5-0.7,2.7c0,1.3,0.2,2.2,0.7,2.7
			s1.1,0.9,1.9,0.9c0.6,0,1.1-0.2,1.6-0.6S375.2,296.3,375.3,295.5z"/>
		<path d="M378.2,289.6h7.4v9.3H384v-8h-4.2v8h-1.6V289.6z"/>
		<path d="M387.3,294.3c0-1.7,0.5-3,1.4-3.8c0.8-0.7,1.8-1,2.9-1c1.3,0,2.3,0.4,3.1,1.3s1.2,2,1.2,3.5c0,1.2-0.2,2.1-0.5,2.8
			c-0.4,0.7-0.9,1.2-1.6,1.6c-0.7,0.4-1.4,0.6-2.3,0.6c-1.3,0-2.4-0.4-3.2-1.3S387.3,295.8,387.3,294.3z M389,294.3
			c0,1.2,0.3,2.1,0.8,2.7c0.5,0.6,1.2,0.9,2,0.9c0.8,0,1.4-0.3,2-0.9s0.8-1.5,0.8-2.7c0-1.2-0.3-2-0.8-2.6c-0.5-0.6-1.2-0.9-2-0.9
			c-0.8,0-1.4,0.3-2,0.9S389,293.1,389,294.3z"/>
		<path d="M404,295.5l1.6,0.2c-0.2,1.1-0.6,1.9-1.3,2.5c-0.7,0.6-1.6,0.9-2.6,0.9c-1.3,0-2.3-0.4-3.1-1.3c-0.8-0.8-1.2-2-1.2-3.6
			c0-1,0.2-1.9,0.5-2.6s0.8-1.3,1.5-1.7c0.7-0.4,1.4-0.6,2.2-0.6c1,0,1.8,0.3,2.5,0.8s1.1,1.2,1.2,2.2l-1.5,0.2
			c-0.1-0.6-0.4-1.1-0.8-1.4s-0.8-0.5-1.3-0.5c-0.8,0-1.4,0.3-1.9,0.9c-0.5,0.6-0.7,1.5-0.7,2.7c0,1.3,0.2,2.2,0.7,2.7
			s1.1,0.9,1.9,0.9c0.6,0,1.1-0.2,1.6-0.6S403.9,296.3,404,295.5z"/>
		<path d="M406.5,294.3c0-1.7,0.5-3,1.4-3.8c0.8-0.7,1.8-1,2.9-1c1.3,0,2.3,0.4,3.1,1.3s1.2,2,1.2,3.5c0,1.2-0.2,2.1-0.5,2.8
			c-0.4,0.7-0.9,1.2-1.6,1.6c-0.7,0.4-1.4,0.6-2.3,0.6c-1.3,0-2.4-0.4-3.2-1.3S406.5,295.8,406.5,294.3z M408.2,294.3
			c0,1.2,0.3,2.1,0.8,2.7c0.5,0.6,1.2,0.9,2,0.9c0.8,0,1.4-0.3,2-0.9s0.8-1.5,0.8-2.7c0-1.2-0.3-2-0.8-2.6c-0.5-0.6-1.2-0.9-2-0.9
			c-0.8,0-1.4,0.3-2,0.9S408.2,293.1,408.2,294.3z"/>
		<path d="M424,285.7l1.4,0c-0.1,0.6-0.2,1.1-0.4,1.3s-0.5,0.4-0.8,0.5s-1,0.1-2,0.1c-1.3,0-2.2,0.1-2.7,0.4s-0.8,0.7-1,1.2
			c-0.2,0.6-0.3,1.3-0.3,2.1c0.4-0.6,0.9-1,1.4-1.3c0.5-0.3,1.1-0.4,1.8-0.4c1.2,0,2.2,0.4,3,1.3s1.2,2,1.2,3.4c0,1.1-0.2,2-0.6,2.7
			s-0.9,1.2-1.4,1.6c-0.6,0.4-1.3,0.6-2.3,0.6c-1.1,0-2-0.3-2.6-0.8s-1.1-1.2-1.4-1.9s-0.5-2.2-0.5-4.1c0-2.5,0.4-4.1,1.3-5
			c0.8-0.9,2.1-1.3,3.9-1.3c1.1,0,1.7,0,1.8-0.1S423.9,285.9,424,285.7z M423.9,294.2c0-1-0.2-1.8-0.7-2.4c-0.5-0.6-1.1-0.9-1.9-0.9
			c-0.9,0-1.5,0.3-2,1s-0.7,1.5-0.7,2.6c0,1.1,0.3,1.9,0.8,2.5s1.2,0.9,1.9,0.9c0.8,0,1.4-0.3,1.9-1S423.9,295.3,423.9,294.2z"/>
		<path d="M427.5,289.6h1.6v3.9h4.4v-3.9h1.6v9.3h-1.6v-4.1H429v4.1h-1.6V289.6z"/>
		<path d="M436.8,294.3c0-1.7,0.5-3,1.4-3.8c0.8-0.7,1.8-1,2.9-1c1.3,0,2.3,0.4,3.1,1.3s1.2,2,1.2,3.5c0,1.2-0.2,2.1-0.5,2.8
			c-0.4,0.7-0.9,1.2-1.6,1.6s-1.4,0.6-2.3,0.6c-1.3,0-2.4-0.4-3.2-1.3C437.2,297,436.8,295.8,436.8,294.3z M438.4,294.3
			c0,1.2,0.3,2.1,0.8,2.7c0.5,0.6,1.2,0.9,2,0.9c0.8,0,1.4-0.3,2-0.9s0.8-1.5,0.8-2.7c0-1.2-0.3-2-0.8-2.6c-0.5-0.6-1.2-0.9-2-0.9
			c-0.8,0-1.4,0.3-2,0.9S438.4,293.1,438.4,294.3z"/>
		<path d="M453.5,295.5l1.6,0.2c-0.2,1.1-0.6,1.9-1.3,2.5c-0.7,0.6-1.6,0.9-2.6,0.9c-1.3,0-2.3-0.4-3.1-1.3c-0.8-0.8-1.2-2-1.2-3.6
			c0-1,0.2-1.9,0.5-2.6s0.8-1.3,1.5-1.7c0.7-0.4,1.4-0.6,2.2-0.6c1,0,1.8,0.3,2.5,0.8s1.1,1.2,1.2,2.2l-1.5,0.2
			c-0.1-0.6-0.4-1.1-0.8-1.4c-0.4-0.3-0.8-0.5-1.3-0.5c-0.8,0-1.4,0.3-1.9,0.9c-0.5,0.6-0.7,1.5-0.7,2.7c0,1.3,0.2,2.2,0.7,2.7
			s1.1,0.9,1.9,0.9c0.6,0,1.1-0.2,1.6-0.6S453.4,296.3,453.5,295.5z"/>
		<path d="M455.6,289.6h7.6v1.3h-3v8h-1.6v-8h-3V289.6z"/>
		<path d="M470.8,295.9l1.6,0.2c-0.3,1-0.7,1.7-1.4,2.2s-1.6,0.8-2.7,0.8c-1.4,0-2.4-0.4-3.2-1.3c-0.8-0.8-1.2-2-1.2-3.5
			c0-1.6,0.4-2.8,1.2-3.7s1.9-1.3,3.1-1.3c1.2,0,2.3,0.4,3.1,1.3s1.2,2,1.2,3.6c0,0.1,0,0.2,0,0.4h-7c0.1,1,0.3,1.8,0.9,2.4
			s1.2,0.8,2,0.8c0.6,0,1.1-0.2,1.5-0.5S470.6,296.6,470.8,295.9z M465.6,293.4h5.2c-0.1-0.8-0.3-1.4-0.6-1.8
			c-0.5-0.6-1.2-0.9-2-0.9c-0.7,0-1.3,0.2-1.8,0.7S465.7,292.6,465.6,293.4z"/>
		<path d="M474.5,289.6h1.6v7.1l4.4-7.1h1.7v9.3h-1.6v-7.1l-4.4,7.1h-1.7V289.6z M480,286.1h1.1c-0.1,0.7-0.4,1.3-0.8,1.7
			c-0.4,0.4-1,0.6-1.8,0.6c-0.8,0-1.3-0.2-1.8-0.6c-0.4-0.4-0.7-1-0.8-1.7h1.1c0.1,0.4,0.2,0.7,0.5,0.9c0.2,0.2,0.6,0.3,1,0.3
			c0.5,0,0.8-0.1,1.1-0.3C479.7,286.8,479.9,286.5,480,286.1z"/>
		<path d="M489.5,289.6h1.6v7.1l4.4-7.1h1.7v9.3h-1.6v-7.1l-4.4,7.1h-1.7V289.6z"/>
		<path d="M504.6,289.6h1.6v4c0.5,0,0.9-0.1,1.1-0.3c0.2-0.2,0.5-0.8,0.9-1.7c0.3-0.7,0.6-1.2,0.8-1.5s0.4-0.4,0.7-0.5
			s0.7-0.1,1.2-0.1h0.3v1.3l-0.4,0c-0.4,0-0.7,0.1-0.8,0.2c-0.1,0.1-0.3,0.5-0.6,1.2c-0.2,0.6-0.5,1-0.7,1.3s-0.5,0.4-0.9,0.6
			c0.7,0.2,1.3,0.8,2,1.9l1.7,2.9h-1.7L508,296c-0.3-0.6-0.6-1-0.9-1.1c-0.3-0.2-0.6-0.3-0.9-0.3v4.3h-1.6V289.6z"/>
		<path d="M518.9,297.8c-0.6,0.5-1.2,0.8-1.7,1.1c-0.5,0.2-1.1,0.3-1.7,0.3c-1,0-1.8-0.3-2.4-0.8c-0.6-0.5-0.8-1.1-0.8-1.9
			c0-0.5,0.1-0.9,0.3-1.3c0.2-0.4,0.5-0.7,0.8-0.9s0.7-0.4,1.1-0.5c0.3-0.1,0.8-0.2,1.4-0.2c1.3-0.2,2.2-0.3,2.8-0.5
			c0-0.2,0-0.4,0-0.4c0-0.6-0.1-1.1-0.4-1.4c-0.4-0.4-1-0.5-1.8-0.5c-0.7,0-1.3,0.1-1.6,0.4s-0.6,0.7-0.8,1.4l-1.5-0.2
			c0.1-0.7,0.4-1.2,0.7-1.6c0.3-0.4,0.8-0.7,1.4-0.9c0.6-0.2,1.3-0.3,2.1-0.3c0.8,0,1.4,0.1,1.9,0.3s0.9,0.4,1.1,0.7
			c0.2,0.3,0.4,0.6,0.5,1.1c0.1,0.3,0.1,0.8,0.1,1.5v2.1c0,1.5,0,2.4,0.1,2.8c0.1,0.4,0.2,0.8,0.4,1.1h-1.7
			C519.1,298.6,519,298.2,518.9,297.8z M518.8,294.2c-0.6,0.2-1.4,0.4-2.6,0.6c-0.7,0.1-1.1,0.2-1.4,0.3s-0.5,0.3-0.6,0.5
			s-0.2,0.5-0.2,0.8c0,0.4,0.2,0.8,0.5,1.1s0.8,0.4,1.4,0.4c0.6,0,1.2-0.1,1.6-0.4s0.8-0.6,1-1.1c0.2-0.4,0.3-0.9,0.3-1.6V294.2z"/>
		<path d="M521.9,289.6h1.6v1.8c0,0.8,0,1.3,0.1,1.7c0.1,0.3,0.3,0.6,0.7,0.9c0.3,0.3,0.8,0.4,1.3,0.4c0.6,0,1.4-0.2,2.3-0.5v-4.2
			h1.6v9.3h-1.6v-3.8c-1,0.3-1.9,0.5-2.7,0.5c-0.7,0-1.3-0.2-1.9-0.5c-0.5-0.4-0.9-0.8-1.1-1.3s-0.3-1.1-0.3-1.7V289.6z"/>
		<path d="M538.2,295.9l1.6,0.2c-0.3,1-0.7,1.7-1.4,2.2s-1.6,0.8-2.7,0.8c-1.4,0-2.4-0.4-3.2-1.3c-0.8-0.8-1.2-2-1.2-3.5
			c0-1.6,0.4-2.8,1.2-3.7s1.9-1.3,3.1-1.3c1.2,0,2.3,0.4,3.1,1.3s1.2,2,1.2,3.6c0,0.1,0,0.2,0,0.4h-7c0.1,1,0.3,1.8,0.9,2.4
			s1.2,0.8,2,0.8c0.6,0,1.1-0.2,1.5-0.5S538,296.6,538.2,295.9z M533,293.4h5.2c-0.1-0.8-0.3-1.4-0.6-1.8c-0.5-0.6-1.2-0.9-2-0.9
			c-0.7,0-1.3,0.2-1.8,0.7C533.4,291.9,533.1,292.6,533,293.4z"/>
		<path d="M547.9,295.5l1.6,0.2c-0.2,1.1-0.6,1.9-1.3,2.5c-0.7,0.6-1.6,0.9-2.6,0.9c-1.3,0-2.3-0.4-3.1-1.3c-0.8-0.8-1.2-2-1.2-3.6
			c0-1,0.2-1.9,0.5-2.6s0.8-1.3,1.5-1.7c0.7-0.4,1.4-0.6,2.2-0.6c1,0,1.8,0.3,2.5,0.8s1.1,1.2,1.2,2.2l-1.5,0.2
			c-0.1-0.6-0.4-1.1-0.8-1.4s-0.8-0.5-1.3-0.5c-0.8,0-1.4,0.3-1.9,0.9c-0.5,0.6-0.7,1.5-0.7,2.7c0,1.3,0.2,2.2,0.7,2.7
			s1.1,0.9,1.9,0.9c0.6,0,1.1-0.2,1.6-0.6S547.8,296.3,547.9,295.5z"/>
		<path d="M550,289.6h7.6v1.3h-3v8H553v-8h-3V289.6z"/>
		<path d="M559.1,289.6h3.6c0.9,0,1.6,0.1,2,0.2c0.4,0.1,0.8,0.4,1.1,0.8s0.5,0.9,0.5,1.4c0,0.4-0.1,0.8-0.3,1.2
			c-0.2,0.3-0.5,0.6-0.8,0.8c0.4,0.1,0.8,0.4,1.1,0.8c0.3,0.4,0.4,0.9,0.4,1.4c-0.1,0.9-0.4,1.5-0.9,2s-1.4,0.6-2.5,0.6h-4.2V289.6z
			 M560.7,293.5h1.7c0.7,0,1.1,0,1.4-0.1s0.5-0.2,0.7-0.4c0.2-0.2,0.3-0.5,0.3-0.8c0-0.5-0.2-0.8-0.5-1c-0.3-0.2-0.9-0.3-1.8-0.3
			h-1.7V293.5z M560.7,297.6h2.1c0.9,0,1.5-0.1,1.8-0.3c0.3-0.2,0.5-0.6,0.5-1.1c0-0.3-0.1-0.6-0.3-0.8c-0.2-0.3-0.4-0.4-0.8-0.5
			c-0.3-0.1-0.8-0.1-1.5-0.1h-1.9V297.6z"/>
		<path d="M569.1,298.9v-1.8h1.8v1.8c0,0.7-0.1,1.2-0.4,1.6s-0.6,0.7-1.1,0.9l-0.4-0.7c0.3-0.1,0.6-0.4,0.7-0.6
			c0.2-0.3,0.2-0.7,0.3-1.2H569.1z"/>
		<path d="M76.5,315.9c0-1.7,0.5-3,1.4-3.8c0.8-0.7,1.8-1,2.9-1c1.3,0,2.3,0.4,3.1,1.3c0.8,0.8,1.2,2,1.2,3.5c0,1.2-0.2,2.1-0.5,2.8
			s-0.9,1.2-1.6,1.6s-1.4,0.6-2.3,0.6c-1.3,0-2.4-0.4-3.2-1.3S76.5,317.4,76.5,315.9z M78.1,315.9c0,1.2,0.3,2.1,0.8,2.7
			s1.2,0.9,2,0.9c0.8,0,1.4-0.3,2-0.9s0.8-1.5,0.8-2.7c0-1.2-0.3-2-0.8-2.6s-1.2-0.9-2-0.9c-0.8,0-1.4,0.3-2,0.9
			S78.1,314.7,78.1,315.9z"/>
		<path d="M87.1,311.2h7.4v9.3h-1.6v-8h-4.2v8h-1.6V311.2z"/>
		<path d="M96.8,324.1v-12.9h1.4v1.2c0.3-0.5,0.7-0.8,1.2-1.1c0.4-0.2,0.9-0.4,1.6-0.4c0.8,0,1.5,0.2,2.1,0.6s1.1,1,1.4,1.7
			c0.3,0.7,0.5,1.6,0.5,2.5c0,1-0.2,1.8-0.5,2.6c-0.3,0.8-0.8,1.4-1.5,1.8c-0.7,0.4-1.3,0.6-2.1,0.6c-0.5,0-1-0.1-1.4-0.3
			s-0.8-0.5-1-0.8v4.5H96.8z M98.3,315.9c0,1.2,0.2,2.1,0.7,2.7s1.1,0.9,1.8,0.9c0.7,0,1.3-0.3,1.8-0.9s0.8-1.5,0.8-2.8
			c0-1.2-0.2-2.1-0.7-2.7s-1.1-0.9-1.8-0.9c-0.7,0-1.3,0.3-1.8,0.9S98.3,314.7,98.3,315.9z"/>
		<path d="M113.2,317.5l1.6,0.2c-0.3,1-0.7,1.7-1.4,2.2s-1.6,0.8-2.7,0.8c-1.4,0-2.4-0.4-3.2-1.3s-1.2-2-1.2-3.5
			c0-1.6,0.4-2.8,1.2-3.7s1.9-1.3,3.1-1.3c1.2,0,2.3,0.4,3.1,1.3s1.2,2,1.2,3.6c0,0.1,0,0.2,0,0.4h-7c0.1,1,0.3,1.8,0.9,2.4
			s1.2,0.8,2,0.8c0.6,0,1.1-0.2,1.5-0.5S113,318.2,113.2,317.5z M108,315h5.2c-0.1-0.8-0.3-1.4-0.6-1.8c-0.5-0.6-1.2-0.9-2-0.9
			c-0.7,0-1.3,0.2-1.8,0.7S108.1,314.2,108,315z"/>
		<path d="M117.7,311.2h6.5v8h1v3.9h-1.3v-2.6h-7.3v2.6h-1.3v-3.9h0.8C117.2,317.7,117.8,315,117.7,311.2z M119,312.5
			c-0.1,3-0.6,5.3-1.4,6.7h5v-6.7H119z"/>
		<path d="M133.4,317.5l1.6,0.2c-0.3,1-0.7,1.7-1.4,2.2s-1.6,0.8-2.7,0.8c-1.4,0-2.4-0.4-3.2-1.3s-1.2-2-1.2-3.5
			c0-1.6,0.4-2.8,1.2-3.7s1.9-1.3,3.1-1.3c1.2,0,2.3,0.4,3.1,1.3s1.2,2,1.2,3.6c0,0.1,0,0.2,0,0.4h-7c0.1,1,0.3,1.8,0.9,2.4
			s1.2,0.8,2,0.8c0.6,0,1.1-0.2,1.5-0.5S133.1,318.2,133.4,317.5z M128.2,315h5.2c-0.1-0.8-0.3-1.4-0.6-1.8c-0.5-0.6-1.2-0.9-2-0.9
			c-0.7,0-1.3,0.2-1.8,0.7S128.2,314.2,128.2,315z"/>
		<path d="M137.2,311.2h7.3v9.3h-1.6v-8h-4.2v4.6c0,1.1,0,1.8-0.1,2.1s-0.3,0.6-0.6,0.9s-0.8,0.4-1.4,0.4c-0.4,0-0.8,0-1.3-0.1v-1.3
			h0.7c0.3,0,0.6,0,0.7-0.1c0.1-0.1,0.2-0.2,0.3-0.3s0.1-0.6,0.1-1.4V311.2z"/>
		<path d="M154.2,311.2v9.3h-1.6v-3.6h-0.9c-0.6,0-1,0.1-1.2,0.2s-0.7,0.6-1.2,1.4l-1.4,2h-2l1.7-2.5c0.5-0.8,1-1.2,1.6-1.3
			c-0.9-0.1-1.6-0.4-2-1s-0.7-1.1-0.7-1.8c0-0.8,0.3-1.5,0.9-2s1.4-0.8,2.5-0.8H154.2z M152.7,312.5h-2.3c-0.9,0-1.6,0.1-1.8,0.4
			s-0.4,0.6-0.4,1c0,0.6,0.2,1,0.6,1.2c0.4,0.3,1.1,0.4,2.1,0.4h1.7V312.5z"/>
		<path d="M156.6,311.2h1.6v3.9h1.9c0.1-1.3,0.6-2.4,1.3-3.1s1.6-1.1,2.7-1.1c0.9,0,1.7,0.2,2.2,0.6s1,0.9,1.3,1.6s0.5,1.6,0.5,2.7
			c0,1.6-0.4,2.8-1.1,3.7s-1.7,1.2-3,1.2c-1.2,0-2.1-0.4-2.8-1.2s-1.1-1.8-1.2-3.2h-1.9v4.1h-1.6V311.2z M164.2,312.3
			c-0.8,0-1.4,0.3-1.8,0.9s-0.6,1.4-0.6,2.5c0,1.3,0.2,2.2,0.7,2.8s1,0.9,1.7,0.9c0.7,0,1.3-0.3,1.8-0.8c0.5-0.6,0.7-1.4,0.7-2.7
			c0-1.2-0.2-2.1-0.6-2.7C165.6,312.6,165,312.3,164.2,312.3z"/>
		<path d="M170.2,311.2h1.6v8h3.6v-8h1.6v8h3.6v-8h1.6v8h1v3.9h-1.3v-2.6h-11.7V311.2z"/>
		<path d="M184.9,311.2h1.6v7.1l4.4-7.1h1.7v9.3H191v-7.1l-4.4,7.1h-1.7V311.2z"/>
		<path d="M193.9,320.5l3.4-4.9l-3.2-4.5h2l1.4,2.2c0.3,0.4,0.5,0.8,0.7,1c0.3-0.4,0.5-0.7,0.7-1l1.6-2.2h1.9l-3.2,4.4l3.5,4.9h-1.9
			l-1.9-2.9l-0.5-0.8l-2.5,3.7H193.9z"/>
		<path d="M208.9,324.1l-0.2-1.5c0.3,0.1,0.6,0.1,0.9,0.1c0.4,0,0.6-0.1,0.8-0.2s0.4-0.3,0.5-0.5c0.1-0.2,0.3-0.6,0.5-1.2
			c0-0.1,0.1-0.2,0.1-0.4l-3.5-9.4h1.7l1.9,5.4c0.3,0.7,0.5,1.4,0.7,2.2c0.2-0.7,0.4-1.4,0.7-2.1l2-5.4h1.6l-3.6,9.5
			c-0.4,1-0.7,1.7-0.9,2.1c-0.3,0.5-0.6,0.9-1,1.1s-0.8,0.4-1.3,0.4C209.6,324.3,209.3,324.3,208.9,324.1z"/>
		<path d="M223.9,317.1l1.6,0.2c-0.2,1.1-0.6,1.9-1.3,2.5c-0.7,0.6-1.6,0.9-2.6,0.9c-1.3,0-2.3-0.4-3.1-1.3c-0.8-0.8-1.2-2-1.2-3.6
			c0-1,0.2-1.9,0.5-2.6s0.8-1.3,1.5-1.7c0.7-0.4,1.4-0.6,2.2-0.6c1,0,1.8,0.3,2.5,0.8c0.6,0.5,1.1,1.2,1.2,2.2l-1.5,0.2
			c-0.1-0.6-0.4-1.1-0.8-1.4s-0.8-0.5-1.3-0.5c-0.8,0-1.4,0.3-1.9,0.9c-0.5,0.6-0.7,1.5-0.7,2.7c0,1.3,0.2,2.2,0.7,2.7
			s1.1,0.9,1.9,0.9c0.6,0,1.1-0.2,1.6-0.6S223.8,317.9,223.9,317.1z"/>
		<path d="M226.8,311.2h7.4v9.3h-1.6v-8h-4.2v8h-1.6V311.2z"/>
		<path d="M242.9,317.5l1.6,0.2c-0.3,1-0.7,1.7-1.4,2.2s-1.6,0.8-2.7,0.8c-1.4,0-2.4-0.4-3.2-1.3s-1.2-2-1.2-3.5
			c0-1.6,0.4-2.8,1.2-3.7s1.9-1.3,3.1-1.3c1.2,0,2.3,0.4,3.1,1.3s1.2,2,1.2,3.6c0,0.1,0,0.2,0,0.4h-7c0.1,1,0.3,1.8,0.9,2.4
			s1.2,0.8,2,0.8c0.6,0,1.1-0.2,1.5-0.5S242.7,318.2,242.9,317.5z M237.7,315h5.2c-0.1-0.8-0.3-1.4-0.6-1.8c-0.5-0.6-1.2-0.9-2-0.9
			c-0.7,0-1.3,0.2-1.8,0.7S237.8,314.2,237.7,315z"/>
		<path d="M246.6,311.2h1.6v8h3.6v-8h1.6v8h3.6v-8h1.6v9.3h-12V311.2z"/>
		<path d="M261,311.2h1.6v3.9h4.4v-3.9h1.6v9.3H267v-4.1h-4.4v4.1H261V311.2z"/>
		<path d="M270.3,315.9c0-1.7,0.5-3,1.4-3.8c0.8-0.7,1.8-1,2.9-1c1.3,0,2.3,0.4,3.1,1.3c0.8,0.8,1.2,2,1.2,3.5
			c0,1.2-0.2,2.1-0.5,2.8s-0.9,1.2-1.6,1.6s-1.4,0.6-2.3,0.6c-1.3,0-2.4-0.4-3.2-1.3S270.3,317.4,270.3,315.9z M272,315.9
			c0,1.2,0.3,2.1,0.8,2.7s1.2,0.9,2,0.9c0.8,0,1.4-0.3,2-0.9s0.8-1.5,0.8-2.7c0-1.2-0.3-2-0.8-2.6s-1.2-0.9-2-0.9
			c-0.8,0-1.4,0.3-2,0.9S272,314.7,272,315.9z"/>
		<path d="M287,317.1l1.6,0.2c-0.2,1.1-0.6,1.9-1.3,2.5c-0.7,0.6-1.6,0.9-2.6,0.9c-1.3,0-2.3-0.4-3.1-1.3c-0.8-0.8-1.2-2-1.2-3.6
			c0-1,0.2-1.9,0.5-2.6s0.8-1.3,1.5-1.7c0.7-0.4,1.4-0.6,2.2-0.6c1,0,1.8,0.3,2.5,0.8c0.6,0.5,1.1,1.2,1.2,2.2l-1.5,0.2
			c-0.1-0.6-0.4-1.1-0.8-1.4s-0.8-0.5-1.3-0.5c-0.8,0-1.4,0.3-1.9,0.9c-0.5,0.6-0.7,1.5-0.7,2.7c0,1.3,0.2,2.2,0.7,2.7
			s1.1,0.9,1.9,0.9c0.6,0,1.1-0.2,1.6-0.6S286.9,317.9,287,317.1z"/>
		<path d="M289.1,311.2h7.6v1.3h-3v8h-1.6v-8h-3V311.2z"/>
		<path d="M298.2,311.2h1.6v3.6h2c1.3,0,2.3,0.3,3,0.8c0.7,0.5,1.1,1.2,1.1,2.1c0,0.8-0.3,1.4-0.9,2c-0.6,0.6-1.5,0.8-2.8,0.8h-4
			V311.2z M299.7,319.2h1.7c1,0,1.7-0.1,2.1-0.4s0.6-0.6,0.6-1.2c0-0.4-0.2-0.8-0.5-1.1s-1-0.5-2.1-0.5h-1.9V319.2z"/>
		<path d="M312.6,311.2h3.6c0.9,0,1.6,0.1,2,0.2c0.4,0.2,0.8,0.4,1.1,0.8s0.5,0.9,0.5,1.4c0,0.4-0.1,0.8-0.3,1.2s-0.5,0.6-0.8,0.8
			c0.4,0.1,0.8,0.4,1.1,0.8s0.4,0.9,0.4,1.4c-0.1,0.9-0.4,1.5-0.9,2s-1.4,0.6-2.5,0.6h-4.2V311.2z M314.2,315.1h1.7
			c0.7,0,1.1,0,1.4-0.1s0.5-0.2,0.7-0.4s0.3-0.5,0.3-0.8c0-0.5-0.2-0.8-0.5-1s-0.9-0.3-1.8-0.3h-1.7V315.1z M314.2,319.2h2.1
			c0.9,0,1.5-0.1,1.8-0.3s0.5-0.6,0.5-1.1c0-0.3-0.1-0.6-0.3-0.8c-0.2-0.3-0.4-0.4-0.8-0.5s-0.8-0.1-1.5-0.1h-1.9V319.2z"/>
		<path d="M327.1,324.1l-0.2-1.5c0.3,0.1,0.6,0.1,0.9,0.1c0.4,0,0.6-0.1,0.8-0.2s0.4-0.3,0.5-0.5c0.1-0.2,0.3-0.6,0.5-1.2
			c0-0.1,0.1-0.2,0.1-0.4l-3.5-9.4h1.7l1.9,5.4c0.3,0.7,0.5,1.4,0.7,2.2c0.2-0.7,0.4-1.4,0.7-2.1l2-5.4h1.6l-3.6,9.5
			c-0.4,1-0.7,1.7-0.9,2.1c-0.3,0.5-0.6,0.9-1,1.1s-0.8,0.4-1.3,0.4C327.8,324.3,327.4,324.3,327.1,324.1z"/>
		<path d="M335.5,311.2h1.6v1.8c0,0.8,0,1.3,0.1,1.7c0.1,0.3,0.3,0.6,0.7,0.9c0.3,0.3,0.8,0.4,1.3,0.4c0.6,0,1.4-0.2,2.3-0.5v-4.2
			h1.6v9.3h-1.6v-3.8c-1,0.3-1.9,0.5-2.7,0.5c-0.7,0-1.3-0.2-1.9-0.5c-0.5-0.4-0.9-0.8-1.1-1.3s-0.3-1.1-0.3-1.7V311.2z"/>
		<path d="M351.9,317.5l1.6,0.2c-0.3,1-0.7,1.7-1.4,2.2s-1.6,0.8-2.7,0.8c-1.4,0-2.4-0.4-3.2-1.3s-1.2-2-1.2-3.5
			c0-1.6,0.4-2.8,1.2-3.7s1.9-1.3,3.1-1.3c1.2,0,2.3,0.4,3.1,1.3s1.2,2,1.2,3.6c0,0.1,0,0.2,0,0.4h-7c0.1,1,0.3,1.8,0.9,2.4
			s1.2,0.8,2,0.8c0.6,0,1.1-0.2,1.5-0.5S351.7,318.2,351.9,317.5z M346.7,315h5.2c-0.1-0.8-0.3-1.4-0.6-1.8c-0.5-0.6-1.2-0.9-2-0.9
			c-0.7,0-1.3,0.2-1.8,0.7S346.8,314.2,346.7,315z"/>
		<path d="M362.2,307.3l1.4,0c-0.1,0.6-0.2,1.1-0.4,1.3c-0.2,0.2-0.5,0.4-0.8,0.5c-0.3,0.1-1,0.1-2,0.1c-1.3,0-2.2,0.1-2.7,0.4
			s-0.8,0.7-1,1.2c-0.2,0.6-0.3,1.3-0.3,2.1c0.4-0.6,0.9-1,1.4-1.3s1.1-0.4,1.8-0.4c1.2,0,2.2,0.4,3,1.3c0.8,0.8,1.2,2,1.2,3.4
			c0,1.1-0.2,2-0.6,2.7s-0.9,1.2-1.4,1.6c-0.6,0.4-1.3,0.6-2.3,0.6c-1.1,0-2-0.3-2.6-0.8c-0.6-0.5-1.1-1.2-1.4-1.9s-0.5-2.2-0.5-4.1
			c0-2.5,0.4-4.1,1.3-5c0.8-0.9,2.1-1.3,3.9-1.3c1.1,0,1.7,0,1.8-0.1S362.1,307.5,362.2,307.3z M362.1,315.8c0-1-0.2-1.8-0.7-2.4
			s-1.1-0.9-1.9-0.9c-0.9,0-1.5,0.3-2,1s-0.7,1.5-0.7,2.6c0,1.1,0.3,1.9,0.8,2.5c0.5,0.6,1.2,0.9,1.9,0.9c0.8,0,1.4-0.3,1.9-1
			C361.8,317.8,362.1,316.9,362.1,315.8z"/>
		<path d="M371.8,317.5l1.6,0.2c-0.3,1-0.7,1.7-1.4,2.2s-1.6,0.8-2.7,0.8c-1.4,0-2.4-0.4-3.2-1.3c-0.8-0.8-1.2-2-1.2-3.5
			c0-1.6,0.4-2.8,1.2-3.7s1.9-1.3,3.1-1.3c1.2,0,2.3,0.4,3.1,1.3s1.2,2,1.2,3.6c0,0.1,0,0.2,0,0.4h-7c0.1,1,0.3,1.8,0.9,2.4
			s1.2,0.8,2,0.8c0.6,0,1.1-0.2,1.5-0.5S371.6,318.2,371.8,317.5z M366.6,315h5.2c-0.1-0.8-0.3-1.4-0.6-1.8c-0.5-0.6-1.2-0.9-2-0.9
			c-0.7,0-1.3,0.2-1.8,0.7C366.9,313.5,366.7,314.2,366.6,315z"/>
		<path d="M380.4,311.2h1.6v7.1l4.4-7.1h1.7v9.3h-1.6v-7.1l-4.4,7.1h-1.7V311.2z"/>
		<path d="M401.1,311.2v4c0.5,0,0.9-0.1,1.1-0.3s0.5-0.8,0.9-1.7c0.4-0.9,0.7-1.5,1-1.7c0.3-0.2,0.7-0.4,1.4-0.4h0.6v1.3l-0.4,0
			c-0.4,0-0.7,0.1-0.8,0.2c-0.1,0.1-0.3,0.5-0.6,1.2c-0.2,0.6-0.5,1-0.7,1.3s-0.5,0.4-0.9,0.6c0.7,0.2,1.4,0.8,2,1.9l1.7,2.9h-1.7
			l-1.7-2.9c-0.3-0.6-0.6-1-0.9-1.2s-0.6-0.3-0.9-0.3v4.3h-1.6v-4.3c-0.4,0-0.7,0.1-0.9,0.3c-0.3,0.2-0.6,0.6-0.9,1.2l-1.7,2.9h-1.7
			l1.7-2.9c0.7-1.1,1.3-1.7,2-1.9c-0.5-0.2-0.8-0.5-1-0.7c-0.2-0.3-0.5-0.9-0.8-1.8c-0.1-0.3-0.3-0.5-0.4-0.6
			c-0.2-0.1-0.4-0.1-0.7-0.1c-0.1,0-0.2,0-0.5,0v-1.3h0.2c0.6,0,1,0,1.3,0.1c0.2,0.1,0.5,0.2,0.7,0.5c0.2,0.2,0.5,0.7,0.8,1.5
			c0.4,0.9,0.7,1.5,0.9,1.7c0.2,0.2,0.6,0.3,1.1,0.3v-4H401.1z"/>
		<path d="M407.5,311.2h1.6v7.1l4.4-7.1h1.7v9.3h-1.6v-7.1l-4.4,7.1h-1.7V311.2z"/>
		<path d="M419.7,316.3v-1.2c0.7,0,1.1,0,1.4-0.1c0.2,0,0.5-0.2,0.7-0.4s0.3-0.5,0.3-0.9c0-0.4-0.1-0.8-0.4-1
			c-0.3-0.3-0.7-0.4-1.1-0.4c-0.9,0-1.5,0.5-1.9,1.6l-1.5-0.2c0.5-1.8,1.6-2.6,3.4-2.6c1,0,1.8,0.3,2.3,0.8c0.6,0.5,0.8,1.2,0.8,2
			c0,0.8-0.4,1.4-1.1,1.8c0.5,0.3,0.8,0.6,1.1,1c0.2,0.4,0.4,0.9,0.4,1.4c0,0.8-0.3,1.5-0.9,2s-1.5,0.8-2.6,0.8
			c-2.1,0-3.4-0.9-3.7-2.8l1.5-0.3c0.1,0.6,0.4,1.1,0.8,1.4c0.4,0.3,0.9,0.5,1.4,0.5s1-0.2,1.3-0.5c0.4-0.3,0.5-0.7,0.5-1.2
			c0-0.4-0.1-0.7-0.3-0.9s-0.5-0.4-0.7-0.5s-0.7-0.1-1.4-0.1C420,316.3,419.8,316.3,419.7,316.3z"/>
		<path d="M425.8,311.2h1.6v3.9h4.4v-3.9h1.6v9.3h-1.6v-4.1h-4.4v4.1h-1.6V311.2z"/>
		<path d="M435.8,311.2h1.6v7.1l4.4-7.1h1.7v9.3h-1.6v-7.1l-4.4,7.1h-1.7V311.2z"/>
		<path d="M446.3,320.5v-1.8h1.8v1.8H446.3z"/>
	</g>
	<g>
		<path d="M80.7,351.6h17.8V373h2.3v9.9h-4.3v-5.6H80.2v5.6h-4.3V373h2.2c1.1-2.2,1.8-4.8,2.1-7.7s0.5-6.6,0.5-11V351.6z
			 M85.7,355.9c0,7.8-0.7,13.5-2.1,17.1h9.8v-17.1H85.7z"/>
		<path d="M115.5,371.4l4.9,0.8c-0.6,1.8-1.6,3.2-3,4.1s-3.1,1.4-5.1,1.4c-3.2,0-5.6-1.1-7.2-3.2c-1.2-1.7-1.8-3.8-1.8-6.4
			c0-3.1,0.8-5.5,2.4-7.3s3.7-2.6,6.1-2.6c2.8,0,5,0.9,6.6,2.8s2.4,4.6,2.3,8.4h-12.4c0,1.5,0.4,2.6,1.2,3.4s1.7,1.2,2.8,1.2
			c0.8,0,1.4-0.2,2-0.6S115.2,372.4,115.5,371.4z M115.8,366.4c0-1.4-0.4-2.5-1.1-3.3s-1.6-1.1-2.6-1.1c-1.1,0-2,0.4-2.7,1.2
			s-1,1.9-1,3.2H115.8z"/>
		<path d="M122,358.7h16.9v4h-6v14.7H128v-14.7h-6V358.7z"/>
		<path d="M157.8,358.7v18.7h-4.9v-7.8h-0.5c-1.1,0-1.8,0.1-2.3,0.4s-1.1,0.9-1.7,1.7l-0.3,0.4l-3.3,5.2h-5.7l3.5-5.4
			c1-1.5,1.9-2.4,2.7-2.7c-1.4-0.1-2.5-0.6-3.4-1.6s-1.3-2.2-1.3-3.7c0-1.2,0.3-2.2,0.9-3.1s1.3-1.4,2.3-1.7s2.3-0.5,4.2-0.5H157.8z
			 M152.9,361.9h-3.5c-1.3,0-2.2,0.2-2.7,0.6s-0.8,1-0.8,1.8s0.3,1.5,0.9,1.8s1.6,0.6,2.9,0.6h3.2V361.9z"/>
		<path d="M163,358.7h6.1l4.6,13l4.7-13h6.1v18.7h-4.2v-12.3l-4.6,12.3h-4.2l-4.3-12.3v12.3H163V358.7z"/>
		<path d="M198.3,367.8c0-1.6,0.4-3.2,1.2-4.8s2-2.7,3.4-3.5s3.1-1.2,5-1.2c2.8,0,5.1,0.9,6.9,2.8s2.7,4.2,2.7,7
			c0,2.8-0.9,5.2-2.7,7s-4.1,2.8-6.9,2.8c-1.7,0-3.3-0.4-4.9-1.2s-2.7-1.9-3.5-3.4S198.3,369.9,198.3,367.8z M203.4,368
			c0,1.9,0.4,3.3,1.3,4.3s2,1.5,3.3,1.5s2.4-0.5,3.2-1.5s1.3-2.4,1.3-4.3c0-1.8-0.4-3.2-1.3-4.2s-2-1.5-3.2-1.5s-2.4,0.5-3.3,1.5
			S203.4,366.2,203.4,368z"/>
		<path d="M218.4,358.7h16.9v4h-6v14.7h-4.9v-14.7h-6V358.7z"/>
		<path d="M256.8,377.4v-5.2h-10.5v-4.3l11.2-16.4h4.1v16.3h3.2v4.3h-3.2v5.2H256.8z M256.8,367.8V359l-5.9,8.8H256.8z"/>
		<path d="M293.7,377.4h-14.1v4.9h-4v-9h2c0.8-0.9,1.5-2.4,2.1-4.4s0.9-5.4,1-10.2h15.1v14.6h2v9h-4V377.4z M290.8,373.3l0-10.6h-6
			c-0.2,5.2-1,8.7-2.5,10.6H290.8z"/>
		<path d="M299.9,367.8c0-1.6,0.4-3.2,1.2-4.8s2-2.7,3.4-3.5s3.1-1.2,5-1.2c2.8,0,5.1,0.9,6.9,2.8s2.7,4.2,2.7,7
			c0,2.8-0.9,5.2-2.7,7s-4.1,2.8-6.9,2.8c-1.7,0-3.3-0.4-4.9-1.2s-2.7-1.9-3.5-3.4S299.9,369.9,299.9,367.8z M305,368
			c0,1.9,0.4,3.3,1.3,4.3s2,1.5,3.3,1.5s2.4-0.5,3.2-1.5s1.3-2.4,1.3-4.3c0-1.8-0.4-3.2-1.3-4.2s-2-1.5-3.2-1.5s-2.4,0.5-3.3,1.5
			S305,366.2,305,368z"/>
		<path d="M344.7,377.4h-4.9v-18.6c-1.8,1.7-3.9,2.9-6.4,3.7V358c1.3-0.4,2.7-1.2,4.2-2.4s2.5-2.6,3.1-4.1h4V377.4z"/>
		<path d="M368.7,372.8v4.6h-17.3c0.2-1.7,0.8-3.4,1.7-4.9s2.8-3.6,5.6-6.2c2.2-2.1,3.6-3.5,4.1-4.2c0.7-1,1-2,1-3
			c0-1.1-0.3-1.9-0.9-2.5s-1.4-0.9-2.5-0.9c-1,0-1.9,0.3-2.5,0.9s-1,1.7-1.1,3.1l-4.9-0.5c0.3-2.7,1.2-4.7,2.8-5.9s3.5-1.8,5.8-1.8
			c2.5,0,4.5,0.7,6,2.1s2.2,3.1,2.2,5.1c0,1.2-0.2,2.3-0.6,3.3s-1.1,2.1-2,3.3c-0.6,0.8-1.7,1.9-3.2,3.3s-2.5,2.4-3,2.8
			s-0.8,0.9-1,1.4H368.7z"/>
		<path d="M384.5,358.7H401v18.7h-4.9v-14.7h-6.7v8.4c0,2.1-0.2,3.6-0.7,4.5s-1,1.4-1.6,1.7s-1.6,0.4-2.9,0.4
			c-0.8,0-1.8-0.1-3.1-0.3v-3.6c0.1,0,0.4,0,0.8,0c0.5,0,0.9,0.1,1.2,0.1c0.7,0,1.1-0.2,1.2-0.7s0.2-1.7,0.2-3.7V358.7z"/>
		<path d="M416.3,371.4l4.9,0.8c-0.6,1.8-1.6,3.2-3,4.1s-3.1,1.4-5.1,1.4c-3.2,0-5.6-1.1-7.2-3.2c-1.2-1.7-1.8-3.8-1.8-6.4
			c0-3.1,0.8-5.5,2.4-7.3s3.7-2.6,6.1-2.6c2.8,0,5,0.9,6.6,2.8s2.4,4.6,2.3,8.4h-12.4c0,1.5,0.4,2.6,1.2,3.4s1.7,1.2,2.8,1.2
			c0.8,0,1.4-0.2,2-0.6S416.1,372.4,416.3,371.4z M416.6,366.4c0-1.4-0.4-2.5-1.1-3.3s-1.6-1.1-2.6-1.1c-1.1,0-2,0.4-2.7,1.2
			s-1,1.9-1,3.2H416.6z"/>
		<path d="M422.9,358.7h16.9v4h-6v14.7h-4.9v-14.7h-6V358.7z"/>
	</g>
</g>
</svg>
