<?xml version="1.0" encoding="utf-8"?>
<!-- Generator: Adobe Illustrator 15.0.0, SVG Export Plug-In . SVG Version: 6.00 Build 0)  -->
<!DOCTYPE svg PUBLIC "-//W3C//DTD SVG 1.1//EN" "http://www.w3.org/Graphics/SVG/1.1/DTD/svg11.dtd">
<svg version="1.1" xmlns="http://www.w3.org/2000/svg" xmlns:xlink="http://www.w3.org/1999/xlink" x="0px" y="0px" width="1200px"
	 height="450px" viewBox="0 0 1200 450" style="enable-background:new 0 0 1200 450;" xml:space="preserve">
<style type="text/css">
<![CDATA[
	.st0{opacity:0.75;fill:#E2487C;}
	.st1{fill:#4E2C4E;}
	.st2{fill:#F2F2F2;}
	.st3{fill:#C1D8EC;}
	.st4{fill:#C93D66;}
	.st5{opacity:0.25;fill:#DADBD7;}
]]>
</style>
<g id="Layer_1">
</g>
<g id="Layer_2">
	
		<rect x="-7.8" y="-291.4" transform="matrix(0.5189 -0.8548 0.8548 0.5189 -272.15 200.8099)" class="st3" width="100.2" height="1267.2"/>
	
		<rect x="-209.1" y="-297" transform="matrix(0.5189 -0.8548 0.8548 0.5189 -364.1651 26.0132)" class="st1" width="100.2" height="1267.2"/>
	
		<rect x="398.7" y="-277.7" transform="matrix(0.5189 -0.8548 0.8548 0.5189 -88.261 554.8335)" class="st3" width="100.2" height="1267.2"/>
	
		<rect x="197.4" y="-283.4" transform="matrix(0.5189 -0.8548 0.8548 0.5189 -180.2792 380.0371)" class="st1" width="100.2" height="1267.2"/>
	
		<rect x="677.5" y="-477.5" transform="matrix(0.5189 -0.8548 0.8548 0.5189 100.4734 762.4198)" class="st3" width="100.2" height="1538.8"/>
	
		<rect x="463.6" y="-505.5" transform="matrix(0.5189 -0.8548 0.8548 0.5189 8.9274 573.1932)" class="st1" width="100.2" height="1568.2"/>
</g>
<g id="Layer_5">
	
		<rect x="-68" y="-181.1" transform="matrix(-0.8548 -0.5189 0.5189 -0.8548 -53.9977 347.2357)" class="st0" width="179.1" height="724.5"/>
	
		<rect x="-296.9" y="-81.6" transform="matrix(-0.8548 -0.5189 0.5189 -0.8548 -496.1025 291.0234)" class="st5" width="179.1" height="593"/>
	
		<rect x="285.3" y="-10.6" transform="matrix(-0.8548 -0.5189 0.5189 -0.8548 546.9775 724.7772)" class="st0" width="179.1" height="593"/>
	
		<rect x="676" y="32.5" transform="matrix(-0.8548 -0.5189 0.5189 -0.8548 1249.2933 1007.4571)" class="st0" width="179.1" height="593"/>
	
		<rect x="126.1" y="-160.3" transform="matrix(-0.8548 -0.5189 0.5189 -0.8548 293.7761 491.7413)" class="st5" width="179.1" height="730.2"/>
	
		<rect x="481.2" y="10" transform="matrix(-0.8548 -0.5189 0.5189 -0.8548 899.6232 864.7255)" class="st5" width="179.1" height="593"/>
	<path class="st4" d="M631.9,292c-12-75-12-148-20-223c-4.1-37.7-2.7-75.3,0-113H0v551h683.2c-8-23.2-14.3-46.8-20.6-71
		C650.5,386,639.9,341,631.9,292z"/>
	
		<rect x="987.2" y="-385.4" transform="matrix(0.5189 -0.8548 0.8548 0.5189 286.8528 1006.1249)" class="st3" width="100.2" height="1267.2"/>
	
		<rect x="631.7" y="-637" transform="matrix(0.5189 -0.8548 0.8548 0.5189 366.74 773.7197)" class="st1" width="478.3" height="1396.1"/>
	
		<rect x="1192.4" y="-377.4" transform="matrix(0.5189 -0.8548 0.8548 0.5189 378.7312 1185.3557)" class="st1" width="100.2" height="1267.2"/>
	
		<rect x="1788.6" y="-365.1" transform="matrix(0.5189 -0.8548 0.8548 0.5189 655.098 1700.9055)" class="st3" width="100.2" height="1267.2"/>
	
		<rect x="1587.3" y="-370.8" transform="matrix(0.5189 -0.8548 0.8548 0.5189 563.0707 1526.1019)" class="st1" width="100.2" height="1267.2"/>
	<g>
		<path d="M44.1,100.7h35.6v42.9h4.5v19.9h-8.6v-11.3H43.1v11.3h-8.6v-19.9h4.4c2.1-4.4,3.5-9.5,4.2-15.3c0.7-5.8,1-13.2,1-22.1
			V100.7z M54,109.3c0,15.7-1.4,27.1-4.3,34.2h19.6v-34.2H54z"/>
		<path d="M91.2,152.2v-51.5h38.2v8.7h-27.8v11.4h25.9v8.7h-25.9v14h28.8v8.7H91.2z"/>
		<path d="M150.9,152.2v-42.8h-15.3v-8.7h41v8.7h-15.3v42.8H150.9z"/>
		<path d="M216.2,133.3l10.1,3.2c-1.5,5.6-4.1,9.8-7.7,12.5c-3.6,2.7-8.2,4.1-13.7,4.1c-6.8,0-12.5-2.3-16.9-7
			c-4.4-4.7-6.6-11.1-6.6-19.2c0-8.6,2.2-15.2,6.6-20s10.3-7.1,17.5-7.1c6.3,0,11.4,1.9,15.4,5.6c2.3,2.2,4.1,5.4,5.3,9.5l-10.3,2.5
			c-0.6-2.7-1.9-4.8-3.8-6.3s-4.3-2.3-7-2.3c-3.8,0-6.9,1.4-9.3,4.1c-2.4,2.7-3.6,7.2-3.6,13.3c0,6.5,1.2,11.2,3.5,13.9
			c2.3,2.8,5.4,4.1,9.1,4.1c2.8,0,5.1-0.9,7.1-2.6C213.9,139.8,215.3,137,216.2,133.3z"/>
		<path d="M235.4,100.7h10.4v21.9c2.3-0.2,3.9-0.8,4.7-1.8c0.8-1,2.1-3.6,3.8-8c2.2-5.6,4.3-9,6.5-10.4c2.2-1.4,5.6-2,10.4-2
			c0.2,0,0.7,0,1.5,0v7.7l-1.5,0c-2.1,0-3.7,0.3-4.7,0.8s-1.8,1.3-2.4,2.4c-0.6,1.1-1.5,3.3-2.7,6.6c-0.6,1.8-1.3,3.3-2.1,4.5
			s-2,2.3-3.9,3.4c2.3,0.7,4.2,2,5.7,4c1.5,2,3.2,4.8,5,8.4l7,14.1h-12.2l-6.2-13.3c-0.1-0.2-0.3-0.6-0.6-1.1
			c-0.1-0.2-0.6-1-1.3-2.4c-1.3-2.5-2.4-4.1-3.3-4.7c-0.9-0.6-2.2-1-3.9-1v22.6h-10.4V100.7z"/>
		<path d="M325.7,152.2h-11.3l-4.5-11.7h-20.6l-4.3,11.7h-11l20.1-51.5h11L325.7,152.2z M306.5,131.8l-7.1-19.1l-7,19.1H306.5z"/>
		<path d="M362,152.2v-21.5h-2.1c-3.3,0-5.6,0.5-6.9,1.5c-1.3,1-3.7,3.9-6.9,8.8l-7.5,11.2h-12.4l6.3-10.1c2.5-4,4.5-6.8,5.9-8.4
			c1.5-1.6,3.3-3,5.6-4.3c-4.8-0.8-8.3-2.4-10.4-5c-2.1-2.6-3.2-5.7-3.2-9.3c0-3.1,0.8-5.9,2.4-8.3s3.7-4.1,6.3-4.9
			c2.6-0.8,6.5-1.2,11.6-1.2h21.9v51.5H362z M362,109.4h-8.1c-4.1,0-6.8,0.1-8.1,0.3c-1.3,0.2-2.4,0.8-3.4,1.9
			c-0.9,1.1-1.4,2.5-1.4,4.2c0,1.8,0.5,3.2,1.4,4.3c0.9,1.1,2.1,1.7,3.4,2c1.4,0.3,4.2,0.4,8.5,0.4h7.7V109.4z"/>
		<path d="M39.8,238.6v-51.5h15.6l9.4,35.2l9.2-35.2h15.6v51.5h-9.7v-40.6l-10.2,40.6h-10l-10.2-40.6v40.6H39.8z"/>
		<path d="M94.7,187.1h11.6l12,26.8l10.3-26.8h10.9l-17.4,39.2c-1.9,4.2-3.8,7.5-5.8,9.7s-4.5,3.3-7.6,3.3c-3.1,0-5.5-0.2-7.2-0.6
			v-7.7c1.5,0.1,2.8,0.1,4,0.1c2.4,0,4.1-0.4,5.2-1.3c1-0.9,2-2.8,3-5.7L94.7,187.1z"/>
		<path d="M152.1,201.1l-10.1-2.4c2.2-8.4,8.4-12.6,18.6-12.6c6,0,10.6,1.3,13.7,4c3.1,2.7,4.6,5.8,4.6,9.4c0,2.5-0.7,4.7-2.1,6.7
			c-1.4,2-3.5,3.7-6.3,5.2c3.4,1.2,6,2.8,7.7,5c1.7,2.1,2.6,4.8,2.6,7.9c0,4.5-1.7,8.2-5,11c-3.3,2.8-8.3,4.2-14.9,4.2
			c-5.4,0-9.6-0.9-12.8-2.7c-3.1-1.8-5.5-5.2-7-10.1l9.5-3.1c1,3.1,2.3,5.1,3.9,6c1.6,0.9,3.6,1.4,6,1.4c3.3,0,5.7-0.7,7.2-2.1
			c1.5-1.4,2.3-3,2.3-4.9c0-2.1-0.8-3.8-2.5-5.1c-1.7-1.3-4.3-1.9-7.7-1.9h-2.4v-7.8h1.2c3.2,0,5.6-0.7,7.3-2.1
			c1.7-1.4,2.5-3.3,2.5-5.7c0-1.9-0.7-3.5-2.1-4.7c-1.4-1.3-3.3-1.9-5.9-1.9C156.1,194.7,153.3,196.8,152.1,201.1z"/>
		<path d="M190.1,187.1h10.4v20.6h13.9c3.7,0,6.8,0.5,9.4,1.5c2.6,1,4.8,2.8,6.6,5.3s2.6,5.5,2.6,8.8c0,3.5-0.9,6.5-2.7,9
			c-1.8,2.5-3.9,4.2-6.1,5c-2.2,0.8-5.5,1.2-9.8,1.2h-24.3V187.1z M200.5,230h10.2c3.2,0,5.5-0.2,6.8-0.5c1.3-0.3,2.4-1,3.4-2.2
			c1-1.1,1.5-2.5,1.5-4.1c0-2.3-0.8-4-2.4-5.2c-1.6-1.1-4.6-1.7-8.8-1.7h-10.6V230z M239.1,187.1h10.4v51.5h-10.4V187.1z"/>
		<path d="M260.5,187.1h10.4V209c2.3-0.2,3.9-0.8,4.7-1.8c0.8-1,2.1-3.6,3.8-8c2.2-5.6,4.3-9,6.5-10.4c2.2-1.4,5.6-2,10.4-2
			c0.2,0,0.7,0,1.5,0v7.7l-1.5,0c-2.1,0-3.7,0.3-4.7,0.8s-1.8,1.3-2.4,2.4c-0.6,1.1-1.5,3.3-2.7,6.6c-0.6,1.8-1.3,3.3-2.1,4.5
			s-2,2.3-3.9,3.4c2.3,0.7,4.2,2,5.7,4c1.5,2,3.2,4.8,5,8.4l7,14.1h-12.2l-6.2-13.3c-0.1-0.2-0.3-0.6-0.6-1.1
			c-0.1-0.2-0.6-1-1.3-2.4c-1.3-2.5-2.4-4.1-3.3-4.7c-0.9-0.6-2.2-1-3.9-1v22.6h-10.4V187.1z"/>
		<path d="M350.7,238.6h-11.3l-4.5-11.7h-20.6l-4.3,11.7h-11l20.1-51.5h11L350.7,238.6z M331.6,218.2l-7.1-19.1l-7,19.1H331.6z"/>
		<path d="M360.8,187.1h36.1v51.5h-10.4v-42.8H371v22c0,6.3-0.2,10.7-0.6,13.2s-1.4,4.4-3.1,5.8c-1.6,1.4-4.2,2.1-7.6,2.1
			c-1.2,0-3.4-0.1-6.6-0.4v-8.1l2.3,0c2.2,0,3.6-0.3,4.4-0.9c0.8-0.6,1.1-2,1.1-4.3l0-8.9V187.1z"/>
		<path d="M407.8,187.1h10.4v20.6h13.9c6.6,0,11.3,1.5,14.3,4.6c2.9,3.1,4.4,6.8,4.4,11c0,3.5-0.9,6.5-2.7,9c-1.8,2.5-3.8,4.1-6.1,5
			s-5.6,1.3-9.9,1.3h-24.3V187.1z M418.3,230h10.1c3.3,0,5.6-0.2,6.8-0.5s2.4-1,3.4-2.2c1-1.1,1.5-2.5,1.5-4.1
			c0-2.4-0.8-4.1-2.5-5.2c-1.7-1.1-4.6-1.7-8.7-1.7h-10.6V230z"/>
		<path d="M459.4,238.6v-51.5h10.4v20.3h20.4v-20.3h10.4v51.5h-10.4v-22.5h-20.4v22.5H459.4z"/>
		<path d="M557.9,238.6h-11.3l-4.5-11.7h-20.6l-4.3,11.7h-11l20.1-51.5h11L557.9,238.6z M538.7,218.2l-7.1-19.1l-7,19.1H538.7z"/>
		<path d="M594.2,238.6v-21.5h-2.1c-3.3,0-5.6,0.5-6.9,1.5c-1.3,1-3.7,3.9-6.9,8.8l-7.5,11.2h-12.4l6.3-10.1c2.5-4,4.5-6.8,5.9-8.4
			c1.5-1.6,3.3-3,5.6-4.3c-4.8-0.8-8.3-2.4-10.4-5c-2.1-2.6-3.2-5.7-3.2-9.3c0-3.1,0.8-5.9,2.4-8.3s3.7-4.1,6.3-4.9
			c2.6-0.8,6.5-1.2,11.6-1.2h21.9v51.5H594.2z M594.2,195.8h-8.1c-4.1,0-6.8,0.1-8.1,0.3c-1.3,0.2-2.4,0.8-3.4,1.9
			c-0.9,1.1-1.4,2.5-1.4,4.2c0,1.8,0.5,3.2,1.4,4.3c0.9,1.1,2.1,1.7,3.4,2c1.4,0.3,4.2,0.4,8.5,0.4h7.7V195.8z"/>
		<path d="M72.9,306.1l10.1,3.2c-1.5,5.6-4.1,9.8-7.7,12.5c-3.6,2.7-8.2,4.1-13.7,4.1c-6.8,0-12.5-2.3-16.9-7
			c-4.4-4.7-6.6-11.1-6.6-19.2c0-8.6,2.2-15.2,6.6-20s10.3-7.1,17.5-7.1c6.3,0,11.4,1.9,15.4,5.6c2.3,2.2,4.1,5.4,5.3,9.5l-10.3,2.5
			c-0.6-2.7-1.9-4.8-3.8-6.3s-4.3-2.3-7-2.3c-3.8,0-6.9,1.4-9.3,4.1c-2.4,2.7-3.6,7.2-3.6,13.3c0,6.5,1.2,11.2,3.5,13.9
			c2.3,2.8,5.4,4.1,9.1,4.1c2.8,0,5.1-0.9,7.1-2.6C70.6,312.6,72,309.8,72.9,306.1z"/>
		<path d="M101.7,325v-42.8H86.5v-8.7h41v8.7h-15.3V325H101.7z"/>
		<path d="M128.9,273.5h11.6l12,26.8l10.3-26.8h10.9l-17.4,39.2c-1.9,4.2-3.8,7.5-5.8,9.7s-4.5,3.3-7.6,3.3c-3.1,0-5.5-0.2-7.2-0.6
			v-7.7c1.5,0.1,2.8,0.1,4,0.1c2.4,0,4.1-0.4,5.2-1.3c1-0.9,2-2.8,3-5.7L128.9,273.5z"/>
		<path d="M179.4,273.5H215v42.9h4.5v19.9h-8.6V325h-32.4v11.3h-8.6v-19.9h4.4c2.1-4.4,3.5-9.5,4.2-15.3c0.7-5.8,1-13.2,1-22.1
			V273.5z M189.3,282.1c0,15.7-1.4,27.1-4.3,34.2h19.6v-34.2H189.3z"/>
		<path d="M226.7,273.5h9.7v34.3l20.9-34.3h10.4V325h-9.7v-33.6L237.1,325h-10.4V273.5z"/>
		<path d="M309.1,325v-21.5H307c-3.3,0-5.6,0.5-6.9,1.5c-1.3,1-3.7,3.9-6.9,8.8l-7.5,11.2h-12.4l6.3-10.1c2.5-4,4.5-6.8,5.9-8.4
			s3.3-3,5.6-4.3c-4.8-0.8-8.3-2.4-10.4-5c-2.1-2.6-3.2-5.7-3.2-9.3c0-3.1,0.8-5.9,2.4-8.3s3.7-4.1,6.3-4.9
			c2.6-0.8,6.5-1.2,11.6-1.2h21.9V325H309.1z M309.1,282.2H301c-4.1,0-6.8,0.1-8.1,0.3s-2.4,0.8-3.4,1.9c-0.9,1.1-1.4,2.5-1.4,4.2
			c0,1.8,0.5,3.2,1.4,4.3c0.9,1.1,2.1,1.7,3.4,2c1.4,0.3,4.2,0.4,8.5,0.4h7.7V282.2z"/>
		<path d="M328.9,311.3v-9.9h19.4v9.9H328.9z"/>
		<path d="M365.6,325v-42.8h-15.3v-8.7h41v8.7H376V325H365.6z"/>
		<path d="M398,325v-51.5h38.2v8.7h-27.8v11.4h25.9v8.7h-25.9v14h28.8v8.7H398z"/>
		<path d="M492.5,325h-11.3l-4.5-11.7h-20.6l-4.3,11.7h-11l20.1-51.5h11L492.5,325z M473.3,304.6l-7.1-19.1l-7,19.1H473.3z"/>
		<path d="M506,325v-42.8h-15.3v-8.7h41v8.7h-15.3V325H506z"/>
		<path d="M538.4,325v-51.5h16.7c6.3,0,10.5,0.3,12.4,0.8c3,0.8,5.4,2.5,7.4,5c2,2.6,3,5.9,3,10c0,3.2-0.6,5.8-1.7,8
			c-1.1,2.2-2.6,3.8-4.4,5.1c-1.8,1.2-3.6,2-5.4,2.4c-2.5,0.5-6.1,0.7-10.8,0.7h-6.8V325H538.4z M548.8,282.2v14.6h5.7
			c4.1,0,6.8-0.3,8.2-0.8c1.4-0.5,2.5-1.4,3.3-2.5c0.8-1.1,1.2-2.5,1.2-4c0-1.9-0.6-3.4-1.7-4.6c-1.1-1.2-2.5-2-4.2-2.3
			c-1.2-0.2-3.7-0.4-7.5-0.4H548.8z"/>
	</g>
	<g>
		<path d="M36.5,384h12.3v15.6h-2.6v-13.4h-7v13.4h-2.6V384z"/>
		<path d="M52.7,405.6V384h2.4v2c0.6-0.8,1.2-1.4,1.9-1.8c0.7-0.4,1.6-0.6,2.6-0.6c1.3,0,2.5,0.3,3.5,1s1.8,1.6,2.3,2.9
			c0.5,1.2,0.8,2.6,0.8,4.1c0,1.6-0.3,3-0.9,4.3c-0.6,1.3-1.4,2.3-2.5,2.9c-1.1,0.7-2.2,1-3.4,1c-0.9,0-1.7-0.2-2.4-0.6
			s-1.3-0.8-1.7-1.4v7.6H52.7z M55.1,391.9c0,2,0.4,3.5,1.2,4.4s1.8,1.4,2.9,1.4c1.2,0,2.2-0.5,3-1.5c0.8-1,1.3-2.5,1.3-4.6
			c0-2-0.4-3.5-1.2-4.5s-1.8-1.5-2.9-1.5c-1.1,0-2.1,0.5-3,1.6C55.5,388.4,55.1,389.9,55.1,391.9z"/>
		<path d="M69.4,384H72v11.9l7.3-11.9h2.8v15.6h-2.6v-11.8l-7.3,11.8h-2.8V384z"/>
		<path d="M86.2,384h9v2.2h-6.3v13.4h-2.6V384z"/>
		<path d="M97.7,384H110v15.6h-2.6v-13.4h-7v7.7c0,1.8-0.1,3-0.2,3.6s-0.4,1.1-1,1.5s-1.3,0.6-2.3,0.6c-0.6,0-1.3,0-2.1-0.1v-2.2H96
			c0.5,0,0.9-0.1,1.2-0.2s0.4-0.3,0.5-0.5s0.1-1,0.1-2.4V384z"/>
		<path d="M124.1,397.7c-1,0.8-1.9,1.4-2.8,1.8s-1.9,0.5-2.9,0.5c-1.7,0-3-0.4-3.9-1.3c-0.9-0.8-1.4-1.9-1.4-3.2
			c0-0.8,0.2-1.5,0.5-2.1c0.3-0.6,0.8-1.1,1.4-1.5s1.2-0.7,1.9-0.9c0.5-0.1,1.3-0.3,2.3-0.4c2.1-0.3,3.7-0.6,4.7-0.9
			c0-0.4,0-0.6,0-0.7c0-1.1-0.2-1.8-0.7-2.3c-0.7-0.6-1.7-0.9-3-0.9c-1.2,0-2.2,0.2-2.7,0.7s-1,1.2-1.3,2.3l-2.6-0.4
			c0.2-1.1,0.6-2,1.2-2.7c0.5-0.7,1.3-1.2,2.3-1.6c1-0.4,2.2-0.5,3.5-0.5c1.3,0,2.4,0.2,3.2,0.5s1.4,0.7,1.8,1.2
			c0.4,0.5,0.7,1.1,0.8,1.8c0.1,0.4,0.1,1.3,0.1,2.4v3.5c0,2.5,0.1,4,0.2,4.7c0.1,0.7,0.3,1.3,0.7,1.9h-2.8
			C124.3,399,124.2,398.4,124.1,397.7z M123.9,391.8c-1,0.4-2.4,0.7-4.3,1c-1.1,0.2-1.9,0.3-2.3,0.5s-0.8,0.5-1,0.9
			s-0.4,0.8-0.4,1.3c0,0.7,0.3,1.3,0.8,1.8s1.3,0.7,2.3,0.7c1,0,1.9-0.2,2.7-0.7s1.4-1.1,1.7-1.8c0.3-0.6,0.4-1.5,0.4-2.6V391.8z"/>
		<path d="M130.7,384h2.6v13.4h6V384h2.6v13.4h6V384h2.6v15.6h-19.9V384z"/>
		<path d="M164.8,397.7c-1,0.8-1.9,1.4-2.8,1.8s-1.9,0.5-2.9,0.5c-1.7,0-3-0.4-3.9-1.3c-0.9-0.8-1.4-1.9-1.4-3.2
			c0-0.8,0.2-1.5,0.5-2.1c0.3-0.6,0.8-1.1,1.4-1.5s1.2-0.7,1.9-0.9c0.5-0.1,1.3-0.3,2.3-0.4c2.1-0.3,3.7-0.6,4.7-0.9
			c0-0.4,0-0.6,0-0.7c0-1.1-0.2-1.8-0.7-2.3c-0.7-0.6-1.7-0.9-3-0.9c-1.2,0-2.2,0.2-2.7,0.7s-1,1.2-1.3,2.3l-2.6-0.4
			c0.2-1.1,0.6-2,1.2-2.7c0.5-0.7,1.3-1.2,2.3-1.6c1-0.4,2.2-0.5,3.5-0.5c1.3,0,2.4,0.2,3.2,0.5s1.4,0.7,1.8,1.2
			c0.4,0.5,0.7,1.1,0.8,1.8c0.1,0.4,0.1,1.3,0.1,2.4v3.5c0,2.5,0.1,4,0.2,4.7c0.1,0.7,0.3,1.3,0.7,1.9h-2.8
			C165.1,399,164.9,398.4,164.8,397.7z M164.6,391.8c-1,0.4-2.4,0.7-4.3,1c-1.1,0.2-1.9,0.3-2.3,0.5s-0.8,0.5-1,0.9
			s-0.4,0.8-0.4,1.3c0,0.7,0.3,1.3,0.8,1.8s1.3,0.7,2.3,0.7c1,0,1.9-0.2,2.7-0.7s1.4-1.1,1.7-1.8c0.3-0.6,0.4-1.5,0.4-2.6V391.8z"/>
		<path d="M182,394.6l2.7,0.3c-0.4,1.6-1.2,2.8-2.4,3.7s-2.6,1.3-4.5,1.3c-2.3,0-4.1-0.7-5.4-2.1c-1.3-1.4-2-3.4-2-5.9
			c0-2.6,0.7-4.6,2-6.1s3.1-2.2,5.2-2.2c2.1,0,3.8,0.7,5.1,2.1s2,3.4,2,6c0,0.2,0,0.4,0,0.7h-11.6c0.1,1.7,0.6,3,1.5,3.9
			s2,1.4,3.3,1.4c1,0,1.8-0.3,2.5-0.8S181.6,395.7,182,394.6z M173.4,390.3h8.7c-0.1-1.3-0.4-2.3-1-2.9c-0.8-1-1.9-1.5-3.3-1.5
			c-1.2,0-2.2,0.4-3.1,1.2S173.5,389,173.4,390.3z"/>
		<path d="M185.6,384h12.6v2.2h-5v13.4h-2.6v-13.4h-5V384z"/>
		<path d="M211.2,384h10.8v13.4h1.7v6.6h-2.2v-4.4h-12.2v4.4h-2.2v-6.6h1.4C210.4,394.9,211.3,390.4,211.2,384z M213.4,386.2
			c-0.2,5-1,8.8-2.3,11.2h8.4v-11.2H213.4z"/>
		<path d="M237.3,394.6l2.7,0.3c-0.4,1.6-1.2,2.8-2.4,3.7s-2.6,1.3-4.5,1.3c-2.3,0-4.1-0.7-5.4-2.1c-1.3-1.4-2-3.4-2-5.9
			c0-2.6,0.7-4.6,2-6.1s3.1-2.2,5.2-2.2c2.1,0,3.8,0.7,5.1,2.1s2,3.4,2,6c0,0.2,0,0.4,0,0.7h-11.6c0.1,1.7,0.6,3,1.5,3.9
			s2,1.4,3.3,1.4c1,0,1.8-0.3,2.5-0.8S236.9,395.7,237.3,394.6z M228.6,390.3h8.7c-0.1-1.3-0.4-2.3-1-2.9c-0.8-1-1.9-1.5-3.3-1.5
			c-1.2,0-2.2,0.4-3.1,1.2S228.7,389,228.6,390.3z"/>
		<path d="M240.9,384h12.6v2.2h-5v13.4h-2.6v-13.4h-5V384z"/>
		<path d="M266.4,394.6l2.7,0.3c-0.4,1.6-1.2,2.8-2.4,3.7s-2.6,1.3-4.5,1.3c-2.3,0-4.1-0.7-5.4-2.1c-1.3-1.4-2-3.4-2-5.9
			c0-2.6,0.7-4.6,2-6.1s3.1-2.2,5.2-2.2c2.1,0,3.8,0.7,5.1,2.1s2,3.4,2,6c0,0.2,0,0.4,0,0.7h-11.6c0.1,1.7,0.6,3,1.5,3.9
			s2,1.4,3.3,1.4c1,0,1.8-0.3,2.5-0.8S266,395.7,266.4,394.6z M257.7,390.3h8.7c-0.1-1.3-0.4-2.3-1-2.9c-0.8-1-1.9-1.5-3.3-1.5
			c-1.2,0-2.2,0.4-3.1,1.2S257.8,389,257.7,390.3z"/>
		<path d="M272.4,384h2.6v11.9l7.3-11.9h2.8v15.6h-2.6v-11.8l-7.3,11.8h-2.8V384z M281.6,378.1h1.8c-0.1,1.2-0.6,2.2-1.3,2.8
			s-1.7,1-3,1c-1.3,0-2.2-0.3-3-1c-0.7-0.6-1.2-1.6-1.3-2.8h1.8c0.1,0.7,0.4,1.2,0.8,1.5s0.9,0.5,1.6,0.5c0.8,0,1.4-0.2,1.8-0.5
			C281.2,379.3,281.4,378.8,281.6,378.1z"/>
		<path d="M316,393.9l2.6,0.3c-0.3,1.8-1,3.2-2.2,4.2c-1.2,1-2.6,1.5-4.3,1.5c-2.1,0-3.8-0.7-5.1-2.1c-1.3-1.4-1.9-3.4-1.9-6
			c0-1.7,0.3-3.1,0.8-4.4s1.4-2.2,2.5-2.8c1.1-0.6,2.4-0.9,3.7-0.9c1.7,0,3.1,0.4,4.1,1.3s1.8,2.1,2.1,3.6l-2.6,0.4
			c-0.2-1-0.7-1.8-1.3-2.4s-1.4-0.8-2.2-0.8c-1.3,0-2.4,0.5-3.2,1.4c-0.8,1-1.2,2.5-1.2,4.5c0,2.1,0.4,3.6,1.2,4.6s1.8,1.4,3.1,1.4
			c1,0,1.9-0.3,2.6-1S315.8,395.2,316,393.9z"/>
		<path d="M336.9,399.6v-5.1h-9.3V392l9.8-13.9h2.2V392h2.9v2.4h-2.9v5.1H336.9z M336.9,392v-9.7l-6.7,9.7H336.9z"/>
		<path d="M355.5,384h12.2v15.6h-2.6v-13.4h-7v7.7c0,1.8-0.1,3-0.2,3.6s-0.4,1.1-1,1.5s-1.3,0.6-2.3,0.6c-0.6,0-1.3,0-2.1-0.1v-2.2
			h1.2c0.5,0,0.9-0.1,1.2-0.2s0.4-0.3,0.5-0.5s0.1-1,0.1-2.4V384z"/>
		<path d="M382.4,394.6l2.7,0.3c-0.4,1.6-1.2,2.8-2.4,3.7s-2.6,1.3-4.5,1.3c-2.3,0-4.1-0.7-5.4-2.1c-1.3-1.4-2-3.4-2-5.9
			c0-2.6,0.7-4.6,2-6.1s3.1-2.2,5.2-2.2c2.1,0,3.8,0.7,5.1,2.1s2,3.4,2,6c0,0.2,0,0.4,0,0.7h-11.6c0.1,1.7,0.6,3,1.5,3.9
			s2,1.4,3.3,1.4c1,0,1.8-0.3,2.5-0.8S382,395.7,382.4,394.6z M373.7,390.3h8.7c-0.1-1.3-0.4-2.3-1-2.9c-0.8-1-1.9-1.5-3.3-1.5
			c-1.2,0-2.2,0.4-3.1,1.2S373.8,389,373.7,390.3z"/>
		<path d="M386,384h12.6v2.2h-5v13.4H391v-13.4h-5V384z"/>
		<path d="M409.5,384h2.6v11.9l7.3-11.9h2.8v15.6h-2.6v-11.8l-7.3,11.8h-2.8V384z"/>
		<path d="M434.6,384h12.3v15.6h-2.6v-13.4h-7v13.4h-2.6V384z"/>
		<path d="M449.8,391.8c0-2.9,0.8-5,2.4-6.4c1.3-1.2,3-1.7,4.9-1.7c2.1,0,3.9,0.7,5.2,2.1s2,3.3,2,5.8c0,2-0.3,3.6-0.9,4.7
			c-0.6,1.1-1.5,2-2.6,2.7s-2.4,1-3.8,1c-2.2,0-3.9-0.7-5.3-2.1S449.8,394.4,449.8,391.8z M452.5,391.8c0,2,0.4,3.5,1.3,4.5
			c0.9,1,2,1.5,3.3,1.5c1.3,0,2.4-0.5,3.3-1.5s1.3-2.5,1.3-4.6c0-1.9-0.4-3.4-1.3-4.4c-0.9-1-2-1.5-3.3-1.5c-1.3,0-2.4,0.5-3.3,1.5
			S452.5,389.8,452.5,391.8z"/>
		<path d="M468.9,384h10.8v13.4h1.7v6.6h-2.2v-4.4H467v4.4h-2.2v-6.6h1.4C468.1,394.9,469,390.4,468.9,384z M471.1,386.2
			c-0.2,5-1,8.8-2.3,11.2h8.4v-11.2H471.1z"/>
		<path d="M484.3,405.6V384h2.4v2c0.6-0.8,1.2-1.4,1.9-1.8c0.7-0.4,1.6-0.6,2.6-0.6c1.3,0,2.5,0.3,3.5,1s1.8,1.6,2.3,2.9
			c0.5,1.2,0.8,2.6,0.8,4.1c0,1.6-0.3,3-0.9,4.3c-0.6,1.3-1.4,2.3-2.5,2.9c-1.1,0.7-2.2,1-3.4,1c-0.9,0-1.7-0.2-2.4-0.6
			s-1.3-0.8-1.7-1.4v7.6H484.3z M486.7,391.9c0,2,0.4,3.5,1.2,4.4s1.8,1.4,2.9,1.4c1.2,0,2.2-0.5,3-1.5c0.8-1,1.3-2.5,1.3-4.6
			c0-2-0.4-3.5-1.2-4.5s-1.8-1.5-2.9-1.5c-1.1,0-2.1,0.5-3,1.6C487.2,388.4,486.7,389.9,486.7,391.9z"/>
		<path d="M500,391.8c0-2.9,0.8-5,2.4-6.4c1.3-1.2,3-1.7,4.9-1.7c2.1,0,3.9,0.7,5.2,2.1s2,3.3,2,5.8c0,2-0.3,3.6-0.9,4.7
			c-0.6,1.1-1.5,2-2.6,2.7s-2.4,1-3.8,1c-2.2,0-3.9-0.7-5.3-2.1S500,394.4,500,391.8z M502.8,391.8c0,2,0.4,3.5,1.3,4.5
			c0.9,1,2,1.5,3.3,1.5c1.3,0,2.4-0.5,3.3-1.5s1.3-2.5,1.3-4.6c0-1.9-0.4-3.4-1.3-4.4c-0.9-1-2-1.5-3.3-1.5c-1.3,0-2.4,0.5-3.3,1.5
			S502.8,389.8,502.8,391.8z"/>
		<path d="M527.9,393.9l2.6,0.3c-0.3,1.8-1,3.2-2.2,4.2c-1.2,1-2.6,1.5-4.3,1.5c-2.1,0-3.8-0.7-5.1-2.1c-1.3-1.4-1.9-3.4-1.9-6
			c0-1.7,0.3-3.1,0.8-4.4s1.4-2.2,2.5-2.8c1.1-0.6,2.4-0.9,3.7-0.9c1.7,0,3.1,0.4,4.1,1.3s1.8,2.1,2.1,3.6l-2.6,0.4
			c-0.2-1-0.7-1.8-1.3-2.4s-1.4-0.8-2.2-0.8c-1.3,0-2.4,0.5-3.2,1.4c-0.8,1-1.2,2.5-1.2,4.5c0,2.1,0.4,3.6,1.2,4.6s1.8,1.4,3.1,1.4
			c1,0,1.9-0.3,2.6-1S527.7,395.2,527.9,393.9z"/>
		<path d="M531.3,384h12.6v2.2h-5v13.4h-2.6v-13.4h-5V384z"/>
		<path d="M546.4,384h2.6v6.7c0.8,0,1.4-0.2,1.8-0.5s0.8-1.3,1.5-2.8c0.5-1.2,0.9-2,1.3-2.4s0.7-0.7,1.1-0.8s1.1-0.2,2-0.2h0.5v2.2
			l-0.7,0c-0.7,0-1.1,0.1-1.3,0.3c-0.2,0.2-0.5,0.9-0.9,1.9c-0.4,1-0.8,1.7-1.1,2.1s-0.8,0.7-1.5,1.1c1.1,0.3,2.2,1.4,3.3,3.2
			l2.9,4.8h-2.9l-2.8-4.8c-0.6-1-1.1-1.6-1.5-1.9c-0.4-0.3-0.9-0.5-1.5-0.5v7.2h-2.6V384z"/>
		<path d="M558.9,391.8c0-2.9,0.8-5,2.4-6.4c1.3-1.2,3-1.7,4.9-1.7c2.1,0,3.9,0.7,5.2,2.1s2,3.3,2,5.8c0,2-0.3,3.6-0.9,4.7
			c-0.6,1.1-1.5,2-2.6,2.7s-2.4,1-3.8,1c-2.2,0-3.9-0.7-5.3-2.1S558.9,394.4,558.9,391.8z M561.6,391.8c0,2,0.4,3.5,1.3,4.5
			c0.9,1,2,1.5,3.3,1.5c1.3,0,2.4-0.5,3.3-1.5s1.3-2.5,1.3-4.6c0-1.9-0.4-3.4-1.3-4.4c-0.9-1-2-1.5-3.3-1.5c-1.3,0-2.4,0.5-3.3,1.5
			S561.6,389.8,561.6,391.8z"/>
		<path d="M576.6,384h6.1c1.5,0,2.6,0.1,3.3,0.4c0.7,0.2,1.4,0.7,1.9,1.4s0.8,1.5,0.8,2.4c0,0.7-0.2,1.4-0.5,1.9
			c-0.3,0.6-0.8,1-1.4,1.4c0.7,0.2,1.3,0.7,1.8,1.4c0.5,0.7,0.7,1.5,0.7,2.4c-0.1,1.5-0.6,2.6-1.6,3.3s-2.3,1.1-4.2,1.1h-7V384z
			 M579.2,390.6h2.8c1.1,0,1.9-0.1,2.3-0.2s0.8-0.4,1.1-0.7c0.3-0.4,0.5-0.8,0.5-1.3c0-0.8-0.3-1.4-0.9-1.7s-1.6-0.5-3-0.5h-2.9
			V390.6z M579.2,397.4h3.5c1.5,0,2.5-0.2,3.1-0.5c0.6-0.3,0.8-0.9,0.9-1.8c0-0.5-0.2-1-0.5-1.4c-0.3-0.4-0.7-0.7-1.3-0.8
			c-0.5-0.1-1.3-0.2-2.5-0.2h-3.2V397.4z"/>
	</g>
	<g>
		<path class="st2" d="M866.1,29.2l-5.7-0.6c0.2-1,0.5-1.8,0.9-2.4s1-1.1,1.8-1.5c0.5-0.3,1.3-0.5,2.3-0.7s2-0.2,3.1-0.2
			c1.8,0,3.2,0.1,4.3,0.3s2,0.6,2.7,1.3c0.5,0.4,0.9,1.1,1.2,1.9s0.4,1.6,0.4,2.3v6.9c0,0.7,0,1.3,0.1,1.7s0.3,0.9,0.6,1.6h-5.6
			c-0.2-0.4-0.4-0.7-0.4-0.9s-0.1-0.5-0.2-1c-0.8,0.8-1.6,1.3-2.3,1.6c-1.1,0.4-2.3,0.6-3.7,0.6c-1.9,0-3.3-0.4-4.2-1.3
			s-1.4-1.9-1.4-3.2c0-1.2,0.3-2.2,1-2.9s2-1.3,3.8-1.7c2.2-0.4,3.7-0.8,4.3-0.9s1.4-0.4,2.1-0.7c0-0.7-0.2-1.2-0.5-1.5
			s-0.8-0.4-1.6-0.4c-1,0-1.7,0.2-2.2,0.5C866.6,28.1,866.3,28.6,866.1,29.2z M871.3,32.4c-0.8,0.3-1.7,0.6-2.6,0.8
			c-1.2,0.3-2,0.6-2.3,1c-0.3,0.3-0.5,0.7-0.5,1.1c0,0.5,0.2,0.9,0.5,1.1s0.8,0.4,1.4,0.4c0.7,0,1.3-0.2,1.9-0.5s1-0.7,1.2-1.2
			s0.4-1.1,0.4-1.8V32.4z"/>
		<path class="st2" d="M880.8,24.2h2.6v6.7c0.8,0,1.4-0.2,1.8-0.5s0.8-1.3,1.5-2.8c0.5-1.2,0.9-2,1.3-2.4s0.7-0.7,1.1-0.8
			s1.1-0.2,2-0.2h0.5v2.2l-0.7,0c-0.7,0-1.1,0.1-1.3,0.3c-0.2,0.2-0.5,0.9-0.9,1.9c-0.4,1-0.8,1.7-1.1,2.1s-0.8,0.7-1.5,1.1
			c1.1,0.3,2.2,1.4,3.3,3.2l2.9,4.8h-2.9l-2.8-4.8c-0.6-1-1.1-1.6-1.5-1.9s-0.9-0.5-1.5-0.5v7.2h-2.6V24.2z"/>
		<path class="st2" d="M892.9,24.2h12.6v2.2h-5v13.4h-2.6V26.4h-5V24.2z"/>
		<path class="st2" d="M918.4,34.7l2.7,0.3c-0.4,1.6-1.2,2.8-2.4,3.7s-2.6,1.3-4.5,1.3c-2.3,0-4.1-0.7-5.4-2.1s-2-3.4-2-5.9
			c0-2.6,0.7-4.6,2-6.1s3.1-2.2,5.2-2.2c2.1,0,3.8,0.7,5.1,2.1s2,3.4,2,6c0,0.2,0,0.4,0,0.7h-11.6c0.1,1.7,0.6,3,1.5,3.9
			s2,1.4,3.3,1.4c1,0,1.8-0.3,2.5-0.8S918,35.9,918.4,34.7z M909.7,30.5h8.7c-0.1-1.3-0.4-2.3-1-2.9c-0.8-1-1.9-1.5-3.3-1.5
			c-1.2,0-2.2,0.4-3.1,1.2S909.8,29.1,909.7,30.5z"/>
		<path class="st2" d="M924.4,45.7V24.2h2.4v2c0.6-0.8,1.2-1.4,1.9-1.8s1.6-0.6,2.6-0.6c1.3,0,2.5,0.3,3.5,1s1.8,1.6,2.3,2.9
			s0.8,2.6,0.8,4.1c0,1.6-0.3,3-0.9,4.3s-1.4,2.3-2.5,2.9s-2.2,1-3.4,1c-0.9,0-1.7-0.2-2.4-0.6s-1.3-0.8-1.7-1.4v7.6H924.4z
			 M926.8,32.1c0,2,0.4,3.5,1.2,4.4s1.8,1.4,2.9,1.4c1.2,0,2.2-0.5,3-1.5s1.3-2.5,1.3-4.6c0-2-0.4-3.5-1.2-4.5s-1.8-1.5-2.9-1.5
			c-1.1,0-2.1,0.5-3,1.6S926.8,30.1,926.8,32.1z"/>
		<path class="st2" d="M951.2,34.1l2.6,0.3c-0.3,1.8-1,3.2-2.2,4.2s-2.6,1.5-4.3,1.5c-2.1,0-3.8-0.7-5.1-2.1s-1.9-3.4-1.9-6
			c0-1.7,0.3-3.1,0.8-4.4s1.4-2.2,2.5-2.8s2.4-0.9,3.7-0.9c1.7,0,3.1,0.4,4.1,1.3s1.8,2.1,2.1,3.6l-2.6,0.4c-0.2-1-0.7-1.8-1.3-2.4
			s-1.4-0.8-2.2-0.8c-1.3,0-2.4,0.5-3.2,1.4S943,29.9,943,32c0,2.1,0.4,3.6,1.2,4.6s1.8,1.4,3.1,1.4c1,0,1.9-0.3,2.6-1
			S951.1,35.4,951.2,34.1z"/>
		<path class="st2" d="M956.1,24.2h2.6v6.7c0.8,0,1.4-0.2,1.8-0.5s0.8-1.3,1.5-2.8c0.5-1.2,0.9-2,1.3-2.4s0.7-0.7,1.1-0.8
			s1.1-0.2,2-0.2h0.5v2.2l-0.7,0c-0.7,0-1.1,0.1-1.3,0.3c-0.2,0.2-0.5,0.9-0.9,1.9c-0.4,1-0.8,1.7-1.1,2.1s-0.8,0.7-1.5,1.1
			c1.1,0.3,2.2,1.4,3.3,3.2l2.9,4.8h-2.9l-2.8-4.8c-0.6-1-1.1-1.6-1.5-1.9s-0.9-0.5-1.5-0.5v7.2h-2.6V24.2z"/>
		<path class="st2" d="M968.6,32c0-2.9,0.8-5,2.4-6.4c1.3-1.2,3-1.7,4.9-1.7c2.1,0,3.9,0.7,5.2,2.1s2,3.3,2,5.8c0,2-0.3,3.6-0.9,4.7
			s-1.5,2-2.6,2.7s-2.4,1-3.8,1c-2.2,0-3.9-0.7-5.3-2.1S968.6,34.6,968.6,32z M971.3,32c0,2,0.4,3.5,1.3,4.5s2,1.5,3.3,1.5
			c1.3,0,2.4-0.5,3.3-1.5s1.3-2.5,1.3-4.6c0-1.9-0.4-3.4-1.3-4.4s-2-1.5-3.3-1.5c-1.3,0-2.4,0.5-3.3,1.5S971.3,30,971.3,32z"/>
		<path class="st2" d="M986.3,24.2h4.1l4.1,12.5l4.5-12.5h3.8v15.6h-2.6V27.2l-4.6,12.5h-2.4l-4.3-13.1v13.1h-2.6V24.2z"/>
		<path class="st2" d="M1007.1,45.7l-0.3-2.5c0.6,0.2,1.1,0.2,1.5,0.2c0.6,0,1.1-0.1,1.4-0.3s0.6-0.5,0.9-0.8c0.2-0.3,0.4-0.9,0.8-2
			c0-0.1,0.1-0.4,0.2-0.6l-5.9-15.6h2.8l3.2,9c0.4,1.1,0.8,2.3,1.1,3.6c0.3-1.2,0.7-2.4,1.1-3.5l3.3-9.1h2.6L1014,40
			c-0.6,1.7-1.1,2.9-1.5,3.5c-0.5,0.9-1,1.5-1.6,1.9s-1.3,0.6-2.2,0.6C1008.3,46.1,1007.7,46,1007.1,45.7z"/>
		<path class="st2" d="M1030.6,24.2h4.1l4.1,12.5l4.5-12.5h3.8v15.6h-2.6V27.2l-4.6,12.5h-2.4l-4.3-13.1v13.1h-2.6V24.2z"/>
		<path class="st2" d="M1061.3,37.8c-1,0.8-1.9,1.4-2.8,1.8s-1.9,0.5-2.9,0.5c-1.7,0-3-0.4-3.9-1.3s-1.4-1.9-1.4-3.2
			c0-0.8,0.2-1.5,0.5-2.1s0.8-1.1,1.4-1.5s1.2-0.7,1.9-0.9c0.5-0.1,1.3-0.3,2.3-0.4c2.1-0.3,3.7-0.6,4.7-0.9c0-0.4,0-0.6,0-0.7
			c0-1.1-0.3-1.8-0.7-2.3c-0.7-0.6-1.7-0.9-3-0.9c-1.2,0-2.2,0.2-2.7,0.7s-1,1.2-1.3,2.3l-2.6-0.4c0.2-1.1,0.6-2,1.2-2.7
			s1.3-1.2,2.3-1.6s2.2-0.5,3.5-0.5c1.3,0,2.4,0.2,3.2,0.5s1.4,0.7,1.8,1.2s0.7,1.1,0.8,1.8c0.1,0.4,0.1,1.3,0.1,2.4v3.5
			c0,2.5,0.1,4,0.2,4.7s0.3,1.3,0.7,1.9h-2.8C1061.6,39.2,1061.4,38.6,1061.3,37.8z M1061.1,31.9c-1,0.4-2.4,0.7-4.3,1
			c-1.1,0.2-1.8,0.3-2.3,0.5s-0.8,0.5-1,0.9s-0.4,0.8-0.4,1.3c0,0.7,0.3,1.3,0.8,1.8s1.3,0.7,2.3,0.7c1,0,1.9-0.2,2.7-0.7
			s1.4-1.1,1.7-1.8c0.3-0.6,0.4-1.5,0.4-2.6V31.9z"/>
		<path class="st2" d="M1078,34.1l2.6,0.3c-0.3,1.8-1,3.2-2.2,4.2s-2.6,1.5-4.3,1.5c-2.1,0-3.8-0.7-5.1-2.1s-1.9-3.4-1.9-6
			c0-1.7,0.3-3.1,0.8-4.4s1.4-2.2,2.5-2.8s2.4-0.9,3.7-0.9c1.7,0,3.1,0.4,4.1,1.3s1.8,2.1,2.1,3.6l-2.6,0.4c-0.2-1-0.7-1.8-1.3-2.4
			s-1.4-0.8-2.2-0.8c-1.3,0-2.4,0.5-3.2,1.4s-1.2,2.5-1.2,4.5c0,2.1,0.4,3.6,1.2,4.6s1.8,1.4,3.1,1.4c1,0,1.9-0.3,2.6-1
			S1077.8,35.4,1078,34.1z"/>
		<path class="st2" d="M1081.4,24.2h12.6v2.2h-5v13.4h-2.6V26.4h-5V24.2z"/>
		<path class="st2" d="M1106.9,34.7l2.7,0.3c-0.4,1.6-1.2,2.8-2.4,3.7s-2.6,1.3-4.5,1.3c-2.3,0-4.1-0.7-5.4-2.1s-2-3.4-2-5.9
			c0-2.6,0.7-4.6,2-6.1s3.1-2.2,5.2-2.2c2.1,0,3.8,0.7,5.1,2.1s2,3.4,2,6c0,0.2,0,0.4,0,0.7h-11.6c0.1,1.7,0.6,3,1.5,3.9
			s2,1.4,3.3,1.4c1,0,1.8-0.3,2.5-0.8S1106.5,35.9,1106.9,34.7z M1098.2,30.5h8.7c-0.1-1.3-0.4-2.3-1-2.9c-0.8-1-1.9-1.5-3.3-1.5
			c-1.2,0-2.2,0.4-3.1,1.2S1098.3,29.1,1098.2,30.5z"/>
		<path class="st2" d="M1112.9,45.7V24.2h2.4v2c0.6-0.8,1.2-1.4,1.9-1.8s1.6-0.6,2.6-0.6c1.3,0,2.5,0.3,3.5,1s1.8,1.6,2.3,2.9
			s0.8,2.6,0.8,4.1c0,1.6-0.3,3-0.9,4.3s-1.4,2.3-2.5,2.9s-2.2,1-3.4,1c-0.9,0-1.7-0.2-2.4-0.6s-1.3-0.8-1.7-1.4v7.6H1112.9z
			 M1115.3,32.1c0,2,0.4,3.5,1.2,4.4s1.8,1.4,2.9,1.4c1.2,0,2.2-0.5,3-1.5s1.3-2.5,1.3-4.6c0-2-0.4-3.5-1.2-4.5s-1.8-1.5-2.9-1.5
			c-1.1,0-2.1,0.5-3,1.6S1115.3,30.1,1115.3,32.1z"/>
		<path class="st2" d="M1139.8,34.1l2.6,0.3c-0.3,1.8-1,3.2-2.2,4.2s-2.6,1.5-4.3,1.5c-2.1,0-3.8-0.7-5.1-2.1s-1.9-3.4-1.9-6
			c0-1.7,0.3-3.1,0.8-4.4s1.4-2.2,2.5-2.8s2.4-0.9,3.7-0.9c1.7,0,3.1,0.4,4.1,1.3s1.8,2.1,2.1,3.6l-2.6,0.4c-0.2-1-0.7-1.8-1.3-2.4
			s-1.4-0.8-2.2-0.8c-1.3,0-2.4,0.5-3.2,1.4s-1.2,2.5-1.2,4.5c0,2.1,0.4,3.6,1.2,4.6s1.8,1.4,3.1,1.4c1,0,1.9-0.3,2.6-1
			S1139.6,35.4,1139.8,34.1z"/>
		<path class="st2" d="M1143.2,24.2h12.6v2.2h-5v13.4h-2.6V26.4h-5V24.2z"/>
		<path class="st2" d="M1158.4,24.2h6.1c1.5,0,2.6,0.1,3.3,0.4s1.4,0.7,1.9,1.4s0.8,1.5,0.8,2.4c0,0.7-0.2,1.4-0.5,1.9
			s-0.8,1-1.4,1.4c0.7,0.2,1.3,0.7,1.8,1.4s0.7,1.5,0.7,2.4c-0.1,1.5-0.6,2.6-1.6,3.3s-2.3,1.1-4.2,1.1h-7V24.2z M1161,30.7h2.8
			c1.1,0,1.9-0.1,2.3-0.2s0.8-0.4,1.1-0.7s0.5-0.8,0.5-1.3c0-0.8-0.3-1.4-0.9-1.7s-1.6-0.5-3-0.5h-2.9V30.7z M1161,37.6h3.5
			c1.5,0,2.5-0.2,3.1-0.5s0.8-0.9,0.9-1.8c0-0.5-0.2-1-0.5-1.4s-0.7-0.7-1.3-0.8s-1.3-0.2-2.5-0.2h-3.2V37.6z"/>
		<path class="st2" d="M1173.5,45.7l-0.3-2.5c0.6,0.2,1.1,0.2,1.5,0.2c0.6,0,1.1-0.1,1.4-0.3s0.6-0.5,0.9-0.8c0.2-0.3,0.4-0.9,0.8-2
			c0-0.1,0.1-0.4,0.2-0.6l-5.9-15.6h2.8l3.2,9c0.4,1.1,0.8,2.3,1.1,3.6c0.3-1.2,0.7-2.4,1.1-3.5l3.3-9.1h2.6l-5.9,15.8
			c-0.6,1.7-1.1,2.9-1.5,3.5c-0.5,0.9-1,1.5-1.6,1.9s-1.3,0.6-2.2,0.6C1174.7,46.1,1174.1,46,1173.5,45.7z"/>
		<path class="st2" d="M848.7,69.7l5.7,0.6c-0.3,1.2-0.8,2.2-1.5,3.1s-1.6,1.5-2.7,2s-2.5,0.7-4.2,0.7c-1.7,0-3-0.2-4.1-0.5
			s-2-0.8-2.8-1.5s-1.4-1.5-1.9-2.4c-0.4-0.9-0.7-2.2-0.7-3.7c0-1.6,0.3-2.9,0.8-4c0.4-0.8,0.9-1.5,1.6-2.1s1.4-1.1,2.1-1.4
			c1.2-0.5,2.7-0.7,4.5-0.7c2.5,0,4.5,0.5,5.8,1.4s2.3,2.2,2.8,4l-5.6,0.7c-0.2-0.7-0.5-1.2-1-1.5s-1.1-0.5-1.9-0.5
			c-1,0-1.8,0.4-2.4,1.1c-0.6,0.7-0.9,1.8-0.9,3.2c0,1.3,0.3,2.2,0.9,2.9c0.6,0.7,1.4,1,2.3,1c0.8,0,1.4-0.2,2-0.6
			S848.4,70.5,848.7,69.7z"/>
		<path class="st2" d="M857.3,60.2h2.6v13.4h7.3V60.2h2.6v13.4h1.7v6.6h-2.2v-4.4h-12.1V60.2z"/>
		<path class="st2" d="M884.7,70.7l2.7,0.3c-0.4,1.6-1.2,2.8-2.4,3.7s-2.6,1.3-4.5,1.3c-2.3,0-4.1-0.7-5.4-2.1s-2-3.4-2-5.9
			c0-2.6,0.7-4.6,2-6.1s3.1-2.2,5.2-2.2c2.1,0,3.8,0.7,5.1,2.1s2,3.4,2,6c0,0.2,0,0.4,0,0.7h-11.6c0.1,1.7,0.6,3,1.5,3.9
			s2,1.4,3.3,1.4c1,0,1.8-0.3,2.5-0.8S884.3,71.9,884.7,70.7z M876.1,66.5h8.7c-0.1-1.3-0.4-2.3-1-2.9c-0.8-1-1.9-1.5-3.3-1.5
			c-1.2,0-2.2,0.4-3.1,1.2S876.2,65.1,876.1,66.5z"/>
		<path class="st2" d="M890.8,60.2h2.6v6.5h7.3v-6.5h2.6v15.6h-2.6v-6.9h-7.3v6.9h-2.6V60.2z"/>
		<path class="st2" d="M907.3,60.2h2.6v11.9l7.3-11.9h2.8v15.6h-2.6V64l-7.3,11.8h-2.8V60.2z"/>
		<path class="st2" d="M923.1,60.2h2.6v2.9c0,1.3,0.1,2.2,0.2,2.8s0.5,1.1,1.1,1.5s1.3,0.6,2.2,0.6c1,0,2.3-0.3,3.9-0.8v-7h2.6v15.6
			h-2.6v-6.3c-1.6,0.5-3.1,0.8-4.5,0.8c-1.2,0-2.2-0.3-3.1-0.9s-1.5-1.3-1.8-2.2s-0.5-1.8-0.5-2.9V60.2z"/>
		<path class="st2" d="M950.4,70.7l2.7,0.3c-0.4,1.6-1.2,2.8-2.4,3.7s-2.6,1.3-4.5,1.3c-2.3,0-4.1-0.7-5.4-2.1s-2-3.4-2-5.9
			c0-2.6,0.7-4.6,2-6.1s3.1-2.2,5.2-2.2c2.1,0,3.8,0.7,5.1,2.1s2,3.4,2,6c0,0.2,0,0.4,0,0.7h-11.6c0.1,1.7,0.6,3,1.4,3.9
			s2,1.4,3.3,1.4c1,0,1.8-0.3,2.5-0.8S950,71.9,950.4,70.7z M941.7,66.5h8.7c-0.1-1.3-0.4-2.3-1-2.9c-0.8-1-1.9-1.5-3.3-1.5
			c-1.2,0-2.2,0.4-3.1,1.2S941.8,65.1,941.7,66.5z"/>
		<path class="st2" d="M966.6,70.1l2.6,0.3c-0.3,1.8-1,3.2-2.2,4.2s-2.6,1.5-4.3,1.5c-2.1,0-3.8-0.7-5.1-2.1s-1.9-3.4-1.9-6
			c0-1.7,0.3-3.1,0.8-4.4s1.4-2.2,2.5-2.8s2.4-0.9,3.7-0.9c1.7,0,3.1,0.4,4.1,1.3s1.8,2.1,2.1,3.6l-2.6,0.4c-0.2-1-0.7-1.8-1.3-2.4
			s-1.4-0.8-2.2-0.8c-1.3,0-2.4,0.5-3.2,1.4s-1.2,2.5-1.2,4.5c0,2.1,0.4,3.6,1.2,4.6s1.8,1.4,3.1,1.4c1,0,1.9-0.3,2.6-1
			S966.4,71.4,966.6,70.1z"/>
		<path class="st2" d="M971.4,60.2h2.6v6.7c0.8,0,1.4-0.2,1.8-0.5s0.8-1.3,1.5-2.8c0.5-1.2,0.9-2,1.3-2.4s0.7-0.7,1.1-0.8
			s1.1-0.2,2-0.2h0.5v2.2l-0.7,0c-0.7,0-1.1,0.1-1.3,0.3c-0.2,0.2-0.5,0.9-0.9,1.9c-0.4,1-0.8,1.7-1.1,2.1s-0.8,0.7-1.5,1.1
			c1.1,0.3,2.2,1.4,3.3,3.2l2.9,4.8h-2.9l-2.8-4.8c-0.6-1-1.1-1.6-1.5-1.9s-0.9-0.5-1.5-0.5v7.2h-2.6V60.2z"/>
		<path class="st2" d="M983.9,68c0-2.9,0.8-5,2.4-6.4c1.3-1.2,3-1.7,4.9-1.7c2.1,0,3.9,0.7,5.2,2.1s2,3.3,2,5.8c0,2-0.3,3.6-0.9,4.7
			s-1.5,2-2.6,2.7s-2.4,1-3.8,1c-2.2,0-3.9-0.7-5.3-2.1S983.9,70.6,983.9,68z M986.6,68c0,2,0.4,3.5,1.3,4.5s2,1.5,3.3,1.5
			c1.3,0,2.4-0.5,3.3-1.5s1.3-2.5,1.3-4.6c0-1.9-0.4-3.4-1.3-4.4s-2-1.5-3.3-1.5c-1.3,0-2.4,0.5-3.3,1.5S986.6,66,986.6,68z"/>
		<path class="st2" d="M1001.6,60.2h4.1l4.1,12.5l4.5-12.5h3.8v15.6h-2.6V63.2l-4.6,12.5h-2.4l-4.3-13.1v13.1h-2.6V60.2z"/>
		<path class="st2" d="M1022.4,81.7l-0.3-2.5c0.6,0.2,1.1,0.2,1.5,0.2c0.6,0,1.1-0.1,1.4-0.3s0.6-0.5,0.9-0.8c0.2-0.3,0.4-0.9,0.8-2
			c0-0.1,0.1-0.4,0.2-0.6l-5.9-15.6h2.8l3.2,9c0.4,1.1,0.8,2.3,1.1,3.6c0.3-1.2,0.7-2.4,1.1-3.5l3.3-9.1h2.6l-5.9,15.8
			c-0.6,1.7-1.1,2.9-1.5,3.5c-0.5,0.9-1,1.5-1.6,1.9s-1.3,0.6-2.2,0.6C1023.6,82.1,1023,82,1022.4,81.7z"/>
		<path class="st2" d="M1047.9,60.2h10.8v13.4h1.7v6.6h-2.2v-4.4H1046v4.4h-2.2v-6.6h1.4C1047.1,71.1,1048,66.6,1047.9,60.2z
			 M1050.1,62.4c-0.2,5-1,8.8-2.3,11.2h8.4V62.4H1050.1z"/>
		<path class="st2" d="M1063.4,60.2h6.1c1.5,0,2.6,0.1,3.3,0.4s1.4,0.7,1.9,1.4s0.8,1.5,0.8,2.4c0,0.7-0.2,1.4-0.5,1.9
			s-0.8,1-1.4,1.4c0.7,0.2,1.3,0.7,1.8,1.4s0.7,1.5,0.7,2.4c-0.1,1.5-0.6,2.6-1.6,3.3s-2.3,1.1-4.2,1.1h-7V60.2z M1066,66.7h2.8
			c1.1,0,1.9-0.1,2.3-0.2s0.8-0.4,1.1-0.7s0.5-0.8,0.5-1.3c0-0.8-0.3-1.4-0.9-1.7s-1.6-0.5-3-0.5h-2.9V66.7z M1066,73.6h3.5
			c1.5,0,2.5-0.2,3.1-0.5s0.8-0.9,0.9-1.8c0-0.5-0.2-1-0.5-1.4s-0.7-0.7-1.3-0.8s-1.3-0.2-2.5-0.2h-3.2V73.6z"/>
		<path class="st2" d="M1079.3,60.2h2.6v11.9l7.3-11.9h2.8v15.6h-2.6V64l-7.3,11.8h-2.8V60.2z"/>
		<path class="st2" d="M1105.5,60.2v6.7c0.8,0,1.4-0.2,1.8-0.5s0.8-1.3,1.5-2.8c0.6-1.5,1.2-2.4,1.7-2.8c0.5-0.4,1.2-0.6,2.3-0.6h1
			v2.2l-0.7,0c-0.7,0-1.2,0.1-1.3,0.3c-0.2,0.2-0.5,0.9-0.9,1.9c-0.4,1-0.8,1.7-1.1,2.1s-0.8,0.7-1.6,1.1c1.1,0.3,2.3,1.4,3.3,3.2
			l2.9,4.8h-2.9l-2.8-4.8c-0.6-1-1.1-1.6-1.5-1.9s-0.9-0.5-1.5-0.5v7.2h-2.7v-7.2c-0.6,0-1.1,0.1-1.5,0.4s-0.9,0.9-1.5,1.9l-2.8,4.8
			h-2.9l2.9-4.8c1.1-1.8,2.2-2.9,3.4-3.2c-0.8-0.4-1.3-0.8-1.6-1.2s-0.8-1.4-1.4-3c-0.2-0.5-0.4-0.9-0.7-1c-0.3-0.1-0.6-0.2-1.1-0.2
			c-0.1,0-0.4,0-0.8,0v-2.2h0.4c1,0,1.7,0.1,2.1,0.2s0.8,0.4,1.1,0.8s0.8,1.2,1.3,2.5c0.6,1.5,1.1,2.5,1.5,2.8s0.9,0.5,1.8,0.5v-6.7
			H1105.5z"/>
		<path class="st2" d="M1126.8,70.7l2.7,0.3c-0.4,1.6-1.2,2.8-2.4,3.7s-2.6,1.3-4.5,1.3c-2.3,0-4.1-0.7-5.4-2.1s-2-3.4-2-5.9
			c0-2.6,0.7-4.6,2-6.1s3.1-2.2,5.2-2.2c2.1,0,3.8,0.7,5.1,2.1s2,3.4,2,6c0,0.2,0,0.4,0,0.7H1118c0.1,1.7,0.6,3,1.4,3.9
			s2,1.4,3.3,1.4c1,0,1.8-0.3,2.5-0.8S1126.4,71.9,1126.8,70.7z M1118.1,66.5h8.7c-0.1-1.3-0.4-2.3-1-2.9c-0.8-1-1.9-1.5-3.3-1.5
			c-1.2,0-2.2,0.4-3.1,1.2S1118.2,65.1,1118.1,66.5z"/>
		<path class="st2" d="M1132.8,60.2h2.6v6.5h7.3v-6.5h2.6v15.6h-2.6v-6.9h-7.3v6.9h-2.6V60.2z"/>
		<path class="st2" d="M1149.4,60.2h2.6v11.9l7.3-11.9h2.8v15.6h-2.6V64l-7.3,11.8h-2.8V60.2z"/>
		<path class="st2" d="M1166.2,60.2h2.6v6.5h3.2c0.2-2.2,0.9-3.9,2.1-5.1s2.7-1.8,4.5-1.8c1.6,0,2.8,0.3,3.7,1s1.7,1.5,2.2,2.6
			s0.9,2.6,0.9,4.5c0,2.7-0.6,4.7-1.8,6.1s-2.9,2.1-5,2.1c-1.9,0-3.5-0.6-4.7-1.9s-1.8-3.1-2-5.3h-3.2v6.9h-2.6V60.2z M1178.7,62.1
			c-1.3,0-2.3,0.5-3,1.5s-1.1,2.4-1.1,4.2c0,2.1,0.4,3.7,1.1,4.7s1.7,1.5,2.9,1.5c1.2,0,2.2-0.5,3-1.4s1.1-2.4,1.1-4.5
			c0-2-0.3-3.5-1-4.5S1180.1,62.1,1178.7,62.1z"/>
		<path class="st2" d="M712.6,111.8h-6v-11.2h-4.5v11.2h-6V96.2h16.5V111.8z"/>
		<path class="st2" d="M716.4,117.7V96.2h2.4v2c0.6-0.8,1.2-1.4,1.9-1.8s1.6-0.6,2.6-0.6c1.3,0,2.5,0.3,3.5,1s1.8,1.6,2.3,2.9
			s0.8,2.6,0.8,4.1c0,1.6-0.3,3-0.9,4.3s-1.4,2.3-2.5,2.9s-2.2,1-3.4,1c-0.9,0-1.7-0.2-2.4-0.6s-1.3-0.8-1.7-1.4v7.6H716.4z
			 M718.8,104.1c0,2,0.4,3.5,1.2,4.4s1.8,1.4,2.9,1.4c1.2,0,2.2-0.5,3-1.5s1.3-2.5,1.3-4.6c0-2-0.4-3.5-1.2-4.5s-1.8-1.5-2.9-1.5
			c-1.1,0-2.1,0.5-3,1.6S718.8,102.1,718.8,104.1z"/>
		<path class="st2" d="M743.2,109.8c-1,0.8-1.9,1.4-2.8,1.8s-1.9,0.5-2.9,0.5c-1.7,0-3-0.4-3.9-1.3s-1.4-1.9-1.4-3.2
			c0-0.8,0.2-1.5,0.5-2.1s0.8-1.1,1.4-1.5s1.2-0.7,1.9-0.9c0.5-0.1,1.3-0.3,2.3-0.4c2.1-0.3,3.7-0.6,4.7-0.9c0-0.4,0-0.6,0-0.7
			c0-1.1-0.3-1.8-0.7-2.3c-0.7-0.6-1.7-0.9-3-0.9c-1.2,0-2.2,0.2-2.7,0.7s-1,1.2-1.3,2.3l-2.6-0.4c0.2-1.1,0.6-2,1.2-2.7
			s1.3-1.2,2.3-1.6s2.2-0.5,3.5-0.5c1.3,0,2.4,0.2,3.2,0.5s1.4,0.7,1.8,1.2s0.7,1.1,0.8,1.8c0.1,0.4,0.1,1.3,0.1,2.4v3.5
			c0,2.5,0.1,4,0.2,4.7s0.3,1.3,0.7,1.9h-2.8C743.5,111.2,743.3,110.6,743.2,109.8z M743,103.9c-1,0.4-2.4,0.7-4.3,1
			c-1.1,0.2-1.8,0.3-2.3,0.5s-0.8,0.5-1,0.9s-0.4,0.8-0.4,1.3c0,0.7,0.3,1.3,0.8,1.8s1.3,0.7,2.3,0.7c1,0,1.9-0.2,2.7-0.7
			s1.4-1.1,1.7-1.8c0.3-0.6,0.4-1.5,0.4-2.6V103.9z"/>
		<path class="st2" d="M749.8,96.2h6.1c1.5,0,2.6,0.1,3.3,0.4s1.4,0.7,1.9,1.4s0.8,1.5,0.8,2.4c0,0.7-0.2,1.4-0.5,1.9
			s-0.8,1-1.4,1.4c0.7,0.2,1.3,0.7,1.8,1.4s0.7,1.5,0.7,2.4c-0.1,1.5-0.6,2.6-1.6,3.3s-2.3,1.1-4.2,1.1h-7V96.2z M752.4,102.7h2.8
			c1.1,0,1.9-0.1,2.3-0.2s0.8-0.4,1.1-0.7s0.5-0.8,0.5-1.3c0-0.8-0.3-1.4-0.9-1.7s-1.6-0.5-3-0.5h-2.9V102.7z M752.4,109.6h3.5
			c1.5,0,2.5-0.2,3.1-0.5s0.8-0.9,0.9-1.8c0-0.5-0.2-1-0.5-1.4s-0.7-0.7-1.3-0.8s-1.3-0.2-2.5-0.2h-3.2V109.6z"/>
		<path class="st2" d="M765.7,96.2h2.6v11.9l7.3-11.9h2.8v15.6h-2.6V100l-7.3,11.8h-2.8V96.2z"/>
		<path class="st2" d="M783.7,96.2H796v15.6h-2.6V98.4h-7v7.7c0,1.8-0.1,3-0.2,3.6s-0.4,1.1-1,1.5s-1.3,0.6-2.3,0.6
			c-0.6,0-1.3,0-2.1-0.1v-2.2h1.2c0.5,0,0.9-0.1,1.2-0.2s0.4-0.3,0.5-0.5s0.1-1,0.1-2.4V96.2z"/>
		<path class="st2" d="M799.9,96.2h2.6v6.1h3.3c2.2,0,3.9,0.4,5,1.3s1.8,2,1.8,3.5c0,1.3-0.5,2.4-1.5,3.3s-2.6,1.4-4.7,1.4h-6.6
			V96.2z M802.5,109.6h2.8c1.7,0,2.9-0.2,3.6-0.6s1.1-1,1.1-1.9c0-0.7-0.3-1.3-0.8-1.8s-1.7-0.8-3.5-0.8h-3.1V109.6z"/>
		<path class="st2" d="M815.6,96.2h2.6v6.5h7.3v-6.5h2.6v15.6h-2.6v-6.9h-7.3v6.9h-2.6V96.2z"/>
		<path class="st2" d="M831.2,104c0-2.9,0.8-5,2.4-6.4c1.3-1.2,3-1.7,4.9-1.7c2.1,0,3.9,0.7,5.2,2.1s2,3.3,2,5.8
			c0,2-0.3,3.6-0.9,4.7s-1.5,2-2.6,2.7s-2.4,1-3.8,1c-2.2,0-3.9-0.7-5.3-2.1S831.2,106.6,831.2,104z M833.9,104c0,2,0.4,3.5,1.3,4.5
			s2,1.5,3.3,1.5c1.3,0,2.4-0.5,3.3-1.5s1.3-2.5,1.3-4.6c0-1.9-0.4-3.4-1.3-4.4s-2-1.5-3.3-1.5c-1.3,0-2.4,0.5-3.3,1.5
			S833.9,102,833.9,104z"/>
		<path class="st2" d="M848.9,96.2h4.1l4.1,12.5l4.5-12.5h3.8v15.6h-2.6V99.2l-4.6,12.5h-2.4l-4.4-13.1v13.1h-2.6V96.2z"/>
		<path class="st2" d="M869.7,117.7l-0.3-2.5c0.6,0.2,1.1,0.2,1.5,0.2c0.6,0,1.1-0.1,1.4-0.3s0.6-0.5,0.9-0.8c0.2-0.3,0.4-0.9,0.8-2
			c0-0.1,0.1-0.4,0.2-0.6l-5.9-15.6h2.8l3.2,9c0.4,1.1,0.8,2.3,1.1,3.6c0.3-1.2,0.7-2.4,1.1-3.5l3.3-9.1h2.6l-5.9,15.8
			c-0.6,1.7-1.1,2.9-1.5,3.5c-0.5,0.9-1,1.5-1.6,1.9s-1.3,0.6-2.2,0.6C870.9,118.1,870.3,118,869.7,117.7z"/>
		<path class="st2" d="M893.1,96.2h12.3v15.6h-2.6V98.4h-7v13.4h-2.6V96.2z"/>
		<path class="st2" d="M920,106.7l2.7,0.3c-0.4,1.6-1.2,2.8-2.4,3.7s-2.6,1.3-4.5,1.3c-2.3,0-4.1-0.7-5.4-2.1s-2-3.4-2-5.9
			c0-2.6,0.7-4.6,2-6.1s3.1-2.2,5.2-2.2c2.1,0,3.8,0.7,5.1,2.1s2,3.4,2,6c0,0.2,0,0.4,0,0.7h-11.6c0.1,1.7,0.6,3,1.5,3.9
			s2,1.4,3.3,1.4c1,0,1.8-0.3,2.5-0.8S919.6,107.9,920,106.7z M911.4,102.5h8.7c-0.1-1.3-0.4-2.3-1-2.9c-0.8-1-1.9-1.5-3.3-1.5
			c-1.2,0-2.2,0.4-3.1,1.2S911.4,101.1,911.4,102.5z"/>
		<path class="st2" d="M926.1,96.2h6.1c1.5,0,2.6,0.1,3.3,0.4s1.4,0.7,1.9,1.4s0.8,1.5,0.8,2.4c0,0.7-0.2,1.4-0.5,1.9
			s-0.8,1-1.4,1.4c0.7,0.2,1.3,0.7,1.8,1.4s0.7,1.5,0.7,2.4c-0.1,1.5-0.6,2.6-1.6,3.3s-2.3,1.1-4.2,1.1h-7V96.2z M928.7,102.7h2.8
			c1.1,0,1.9-0.1,2.3-0.2s0.8-0.4,1.1-0.7s0.5-0.8,0.5-1.3c0-0.8-0.3-1.4-0.9-1.7s-1.6-0.5-3-0.5h-2.9V102.7z M928.7,109.6h3.5
			c1.5,0,2.5-0.2,3.1-0.5s0.8-0.9,0.9-1.8c0-0.5-0.2-1-0.5-1.4s-0.7-0.7-1.3-0.8s-1.3-0.2-2.5-0.2h-3.2V109.6z"/>
		<path class="st2" d="M939.7,96.2h2.6v2.9c0,1.3,0.1,2.2,0.2,2.8s0.5,1.1,1.1,1.5s1.3,0.6,2.2,0.6c1,0,2.3-0.3,3.9-0.8v-7h2.6v15.6
			h-2.6v-6.3c-1.6,0.5-3.1,0.8-4.5,0.8c-1.2,0-2.2-0.3-3.1-0.9s-1.5-1.3-1.8-2.2s-0.5-1.8-0.5-2.9V96.2z"/>
		<path class="st2" d="M966.9,106.7l2.7,0.3c-0.4,1.6-1.2,2.8-2.4,3.7s-2.6,1.3-4.5,1.3c-2.3,0-4.1-0.7-5.4-2.1s-2-3.4-2-5.9
			c0-2.6,0.7-4.6,2-6.1s3.1-2.2,5.2-2.2c2.1,0,3.8,0.7,5.1,2.1s2,3.4,2,6c0,0.2,0,0.4,0,0.7h-11.6c0.1,1.7,0.6,3,1.5,3.9
			s2,1.4,3.3,1.4c1,0,1.8-0.3,2.5-0.8S966.5,107.9,966.9,106.7z M958.3,102.5h8.7c-0.1-1.3-0.4-2.3-1-2.9c-0.8-1-1.9-1.5-3.3-1.5
			c-1.2,0-2.2,0.4-3.1,1.2S958.3,101.1,958.3,102.5z"/>
		<path class="st2" d="M983.1,106.1l2.6,0.3c-0.3,1.8-1,3.2-2.2,4.2s-2.6,1.5-4.3,1.5c-2.1,0-3.8-0.7-5.1-2.1s-1.9-3.4-1.9-6
			c0-1.7,0.3-3.1,0.8-4.4s1.4-2.2,2.5-2.8s2.4-0.9,3.7-0.9c1.7,0,3.1,0.4,4.1,1.3s1.8,2.1,2.1,3.6l-2.6,0.4c-0.2-1-0.7-1.8-1.3-2.4
			s-1.4-0.8-2.2-0.8c-1.3,0-2.4,0.5-3.2,1.4s-1.2,2.5-1.2,4.5c0,2.1,0.4,3.6,1.2,4.6s1.8,1.4,3.1,1.4c1,0,1.9-0.3,2.6-1
			S982.9,107.4,983.1,106.1z"/>
		<path class="st2" d="M987.9,96.2h2.6v6.7c0.8,0,1.4-0.2,1.8-0.5s0.8-1.3,1.5-2.8c0.5-1.2,0.9-2,1.3-2.4s0.7-0.7,1.1-0.8
			s1.1-0.2,2-0.2h0.5v2.2l-0.7,0c-0.7,0-1.1,0.1-1.3,0.3c-0.2,0.2-0.5,0.9-0.9,1.9c-0.4,1-0.8,1.7-1.1,2.1s-0.8,0.7-1.5,1.1
			c1.1,0.3,2.2,1.4,3.3,3.2l2.9,4.8h-2.9l-2.8-4.8c-0.6-1-1.1-1.6-1.5-1.9s-0.9-0.5-1.5-0.5v7.2h-2.6V96.2z"/>
		<path class="st2" d="M1000.4,104c0-2.9,0.8-5,2.4-6.4c1.3-1.2,3-1.7,4.9-1.7c2.1,0,3.9,0.7,5.2,2.1s2,3.3,2,5.8
			c0,2-0.3,3.6-0.9,4.7s-1.5,2-2.6,2.7s-2.4,1-3.8,1c-2.2,0-3.9-0.7-5.3-2.1S1000.4,106.6,1000.4,104z M1003.1,104
			c0,2,0.4,3.5,1.3,4.5s2,1.5,3.3,1.5c1.3,0,2.4-0.5,3.3-1.5s1.3-2.5,1.3-4.6c0-1.9-0.4-3.4-1.3-4.4s-2-1.5-3.3-1.5
			c-1.3,0-2.4,0.5-3.3,1.5S1003.1,102,1003.1,104z"/>
		<path class="st2" d="M1018.2,96.2h4.1l4.1,12.5l4.5-12.5h3.8v15.6h-2.6V99.2l-4.6,12.5h-2.4l-4.4-13.1v13.1h-2.6V96.2z"/>
		<path class="st2" d="M1038.9,117.7l-0.3-2.5c0.6,0.2,1.1,0.2,1.5,0.2c0.6,0,1.1-0.1,1.4-0.3s0.6-0.5,0.9-0.8
			c0.2-0.3,0.4-0.9,0.8-2c0-0.1,0.1-0.4,0.2-0.6l-5.9-15.6h2.8l3.2,9c0.4,1.1,0.8,2.3,1.1,3.6c0.3-1.2,0.7-2.4,1.1-3.5l3.3-9.1h2.6
			l-5.9,15.8c-0.6,1.7-1.1,2.9-1.5,3.5c-0.5,0.9-1,1.5-1.6,1.9s-1.3,0.6-2.2,0.6C1040.1,118.1,1039.6,118,1038.9,117.7z"/>
		<path class="st2" d="M1064.5,96.2h10.8v13.4h1.7v6.6h-2.2v-4.4h-12.2v4.4h-2.2v-6.6h1.4C1063.7,107.1,1064.6,102.6,1064.5,96.2z
			 M1066.7,98.4c-0.2,5-1,8.8-2.3,11.2h8.4V98.4H1066.7z"/>
		<path class="st2" d="M1080,96.2h2.6v6.1h3.3c2.2,0,3.9,0.4,5,1.3s1.8,2,1.8,3.5c0,1.3-0.5,2.4-1.5,3.3s-2.6,1.4-4.7,1.4h-6.6V96.2
			z M1082.6,109.6h2.8c1.7,0,2.9-0.2,3.6-0.6s1.1-1,1.1-1.9c0-0.7-0.3-1.3-0.8-1.8s-1.7-0.8-3.5-0.8h-3.1V109.6z M1094.7,96.2h2.6
			v15.6h-2.6V96.2z"/>
		<path class="st2" d="M1099.7,111.8l5.7-8.1l-5.3-7.5h3.3l2.4,3.6c0.4,0.7,0.8,1.3,1.1,1.7c0.4-0.6,0.8-1.2,1.2-1.7l2.6-3.7h3.1
			l-5.4,7.3l5.8,8.2h-3.2l-3.2-4.8l-0.8-1.3l-4.1,6.1H1099.7z"/>
		<path class="st2" d="M1126.3,109.8c-1,0.8-1.9,1.4-2.8,1.8s-1.9,0.5-2.9,0.5c-1.7,0-3-0.4-3.9-1.3s-1.4-1.9-1.4-3.2
			c0-0.8,0.2-1.5,0.5-2.1s0.8-1.1,1.4-1.5s1.2-0.7,1.9-0.9c0.5-0.1,1.3-0.3,2.3-0.4c2.1-0.3,3.7-0.6,4.7-0.9c0-0.4,0-0.6,0-0.7
			c0-1.1-0.2-1.8-0.7-2.3c-0.7-0.6-1.7-0.9-3-0.9c-1.2,0-2.2,0.2-2.7,0.7s-1,1.2-1.3,2.3l-2.6-0.4c0.2-1.1,0.6-2,1.2-2.7
			s1.3-1.2,2.3-1.6s2.2-0.5,3.5-0.5c1.3,0,2.4,0.2,3.2,0.5s1.4,0.7,1.8,1.2s0.7,1.1,0.8,1.8c0.1,0.4,0.1,1.3,0.1,2.4v3.5
			c0,2.5,0.1,4,0.2,4.7s0.3,1.3,0.7,1.9h-2.8C1126.5,111.2,1126.4,110.6,1126.3,109.8z M1126.1,103.9c-1,0.4-2.4,0.7-4.3,1
			c-1.1,0.2-1.9,0.3-2.3,0.5s-0.8,0.5-1,0.9s-0.4,0.8-0.4,1.3c0,0.7,0.3,1.3,0.8,1.8s1.3,0.7,2.3,0.7c1,0,1.9-0.2,2.7-0.7
			s1.4-1.1,1.7-1.8c0.3-0.6,0.4-1.5,0.4-2.6V103.9z"/>
		<path class="st2" d="M1132.8,96.2h2.6v6.5h7.3v-6.5h2.6v15.6h-2.6v-6.9h-7.3v6.9h-2.6V96.2z"/>
		<path class="st2" d="M1149.4,96.2h2.6v11.9l7.3-11.9h2.8v15.6h-2.6V100l-7.3,11.8h-2.8V96.2z"/>
		<path class="st2" d="M1166.2,96.2h2.6v6.5h3.2c0.2-2.2,0.9-3.9,2.1-5.1s2.7-1.8,4.5-1.8c1.6,0,2.8,0.3,3.7,1s1.7,1.5,2.2,2.6
			s0.9,2.6,0.9,4.5c0,2.7-0.6,4.7-1.8,6.1s-2.9,2.1-5,2.1c-1.9,0-3.5-0.6-4.7-1.9s-1.8-3.1-2-5.3h-3.2v6.9h-2.6V96.2z M1178.7,98.1
			c-1.3,0-2.3,0.5-3,1.5s-1.1,2.4-1.1,4.2c0,2.1,0.4,3.7,1.1,4.7s1.7,1.5,2.9,1.5c1.2,0,2.2-0.5,3-1.4s1.1-2.4,1.1-4.5
			c0-2-0.3-3.5-1-4.5S1180.1,98.1,1178.7,98.1z"/>
		<path class="st2" d="M1035.5,147.8h-6V142c-1.5,0.9-3.1,1.3-4.9,1.3c-3.7,0-5.6-2-5.6-6v-5.2h6v4.3c0,0.7,0.2,1.3,0.5,1.7
			s0.8,0.6,1.3,0.6c1.1,0,2-0.5,2.7-1.4v-5.2h6V147.8z"/>
		<path class="st2" d="M1049.9,142.7l2.7,0.3c-0.4,1.6-1.2,2.8-2.4,3.7s-2.6,1.3-4.5,1.3c-2.3,0-4.1-0.7-5.4-2.1s-2-3.4-2-5.9
			c0-2.6,0.7-4.6,2-6.1s3.1-2.2,5.2-2.2c2.1,0,3.8,0.7,5.1,2.1s2,3.4,2,6c0,0.2,0,0.4,0,0.7h-11.6c0.1,1.7,0.6,3,1.5,3.9
			s2,1.4,3.3,1.4c1,0,1.8-0.3,2.5-0.8S1049.5,143.9,1049.9,142.7z M1041.2,138.5h8.7c-0.1-1.3-0.4-2.3-1-2.9c-0.8-1-1.9-1.5-3.3-1.5
			c-1.2,0-2.2,0.4-3.1,1.2S1041.3,137.1,1041.2,138.5z"/>
		<path class="st2" d="M1053.5,132.2h12.6v2.2h-5v13.4h-2.6v-13.4h-5V132.2z"/>
		<path class="st2" d="M1068.6,132.2h2.6v6.7c0.8,0,1.4-0.2,1.8-0.5s0.8-1.3,1.5-2.8c0.5-1.2,0.9-2,1.3-2.4s0.7-0.7,1.1-0.8
			s1.1-0.2,2-0.2h0.5v2.2l-0.7,0c-0.7,0-1.1,0.1-1.3,0.3c-0.2,0.2-0.5,0.9-0.9,1.9c-0.4,1-0.8,1.7-1.1,2.1s-0.8,0.7-1.5,1.1
			c1.1,0.3,2.2,1.4,3.3,3.2l2.9,4.8h-2.9l-2.8-4.8c-0.6-1-1.1-1.6-1.5-1.9s-0.9-0.5-1.5-0.5v7.2h-2.6V132.2z"/>
		<path class="st2" d="M1081.1,140c0-2.9,0.8-5,2.4-6.4c1.3-1.2,3-1.7,4.9-1.7c2.1,0,3.9,0.7,5.2,2.1s2,3.3,2,5.8
			c0,2-0.3,3.6-0.9,4.7s-1.5,2-2.6,2.7s-2.4,1-3.8,1c-2.2,0-3.9-0.7-5.3-2.1S1081.1,142.6,1081.1,140z M1083.8,140
			c0,2,0.4,3.5,1.3,4.5s2,1.5,3.3,1.5c1.3,0,2.4-0.5,3.3-1.5s1.3-2.5,1.3-4.6c0-1.9-0.4-3.4-1.3-4.4s-2-1.5-3.3-1.5
			c-1.3,0-2.4,0.5-3.3,1.5S1083.8,138,1083.8,140z"/>
		<path class="st2" d="M1098.8,132.2h2.6v11.9l7.3-11.9h2.8v15.6h-2.6V136l-7.3,11.8h-2.8V132.2z M1107.9,126.3h1.8
			c-0.1,1.2-0.6,2.2-1.3,2.8s-1.7,1-3,1c-1.3,0-2.2-0.3-3-1s-1.2-1.6-1.3-2.8h1.8c0.1,0.7,0.4,1.2,0.8,1.5s0.9,0.5,1.6,0.5
			c0.8,0,1.4-0.2,1.8-0.5S1107.8,127,1107.9,126.3z"/>
		<path class="st2" d="M1123.9,153.7v-21.5h2.4v2c0.6-0.8,1.2-1.4,1.9-1.8s1.6-0.6,2.6-0.6c1.3,0,2.5,0.3,3.5,1s1.8,1.6,2.3,2.9
			s0.8,2.6,0.8,4.1c0,1.6-0.3,3-0.9,4.3s-1.4,2.3-2.5,2.9s-2.2,1-3.4,1c-0.9,0-1.7-0.2-2.4-0.6s-1.3-0.8-1.7-1.4v7.6H1123.9z
			 M1126.3,140.1c0,2,0.4,3.5,1.2,4.4s1.8,1.4,2.9,1.4c1.2,0,2.2-0.5,3-1.5s1.3-2.5,1.3-4.6c0-2-0.4-3.5-1.2-4.5s-1.8-1.5-2.9-1.5
			c-1.1,0-2.1,0.5-3,1.6S1126.3,138.1,1126.3,140.1z"/>
		<path class="st2" d="M1151.2,142.7l2.7,0.3c-0.4,1.6-1.2,2.8-2.4,3.7s-2.6,1.3-4.5,1.3c-2.3,0-4.1-0.7-5.4-2.1s-2-3.4-2-5.9
			c0-2.6,0.7-4.6,2-6.1s3.1-2.2,5.2-2.2c2.1,0,3.8,0.7,5.1,2.1s2,3.4,2,6c0,0.2,0,0.4,0,0.7h-11.6c0.1,1.7,0.6,3,1.4,3.9
			s2,1.4,3.3,1.4c1,0,1.8-0.3,2.5-0.8S1150.8,143.9,1151.2,142.7z M1142.6,138.5h8.7c-0.1-1.3-0.4-2.3-1-2.9c-0.8-1-1.9-1.5-3.3-1.5
			c-1.2,0-2.2,0.4-3.1,1.2S1142.6,137.1,1142.6,138.5z"/>
		<path class="st2" d="M1155.3,132.2h2.6v2.9c0,1.3,0.1,2.2,0.2,2.8s0.5,1.1,1.1,1.5s1.3,0.6,2.2,0.6c1,0,2.3-0.3,3.9-0.8v-7h2.6
			v15.6h-2.6v-6.3c-1.6,0.5-3.1,0.8-4.5,0.8c-1.2,0-2.2-0.3-3.1-0.9s-1.5-1.3-1.8-2.2s-0.5-1.8-0.5-2.9V132.2z"/>
		<path class="st2" d="M1171.9,132.2h2.6v11.9l7.3-11.9h2.8v15.6h-2.6V136l-7.3,11.8h-2.8V132.2z"/>
		<path class="st2" d="M737.4,189.7v-21.5h5.6v2.3c0.8-1,1.5-1.6,2.1-2c0.9-0.5,1.8-0.7,2.9-0.7c2.1,0,3.7,0.8,4.8,2.4
			s1.7,3.6,1.7,5.9c0,2.6-0.6,4.6-1.9,5.9s-2.8,2-4.7,2c-0.9,0-1.8-0.2-2.5-0.5s-1.4-0.8-2-1.4v7.4H737.4z M743.4,176
			c0,1.2,0.3,2.1,0.8,2.7s1.2,0.9,2,0.9c0.7,0,1.3-0.3,1.7-0.9s0.7-1.5,0.7-2.9c0-1.3-0.2-2.2-0.7-2.8s-1.1-0.9-1.8-0.9
			c-0.8,0-1.4,0.3-1.9,0.9S743.4,174.7,743.4,176z"/>
		<path class="st2" d="M767.7,181.8c-1,0.8-1.9,1.4-2.8,1.8s-1.9,0.5-2.9,0.5c-1.7,0-3-0.4-3.9-1.3s-1.4-1.9-1.4-3.2
			c0-0.8,0.2-1.5,0.5-2.1s0.8-1.1,1.4-1.5s1.2-0.7,1.9-0.9c0.5-0.1,1.3-0.3,2.3-0.4c2.1-0.3,3.7-0.6,4.7-0.9c0-0.4,0-0.6,0-0.7
			c0-1.1-0.2-1.8-0.7-2.3c-0.7-0.6-1.7-0.9-3-0.9c-1.2,0-2.2,0.2-2.7,0.7s-1,1.2-1.3,2.3l-2.6-0.4c0.2-1.1,0.6-2,1.2-2.7
			s1.3-1.2,2.3-1.6s2.2-0.5,3.5-0.5c1.3,0,2.4,0.2,3.2,0.5s1.4,0.7,1.8,1.2s0.7,1.1,0.8,1.8c0.1,0.4,0.1,1.3,0.1,2.4v3.5
			c0,2.5,0.1,4,0.2,4.7s0.3,1.3,0.7,1.9h-2.8C767.9,183.2,767.8,182.6,767.7,181.8z M767.5,175.9c-1,0.4-2.4,0.7-4.3,1
			c-1.1,0.2-1.9,0.3-2.3,0.5s-0.8,0.5-1,0.9s-0.4,0.8-0.4,1.3c0,0.7,0.3,1.3,0.8,1.8s1.3,0.7,2.3,0.7c1,0,1.9-0.2,2.7-0.7
			s1.4-1.1,1.7-1.8c0.3-0.6,0.4-1.5,0.4-2.6V175.9z"/>
		<path class="st2" d="M777.3,176.7v-2.1c1.1,0,1.9-0.1,2.3-0.1s0.8-0.3,1.1-0.7s0.5-0.9,0.5-1.5c0-0.7-0.2-1.3-0.7-1.7
			s-1.1-0.6-1.8-0.6c-1.5,0-2.5,0.9-3.1,2.6l-2.5-0.4c0.8-2.9,2.7-4.4,5.7-4.4c1.7,0,3,0.5,3.9,1.4s1.4,2,1.4,3.3
			c0,1.3-0.6,2.3-1.8,3c0.8,0.4,1.4,1,1.8,1.6s0.6,1.4,0.6,2.3c0,1.4-0.5,2.5-1.5,3.4s-2.4,1.3-4.3,1.3c-3.5,0-5.6-1.6-6.2-4.7
			l2.5-0.5c0.2,1,0.7,1.8,1.4,2.3s1.5,0.8,2.4,0.8s1.6-0.3,2.2-0.8s0.9-1.1,0.9-1.9c0-0.6-0.2-1.1-0.6-1.6s-0.8-0.7-1.2-0.8
			s-1.2-0.2-2.3-0.2C777.8,176.7,777.6,176.7,777.3,176.7z"/>
		<path class="st2" d="M787.6,168.2h6.1c1.5,0,2.6,0.1,3.3,0.4s1.4,0.7,1.9,1.4s0.8,1.5,0.8,2.4c0,0.7-0.2,1.4-0.5,1.9
			s-0.8,1-1.4,1.4c0.7,0.2,1.3,0.7,1.8,1.4s0.7,1.5,0.7,2.4c-0.1,1.5-0.6,2.6-1.6,3.3s-2.3,1.1-4.2,1.1h-7V168.2z M790.3,174.7h2.8
			c1.1,0,1.9-0.1,2.3-0.2s0.8-0.4,1.1-0.7s0.5-0.8,0.5-1.3c0-0.8-0.3-1.4-0.9-1.7s-1.6-0.5-3-0.5h-2.9V174.7z M790.3,181.6h3.5
			c1.5,0,2.5-0.2,3.1-0.5s0.8-0.9,0.9-1.8c0-0.5-0.2-1-0.5-1.4s-0.7-0.7-1.3-0.8s-1.3-0.2-2.5-0.2h-3.2V181.6z"/>
		<path class="st2" d="M803.6,168.2h2.6v11.9l7.3-11.9h2.8v15.6h-2.6V172l-7.3,11.8h-2.8V168.2z"/>
		<path class="st2" d="M818.9,168.2h12.6v2.2h-5v13.4h-2.6v-13.4h-5V168.2z"/>
		<path class="st2" d="M834.1,168.2h2.6v11.9l7.3-11.9h2.8v15.6h-2.6V172l-7.3,11.8h-2.8V168.2z"/>
		<path class="st2" d="M850.9,168.2h2.6v6.5h3.2c0.2-2.2,0.9-3.9,2.1-5.1s2.7-1.8,4.5-1.8c1.6,0,2.8,0.3,3.7,1s1.7,1.5,2.2,2.6
			s0.9,2.6,0.9,4.5c0,2.7-0.6,4.7-1.8,6.1s-2.9,2.1-5,2.1c-1.9,0-3.5-0.6-4.7-1.9s-1.8-3.1-2-5.3h-3.2v6.9h-2.6V168.2z M863.4,170.1
			c-1.3,0-2.3,0.5-3,1.5s-1.1,2.4-1.1,4.2c0,2.1,0.4,3.7,1.1,4.7s1.7,1.5,2.9,1.5c1.2,0,2.2-0.5,3-1.4s1.2-2.4,1.2-4.5
			c0-2-0.3-3.5-1-4.5S864.8,170.1,863.4,170.1z"/>
		<path class="st2" d="M883.7,168.2h10.8v13.4h1.7v6.6h-2.2v-4.4h-12.2v4.4h-2.2v-6.6h1.4C882.9,179.1,883.8,174.6,883.7,168.2z
			 M885.9,170.4c-0.2,5-1,8.8-2.3,11.2h8.4v-11.2H885.9z"/>
		<path class="st2" d="M899.2,168.2h2.6v11.9l7.3-11.9h2.8v15.6h-2.6V172l-7.3,11.8h-2.8V168.2z"/>
		<path class="st2" d="M915.9,168.2h2.6v6.7c0.8,0,1.4-0.2,1.8-0.5s0.8-1.3,1.5-2.8c0.5-1.2,0.9-2,1.3-2.4s0.7-0.7,1.1-0.8
			s1.1-0.2,2-0.2h0.5v2.2l-0.7,0c-0.7,0-1.1,0.1-1.3,0.3c-0.2,0.2-0.5,0.9-0.9,1.9c-0.4,1-0.8,1.7-1.1,2.1s-0.8,0.7-1.5,1.1
			c1.1,0.3,2.2,1.4,3.3,3.2l2.9,4.8h-2.9l-2.8-4.8c-0.6-1-1.1-1.6-1.5-1.9s-0.9-0.5-1.5-0.5v7.2h-2.6V168.2z"/>
		<path class="st2" d="M929.1,168.2h2.6v13.4h7.3v-13.4h2.6v13.4h1.7v6.6h-2.2v-4.4h-12.1V168.2z"/>
		<path class="st2" d="M946.2,168.2h2.6v11.9l7.3-11.9h2.8v15.6h-2.6V172l-7.3,11.8h-2.8V168.2z"/>
		<path class="st2" d="M963,168.2h2.6v11.9l7.3-11.9h2.8v15.6h-2.6V172l-7.3,11.8H963V168.2z"/>
		<path class="st2" d="M988.1,168.2h2.6v11.9l7.3-11.9h2.8v15.6h-2.6V172l-7.3,11.8h-2.8V168.2z"/>
		<path class="st2" d="M1023.3,181.8c-1,0.8-1.9,1.4-2.8,1.8s-1.9,0.5-2.9,0.5c-1.7,0-3-0.4-3.9-1.3s-1.4-1.9-1.4-3.2
			c0-0.8,0.2-1.5,0.5-2.1s0.8-1.1,1.4-1.5s1.2-0.7,1.9-0.9c0.5-0.1,1.3-0.3,2.3-0.4c2.1-0.3,3.7-0.6,4.7-0.9c0-0.4,0-0.6,0-0.7
			c0-1.1-0.2-1.8-0.7-2.3c-0.7-0.6-1.7-0.9-3-0.9c-1.2,0-2.2,0.2-2.7,0.7s-1,1.2-1.3,2.3l-2.6-0.4c0.2-1.1,0.6-2,1.2-2.7
			s1.3-1.2,2.3-1.6s2.2-0.5,3.5-0.5c1.3,0,2.4,0.2,3.2,0.5s1.4,0.7,1.8,1.2s0.7,1.1,0.8,1.8c0.1,0.4,0.1,1.3,0.1,2.4v3.5
			c0,2.5,0.1,4,0.2,4.7s0.3,1.3,0.7,1.9h-2.8C1023.6,183.2,1023.4,182.6,1023.3,181.8z M1023.1,175.9c-1,0.4-2.4,0.7-4.3,1
			c-1.1,0.2-1.9,0.3-2.3,0.5s-0.8,0.5-1,0.9s-0.4,0.8-0.4,1.3c0,0.7,0.3,1.3,0.8,1.8s1.3,0.7,2.3,0.7c1,0,1.9-0.2,2.7-0.7
			s1.4-1.1,1.7-1.8c0.3-0.6,0.4-1.5,0.4-2.6V175.9z"/>
		<path class="st2" d="M1029.9,189.7v-21.5h2.4v2c0.6-0.8,1.2-1.4,1.9-1.8s1.6-0.6,2.6-0.6c1.3,0,2.5,0.3,3.5,1s1.8,1.6,2.3,2.9
			s0.8,2.6,0.8,4.1c0,1.6-0.3,3-0.9,4.3s-1.4,2.3-2.5,2.9s-2.2,1-3.4,1c-0.9,0-1.7-0.2-2.4-0.6s-1.3-0.8-1.7-1.4v7.6H1029.9z
			 M1032.2,176.1c0,2,0.4,3.5,1.2,4.4s1.8,1.4,2.9,1.4c1.2,0,2.2-0.5,3-1.5s1.3-2.5,1.3-4.6c0-2-0.4-3.5-1.2-4.5s-1.8-1.5-2.9-1.5
			c-1.1,0-2.1,0.5-3,1.6S1032.2,174.1,1032.2,176.1z"/>
		<path class="st2" d="M1044.5,168.2h12.6v2.2h-5v13.4h-2.6v-13.4h-5V168.2z"/>
		<path class="st2" d="M1059.6,168.2h2.6v11.9l7.3-11.9h2.8v15.6h-2.6V172l-7.3,11.8h-2.8V168.2z"/>
		<path class="st2" d="M1076.4,168.2h2.6v6.7c0.8,0,1.4-0.2,1.8-0.5s0.8-1.3,1.5-2.8c0.5-1.2,0.9-2,1.3-2.4s0.7-0.7,1.1-0.8
			s1.1-0.2,2-0.2h0.5v2.2l-0.7,0c-0.7,0-1.1,0.1-1.3,0.3c-0.2,0.2-0.5,0.9-0.9,1.9c-0.4,1-0.8,1.7-1.1,2.1s-0.8,0.7-1.5,1.1
			c1.1,0.3,2.2,1.4,3.3,3.2l2.9,4.8h-2.9l-2.8-4.8c-0.6-1-1.1-1.6-1.5-1.9s-0.9-0.5-1.5-0.5v7.2h-2.6V168.2z"/>
		<path class="st2" d="M1089.7,189.7l-0.3-2.5c0.6,0.2,1.1,0.2,1.5,0.2c0.6,0,1.1-0.1,1.4-0.3s0.6-0.5,0.9-0.8
			c0.2-0.3,0.4-0.9,0.8-2c0-0.1,0.1-0.4,0.2-0.6l-5.9-15.6h2.8l3.2,9c0.4,1.1,0.8,2.3,1.1,3.6c0.3-1.2,0.7-2.4,1.1-3.5l3.3-9.1h2.6
			l-5.9,15.8c-0.6,1.7-1.1,2.9-1.5,3.5c-0.5,0.9-1,1.5-1.6,1.9s-1.3,0.6-2.2,0.6C1090.9,190.1,1090.4,190,1089.7,189.7z"/>
		<path class="st2" d="M1105.5,168.2h12.2v15.6h-2.6v-13.4h-7v7.7c0,1.8-0.1,3-0.2,3.6s-0.4,1.1-1,1.5s-1.3,0.6-2.3,0.6
			c-0.6,0-1.3,0-2.1-0.1v-2.2h1.2c0.5,0,0.9-0.1,1.2-0.2s0.4-0.3,0.5-0.5s0.1-1,0.1-2.4V168.2z"/>
		<path class="st2" d="M1133.9,168.2v15.6h-2.6v-6.1h-1.5c-0.9,0-1.6,0.1-2.1,0.4s-1.1,1-2,2.3l-2.3,3.4h-3.3l2.8-4.2
			c0.9-1.3,1.7-2,2.6-2.2c-1.5-0.2-2.6-0.7-3.3-1.6s-1.1-1.9-1.1-3c0-1.3,0.5-2.4,1.4-3.3s2.3-1.3,4.1-1.3H1133.9z M1131.3,170.4
			h-3.8c-1.6,0-2.6,0.2-3,0.7s-0.7,1.1-0.7,1.7c0,0.9,0.3,1.6,1,2s1.9,0.7,3.6,0.7h2.9V170.4z"/>
		<path class="st2" d="M1138,168.2h2.6v13.4h7.3v-13.4h2.6v13.4h1.7v6.6h-2.2v-4.4H1138V168.2z"/>
		<path class="st2" d="M1155.1,168.2h2.6v11.9l7.3-11.9h2.8v15.6h-2.6V172l-7.3,11.8h-2.8V168.2z"/>
		<path class="st2" d="M1171.9,168.2h2.6v11.9l7.3-11.9h2.8v15.6h-2.6V172l-7.3,11.8h-2.8V168.2z"/>
		<path class="st2" d="M856,225.7v-21.5h5.6v2.3c0.8-1,1.5-1.6,2.1-2c0.9-0.5,1.8-0.7,2.9-0.7c2.1,0,3.7,0.8,4.8,2.4
			s1.7,3.6,1.7,5.9c0,2.6-0.6,4.6-1.9,5.9c-1.2,1.4-2.8,2-4.7,2c-0.9,0-1.8-0.2-2.5-0.5s-1.4-0.8-2-1.4v7.4H856z M862,212
			c0,1.2,0.3,2.1,0.8,2.7s1.2,0.9,2,0.9c0.7,0,1.3-0.3,1.7-0.9c0.5-0.6,0.7-1.5,0.7-2.9c0-1.3-0.2-2.2-0.7-2.8
			c-0.5-0.6-1.1-0.9-1.8-0.9c-0.8,0-1.4,0.3-1.9,0.9S862,210.7,862,212z"/>
		<path class="st2" d="M886.3,217.8c-1,0.8-1.9,1.4-2.8,1.8s-1.9,0.5-2.9,0.5c-1.7,0-3-0.4-3.9-1.3c-0.9-0.8-1.4-1.9-1.4-3.2
			c0-0.8,0.2-1.5,0.5-2.1c0.3-0.6,0.8-1.1,1.4-1.5s1.2-0.7,1.9-0.9c0.5-0.1,1.3-0.3,2.3-0.4c2.1-0.3,3.7-0.6,4.7-0.9
			c0-0.4,0-0.6,0-0.7c0-1.1-0.3-1.8-0.7-2.3c-0.7-0.6-1.7-0.9-3-0.9c-1.2,0-2.2,0.2-2.7,0.7c-0.6,0.4-1,1.2-1.3,2.3l-2.6-0.4
			c0.2-1.1,0.6-2,1.2-2.7s1.3-1.2,2.3-1.6c1-0.4,2.2-0.5,3.5-0.5c1.3,0,2.4,0.2,3.2,0.5s1.4,0.7,1.8,1.2s0.7,1.1,0.8,1.8
			c0.1,0.4,0.1,1.3,0.1,2.4v3.5c0,2.5,0.1,4,0.2,4.7s0.3,1.3,0.7,1.9h-2.8C886.5,219.2,886.4,218.6,886.3,217.8z M886.1,211.9
			c-1,0.4-2.4,0.7-4.3,1c-1.1,0.2-1.8,0.3-2.3,0.5s-0.8,0.5-1,0.9c-0.2,0.4-0.4,0.8-0.4,1.3c0,0.7,0.3,1.3,0.8,1.8s1.3,0.7,2.3,0.7
			c1,0,1.9-0.2,2.7-0.7c0.8-0.4,1.4-1.1,1.7-1.8c0.3-0.6,0.4-1.5,0.4-2.6V211.9z"/>
		<path class="st2" d="M895.9,212.7v-2.1c1.1,0,1.9-0.1,2.3-0.1s0.8-0.3,1.2-0.7s0.5-0.9,0.5-1.5c0-0.7-0.2-1.3-0.7-1.7
			c-0.5-0.4-1.1-0.6-1.8-0.6c-1.5,0-2.5,0.9-3.1,2.6l-2.5-0.4c0.8-2.9,2.7-4.4,5.7-4.4c1.7,0,3,0.5,3.9,1.4s1.4,2,1.4,3.3
			c0,1.3-0.6,2.3-1.8,3c0.8,0.4,1.4,1,1.8,1.6c0.4,0.7,0.6,1.4,0.6,2.3c0,1.4-0.5,2.5-1.5,3.4s-2.4,1.3-4.3,1.3
			c-3.5,0-5.6-1.6-6.2-4.7l2.5-0.5c0.2,1,0.7,1.8,1.4,2.3s1.5,0.8,2.4,0.8s1.6-0.3,2.2-0.8c0.6-0.5,0.9-1.1,0.9-1.9
			c0-0.6-0.2-1.1-0.6-1.6s-0.8-0.7-1.2-0.8s-1.2-0.2-2.3-0.2C896.4,212.7,896.2,212.7,895.9,212.7z"/>
		<path class="st2" d="M906.3,204.2h6.1c1.5,0,2.6,0.1,3.3,0.4c0.7,0.3,1.4,0.7,1.9,1.4s0.8,1.5,0.8,2.4c0,0.7-0.2,1.4-0.5,1.9
			s-0.8,1-1.4,1.4c0.7,0.2,1.3,0.7,1.8,1.4s0.7,1.5,0.7,2.4c-0.1,1.5-0.6,2.6-1.6,3.3s-2.3,1.1-4.2,1.1h-7V204.2z M908.9,210.7h2.8
			c1.1,0,1.9-0.1,2.3-0.2s0.8-0.4,1.1-0.7s0.5-0.8,0.5-1.3c0-0.8-0.3-1.4-0.9-1.7s-1.6-0.5-3-0.5h-2.9V210.7z M908.9,217.6h3.5
			c1.5,0,2.5-0.2,3.1-0.5s0.8-0.9,0.9-1.8c0-0.5-0.2-1-0.5-1.4c-0.3-0.4-0.7-0.7-1.3-0.8s-1.3-0.2-2.5-0.2h-3.2V217.6z"/>
		<path class="st2" d="M922.2,204.2h2.6v11.9l7.3-11.9h2.8v15.6h-2.6V208l-7.3,11.8h-2.8V204.2z"/>
		<path class="st2" d="M939,204.2h6.1c1.5,0,2.6,0.1,3.3,0.4c0.7,0.3,1.4,0.7,1.9,1.4s0.8,1.5,0.8,2.4c0,0.7-0.2,1.4-0.5,1.9
			s-0.8,1-1.4,1.4c0.7,0.2,1.3,0.7,1.8,1.4s0.7,1.5,0.7,2.4c-0.1,1.5-0.6,2.6-1.6,3.3s-2.3,1.1-4.2,1.1h-7V204.2z M941.6,210.7h2.8
			c1.1,0,1.9-0.1,2.3-0.2s0.8-0.4,1.1-0.7s0.5-0.8,0.5-1.3c0-0.8-0.3-1.4-0.9-1.7s-1.6-0.5-3-0.5h-2.9V210.7z M941.6,217.6h3.5
			c1.5,0,2.5-0.2,3.1-0.5s0.8-0.9,0.9-1.8c0-0.5-0.2-1-0.5-1.4c-0.3-0.4-0.7-0.7-1.3-0.8s-1.3-0.2-2.5-0.2h-3.2V217.6z"/>
		<path class="st2" d="M964.7,217.8c-1,0.8-1.9,1.4-2.8,1.8s-1.9,0.5-2.9,0.5c-1.7,0-3-0.4-3.9-1.3c-0.9-0.8-1.4-1.9-1.4-3.2
			c0-0.8,0.2-1.5,0.5-2.1c0.3-0.6,0.8-1.1,1.4-1.5s1.2-0.7,1.9-0.9c0.5-0.1,1.3-0.3,2.3-0.4c2.1-0.3,3.7-0.6,4.7-0.9
			c0-0.4,0-0.6,0-0.7c0-1.1-0.3-1.8-0.7-2.3c-0.7-0.6-1.7-0.9-3-0.9c-1.2,0-2.2,0.2-2.7,0.7c-0.6,0.4-1,1.2-1.3,2.3l-2.6-0.4
			c0.2-1.1,0.6-2,1.2-2.7s1.3-1.2,2.3-1.6c1-0.4,2.2-0.5,3.5-0.5c1.3,0,2.4,0.2,3.2,0.5s1.4,0.7,1.8,1.2s0.7,1.1,0.8,1.8
			c0.1,0.4,0.1,1.3,0.1,2.4v3.5c0,2.5,0.1,4,0.2,4.7s0.3,1.3,0.7,1.9h-2.8C964.9,219.2,964.8,218.6,964.7,217.8z M964.5,211.9
			c-1,0.4-2.4,0.7-4.3,1c-1.1,0.2-1.8,0.3-2.3,0.5s-0.8,0.5-1,0.9c-0.2,0.4-0.4,0.8-0.4,1.3c0,0.7,0.3,1.3,0.8,1.8s1.3,0.7,2.3,0.7
			c1,0,1.9-0.2,2.7-0.7c0.8-0.4,1.4-1.1,1.7-1.8c0.3-0.6,0.4-1.5,0.4-2.6V211.9z"/>
		<path class="st2" d="M981.9,214.7l2.7,0.3c-0.4,1.6-1.2,2.8-2.4,3.7s-2.6,1.3-4.5,1.3c-2.3,0-4.1-0.7-5.4-2.1s-2-3.4-2-5.9
			c0-2.6,0.7-4.6,2-6.1s3.1-2.2,5.2-2.2c2.1,0,3.8,0.7,5.1,2.1s2,3.4,2,6c0,0.2,0,0.4,0,0.7h-11.6c0.1,1.7,0.6,3,1.4,3.9
			s2,1.4,3.3,1.4c1,0,1.8-0.3,2.5-0.8S981.5,215.9,981.9,214.7z M973.2,210.5h8.7c-0.1-1.3-0.4-2.3-1-2.9c-0.8-1-1.9-1.5-3.3-1.5
			c-1.2,0-2.2,0.4-3.1,1.2S973.3,209.1,973.2,210.5z"/>
		<path class="st2" d="M988,204.2h4.1l4.1,12.5l4.5-12.5h3.8v15.6h-2.6v-12.5l-4.6,12.5h-2.4l-4.3-13.1v13.1H988V204.2z"/>
		<path class="st2" d="M1027,214.1l2.6,0.3c-0.3,1.8-1,3.2-2.2,4.2c-1.2,1-2.6,1.5-4.3,1.5c-2.1,0-3.8-0.7-5.1-2.1
			c-1.3-1.4-1.9-3.4-1.9-6c0-1.7,0.3-3.1,0.8-4.4s1.4-2.2,2.5-2.8c1.1-0.6,2.4-0.9,3.7-0.9c1.7,0,3.1,0.4,4.1,1.3
			c1.1,0.9,1.8,2.1,2.1,3.6l-2.6,0.4c-0.2-1-0.7-1.8-1.3-2.4s-1.4-0.8-2.2-0.8c-1.3,0-2.4,0.5-3.2,1.4c-0.8,1-1.2,2.5-1.2,4.5
			c0,2.1,0.4,3.6,1.2,4.6s1.8,1.4,3.1,1.4c1,0,1.9-0.3,2.6-1S1026.8,215.4,1027,214.1z"/>
		<path class="st2" d="M1033.2,204.2h12.2v15.6h-2.6v-13.4h-7v7.7c0,1.8-0.1,3-0.2,3.6s-0.4,1.1-1,1.5s-1.3,0.6-2.3,0.6
			c-0.6,0-1.3,0-2.1-0.1v-2.2h1.2c0.5,0,0.9-0.1,1.2-0.2c0.2-0.1,0.4-0.3,0.5-0.5s0.1-1,0.1-2.4V204.2z"/>
		<path class="st2" d="M1049.3,225.7l-0.3-2.5c0.6,0.2,1.1,0.2,1.5,0.2c0.6,0,1.1-0.1,1.4-0.3s0.6-0.5,0.9-0.8
			c0.2-0.3,0.4-0.9,0.8-2c0-0.1,0.1-0.4,0.2-0.6l-5.9-15.6h2.8l3.2,9c0.4,1.1,0.8,2.3,1.1,3.6c0.3-1.2,0.7-2.4,1.1-3.5l3.3-9.1h2.6
			l-5.9,15.8c-0.6,1.7-1.1,2.9-1.5,3.5c-0.5,0.9-1,1.5-1.6,1.9s-1.3,0.6-2.2,0.6C1050.4,226.1,1049.9,226,1049.3,225.7z"/>
		<path class="st2" d="M1062.6,219.8l5.7-8.1l-5.3-7.5h3.3l2.4,3.6c0.4,0.7,0.8,1.3,1.1,1.7c0.4-0.6,0.8-1.2,1.2-1.7l2.6-3.7h3.1
			l-5.4,7.3l5.8,8.2h-3.2l-3.2-4.8l-0.8-1.3l-4.1,6.1H1062.6z"/>
		<path class="st2" d="M1087.7,204.2h2.6v11.9l7.3-11.9h2.8v15.6h-2.6V208l-7.3,11.8h-2.8V204.2z"/>
		<path class="st2" d="M1112.8,204.2h8.9v2.2h-6.3v13.4h-2.6V204.2z"/>
		<path class="st2" d="M1122.1,212c0-2.9,0.8-5,2.4-6.4c1.3-1.2,3-1.7,4.9-1.7c2.1,0,3.9,0.7,5.2,2.1c1.4,1.4,2,3.3,2,5.8
			c0,2-0.3,3.6-0.9,4.7s-1.5,2-2.6,2.7s-2.4,1-3.8,1c-2.2,0-3.9-0.7-5.3-2.1S1122.1,214.6,1122.1,212z M1124.8,212
			c0,2,0.4,3.5,1.3,4.5s2,1.5,3.3,1.5c1.3,0,2.4-0.5,3.3-1.5s1.3-2.5,1.3-4.6c0-1.9-0.4-3.4-1.3-4.4s-2-1.5-3.3-1.5
			c-1.3,0-2.4,0.5-3.3,1.5S1124.8,210,1124.8,212z"/>
		<path class="st2" d="M1140.4,204.2h12.2v15.6h-2.6v-13.4h-7v7.7c0,1.8-0.1,3-0.2,3.6s-0.4,1.1-1,1.5s-1.3,0.6-2.3,0.6
			c-0.6,0-1.3,0-2.1-0.1v-2.2h1.2c0.5,0,0.9-0.1,1.2-0.2c0.2-0.1,0.4-0.3,0.5-0.5s0.1-1,0.1-2.4V204.2z"/>
		<path class="st2" d="M1156,212c0-2.9,0.8-5,2.4-6.4c1.3-1.2,3-1.7,4.9-1.7c2.1,0,3.9,0.7,5.2,2.1c1.4,1.4,2,3.3,2,5.8
			c0,2-0.3,3.6-0.9,4.7s-1.5,2-2.6,2.7s-2.4,1-3.8,1c-2.2,0-3.9-0.7-5.3-2.1S1156,214.6,1156,212z M1158.7,212c0,2,0.4,3.5,1.3,4.5
			s2,1.5,3.3,1.5c1.3,0,2.4-0.5,3.3-1.5s1.3-2.5,1.3-4.6c0-1.9-0.4-3.4-1.3-4.4s-2-1.5-3.3-1.5c-1.3,0-2.4,0.5-3.3,1.5
			S1158.7,210,1158.7,212z"/>
		<path class="st2" d="M1183.8,214.1l2.6,0.3c-0.3,1.8-1,3.2-2.2,4.2c-1.2,1-2.6,1.5-4.3,1.5c-2.1,0-3.8-0.7-5.1-2.1
			c-1.3-1.4-1.9-3.4-1.9-6c0-1.7,0.3-3.1,0.8-4.4s1.4-2.2,2.5-2.8c1.1-0.6,2.4-0.9,3.7-0.9c1.7,0,3.1,0.4,4.1,1.3
			c1.1,0.9,1.8,2.1,2.1,3.6l-2.6,0.4c-0.2-1-0.7-1.8-1.3-2.4s-1.4-0.8-2.2-0.8c-1.3,0-2.4,0.5-3.2,1.4c-0.8,1-1.2,2.5-1.2,4.5
			c0,2.1,0.4,3.6,1.2,4.6s1.8,1.4,3.1,1.4c1,0,1.9-0.3,2.6-1S1183.6,215.4,1183.8,214.1z"/>
		<path class="st2" d="M777.9,240.2h6.3l3.2,10.4l3-10.4h5.9l-6.2,16.6c-0.7,1.9-1.4,3.2-2.2,3.8c-1,0.9-2.6,1.4-4.7,1.4
			c-0.9,0-2.2-0.1-4-0.4l-0.5-4.2c0.9,0.3,1.8,0.4,2.9,0.4c0.7,0,1.3-0.2,1.7-0.5c0.4-0.3,0.8-0.9,1.1-1.7L777.9,240.2z"/>
		<path class="st2" d="M797.2,240.2h2.6v2.9c0,1.3,0.1,2.2,0.2,2.8c0.2,0.6,0.5,1.1,1.1,1.5c0.6,0.4,1.3,0.6,2.2,0.6
			c1,0,2.3-0.3,3.9-0.8v-7h2.6v15.6h-2.6v-6.3c-1.6,0.5-3.1,0.8-4.5,0.8c-1.2,0-2.2-0.3-3.1-0.9c-0.9-0.6-1.5-1.3-1.8-2.2
			s-0.5-1.8-0.5-2.9V240.2z"/>
		<path class="st2" d="M813.8,240.2h2.6v11.9l7.3-11.9h2.8v15.6h-2.6V244l-7.3,11.8h-2.8V240.2z"/>
		<path class="st2" d="M830.6,240.2h4.1l4.1,12.5l4.5-12.5h3.8v15.6h-2.6v-12.5l-4.6,12.5h-2.4l-4.3-13.1v13.1h-2.6V240.2z"/>
		<path class="st2" d="M869.6,250.1l2.6,0.3c-0.3,1.8-1,3.2-2.2,4.2c-1.2,1-2.6,1.5-4.3,1.5c-2.1,0-3.8-0.7-5.1-2.1
			c-1.3-1.4-1.9-3.4-1.9-6c0-1.7,0.3-3.1,0.8-4.4s1.4-2.2,2.5-2.8c1.1-0.6,2.4-0.9,3.7-0.9c1.7,0,3.1,0.4,4.1,1.3
			c1.1,0.9,1.8,2.1,2.1,3.6l-2.6,0.4c-0.2-1-0.7-1.8-1.3-2.4s-1.4-0.8-2.2-0.8c-1.3,0-2.4,0.5-3.2,1.4c-0.8,1-1.2,2.5-1.2,4.5
			c0,2.1,0.4,3.6,1.2,4.6s1.8,1.4,3.1,1.4c1,0,1.9-0.3,2.6-1S869.4,251.4,869.6,250.1z"/>
		<path class="st2" d="M875.8,240.2H888v15.6h-2.6v-13.4h-7v7.7c0,1.8-0.1,3-0.2,3.6s-0.4,1.1-1,1.5s-1.3,0.6-2.3,0.6
			c-0.6,0-1.3,0-2.1-0.1v-2.2h1.2c0.5,0,0.9-0.1,1.2-0.2c0.2-0.1,0.4-0.3,0.5-0.5s0.1-1,0.1-2.4V240.2z"/>
		<path class="st2" d="M892,240.2h2.6v6.1h3.3c2.2,0,3.9,0.4,5,1.3c1.2,0.8,1.8,2,1.8,3.5c0,1.3-0.5,2.4-1.5,3.3
			c-1,0.9-2.6,1.4-4.7,1.4H892V240.2z M894.7,253.6h2.8c1.7,0,2.9-0.2,3.6-0.6s1.1-1,1.1-1.9c0-0.7-0.3-1.3-0.8-1.8
			s-1.7-0.8-3.5-0.8h-3.1V253.6z M906.8,240.2h2.6v15.6h-2.6V240.2z"/>
		<path class="st2" d="M913.6,240.2h2.6v13.4h6v-13.4h2.6v13.4h6v-13.4h2.6v15.6h-19.9V240.2z"/>
		<path class="st2" d="M947.8,253.8c-1,0.8-1.9,1.4-2.8,1.8s-1.9,0.5-2.9,0.5c-1.7,0-3-0.4-3.9-1.3c-0.9-0.8-1.4-1.9-1.4-3.2
			c0-0.8,0.2-1.5,0.5-2.1c0.3-0.6,0.8-1.1,1.4-1.5s1.2-0.7,1.9-0.9c0.5-0.1,1.3-0.3,2.3-0.4c2.1-0.3,3.7-0.6,4.7-0.9
			c0-0.4,0-0.6,0-0.7c0-1.1-0.2-1.8-0.7-2.3c-0.7-0.6-1.7-0.9-3-0.9c-1.2,0-2.2,0.2-2.7,0.7c-0.6,0.4-1,1.2-1.3,2.3l-2.6-0.4
			c0.2-1.1,0.6-2,1.2-2.7s1.3-1.2,2.3-1.6c1-0.4,2.2-0.5,3.5-0.5c1.3,0,2.4,0.2,3.2,0.5s1.4,0.7,1.8,1.2s0.7,1.1,0.8,1.8
			c0.1,0.4,0.1,1.3,0.1,2.4v3.5c0,2.5,0.1,4,0.2,4.7s0.3,1.3,0.7,1.9h-2.8C948,255.2,947.8,254.6,947.8,253.8z M947.6,247.9
			c-1,0.4-2.4,0.7-4.3,1c-1.1,0.2-1.9,0.3-2.3,0.5s-0.8,0.5-1,0.9c-0.2,0.4-0.4,0.8-0.4,1.3c0,0.7,0.3,1.3,0.8,1.8s1.3,0.7,2.3,0.7
			c1,0,1.9-0.2,2.7-0.7c0.8-0.4,1.4-1.1,1.7-1.8c0.3-0.6,0.4-1.5,0.4-2.6V247.9z"/>
		<path class="st2" d="M952.2,240.2h12.6v2.2h-5v13.4h-2.6v-13.4h-5V240.2z"/>
		<path class="st2" d="M967.3,240.2h2.6v6.1h3.3c2.2,0,3.9,0.4,5,1.3c1.2,0.8,1.8,2,1.8,3.5c0,1.3-0.5,2.4-1.5,3.3
			c-1,0.9-2.6,1.4-4.7,1.4h-6.6V240.2z M970,253.6h2.8c1.7,0,2.9-0.2,3.6-0.6s1.1-1,1.1-1.9c0-0.7-0.3-1.3-0.8-1.8s-1.7-0.8-3.5-0.8
			H970V253.6z"/>
		<path class="st2" d="M991.4,240.2h4.1l4.1,12.5l4.5-12.5h3.8v15.6h-2.6v-12.5l-4.6,12.5h-2.4l-4.4-13.1v13.1h-2.6V240.2z"/>
		<path class="st2" d="M1012.2,261.7l-0.3-2.5c0.6,0.2,1.1,0.2,1.5,0.2c0.6,0,1.1-0.1,1.4-0.3s0.6-0.5,0.9-0.8
			c0.2-0.3,0.4-0.9,0.8-2c0-0.1,0.1-0.4,0.2-0.6l-5.9-15.6h2.8l3.2,9c0.4,1.1,0.8,2.3,1.1,3.6c0.3-1.2,0.7-2.4,1.1-3.5l3.3-9.1h2.6
			l-5.9,15.8c-0.6,1.7-1.1,2.9-1.5,3.5c-0.5,0.9-1,1.5-1.6,1.9s-1.3,0.6-2.2,0.6C1013.4,262.1,1012.8,262,1012.2,261.7z"/>
		<path class="st2" d="M1030.8,248.7v-2.1c1.1,0,1.9-0.1,2.3-0.1s0.8-0.3,1.2-0.7s0.5-0.9,0.5-1.5c0-0.7-0.2-1.3-0.7-1.7
			c-0.5-0.4-1.1-0.6-1.8-0.6c-1.5,0-2.5,0.9-3.1,2.6l-2.5-0.4c0.8-2.9,2.7-4.4,5.7-4.4c1.7,0,3,0.5,3.9,1.4s1.4,2,1.4,3.3
			c0,1.3-0.6,2.3-1.8,3c0.8,0.4,1.4,1,1.8,1.6c0.4,0.7,0.6,1.4,0.6,2.3c0,1.4-0.5,2.5-1.5,3.4s-2.4,1.3-4.3,1.3
			c-3.5,0-5.6-1.6-6.2-4.7l2.5-0.5c0.2,1,0.7,1.8,1.4,2.3s1.5,0.8,2.4,0.8s1.6-0.3,2.2-0.8c0.6-0.5,0.9-1.1,0.9-1.9
			c0-0.6-0.2-1.1-0.6-1.6s-0.8-0.7-1.2-0.8s-1.2-0.2-2.3-0.2C1031.3,248.7,1031.1,248.7,1030.8,248.7z"/>
		<path class="st2" d="M1041.1,240.2h2.6v6.1h3.3c2.2,0,3.9,0.4,5,1.3c1.2,0.8,1.8,2,1.8,3.5c0,1.3-0.5,2.4-1.5,3.3
			c-1,0.9-2.6,1.4-4.7,1.4h-6.6V240.2z M1043.8,253.6h2.8c1.7,0,2.9-0.2,3.6-0.6s1.1-1,1.1-1.9c0-0.7-0.3-1.3-0.8-1.8
			s-1.7-0.8-3.5-0.8h-3.1V253.6z M1055.9,240.2h2.6v15.6h-2.6V240.2z"/>
		<path class="st2" d="M1062.6,240.2h2.6v6.7c0.8,0,1.4-0.2,1.8-0.5s0.8-1.3,1.5-2.8c0.5-1.2,0.9-2,1.3-2.4s0.7-0.7,1.1-0.8
			s1.1-0.2,2-0.2h0.5v2.2l-0.7,0c-0.7,0-1.1,0.1-1.3,0.3c-0.2,0.2-0.5,0.9-0.9,1.9c-0.4,1-0.8,1.7-1.1,2.1s-0.8,0.7-1.5,1.1
			c1.1,0.3,2.2,1.4,3.3,3.2l2.9,4.8h-2.9l-2.8-4.8c-0.6-1-1.1-1.6-1.5-1.9c-0.4-0.3-0.9-0.5-1.5-0.5v7.2h-2.6V240.2z"/>
		<path class="st2" d="M1076,261.7l-0.3-2.5c0.6,0.2,1.1,0.2,1.5,0.2c0.6,0,1.1-0.1,1.4-0.3s0.6-0.5,0.9-0.8c0.2-0.3,0.4-0.9,0.8-2
			c0-0.1,0.1-0.4,0.2-0.6l-5.9-15.6h2.8l3.2,9c0.4,1.1,0.8,2.3,1.1,3.6c0.3-1.2,0.7-2.4,1.1-3.5l3.3-9.1h2.6l-5.9,15.8
			c-0.6,1.7-1.1,2.9-1.5,3.5c-0.5,0.9-1,1.5-1.6,1.9s-1.3,0.6-2.2,0.6C1077.2,262.1,1076.6,262,1076,261.7z"/>
		<path class="st2" d="M1099.4,240.2h2.6v11.9l7.3-11.9h2.8v15.6h-2.6V244l-7.3,11.8h-2.8V240.2z"/>
		<path class="st2" d="M1134.7,250.1l2.6,0.3c-0.3,1.8-1,3.2-2.2,4.2c-1.2,1-2.6,1.5-4.3,1.5c-2.1,0-3.8-0.7-5.1-2.1
			c-1.3-1.4-1.9-3.4-1.9-6c0-1.7,0.3-3.1,0.8-4.4s1.4-2.2,2.5-2.8c1.1-0.6,2.4-0.9,3.7-0.9c1.7,0,3.1,0.4,4.1,1.3
			c1.1,0.9,1.8,2.1,2.1,3.6l-2.6,0.4c-0.2-1-0.7-1.8-1.3-2.4s-1.4-0.8-2.2-0.8c-1.3,0-2.4,0.5-3.2,1.4c-0.8,1-1.2,2.5-1.2,4.5
			c0,2.1,0.4,3.6,1.2,4.6s1.8,1.4,3.1,1.4c1,0,1.9-0.3,2.6-1S1134.5,251.4,1134.7,250.1z"/>
		<path class="st2" d="M1150.2,250.7l2.7,0.3c-0.4,1.6-1.2,2.8-2.4,3.7s-2.6,1.3-4.5,1.3c-2.3,0-4.1-0.7-5.4-2.1s-2-3.4-2-5.9
			c0-2.6,0.7-4.6,2-6.1s3.1-2.2,5.2-2.2c2.1,0,3.8,0.7,5.1,2.1s2,3.4,2,6c0,0.2,0,0.4,0,0.7h-11.6c0.1,1.7,0.6,3,1.5,3.9
			s2,1.4,3.3,1.4c1,0,1.8-0.3,2.5-0.8S1149.8,251.9,1150.2,250.7z M1141.5,246.5h8.7c-0.1-1.3-0.4-2.3-1-2.9c-0.8-1-1.9-1.5-3.3-1.5
			c-1.2,0-2.2,0.4-3.1,1.2S1141.6,245.1,1141.5,246.5z"/>
		<path class="st2" d="M1167.3,233.8l2.3,0c-0.1,1-0.3,1.8-0.7,2.2s-0.8,0.7-1.4,0.8s-1.7,0.2-3.3,0.2c-2.2,0-3.7,0.2-4.5,0.6
			s-1.4,1.1-1.7,2c-0.3,0.9-0.5,2.1-0.6,3.6c0.7-1,1.4-1.7,2.3-2.2s1.9-0.7,3-0.7c2,0,3.7,0.7,5.1,2.1c1.3,1.4,2,3.3,2,5.7
			c0,1.8-0.3,3.3-1,4.5s-1.5,2.1-2.4,2.7s-2.2,1-3.8,1c-1.8,0-3.3-0.4-4.3-1.3c-1-0.8-1.8-1.9-2.4-3.2s-0.8-3.6-0.8-6.9
			c0-4.1,0.7-6.9,2.1-8.3s3.5-2.1,6.4-2.1c1.8,0,2.8,0,3.1-0.1S1167.2,234,1167.3,233.8z M1167.1,247.9c0-1.6-0.4-2.9-1.2-4
			s-1.8-1.6-3.2-1.6c-1.5,0-2.6,0.5-3.4,1.6s-1.2,2.6-1.2,4.4c0,1.8,0.4,3.2,1.3,4.1s2,1.4,3.2,1.4c1.3,0,2.4-0.6,3.2-1.7
			C1166.7,251.2,1167.1,249.7,1167.1,247.9z"/>
		<path class="st2" d="M1184.6,240.2v15.6h-2.6v-6.1h-1.5c-0.9,0-1.6,0.1-2.1,0.4s-1.1,1-2,2.3l-2.3,3.4h-3.3l2.8-4.2
			c0.9-1.3,1.7-2,2.6-2.2c-1.5-0.2-2.6-0.7-3.3-1.6s-1.1-1.9-1.1-3c0-1.3,0.5-2.4,1.4-3.3s2.3-1.3,4.1-1.3H1184.6z M1182,242.4h-3.8
			c-1.6,0-2.6,0.2-3,0.7s-0.7,1.1-0.7,1.7c0,0.9,0.3,1.6,1,2c0.7,0.4,1.9,0.7,3.6,0.7h2.9V242.4z"/>
		<path class="st2" d="M827.7,297.7v-21.5h5.6v2.3c0.8-1,1.5-1.6,2.1-2c0.9-0.5,1.8-0.7,2.9-0.7c2.1,0,3.7,0.8,4.8,2.4
			s1.7,3.6,1.7,5.9c0,2.6-0.6,4.6-1.9,5.9c-1.2,1.4-2.8,2-4.7,2c-0.9,0-1.8-0.2-2.5-0.5s-1.4-0.8-2-1.4v7.4H827.7z M833.6,284
			c0,1.2,0.3,2.1,0.8,2.7s1.2,0.9,2,0.9c0.7,0,1.3-0.3,1.7-0.9c0.5-0.6,0.7-1.5,0.7-2.9c0-1.3-0.2-2.2-0.7-2.8
			c-0.5-0.6-1.1-0.9-1.8-0.9c-0.8,0-1.4,0.3-1.9,0.9S833.6,282.7,833.6,284z"/>
		<path class="st2" d="M858,289.8c-1,0.8-1.9,1.4-2.8,1.8s-1.9,0.5-2.9,0.5c-1.7,0-3-0.4-3.9-1.3c-0.9-0.8-1.4-1.9-1.4-3.2
			c0-0.8,0.2-1.5,0.5-2.1c0.3-0.6,0.8-1.1,1.4-1.5s1.2-0.7,1.9-0.9c0.5-0.1,1.3-0.3,2.3-0.4c2.1-0.3,3.7-0.6,4.7-0.9
			c0-0.4,0-0.6,0-0.7c0-1.1-0.2-1.8-0.7-2.3c-0.7-0.6-1.7-0.9-3-0.9c-1.2,0-2.2,0.2-2.7,0.7c-0.6,0.4-1,1.2-1.3,2.3l-2.6-0.4
			c0.2-1.1,0.6-2,1.2-2.7s1.3-1.2,2.3-1.6c1-0.4,2.2-0.5,3.5-0.5c1.3,0,2.4,0.2,3.2,0.5s1.4,0.7,1.8,1.2s0.7,1.1,0.8,1.8
			c0.1,0.4,0.1,1.3,0.1,2.4v3.5c0,2.5,0.1,4,0.2,4.7s0.3,1.3,0.7,1.9h-2.8C858.2,291.2,858.1,290.6,858,289.8z M857.8,283.9
			c-1,0.4-2.4,0.7-4.3,1c-1.1,0.2-1.9,0.3-2.3,0.5s-0.8,0.5-1,0.9c-0.2,0.4-0.4,0.8-0.4,1.3c0,0.7,0.3,1.3,0.8,1.8s1.3,0.7,2.3,0.7
			c1,0,1.9-0.2,2.7-0.7c0.8-0.4,1.4-1.1,1.7-1.8c0.3-0.6,0.4-1.5,0.4-2.6V283.9z"/>
		<path class="st2" d="M867.6,284.7v-2.1c1.1,0,1.9-0.1,2.3-0.1s0.8-0.3,1.1-0.7s0.5-0.9,0.5-1.5c0-0.7-0.2-1.3-0.7-1.7
			c-0.5-0.4-1.1-0.6-1.8-0.6c-1.5,0-2.5,0.9-3.1,2.6l-2.5-0.4c0.8-2.9,2.7-4.4,5.7-4.4c1.7,0,3,0.5,3.9,1.4s1.4,2,1.4,3.3
			c0,1.3-0.6,2.3-1.8,3c0.8,0.4,1.4,1,1.8,1.6c0.4,0.7,0.6,1.4,0.6,2.3c0,1.4-0.5,2.5-1.5,3.4s-2.4,1.3-4.3,1.3
			c-3.5,0-5.6-1.6-6.2-4.7l2.5-0.5c0.2,1,0.7,1.8,1.4,2.3s1.5,0.8,2.4,0.8s1.6-0.3,2.2-0.8c0.6-0.5,0.9-1.1,0.9-1.9
			c0-0.6-0.2-1.1-0.6-1.6s-0.8-0.7-1.2-0.8s-1.2-0.2-2.3-0.2C868.1,284.7,867.9,284.7,867.6,284.7z"/>
		<path class="st2" d="M877.9,276.2h6.1c1.5,0,2.6,0.1,3.3,0.4c0.7,0.3,1.4,0.7,1.9,1.4s0.8,1.5,0.8,2.4c0,0.7-0.2,1.4-0.5,1.9
			s-0.8,1-1.4,1.4c0.7,0.2,1.3,0.7,1.8,1.4s0.7,1.5,0.7,2.4c-0.1,1.5-0.6,2.6-1.6,3.3s-2.3,1.1-4.2,1.1h-7V276.2z M880.6,282.7h2.8
			c1.1,0,1.9-0.1,2.3-0.2s0.8-0.4,1.1-0.7s0.5-0.8,0.5-1.3c0-0.8-0.3-1.4-0.9-1.7s-1.6-0.5-3-0.5h-2.9V282.7z M880.6,289.6h3.5
			c1.5,0,2.5-0.2,3.1-0.5s0.8-0.9,0.9-1.8c0-0.5-0.2-1-0.5-1.4c-0.3-0.4-0.7-0.7-1.3-0.8s-1.3-0.2-2.5-0.2h-3.2V289.6z"/>
		<path class="st2" d="M893.9,276.2h2.6v11.9l7.3-11.9h2.8v15.6H904V280l-7.3,11.8h-2.8V276.2z"/>
		<path class="st2" d="M910.6,276.2h6.1c1.5,0,2.6,0.1,3.3,0.4c0.7,0.3,1.4,0.7,1.9,1.4s0.8,1.5,0.8,2.4c0,0.7-0.2,1.4-0.5,1.9
			s-0.8,1-1.4,1.4c0.7,0.2,1.3,0.7,1.8,1.4s0.7,1.5,0.7,2.4c-0.1,1.5-0.6,2.6-1.6,3.3s-2.3,1.1-4.2,1.1h-7V276.2z M913.3,282.7h2.8
			c1.1,0,1.9-0.1,2.3-0.2s0.8-0.4,1.1-0.7s0.5-0.8,0.5-1.3c0-0.8-0.3-1.4-0.9-1.7s-1.6-0.5-3-0.5h-2.9V282.7z M913.3,289.6h3.5
			c1.5,0,2.5-0.2,3.1-0.5s0.8-0.9,0.9-1.8c0-0.5-0.2-1-0.5-1.4c-0.3-0.4-0.7-0.7-1.3-0.8s-1.3-0.2-2.5-0.2h-3.2V289.6z"/>
		<path class="st2" d="M936.4,289.8c-1,0.8-1.9,1.4-2.8,1.8s-1.9,0.5-2.9,0.5c-1.7,0-3-0.4-3.9-1.3c-0.9-0.8-1.4-1.9-1.4-3.2
			c0-0.8,0.2-1.5,0.5-2.1c0.3-0.6,0.8-1.1,1.4-1.5s1.2-0.7,1.9-0.9c0.5-0.1,1.3-0.3,2.3-0.4c2.1-0.3,3.7-0.6,4.7-0.9
			c0-0.4,0-0.6,0-0.7c0-1.1-0.2-1.8-0.7-2.3c-0.7-0.6-1.7-0.9-3-0.9c-1.2,0-2.2,0.2-2.7,0.7c-0.6,0.4-1,1.2-1.3,2.3l-2.6-0.4
			c0.2-1.1,0.6-2,1.2-2.7s1.3-1.2,2.3-1.6c1-0.4,2.2-0.5,3.5-0.5c1.3,0,2.4,0.2,3.2,0.5s1.4,0.7,1.8,1.2s0.7,1.1,0.8,1.8
			c0.1,0.4,0.1,1.3,0.1,2.4v3.5c0,2.5,0.1,4,0.2,4.7s0.3,1.3,0.7,1.9h-2.8C936.6,291.2,936.5,290.6,936.4,289.8z M936.2,283.9
			c-1,0.4-2.4,0.7-4.3,1c-1.1,0.2-1.9,0.3-2.3,0.5s-0.8,0.5-1,0.9c-0.2,0.4-0.4,0.8-0.4,1.3c0,0.7,0.3,1.3,0.8,1.8s1.3,0.7,2.3,0.7
			c1,0,1.9-0.2,2.7-0.7c0.8-0.4,1.4-1.1,1.7-1.8c0.3-0.6,0.4-1.5,0.4-2.6V283.9z"/>
		<path class="st2" d="M953.6,286.7l2.7,0.3c-0.4,1.6-1.2,2.8-2.4,3.7s-2.6,1.3-4.5,1.3c-2.3,0-4.1-0.7-5.4-2.1s-2-3.4-2-5.9
			c0-2.6,0.7-4.6,2-6.1s3.1-2.2,5.2-2.2c2.1,0,3.8,0.7,5.1,2.1s2,3.4,2,6c0,0.2,0,0.4,0,0.7h-11.6c0.1,1.7,0.6,3,1.5,3.9
			s2,1.4,3.3,1.4c1,0,1.8-0.3,2.5-0.8S953.2,287.9,953.6,286.7z M944.9,282.5h8.7c-0.1-1.3-0.4-2.3-1-2.9c-0.8-1-1.9-1.5-3.3-1.5
			c-1.2,0-2.2,0.4-3.1,1.2S945,281.1,944.9,282.5z"/>
		<path class="st2" d="M959.7,276.2h4.1l4.1,12.5l4.5-12.5h3.8v15.6h-2.6v-12.5l-4.6,12.5h-2.4l-4.4-13.1v13.1h-2.6V276.2z"/>
		<path class="st2" d="M987.6,276.2h2.6v2.9c0,1.3,0.1,2.2,0.2,2.8c0.2,0.6,0.5,1.1,1.1,1.5c0.6,0.4,1.3,0.6,2.2,0.6
			c1,0,2.3-0.3,3.9-0.8v-7h2.6v15.6h-2.6v-6.3c-1.6,0.5-3.1,0.8-4.5,0.8c-1.2,0-2.2-0.3-3.1-0.9c-0.9-0.6-1.5-1.3-1.8-2.2
			s-0.5-1.8-0.5-2.9V276.2z"/>
		<path class="st2" d="M1004.1,297.7l-0.3-2.5c0.6,0.2,1.1,0.2,1.5,0.2c0.6,0,1.1-0.1,1.4-0.3s0.6-0.5,0.9-0.8
			c0.2-0.3,0.4-0.9,0.8-2c0-0.1,0.1-0.4,0.2-0.6l-5.9-15.6h2.8l3.2,9c0.4,1.1,0.8,2.3,1.1,3.6c0.3-1.2,0.7-2.4,1.1-3.5l3.3-9.1h2.6
			L1011,292c-0.6,1.7-1.1,2.9-1.5,3.5c-0.5,0.9-1,1.5-1.6,1.9s-1.3,0.6-2.2,0.6C1005.3,298.1,1004.7,298,1004.1,297.7z"/>
		<path class="st2" d="M1019.2,276.2h6.1c1.5,0,2.6,0.1,3.3,0.4c0.7,0.3,1.4,0.7,1.9,1.4s0.8,1.5,0.8,2.4c0,0.7-0.2,1.4-0.5,1.9
			s-0.8,1-1.4,1.4c0.7,0.2,1.3,0.7,1.8,1.4s0.7,1.5,0.7,2.4c-0.1,1.5-0.6,2.6-1.6,3.3s-2.3,1.1-4.2,1.1h-7V276.2z M1021.8,282.7h2.8
			c1.1,0,1.9-0.1,2.3-0.2s0.8-0.4,1.1-0.7s0.5-0.8,0.5-1.3c0-0.8-0.3-1.4-0.9-1.7s-1.6-0.5-3-0.5h-2.9V282.7z M1021.8,289.6h3.5
			c1.5,0,2.5-0.2,3.1-0.5s0.8-0.9,0.9-1.8c0-0.5-0.2-1-0.5-1.4c-0.3-0.4-0.7-0.7-1.3-0.8s-1.3-0.2-2.5-0.2h-3.2V289.6z"/>
		<path class="st2" d="M1044.9,286.1l2.6,0.3c-0.3,1.8-1,3.2-2.2,4.2c-1.2,1-2.6,1.5-4.3,1.5c-2.1,0-3.8-0.7-5.1-2.1
			c-1.3-1.4-1.9-3.4-1.9-6c0-1.7,0.3-3.1,0.8-4.4s1.4-2.2,2.5-2.8c1.1-0.6,2.4-0.9,3.7-0.9c1.7,0,3.1,0.4,4.1,1.3
			c1.1,0.9,1.8,2.1,2.1,3.6l-2.6,0.4c-0.2-1-0.7-1.8-1.3-2.4s-1.4-0.8-2.2-0.8c-1.3,0-2.4,0.5-3.2,1.4c-0.8,1-1.2,2.5-1.2,4.5
			c0,2.1,0.4,3.6,1.2,4.6s1.8,1.4,3.1,1.4c1,0,1.9-0.3,2.6-1S1044.7,287.4,1044.9,286.1z"/>
		<path class="st2" d="M1048.4,276.2h12.6v2.2h-5v13.4h-2.6v-13.4h-5V276.2z"/>
		<path class="st2" d="M1063.5,276.2h6.1c1.5,0,2.6,0.1,3.3,0.4c0.7,0.3,1.4,0.7,1.9,1.4s0.8,1.5,0.8,2.4c0,0.7-0.2,1.4-0.5,1.9
			s-0.8,1-1.4,1.4c0.7,0.2,1.3,0.7,1.8,1.4s0.7,1.5,0.7,2.4c-0.1,1.5-0.6,2.6-1.6,3.3s-2.3,1.1-4.2,1.1h-7V276.2z M1066.2,282.7h2.8
			c1.1,0,1.9-0.1,2.3-0.2s0.8-0.4,1.1-0.7s0.5-0.8,0.5-1.3c0-0.8-0.3-1.4-0.9-1.7s-1.6-0.5-3-0.5h-2.9V282.7z M1066.2,289.6h3.5
			c1.5,0,2.5-0.2,3.1-0.5s0.8-0.9,0.9-1.8c0-0.5-0.2-1-0.5-1.4c-0.3-0.4-0.7-0.7-1.3-0.8s-1.3-0.2-2.5-0.2h-3.2V289.6z"/>
		<path class="st2" d="M1078.1,284c0-2.9,0.8-5,2.4-6.4c1.3-1.2,3-1.7,4.9-1.7c2.1,0,3.9,0.7,5.2,2.1c1.4,1.4,2,3.3,2,5.8
			c0,2-0.3,3.6-0.9,4.7s-1.5,2-2.6,2.7s-2.4,1-3.8,1c-2.2,0-3.9-0.7-5.3-2.1S1078.1,286.6,1078.1,284z M1080.9,284
			c0,2,0.4,3.5,1.3,4.5s2,1.5,3.3,1.5c1.3,0,2.4-0.5,3.3-1.5s1.3-2.5,1.3-4.6c0-1.9-0.4-3.4-1.3-4.4s-2-1.5-3.3-1.5
			c-1.3,0-2.4,0.5-3.3,1.5S1080.9,282,1080.9,284z"/>
		<path class="st2" d="M1104.1,297.7v-21.5h2.4v2c0.6-0.8,1.2-1.4,1.9-1.8c0.7-0.4,1.6-0.6,2.6-0.6c1.3,0,2.5,0.3,3.5,1
			s1.8,1.6,2.3,2.9c0.5,1.2,0.8,2.6,0.8,4.1c0,1.6-0.3,3-0.9,4.3c-0.6,1.3-1.4,2.3-2.5,2.9c-1.1,0.7-2.2,1-3.4,1
			c-0.9,0-1.7-0.2-2.4-0.6s-1.3-0.8-1.7-1.4v7.6H1104.1z M1106.5,284.1c0,2,0.4,3.5,1.2,4.4s1.8,1.4,2.9,1.4c1.2,0,2.2-0.5,3-1.5
			s1.3-2.5,1.3-4.6c0-2-0.4-3.5-1.2-4.5s-1.8-1.5-2.9-1.5c-1.1,0-2.1,0.5-3,1.6S1106.5,282.1,1106.5,284.1z"/>
		<path class="st2" d="M1120.8,276.2h2.6v11.9l7.3-11.9h2.8v15.6h-2.6V280l-7.3,11.8h-2.8V276.2z"/>
		<path class="st2" d="M1136.2,276.2h12.6v2.2h-5v13.4h-2.6v-13.4h-5V276.2z"/>
		<path class="st2" d="M1151.4,276.2h4.1l4.1,12.5l4.5-12.5h3.8v15.6h-2.6v-12.5l-4.6,12.5h-2.4l-4.3-13.1v13.1h-2.6V276.2z"/>
		<path class="st2" d="M1182.1,289.8c-1,0.8-1.9,1.4-2.8,1.8s-1.9,0.5-2.9,0.5c-1.7,0-3-0.4-3.9-1.3c-0.9-0.8-1.4-1.9-1.4-3.2
			c0-0.8,0.2-1.5,0.5-2.1c0.3-0.6,0.8-1.1,1.4-1.5s1.2-0.7,1.9-0.9c0.5-0.1,1.3-0.3,2.3-0.4c2.1-0.3,3.7-0.6,4.7-0.9
			c0-0.4,0-0.6,0-0.7c0-1.1-0.3-1.8-0.7-2.3c-0.7-0.6-1.7-0.9-3-0.9c-1.2,0-2.2,0.2-2.7,0.7c-0.6,0.4-1,1.2-1.3,2.3l-2.6-0.4
			c0.2-1.1,0.6-2,1.2-2.7s1.3-1.2,2.3-1.6c1-0.4,2.2-0.5,3.5-0.5c1.3,0,2.4,0.2,3.2,0.5s1.4,0.7,1.8,1.2s0.7,1.1,0.8,1.8
			c0.1,0.4,0.1,1.3,0.1,2.4v3.5c0,2.5,0.1,4,0.2,4.7s0.3,1.3,0.7,1.9h-2.8C1182.4,291.2,1182.2,290.6,1182.1,289.8z M1181.9,283.9
			c-1,0.4-2.4,0.7-4.3,1c-1.1,0.2-1.8,0.3-2.3,0.5s-0.8,0.5-1,0.9c-0.2,0.4-0.4,0.8-0.4,1.3c0,0.7,0.3,1.3,0.8,1.8s1.3,0.7,2.3,0.7
			c1,0,1.9-0.2,2.7-0.7c0.8-0.4,1.4-1.1,1.7-1.8c0.3-0.6,0.4-1.5,0.4-2.6V283.9z"/>
		<path class="st2" d="M953.9,327.8h-6v-5.9h-5.4v5.9h-6v-15.6h6v5.3h5.4v-5.3h6V327.8z"/>
		<path class="st2" d="M968.5,322.7l2.7,0.3c-0.4,1.6-1.2,2.8-2.4,3.7s-2.6,1.3-4.5,1.3c-2.3,0-4.1-0.7-5.4-2.1s-2-3.4-2-5.9
			c0-2.6,0.7-4.6,2-6.1s3.1-2.2,5.2-2.2c2.1,0,3.8,0.7,5.1,2.1s2,3.4,2,6c0,0.2,0,0.4,0,0.7h-11.6c0.1,1.7,0.6,3,1.4,3.9
			s2,1.4,3.3,1.4c1,0,1.8-0.3,2.5-0.8S968.1,323.9,968.5,322.7z M959.9,318.5h8.7c-0.1-1.3-0.4-2.3-1-2.9c-0.8-1-1.9-1.5-3.3-1.5
			c-1.2,0-2.2,0.4-3.1,1.2S960,317.1,959.9,318.5z"/>
		<path class="st2" d="M994.3,305.8l2.3,0c-0.1,1-0.3,1.8-0.7,2.2s-0.8,0.7-1.4,0.8s-1.7,0.2-3.3,0.2c-2.2,0-3.7,0.2-4.5,0.6
			s-1.4,1.1-1.7,2c-0.3,0.9-0.5,2.1-0.6,3.6c0.7-1,1.4-1.7,2.3-2.2s1.9-0.7,3-0.7c2,0,3.7,0.7,5.1,2.1c1.3,1.4,2,3.3,2,5.7
			c0,1.8-0.3,3.3-1,4.5s-1.5,2.1-2.4,2.7s-2.2,1-3.8,1c-1.8,0-3.3-0.4-4.3-1.3c-1-0.8-1.8-1.9-2.4-3.2s-0.8-3.6-0.8-6.9
			c0-4.1,0.7-6.9,2.1-8.3s3.5-2.1,6.4-2.1c1.8,0,2.8,0,3.1-0.1S994.2,306,994.3,305.8z M994.2,319.9c0-1.6-0.4-2.9-1.1-4
			s-1.8-1.6-3.2-1.6c-1.5,0-2.6,0.5-3.4,1.6s-1.2,2.6-1.2,4.4c0,1.8,0.4,3.2,1.3,4.1s2,1.4,3.2,1.4c1.3,0,2.4-0.6,3.2-1.7
			C993.8,323.2,994.2,321.7,994.2,319.9z"/>
		<path class="st2" d="M999.1,320c0-2.9,0.8-5,2.4-6.4c1.3-1.2,3-1.7,4.9-1.7c2.1,0,3.9,0.7,5.2,2.1c1.4,1.4,2,3.3,2,5.8
			c0,2-0.3,3.6-0.9,4.7s-1.5,2-2.6,2.7s-2.4,1-3.8,1c-2.2,0-3.9-0.7-5.3-2.1S999.1,322.6,999.1,320z M1001.8,320
			c0,2,0.4,3.5,1.3,4.5s2,1.5,3.3,1.5c1.3,0,2.4-0.5,3.3-1.5s1.3-2.5,1.3-4.6c0-1.9-0.4-3.4-1.3-4.4s-2-1.5-3.3-1.5
			c-1.3,0-2.4,0.5-3.3,1.5S1001.8,318,1001.8,320z"/>
		<path class="st2" d="M1029,312.2v15.6h-2.6v-6.1h-1.5c-0.9,0-1.6,0.1-2.1,0.4s-1.1,1-2,2.3l-2.3,3.4h-3.3l2.8-4.2
			c0.9-1.3,1.7-2,2.6-2.2c-1.5-0.2-2.6-0.7-3.3-1.6s-1.1-1.9-1.1-3c0-1.3,0.5-2.4,1.4-3.3s2.3-1.3,4.1-1.3H1029z M1026.4,314.4h-3.8
			c-1.6,0-2.6,0.2-3,0.7s-0.7,1.1-0.7,1.7c0,0.9,0.3,1.6,1,2c0.7,0.4,1.9,0.7,3.6,0.7h2.9V314.4z"/>
		<path class="st2" d="M1031.6,312.2h12.6v2.2h-5v13.4h-2.6v-13.4h-5V312.2z"/>
		<path class="st2" d="M1046.7,312.2h2.6v6.1h3.3c2.2,0,3.9,0.4,5,1.3c1.2,0.8,1.8,2,1.8,3.5c0,1.3-0.5,2.4-1.5,3.3
			c-1,0.9-2.6,1.4-4.7,1.4h-6.6V312.2z M1049.4,325.6h2.8c1.7,0,2.9-0.2,3.6-0.6s1.1-1,1.1-1.9c0-0.7-0.3-1.3-0.8-1.8
			s-1.7-0.8-3.5-0.8h-3.1V325.6z"/>
		<path class="st2" d="M1072.5,322.1l2.6,0.3c-0.3,1.8-1,3.2-2.2,4.2c-1.2,1-2.6,1.5-4.3,1.5c-2.1,0-3.8-0.7-5.1-2.1
			c-1.3-1.4-1.9-3.4-1.9-6c0-1.7,0.3-3.1,0.8-4.4s1.4-2.2,2.5-2.8c1.1-0.6,2.4-0.9,3.7-0.9c1.7,0,3.1,0.4,4.1,1.3
			c1.1,0.9,1.8,2.1,2.1,3.6l-2.6,0.4c-0.2-1-0.7-1.8-1.3-2.4s-1.4-0.8-2.2-0.8c-1.3,0-2.4,0.5-3.2,1.4c-0.8,1-1.2,2.5-1.2,4.5
			c0,2.1,0.4,3.6,1.2,4.6s1.8,1.4,3.1,1.4c1,0,1.9-0.3,2.6-1S1072.4,323.4,1072.5,322.1z"/>
		<path class="st2" d="M1089.6,312.2v15.6h-2.6v-6.1h-1.5c-0.9,0-1.6,0.1-2.1,0.4s-1.1,1-2,2.3l-2.3,3.4h-3.3l2.8-4.2
			c0.9-1.3,1.7-2,2.6-2.2c-1.5-0.2-2.6-0.7-3.3-1.6s-1.1-1.9-1.1-3c0-1.3,0.5-2.4,1.4-3.3s2.3-1.3,4.1-1.3H1089.6z M1087,314.4h-3.8
			c-1.6,0-2.6,0.2-3,0.7s-0.7,1.1-0.7,1.7c0,0.9,0.3,1.6,1,2c0.7,0.4,1.9,0.7,3.6,0.7h2.9V314.4z"/>
		<path class="st2" d="M1112.1,322.1l2.6,0.3c-0.3,1.8-1,3.2-2.2,4.2c-1.2,1-2.6,1.5-4.3,1.5c-2.1,0-3.8-0.7-5.1-2.1
			c-1.3-1.4-1.9-3.4-1.9-6c0-1.7,0.3-3.1,0.8-4.4s1.4-2.2,2.5-2.8c1.1-0.6,2.4-0.9,3.7-0.9c1.7,0,3.1,0.4,4.1,1.3
			c1.1,0.9,1.8,2.1,2.1,3.6l-2.6,0.4c-0.2-1-0.7-1.8-1.3-2.4s-1.4-0.8-2.2-0.8c-1.3,0-2.4,0.5-3.2,1.4c-0.8,1-1.2,2.5-1.2,4.5
			c0,2.1,0.4,3.6,1.2,4.6s1.8,1.4,3.1,1.4c1,0,1.9-0.3,2.6-1S1111.9,323.4,1112.1,322.1z"/>
		<path class="st2" d="M1117,312.2h2.6v13.4h7.3v-13.4h2.6v13.4h1.7v6.6h-2.2v-4.4H1117V312.2z"/>
		<path class="st2" d="M1144.5,322.7l2.7,0.3c-0.4,1.6-1.2,2.8-2.4,3.7s-2.6,1.3-4.5,1.3c-2.3,0-4.1-0.7-5.4-2.1s-2-3.4-2-5.9
			c0-2.6,0.7-4.6,2-6.1s3.1-2.2,5.2-2.2c2.1,0,3.8,0.7,5.1,2.1s2,3.4,2,6c0,0.2,0,0.4,0,0.7h-11.6c0.1,1.7,0.6,3,1.4,3.9
			s2,1.4,3.3,1.4c1,0,1.8-0.3,2.5-0.8S1144.1,323.9,1144.5,322.7z M1135.8,318.5h8.7c-0.1-1.3-0.4-2.3-1-2.9c-0.8-1-1.9-1.5-3.3-1.5
			c-1.2,0-2.2,0.4-3.1,1.2S1135.9,317.1,1135.8,318.5z"/>
		<path class="st2" d="M1150.5,312.2h2.6v6.5h7.3v-6.5h2.6v15.6h-2.6v-6.9h-7.3v6.9h-2.6V312.2z"/>
		<path class="st2" d="M1167.1,312.2h2.6v6.1h3.3c2.2,0,3.9,0.4,5,1.3c1.2,0.8,1.8,2,1.8,3.5c0,1.3-0.5,2.4-1.5,3.3
			c-1,0.9-2.6,1.4-4.7,1.4h-6.6V312.2z M1169.8,325.6h2.8c1.7,0,2.9-0.2,3.6-0.6s1.1-1,1.1-1.9c0-0.7-0.3-1.3-0.8-1.8
			s-1.7-0.8-3.5-0.8h-3.1V325.6z M1181.9,312.2h2.6v15.6h-2.6V312.2z"/>
	</g>
	<g>
		<path class="st2" d="M460.1,44.8h-6.6v-8c-2,1.1-4,1.7-5.8,1.7c-2.2,0-4-0.6-5.4-1.9s-2.1-3.1-2.1-5.3v-7.9h6.6v6.6
			c0,1,0.2,1.9,0.7,2.4s1.2,0.8,2.2,0.8c1.7,0,3-0.5,3.8-1.6v-8.3h6.6V44.8z"/>
		<path class="st2" d="M464.5,23.3h17.8v4.6h-11.1v3.4h10.3v4.4h-10.3v4.2h11.5v4.9h-18.1V23.3z"/>
		<path class="st2" d="M486.1,23.3h8.7l3.4,13.1l3.3-13.1h8.7v21.5h-5.4V28.4l-4.2,16.4h-4.9l-4.2-16.4v16.4h-5.4V23.3z"/>
		<path class="st2" d="M512.5,23.3h7.2l3,8.8l2.9-8.8h6.8l-7.1,16.6c-0.6,1.3-1.1,2.3-1.5,3c-0.4,0.7-1.1,1.2-1.9,1.6
			c-0.8,0.4-2,0.6-3.5,0.6c-0.8,0-2.1-0.1-4-0.3v-4.4c1.1,0.1,1.9,0.2,2.5,0.2c1.5,0,2.5-0.6,2.8-1.7L512.5,23.3z"/>
		<path class="st2" d="M544.6,23.3h8.7l3.4,13.1l3.3-13.1h8.7v21.5h-5.4V28.4l-4.2,16.4h-4.9L550,28.4v16.4h-5.4V23.3z"/>
		<path class="st2" d="M579.6,31.6h3.5c3.3,0,5.7,0.6,7.2,1.7s2.4,2.9,2.4,5.4c0,2-0.7,3.5-2.2,4.5s-3.5,1.6-6.2,1.6H573V23.3h6.6
			V31.6z M579.6,40.1h3.4c2.1,0,3.1-0.8,3.1-2.3c0-1.3-1-2-3.1-2h-3.4V40.1z M594.4,23.3h6.7v21.5h-6.7V23.3z"/>
		<path class="st2" d="M613.4,23.3h7.2l3,8.8l2.9-8.8h6.8l-7.1,16.6c-0.6,1.3-1.1,2.3-1.5,3s-1.1,1.2-1.9,1.6
			c-0.8,0.4-2,0.6-3.5,0.6c-0.8,0-2.1-0.1-4-0.3v-4.4c1.1,0.1,1.9,0.2,2.5,0.2c1.5,0,2.5-0.6,2.8-1.7L613.4,23.3z"/>
		<path class="st2" d="M655.3,44.8h-6.6v-8c-2,1.1-4,1.7-5.8,1.7c-2.2,0-4-0.6-5.4-1.9s-2.1-3.1-2.1-5.3v-7.9h6.6v6.6
			c0,1,0.2,1.9,0.7,2.4s1.2,0.8,2.2,0.8c1.7,0,3-0.5,3.8-1.6v-8.3h6.6V44.8z"/>
		<path class="st2" d="M680.3,23.3v21.5H674V33l-8,11.8h-6.3V23.3h6.3v11.9l8.1-11.9H680.3z"/>
		<path class="st2" d="M684.6,23.3h8.7l3.4,13.1l3.3-13.1h8.7v21.5h-5.4V28.4l-4.2,16.4h-4.9l-4.2-16.4v16.4h-5.4V23.3z"/>
		<path class="st2" d="M712.7,29.2h6.4v6h-6.4V29.2z M712.7,38.8h6.4v6h-6.4V38.8z"/>
	</g>
</g>
<g id="Layer_4">
</g>
<g id="Layer_3">
</g>
</svg>
